<svg width="324" height="24" viewBox="0 0 324 24" fill="none" xmlns="http://www.w3.org/2000/svg">
<path d="M0 10C-1.10457 10 -2 10.8954 -2 12C-2 13.1046 -1.10457 14 0 14V12V10ZM323.547 12L312 0.452995L300.453 12L312 23.547L323.547 12ZM0.495238 14C1.59981 14 2.49524 13.1046 2.49524 12C2.49524 10.8954 1.59981 10 0.495238 10V12V14ZM20.3048 10C19.2002 10 18.3048 10.8954 18.3048 12C18.3048 13.1046 19.2002 14 20.3048 14V12V10ZM21.2952 14C22.3998 14 23.2952 13.1046 23.2952 12C23.2952 10.8954 22.3998 10 21.2952 10V12V14ZM41.1048 10C40.0002 10 39.1048 10.8954 39.1048 12C39.1048 13.1046 40.0002 14 41.1048 14V12V10ZM42.0952 14C43.1998 14 44.0952 13.1046 44.0952 12C44.0952 10.8954 43.1998 10 42.0952 10V12V14ZM61.9048 10C60.8002 10 59.9048 10.8954 59.9048 12C59.9048 13.1046 60.8002 14 61.9048 14V12V10ZM62.8952 14C63.9998 14 64.8952 13.1046 64.8952 12C64.8952 10.8954 63.9998 10 62.8952 10V12V14ZM82.7048 10C81.6002 10 80.7048 10.8954 80.7048 12C80.7048 13.1046 81.6002 14 82.7048 14V12V10ZM83.6952 14C84.7998 14 85.6952 13.1046 85.6952 12C85.6952 10.8954 84.7998 10 83.6952 10V12V14ZM103.505 10C102.4 10 101.505 10.8954 101.505 12C101.505 13.1046 102.4 14 103.505 14V12V10ZM104.495 14C105.6 14 106.495 13.1046 106.495 12C106.495 10.8954 105.6 10 104.495 10V12V14ZM124.305 10C123.2 10 122.305 10.8954 122.305 12C122.305 13.1046 123.2 14 124.305 14V12V10ZM125.295 14C126.4 14 127.295 13.1046 127.295 12C127.295 10.8954 126.4 10 125.295 10V12V14ZM145.105 10C144 10 143.105 10.8954 143.105 12C143.105 13.1046 144 14 145.105 14V12V10ZM146.095 14C147.2 14 148.095 13.1046 148.095 12C148.095 10.8954 147.2 10 146.095 10V12V14ZM165.905 10C164.8 10 163.905 10.8954 163.905 12C163.905 13.1046 164.8 14 165.905 14V12V10ZM166.895 14C168 14 168.895 13.1046 168.895 12C168.895 10.8954 168 10 166.895 10V12V14ZM186.705 10C185.6 10 184.705 10.8954 184.705 12C184.705 13.1046 185.6 14 186.705 14V12V10ZM187.695 14C188.8 14 189.695 13.1046 189.695 12C189.695 10.8954 188.8 10 187.695 10V12V14ZM207.505 10C206.4 10 205.505 10.8954 205.505 12C205.505 13.1046 206.4 14 207.505 14V12V10ZM208.495 14C209.6 14 210.495 13.1046 210.495 12C210.495 10.8954 209.6 10 208.495 10V12V14ZM228.305 10C227.2 10 226.305 10.8954 226.305 12C226.305 13.1046 227.2 14 228.305 14V12V10ZM229.295 14C230.4 14 231.295 13.1046 231.295 12C231.295 10.8954 230.4 10 229.295 10V12V14ZM249.105 10C248 10 247.105 10.8954 247.105 12C247.105 13.1046 248 14 249.105 14V12V10ZM250.095 14C251.2 14 252.095 13.1046 252.095 12C252.095 10.8954 251.2 10 250.095 10V12V14ZM269.905 10C268.8 10 267.905 10.8954 267.905 12C267.905 13.1046 268.8 14 269.905 14V12V10ZM270.895 14C272 14 272.895 13.1046 272.895 12C272.895 10.8954 272 10 270.895 10V12V14ZM290.705 10C289.6 10 288.705 10.8954 288.705 12C288.705 13.1046 289.6 14 290.705 14V12V10ZM291.695 14C292.8 14 293.695 13.1046 293.695 12C293.695 10.8954 292.8 10 291.695 10V12V14ZM311.505 10C310.4 10 309.505 10.8954 309.505 12C309.505 13.1046 310.4 14 311.505 14V12V10ZM0 12V14H0.495238V12V10H0V12ZM20.3048 12V14H21.2952V12V10H20.3048V12ZM41.1048 12V14H42.0952V12V10H41.1048V12ZM61.9048 12V14H62.8952V12V10H61.9048V12ZM82.7048 12V14H83.6952V12V10H82.7048V12ZM103.505 12V14H104.495V12V10H103.505V12ZM124.305 12V14H125.295V12V10H124.305V12ZM145.105 12V14H146.095V12V10H145.105V12ZM165.905 12V14H166.895V12V10H165.905V12ZM186.705 12V14H187.695V12V10H186.705V12ZM207.505 12V14H208.495V12V10H207.505V12ZM228.305 12V14H229.295V12V10H228.305V12ZM249.105 12V14H250.095V12V10H249.105V12ZM269.905 12V14H270.895V12V10H269.905V12ZM290.705 12V14H291.695V12V10H290.705V12ZM311.505 12V14H312V12V10H311.505V12Z" fill="url(#paint0_linear_29400_5526)"/>
<defs>
<linearGradient id="paint0_linear_29400_5526" x1="0" y1="12.5" x2="312" y2="12.5" gradientUnits="userSpaceOnUse">
<stop stop-color="#1EDFAD" stop-opacity="0"/>
<stop offset="1" stop-color="#1EDFAD"/>
</linearGradient>
</defs>
</svg>
