<?xml version="1.0" encoding="UTF-8"?>
<svg id="_圖層_1" data-name="圖層_1" xmlns="http://www.w3.org/2000/svg" version="1.1" xmlns:xlink="http://www.w3.org/1999/xlink" viewBox="0 0 32 32">
  <!-- Generator: Adobe Illustrator 30.0.0, SVG Export Plug-In . SVG Version: 2.1.1 Build 123)  -->
  <defs>
    <style>
      .st0 {
        stroke: url(#_未命名漸層_33);
      }

      .st0, .st1, .st2, .st3, .st4 {
        fill: none;
        stroke-linecap: round;
        stroke-linejoin: round;
        stroke-width: 2px;
      }

      .st1 {
        stroke: url(#_未命名漸層_34);
      }

      .st2 {
        stroke: url(#_未命名漸層_31);
      }

      .st3 {
        stroke: url(#_未命名漸層_3);
      }

      .st4 {
        stroke: url(#_未命名漸層_32);
      }
    </style>
    <linearGradient id="_未命名漸層_3" data-name="未命名漸層 3" x1="4.33" y1="16" x2="27.67" y2="16" gradientUnits="userSpaceOnUse">
      <stop offset="0" stop-color="#1edfad"/>
      <stop offset=".5" stop-color="#11a7ed"/>
      <stop offset="1" stop-color="#9738f5"/>
    </linearGradient>
    <linearGradient id="_未命名漸層_31" data-name="未命名漸層 3" x1="17.67" y1="6.67" x2="27.67" y2="6.67" xlink:href="#_未命名漸層_3"/>
    <linearGradient id="_未命名漸層_32" data-name="未命名漸層 3" x1="9.67" y1="17.33" x2="22.33" y2="17.33" xlink:href="#_未命名漸層_3"/>
    <linearGradient id="_未命名漸層_33" data-name="未命名漸層 3" x1="9.67" y1="22.67" x2="22.33" y2="22.67" xlink:href="#_未命名漸層_3"/>
    <linearGradient id="_未命名漸層_34" data-name="未命名漸層 3" x1="9.67" y1="12" x2="14.33" y2="12" xlink:href="#_未命名漸層_3"/>
  </defs>
  <path class="st3" d="M18.67,2.67H8c-.71,0-1.39.28-1.89.78-.5.5-.78,1.18-.78,1.89v21.33c0,.71.28,1.39.78,1.89.5.5,1.18.78,1.89.78h16c.71,0,1.39-.28,1.89-.78s.78-1.18.78-1.89v-16l-8-8Z"/>
  <path class="st2" d="M18.67,2.67v8h8"/>
  <path class="st4" d="M21.33,17.33h-10.67"/>
  <path class="st0" d="M21.33,22.67h-10.67"/>
  <path class="st1" d="M13.33,12h-2.67"/>
</svg>