<?xml version="1.0" encoding="UTF-8"?>
<svg id="_圖層_1" data-name="圖層_1" xmlns="http://www.w3.org/2000/svg" version="1.1" xmlns:xlink="http://www.w3.org/1999/xlink" viewBox="0 0 32 32">
  <!-- Generator: Adobe Illustrator 30.0.0, SVG Export Plug-In . SVG Version: 2.1.1 Build 123)  -->
  <defs>
    <style>
      .st0 {
        stroke: url(#_未命名漸層_31);
      }

      .st0, .st1 {
        fill: none;
        stroke-linecap: round;
        stroke-linejoin: round;
        stroke-width: 2px;
      }

      .st1 {
        stroke: url(#_未命名漸層_3);
      }
    </style>
    <linearGradient id="_未命名漸層_3" data-name="未命名漸層 3" x1="1.67" y1="17.33" x2="27.67" y2="17.33" gradientUnits="userSpaceOnUse">
      <stop offset="0" stop-color="#1edfad"/>
      <stop offset=".5" stop-color="#11a7ed"/>
      <stop offset="1" stop-color="#9738f5"/>
    </linearGradient>
    <linearGradient id="_未命名漸層_31" data-name="未命名漸層 3" x1="9.67" y1="11.92" x2="30.5" y2="11.92" xlink:href="#_未命名漸層_3"/>
  </defs>
  <path class="st1" d="M14.67,5.33H5.33c-.71,0-1.39.28-1.89.78-.5.5-.78,1.18-.78,1.89v18.67c0,.71.28,1.39.78,1.89.5.5,1.18.78,1.89.78h18.67c.71,0,1.39-.28,1.89-.78s.78-1.18.78-1.89v-9.33"/>
  <path class="st0" d="M24.67,3.33c.53-.53,1.25-.83,2-.83s1.47.3,2,.83c.53.53.83,1.25.83,2s-.3,1.47-.83,2l-12.67,12.67-5.33,1.33,1.33-5.33L24.67,3.33Z"/>
</svg>