<svg width="33" height="32" viewBox="0 0 33 32" fill="none" xmlns="http://www.w3.org/2000/svg">
<path d="M15.167 5.33337H5.83366C5.12641 5.33337 4.44814 5.61433 3.94804 6.11442C3.44794 6.61452 3.16699 7.2928 3.16699 8.00004V26.6667C3.16699 27.374 3.44794 28.0522 3.94804 28.5523C4.44814 29.0524 5.12641 29.3334 5.83366 29.3334H24.5003C25.2076 29.3334 25.8858 29.0524 26.3859 28.5523C26.886 28.0522 27.167 27.374 27.167 26.6667V17.3334" stroke="#B0B0B0" stroke-width="2" stroke-linecap="round" stroke-linejoin="round"/>
<path d="M25.167 3.33331C25.6974 2.80288 26.4168 2.50488 27.167 2.50488C27.9171 2.50488 28.6366 2.80288 29.167 3.33331C29.6974 3.86374 29.9954 4.58316 29.9954 5.33331C29.9954 6.08346 29.6974 6.80288 29.167 7.33331L16.5003 20L11.167 21.3333L12.5003 16L25.167 3.33331Z" stroke="#B0B0B0" stroke-width="2" stroke-linecap="round" stroke-linejoin="round"/>
</svg>
