<svg width="33" height="32" viewBox="0 0 33 32" fill="none" xmlns="http://www.w3.org/2000/svg">
<path d="M19.1663 2.66663H8.49967C7.79243 2.66663 7.11415 2.94758 6.61406 3.44767C6.11396 3.94777 5.83301 4.62605 5.83301 5.33329V26.6666C5.83301 27.3739 6.11396 28.0521 6.61406 28.5522C7.11415 29.0523 7.79243 29.3333 8.49967 29.3333H24.4997C25.2069 29.3333 25.8852 29.0523 26.3853 28.5522C26.8854 28.0521 27.1663 27.3739 27.1663 26.6666V10.6666L19.1663 2.66663Z" stroke="#B0B0B0" stroke-width="2" stroke-linecap="round" stroke-linejoin="round"/>
<path d="M19.167 2.66663V10.6666H27.167" stroke="#B0B0B0" stroke-width="2" stroke-linecap="round" stroke-linejoin="round"/>
<path d="M21.8337 17.3334H11.167" stroke="#B0B0B0" stroke-width="2" stroke-linecap="round" stroke-linejoin="round"/>
<path d="M21.8337 22.6666H11.167" stroke="#B0B0B0" stroke-width="2" stroke-linecap="round" stroke-linejoin="round"/>
<path d="M13.8337 12H12.5003H11.167" stroke="#B0B0B0" stroke-width="2" stroke-linecap="round" stroke-linejoin="round"/>
</svg>
