<svg width="24" height="24" viewBox="0 0 24 24" fill="none" xmlns="http://www.w3.org/2000/svg">
<path d="M2.19429 7.061C3.12858 5.23889 4.56133 3.70716 6.33253 2.63687C8.10373 1.56658 10.1436 0.999861 12.2245 1C15.2495 1 17.7907 2.0901 19.7337 3.8655L16.5156 7.0203C15.3516 5.9302 13.8722 5.3747 12.2245 5.3747C9.30051 5.3747 6.82551 7.3107 5.94439 9.91C5.7199 10.57 5.59194 11.274 5.59194 12C5.59194 12.726 5.7199 13.43 5.94439 14.09C6.82663 16.6904 9.30051 18.6253 12.2245 18.6253C13.7342 18.6253 15.0194 18.2348 16.0251 17.5748C16.6081 17.1986 17.1073 16.7104 17.4924 16.1398C17.8774 15.5692 18.1405 14.928 18.2655 14.255H12.2245V10.0002H22.7957C22.9282 10.7196 23 11.4698 23 12.2497C23 15.6003 21.7765 18.4207 19.6529 20.3347C17.7963 22.0155 15.2551 23 12.2245 23C10.7503 23.0006 9.29045 22.7164 7.92837 22.1639C6.56628 21.6113 5.32867 20.801 4.28626 19.7795C3.24385 18.7579 2.41709 17.545 1.85321 16.2102C1.28934 14.8754 0.999411 13.4447 1 12C1 10.2246 1.43327 8.546 2.19429 7.061Z" fill="#4F4F4F"/>
</svg>
