<svg width="160" height="160" viewBox="0 0 160 160" fill="none" xmlns="http://www.w3.org/2000/svg">
<g filter="url(#filter0_n_29234_33113)">
<path fill-rule="evenodd" clip-rule="evenodd" d="M105.913 5.48187C105.864 5.61015 105.869 5.78868 105.924 5.87843C106.057 6.09355 106.503 5.91713 106.503 5.6495C106.503 5.34399 106.019 5.20643 105.913 5.48187ZM129.754 5.65909C129.754 5.79844 129.828 5.86656 129.919 5.81047C130.01 5.75421 130.042 5.64023 129.991 5.55699C129.851 5.33147 129.754 5.37342 129.754 5.65909ZM76.4229 6.38117C76.4229 6.4706 76.4961 6.54377 76.5855 6.54377C76.675 6.54377 76.7481 6.4706 76.7481 6.38117C76.7481 6.29175 76.675 6.21858 76.5855 6.21858C76.4961 6.21858 76.4229 6.29175 76.4229 6.38117ZM64.0658 6.62506C64.0658 6.77416 64.1445 6.86977 64.2406 6.83774C64.3367 6.80571 64.4154 6.7101 64.4154 6.62506C64.4154 6.54003 64.3367 6.44442 64.2406 6.41239C64.1445 6.38036 64.0658 6.47597 64.0658 6.62506ZM86.0472 7.36893C86.0792 7.46502 86.1748 7.54372 86.2599 7.54372C86.3449 7.54372 86.4405 7.46502 86.4725 7.36893C86.5046 7.27284 86.409 7.19414 86.2599 7.19414C86.1108 7.19414 86.0152 7.27284 86.0472 7.36893ZM117.559 7.43803C117.559 7.57217 117.632 7.68192 117.722 7.68192C117.811 7.68192 117.884 7.57217 117.884 7.43803C117.884 7.30389 117.811 7.19414 117.722 7.19414C117.632 7.19414 117.559 7.30389 117.559 7.43803ZM52.9507 7.95736C52.7677 8.14044 52.8394 8.3323 53.0907 8.3323C53.2249 8.3323 53.3346 8.26352 53.3346 8.1793C53.3346 7.97427 53.0807 7.82744 52.9507 7.95736ZM17.7266 9.13567C17.7266 9.2199 17.7998 9.33388 17.8892 9.38916C17.9786 9.44444 18.0518 9.3755 18.0518 9.23616C18.0518 9.09681 17.9786 8.98267 17.8892 8.98267C17.7998 8.98267 17.7266 9.05145 17.7266 9.13567ZM27.7577 10.2247C27.6278 10.3546 27.7746 10.6086 27.9796 10.6086C28.0638 10.6086 28.1326 10.4989 28.1326 10.3647C28.1326 10.1133 27.9407 10.0416 27.7577 10.2247ZM40.5513 10.6826C40.4055 11.0626 40.7109 11.3365 40.9539 11.0435C41.1016 10.8657 41.0895 10.7691 40.9001 10.6119C40.7011 10.4467 40.6369 10.4597 40.5513 10.6826ZM137.396 10.8621C137.396 11.0014 137.469 11.0704 137.558 11.0151C137.648 10.9598 137.721 10.8458 137.721 10.7616C137.721 10.6774 137.648 10.6086 137.558 10.6086C137.469 10.6086 137.396 10.7228 137.396 10.8621ZM98.3731 11.6655C98.3731 11.8146 98.4518 11.9102 98.5479 11.8781C98.644 11.8461 98.7227 11.7505 98.7227 11.6655C98.7227 11.5804 98.644 11.4848 98.5479 11.4528C98.4518 11.4208 98.3731 11.5164 98.3731 11.6655ZM71.2925 12.7365C71.125 13.0077 71.5017 13.3186 71.7261 13.0942C71.9137 12.9065 71.7963 12.5597 71.5451 12.5597C71.4663 12.5597 71.3526 12.6392 71.2925 12.7365ZM125.638 12.8274C125.415 13.0508 125.53 13.3958 125.811 13.3418C125.967 13.3116 126.095 13.1843 126.095 13.0589C126.095 12.8022 125.808 12.657 125.638 12.8274ZM59.3008 13.6392C59.1709 13.7691 59.3178 14.0231 59.5228 14.0231C59.607 14.0231 59.6758 13.9133 59.6758 13.7792C59.6758 13.5278 59.4839 13.4561 59.3008 13.6392ZM81.0068 13.7101C81.0388 13.8062 81.1344 13.8849 81.2195 13.8849C81.3045 13.8849 81.4001 13.8062 81.4321 13.7101C81.4641 13.614 81.3686 13.5353 81.2195 13.5353C81.0704 13.5353 80.9748 13.614 81.0068 13.7101ZM90.1847 13.9733C90.0016 14.1564 90.0733 14.3483 90.3247 14.3483C90.4588 14.3483 90.5686 14.2795 90.5686 14.1953C90.5686 13.9902 90.3146 13.8434 90.1847 13.9733ZM48.5539 14.1603C48.4976 14.2514 48.5308 14.3748 48.6275 14.4346C48.8776 14.5891 49.0389 14.3775 48.8301 14.1688C48.7134 14.052 48.6225 14.0493 48.5539 14.1603ZM111.218 14.9868C111.218 15.2194 111.322 15.3238 111.555 15.3238C111.788 15.3238 111.875 15.2362 111.838 15.0411C111.756 14.6174 111.218 14.57 111.218 14.9868ZM145.037 16.2316C145.037 16.5187 145.388 16.4688 145.488 16.1674C145.523 16.061 145.436 15.9742 145.295 15.9742C145.153 15.9742 145.037 16.0901 145.037 16.2316ZM11.4737 16.6134C11.3534 16.808 11.6593 17.0007 11.8758 16.8668C12.0578 16.7545 11.9383 16.462 11.7106 16.462C11.6318 16.462 11.5251 16.5301 11.4737 16.6134ZM34.4738 17.3562C34.4738 17.5053 34.5525 17.601 34.6485 17.5689C34.7446 17.5369 34.8233 17.4413 34.8233 17.3562C34.8233 17.2712 34.7446 17.1756 34.6485 17.1436C34.5525 17.1115 34.4738 17.2072 34.4738 17.3562ZM23.2829 17.8699C23.3146 18.0346 23.4493 18.1692 23.5823 18.1692C23.9307 18.1692 23.8805 17.6967 23.5245 17.6283C23.3073 17.5865 23.2411 17.6527 23.2829 17.8699ZM133.997 18.8913C133.751 19.0432 133.864 19.5513 134.144 19.5513C134.382 19.5513 134.545 19.0742 134.367 18.8967C134.286 18.8152 134.124 18.8128 133.997 18.8913ZM44.2839 19.3947C39.9546 19.8441 36.8421 22.7643 35.9291 27.2333C35.6105 28.7936 35.6062 29.4189 35.6537 68.2068C35.6996 105.637 35.7165 107.644 35.9955 108.563C36.9878 111.83 39.341 114.068 42.7807 115.015C43.2989 115.158 46.9262 115.239 55.8548 115.306L68.212 115.4L69.5625 118.002C71.2595 121.271 72.0092 122.474 74.1232 125.318C78.537 131.258 84.6586 135.796 93.2925 139.528C94.8989 140.222 96.7309 141.135 97.3634 141.555C98.7659 142.488 100.95 144.767 102.927 147.36C104.577 149.525 104.875 149.769 105.48 149.445C105.889 149.227 106.34 148.526 106.34 148.111C106.34 147.807 104.508 145.226 103.104 143.555C101.918 142.141 99.9155 140.16 99.0955 139.589C98.2492 138.999 96.4174 138.146 94.6334 137.511C90.5078 136.041 84.5588 132.522 80.7896 129.321C78.0258 126.974 76.2151 124.637 73.6593 120.115C73.0021 118.953 71.5479 116.468 70.4278 114.593C68.1056 110.706 67.652 109.724 67.6473 108.571C67.6411 106.999 68.6763 106.109 70.7096 105.939C72.8873 105.756 73.7193 106.42 77.0307 110.983C80.6361 115.952 82.5461 118.081 84.8856 119.739C86.307 120.746 86.5587 120.807 87.0909 120.275C87.4855 119.88 87.5123 119.771 87.4157 118.949C87.2832 117.822 85.8379 113.424 84.7246 110.76C83.6876 108.279 81.0344 102.973 78.3853 98.084C75.5605 92.8701 72.6215 86.8703 72.0417 85.1338C70.9065 81.7336 71.8106 79.5483 74.353 79.5483C75.6096 79.5483 76.7489 79.9335 77.346 80.5602C77.8837 81.1244 80.4538 84.9439 82.8468 88.7349C83.6372 89.9869 85.2827 92.5477 86.5034 94.4257C89.2062 98.5834 90.0441 99.9957 91.6424 103.088C92.323 104.405 92.9958 105.574 93.1374 105.685C93.4649 105.944 94.3456 105.949 94.6009 105.693C94.7082 105.586 94.796 105.289 94.796 105.033C94.796 104.16 91.4416 97.6227 89.3228 94.3665C88.8362 93.6184 88.4601 92.9867 88.4871 92.9628C88.5141 92.9389 89.0849 92.7209 89.7556 92.4784C91.4868 91.8526 92.9667 91.8508 94.2383 92.4731C95.9327 93.302 98.1435 95.837 100.812 100.01C101.393 100.92 102.162 102.119 102.52 102.676C102.878 103.234 103.305 103.715 103.468 103.747C104.358 103.918 105.017 103.188 104.707 102.375C104.454 101.709 102.672 98.6499 101.544 96.9459C100.452 95.2972 99.2309 93.7137 98.1965 92.6061C97.8465 92.2313 97.5601 91.8796 97.5601 91.8247C97.5601 91.6294 99.3165 90.9249 100.22 90.7579C101.351 90.5488 102.652 90.7593 103.853 91.346C105.744 92.2698 108.8 95.8043 111.357 100.027C112.016 101.113 112.725 102.114 112.935 102.251C113.578 102.673 114.47 102.172 114.47 101.391C114.47 100.867 113.254 98.5104 112.081 96.7587C111.084 95.2703 109.175 92.816 108.634 92.3274C108.446 92.157 108.291 91.9676 108.291 91.9063C108.291 91.845 108.69 91.6991 109.178 91.5821C111.264 91.0816 113.673 91.8471 115.587 93.6192C116.891 94.8263 117.592 95.8651 119.184 98.9448C122.219 104.818 124.919 112.742 126.828 121.383C127.539 124.604 128.043 126.242 128.999 128.452C130.096 130.985 132.401 134.753 135.02 138.294C135.813 139.366 136.014 139.545 136.429 139.545C136.8 139.545 136.987 139.423 137.235 139.017C137.412 138.726 137.557 138.341 137.558 138.16C137.558 137.979 136.94 136.881 136.185 135.721C131.145 127.979 130.773 127.148 129.281 120.323C128.323 115.938 126.479 109.975 124.64 105.319C123.32 101.979 120.519 96.2137 119.346 94.4257C117.409 91.4735 114.208 89.2638 111.515 89.0194L110.568 88.9336L110.562 58.8357C110.556 25.585 110.607 27.2522 109.514 24.9504C108.484 22.7812 107.089 21.3182 105.083 20.3039C103.028 19.2651 105.205 19.335 73.9027 19.3028C58.2531 19.2867 44.9246 19.328 44.2839 19.3947ZM118.86 20.0272C118.86 20.2598 118.964 20.3642 119.197 20.3642C119.43 20.3642 119.517 20.2766 119.48 20.0815C119.398 19.6578 118.86 19.6104 118.86 20.0272ZM43.221 22.1406C41.931 22.5544 41.0121 23.1277 40.1333 24.0671C39.2815 24.9778 38.855 25.7386 38.4719 27.0306C38.2297 27.8474 38.2089 31.2596 38.2318 66.4596C38.2456 87.6536 38.3097 105.706 38.3741 106.577C38.4702 107.876 38.5827 108.345 39.0026 109.198C39.8465 110.912 41.6628 112.263 43.7089 112.697C44.299 112.822 48.0502 112.88 55.6109 112.88H66.6512L66.0877 111.693C65.6462 110.764 65.5018 110.219 65.4217 109.179L65.3193 107.851L55.1274 107.805L44.9355 107.758L44.3213 107.29C43.312 106.52 43.2538 106.221 43.2538 101.823V97.9089L43.8922 97.2241L44.5307 96.5394L46.9408 96.4389C48.2664 96.3836 55.0386 96.3579 61.99 96.3818L74.6289 96.4254L74.1938 95.6693C73.9543 95.2536 73.608 94.674 73.4241 94.3811L73.0898 93.8486L69.1342 93.812L65.1786 93.7753L64.6222 93.168L64.0658 92.5606V88.9305C64.0658 85.4451 64.0796 85.2855 64.4141 84.9266C64.9954 84.3028 65.7235 84.101 67.3938 84.101H68.9436V82.8002V81.4995L67.277 81.4988C65.9121 81.4983 65.5165 81.4409 65.0908 81.1814C64.0211 80.5293 63.9845 80.3677 63.9845 76.3035C63.9845 70.8364 63.6997 71.0935 69.7566 71.0935C74.3549 71.0935 74.5819 71.131 75.2705 72.0064C75.5789 72.3986 75.61 72.6513 75.61 74.7738V77.1094H76.2345C76.578 77.1094 77.1949 77.2106 77.6053 77.334L78.3518 77.5587L78.4035 75.0663L78.4554 72.5739L78.9935 72.0191C79.7844 71.2039 80.3736 71.0935 83.9362 71.0935C86.9172 71.0935 87.144 71.1151 87.8024 71.4634C89.007 72.1004 89.1052 72.4558 89.1052 76.1801C89.1052 79.7135 89.0506 79.968 88.123 80.7485L87.617 81.1743H84.2939H80.9708L81.3742 81.784C81.5962 82.1194 82.0051 82.7778 82.2828 83.2474L82.788 84.101H84.9454C86.8766 84.101 87.1764 84.1398 87.8024 84.4709C88.9119 85.0575 89.1052 85.5859 89.1052 88.0325V90.0994L89.8776 89.8802C90.3023 89.7597 90.9243 89.614 91.2596 89.5565L91.8693 89.4518V87.7088C91.8693 85.6622 92.1058 85.0427 93.1057 84.4694C93.7091 84.1236 93.912 84.1062 97.3868 84.1036C100.765 84.1011 101.087 84.1263 101.741 84.4427C102.658 84.887 102.967 85.4951 103.08 87.0774L103.17 88.3466L104.108 88.7272C104.624 88.9365 105.306 89.3059 105.623 89.5483L106.201 89.989L107.043 89.669L107.885 89.3492V58.5557C107.885 28.3829 107.878 27.7426 107.565 26.7867C106.906 24.7739 105.322 23.0517 103.413 22.2736L102.519 21.9089L73.3337 21.876C45.4544 21.8447 44.1066 21.8565 43.221 22.1406ZM151.004 23.3948C150.874 23.5247 151.021 23.7787 151.226 23.7787C151.31 23.7787 151.379 23.669 151.379 23.5348C151.379 23.2834 151.187 23.2117 151.004 23.3948ZM29.7585 23.7652C29.7585 23.9649 29.8636 24.1039 30.0143 24.1039C30.1658 24.1039 30.2488 23.9933 30.2175 23.8328C30.1385 23.4249 29.7585 23.369 29.7585 23.7652ZM126.339 24.2665C126.339 24.4832 126.448 24.5917 126.664 24.5917C126.881 24.5917 126.99 24.4832 126.99 24.2665C126.99 24.0497 126.881 23.9413 126.664 23.9413C126.448 23.9413 126.339 24.0497 126.339 24.2665ZM7.15802 25.242C7.15802 25.3315 7.23119 25.4046 7.32061 25.4046C7.41004 25.4046 7.48321 25.3315 7.48321 25.242C7.48321 25.1526 7.41004 25.0795 7.32061 25.0795C7.23119 25.0795 7.15802 25.1526 7.15802 25.242ZM17.3427 25.1923C17.1484 25.3866 17.2379 25.7298 17.4827 25.7298C17.6169 25.7298 17.7266 25.6245 17.7266 25.4955C17.7266 25.2238 17.4946 25.0406 17.3427 25.1923ZM140.562 26.0622C140.433 26.2711 140.772 26.7054 141.064 26.7054C141.39 26.7054 141.512 26.395 141.292 26.1292C141.062 25.8524 140.711 25.8202 140.562 26.0622ZM46.381 26.9756C45.3927 27.3268 44.0268 28.6336 43.5653 29.6695L43.1836 30.5263L43.2354 40.1085C43.2914 50.4377 43.2977 50.5179 44.1686 51.7743C44.797 52.6812 46.1992 53.642 47.2115 53.8594C47.8108 53.9881 55.3627 54.0254 73.6588 53.9898L99.2674 53.9398L99.9745 53.5625C100.999 53.0157 102.077 51.9611 102.574 51.0197L103.007 50.2002V40.3633C103.007 30.6252 103.003 30.5187 102.656 29.7661C102.185 28.7474 101.17 27.6754 100.213 27.1868L99.4299 26.7867L73.2524 26.7579C50.2231 26.7325 46.9914 26.7587 46.381 26.9756ZM114.542 26.8836C114.37 27.1616 114.912 27.6292 115.141 27.4003C115.243 27.2984 115.282 27.1003 115.228 26.9602C115.116 26.667 114.704 26.621 114.542 26.8836ZM60.8139 29.3069C50.4491 29.369 47.1543 29.4358 46.886 29.5893C46.6928 29.7 46.382 30.0379 46.195 30.3402C45.8608 30.881 45.8553 31.0411 45.8553 40.1857C45.8553 48.9919 45.8716 49.5132 46.1638 50.086C46.3447 50.4408 46.7402 50.8411 47.1208 51.0551L47.7694 51.4196H73.1958C97.4887 51.4196 98.6474 51.4065 99.1887 51.1231C99.5405 50.9388 99.8937 50.5563 100.121 50.113L100.487 49.3996V40.1903V30.981L100.121 30.4434C99.2849 29.2149 100.368 29.3098 86.6663 29.2654C79.9146 29.2435 68.2811 29.2622 60.8139 29.3069ZM24.9354 30.212C24.7998 30.5652 25.1438 30.8974 25.3901 30.6511C25.5983 30.4429 25.4693 29.9573 25.2059 29.9573C25.1108 29.9573 24.9892 30.0719 24.9354 30.212ZM132.843 31.5832C132.843 31.8281 132.928 31.9159 133.127 31.8775C133.284 31.8473 133.412 31.7149 133.412 31.5832C133.412 31.4515 133.284 31.3191 133.127 31.2889C132.928 31.2505 132.843 31.3383 132.843 31.5832ZM121.033 32.1511C120.977 32.298 121.008 32.496 121.104 32.5913C121.351 32.8391 121.821 32.6126 121.756 32.2767C121.684 31.9024 121.163 31.812 121.033 32.1511ZM54.5512 32.341C54.3845 32.5077 54.3065 32.7846 54.3474 33.0635C54.4079 33.4756 54.3599 33.5247 53.8062 33.6184C53.472 33.6748 52.8085 33.9533 52.3318 34.2374C50.9198 35.0785 50.299 36.689 50.6707 38.5473C50.8395 39.3911 51.8077 40.3429 53.1577 40.992L54.3864 41.5827L54.3889 43.3168C54.3904 44.2706 54.3445 45.098 54.2871 45.1555C54.1102 45.3328 53.1081 44.8269 52.57 44.2888C51.9436 43.6625 51.4139 43.6364 50.7457 44.1987C50.018 44.8108 50.0619 45.4422 50.8868 46.2267C51.569 46.8758 53.0314 47.5174 53.8286 47.5174C54.265 47.5174 54.3102 47.5676 54.3102 48.0539C54.3102 48.7133 54.5572 48.9807 55.1664 48.9807C55.9265 48.9807 56.2613 48.7115 56.2613 48.1001C56.2613 47.5883 56.3062 47.5447 57.0175 47.3655C57.9916 47.1203 58.5141 46.8451 59.0927 46.2724C59.7524 45.6196 60.1559 44.6445 60.159 43.6964C60.1654 41.7969 59.4374 40.7502 57.4931 39.8633L56.2725 39.3064L56.2668 37.6398C56.2605 35.7103 56.3338 35.6427 57.5458 36.4639C58.364 37.0184 58.8386 37.0709 59.3423 36.663C59.7423 36.3392 59.8286 35.5871 59.5299 35.029C59.2456 34.4975 58.1425 33.8618 57.1401 33.6516C56.3059 33.4766 56.2613 33.4416 56.2613 32.9643C56.2613 32.6875 56.1735 32.3734 56.0662 32.2661C55.7822 31.982 54.8648 32.0274 54.5512 32.341ZM12.7901 33.322C12.5958 33.5163 12.6852 33.8595 12.9301 33.8595C13.0642 33.8595 13.174 33.7542 13.174 33.6252C13.174 33.3535 12.942 33.1703 12.7901 33.322ZM79.2683 33.4257C78.355 33.7268 77.9525 33.9631 77.2089 34.6349C75.8425 35.8695 75.224 37.8218 75.2142 40.9323C75.2063 43.4234 75.5664 44.823 76.5561 46.1474C78.2604 48.4281 82.1012 48.5342 83.9689 46.3522C84.9422 45.2152 85.1219 44.6861 85.1199 42.9648C85.1175 40.6337 84.4705 39.4025 82.8454 38.636C81.3591 37.9352 79.3758 38.2292 78.6115 39.2636C78.3489 39.6189 78.3425 39.5984 78.4289 38.6718C78.5446 37.4294 79.1035 36.3464 79.8374 35.9419C80.6001 35.5215 81.6035 35.6261 82.2812 36.1963C82.9599 36.7673 83.7694 36.7712 84.3343 36.2064C85.1193 35.4214 84.5659 34.3499 83.0327 33.6854C82.0127 33.2433 80.201 33.1184 79.2683 33.4257ZM65.5373 33.6576C65.2332 33.9039 65.1292 34.338 64.7879 36.7875C64.3396 40.0028 64.3125 40.5624 64.5801 41.065C65.0583 41.9627 65.7399 42.0383 66.8621 41.3182C67.7585 40.7429 68.8171 40.565 69.4265 40.8873C70.8684 41.6497 70.9791 44.281 69.5994 44.9944C69.0365 45.2855 68.0911 45.3155 67.5915 45.0582C67.3962 44.9575 67.0393 44.6648 66.7984 44.4078C66.4451 44.0306 66.2252 43.9413 65.6602 43.9455C64.9043 43.9511 64.5536 44.1411 64.251 44.7092C63.964 45.2482 64.1791 45.8046 64.9489 46.514C66.8441 48.2611 70.2187 48.3043 72.0355 46.6049C74.3068 44.4805 74.1274 40.3442 71.6929 38.7094C71.3229 38.4608 70.765 38.2094 70.4535 38.151C69.6568 38.0016 68.2638 38.1723 67.6372 38.4964L67.1071 38.7705L67.2231 38.1442C67.2866 37.7996 67.3796 37.2119 67.4294 36.8381L67.5201 36.1581L70.0338 36.1064C72.3005 36.0596 72.5703 36.0235 72.7781 35.7389C73.1906 35.1739 73.002 33.8608 72.4557 33.4961C72.3573 33.4304 70.8398 33.3756 69.0836 33.3742C66.2766 33.3721 65.8477 33.4064 65.5373 33.6576ZM86.7476 33.4894C86.5688 33.5333 86.3311 33.6436 86.2192 33.7343C85.9571 33.9471 85.9506 35.6802 86.2111 35.9407C86.3491 36.0788 87.3053 36.1358 89.4764 36.1358C91.1651 36.1358 92.5186 36.1908 92.4841 36.2578C90.9762 39.189 89.9607 41.9069 89.4465 44.3881C88.8394 47.3184 88.9501 47.565 90.8606 47.5364C92.2526 47.5154 92.4657 47.3176 92.6036 45.9171C92.8629 43.2862 93.8062 39.9373 95.1443 36.8961C95.7116 35.6072 95.783 35.3152 95.6872 34.6764C95.478 33.2808 95.7888 33.3693 91.1726 33.3906C88.9178 33.401 86.9265 33.4454 86.7476 33.4894ZM149.265 33.6156C149.265 33.7498 149.375 33.8595 149.509 33.8595C149.643 33.8595 149.753 33.7498 149.753 33.6156C149.753 33.4815 149.643 33.3717 149.509 33.3717C149.375 33.3717 149.265 33.4815 149.265 33.6156ZM53.691 36.3464C53.4951 36.5552 53.3346 36.9257 53.3346 37.1699C53.3346 37.6153 53.9639 38.4121 54.3156 38.4121C54.5538 38.4121 54.4609 36.1041 54.2195 36.024C54.125 35.9926 53.8871 36.1378 53.691 36.3464ZM29.9211 36.9488C29.9211 37.1937 30.006 37.2815 30.2057 37.2431C30.3623 37.2128 30.4902 37.0805 30.4902 36.9488C30.4902 36.8171 30.3623 36.6847 30.2057 36.6545C30.006 36.6161 29.9211 36.7039 29.9211 36.9488ZM140.973 37.9244C140.973 38.1411 141.081 38.2495 141.298 38.2495C141.515 38.2495 141.623 38.1411 141.623 37.9244C141.623 37.7076 141.515 37.5992 141.298 37.5992C141.081 37.5992 140.973 37.7076 140.973 37.9244ZM20.1289 37.8525C19.9379 38.0435 20.2179 38.5747 20.5097 38.5747C20.7279 38.5747 20.8159 38.458 20.8159 38.1682C20.8159 37.8824 20.7274 37.7618 20.5179 37.7618C20.3538 37.7618 20.1788 37.8026 20.1289 37.8525ZM127.313 38.5781C127.141 38.8994 127.213 39.2251 127.456 39.2251C127.774 39.2251 128.138 38.7902 128.038 38.5299C127.893 38.1515 127.528 38.1757 127.313 38.5781ZM4.55652 38.5747C4.55652 38.6642 4.62969 38.7373 4.71911 38.7373C4.80854 38.7373 4.88171 38.6642 4.88171 38.5747C4.88171 38.4853 4.80854 38.4121 4.71911 38.4121C4.62969 38.4121 4.55652 38.4853 4.55652 38.5747ZM156.988 38.7373C156.933 38.8268 157.006 38.8999 157.151 38.8999C157.295 38.8999 157.369 38.8268 157.313 38.7373C157.258 38.6479 157.185 38.5747 157.151 38.5747C157.117 38.5747 157.043 38.6479 156.988 38.7373ZM115.066 39.7823C114.942 40.1054 115.402 40.472 115.636 40.2373C115.861 40.0127 115.693 39.5503 115.387 39.5503C115.259 39.5503 115.115 39.6547 115.066 39.7823ZM79.2103 41.2629C78.225 42.092 78.1533 43.6548 79.0534 44.6801C79.6439 45.3526 80.3701 45.5251 81.1824 45.1858C81.9181 44.8783 82.2763 44.2034 82.2763 43.1248C82.2763 42.2432 82.1176 41.8102 81.5773 41.2169C81.0882 40.68 79.8751 40.7036 79.2103 41.2629ZM56.2613 43.7834C56.2613 45.1892 56.275 45.2451 56.5782 45.0829C57.4847 44.5979 57.6655 43.4431 56.9434 42.7513C56.6927 42.511 56.4366 42.3144 56.3743 42.3144C56.3122 42.3144 56.2613 42.9755 56.2613 43.7834ZM148.701 44.2569C148.558 44.4883 148.741 44.7533 149.042 44.7533C149.185 44.7533 149.267 44.639 149.236 44.4823C149.173 44.1556 148.848 44.019 148.701 44.2569ZM26.2485 44.9759C26.1264 45.2939 26.2927 45.5663 26.6089 45.5663C26.7684 45.5663 26.8362 45.4427 26.8026 45.2131C26.7395 44.7843 26.3808 44.6309 26.2485 44.9759ZM11.9041 45.2851C11.6708 45.5663 11.9306 45.9666 12.2633 45.8389C12.5823 45.7165 12.5963 45.5037 12.3013 45.259C12.1339 45.1199 12.0358 45.1264 11.9041 45.2851ZM134.198 45.3333C134.145 45.4734 134.18 45.6679 134.278 45.7654C134.513 46.0002 134.972 45.6336 134.848 45.3105C134.729 45.0006 134.32 45.0149 134.198 45.3333ZM120.87 45.9716C120.814 46.1184 120.846 46.3165 120.941 46.4118C121.189 46.6595 121.658 46.4331 121.593 46.0971C121.521 45.7228 121 45.6324 120.87 45.9716ZM0.166489 46.7044C0.166489 46.7938 0.239656 46.867 0.329082 46.867C0.418509 46.867 0.491676 46.7938 0.491676 46.7044C0.491676 46.615 0.418509 46.5418 0.329082 46.5418C0.239656 46.5418 0.166489 46.615 0.166489 46.7044ZM159.59 47.68C159.645 47.7694 159.722 47.8426 159.762 47.8426C159.801 47.8426 159.834 47.7694 159.834 47.68C159.834 47.5906 159.756 47.5174 159.661 47.5174C159.567 47.5174 159.534 47.5906 159.59 47.68ZM141.49 50.1595C141.518 50.3608 141.651 50.5254 141.786 50.5254C141.92 50.5254 142.053 50.3608 142.082 50.1595C142.121 49.8779 142.053 49.7937 141.786 49.7937C141.518 49.7937 141.45 49.8779 141.49 50.1595ZM19.5138 50.6894C19.3604 50.8745 19.3506 50.9949 19.4786 51.1229C19.7252 51.3696 20.2008 51.1535 20.1369 50.8239C20.0639 50.4473 19.7678 50.3834 19.5138 50.6894ZM31.0593 51.4196C31.0593 51.6364 31.1677 51.7448 31.3845 51.7448C31.6012 51.7448 31.7097 51.6364 31.7097 51.4196C31.7097 51.2029 31.6012 51.0944 31.3845 51.0944C31.1677 51.0944 31.0593 51.2029 31.0593 51.4196ZM128.024 51.5C127.883 51.869 128.297 52.2674 128.616 52.0687C128.801 51.9533 128.817 51.8494 128.685 51.6372C128.44 51.2434 128.146 51.1826 128.024 51.5ZM153.492 51.7352C153.492 51.8195 153.566 51.9334 153.655 51.9887C153.744 52.044 153.818 51.9751 153.818 51.8357C153.818 51.6964 153.744 51.5822 153.655 51.5822C153.566 51.5822 153.492 51.651 153.492 51.7352ZM115.283 52.3856C115.283 52.5593 115.348 52.7414 115.427 52.7903C115.625 52.9127 115.986 52.4497 115.856 52.2398C115.678 51.9518 115.283 52.0523 115.283 52.3856ZM6.50764 52.6391C6.50764 52.7732 6.58081 52.883 6.67024 52.883C6.75966 52.883 6.83283 52.7732 6.83283 52.6391C6.83283 52.505 6.75966 52.3952 6.67024 52.3952C6.58081 52.3952 6.50764 52.505 6.50764 52.6391ZM146.338 56.5278C146.338 56.6695 146.454 56.7852 146.596 56.7852C146.883 56.7852 146.833 56.4352 146.531 56.3347C146.425 56.2992 146.338 56.3862 146.338 56.5278ZM26.0251 57.5094C25.7581 57.8312 25.9373 58.2881 26.3029 58.2177C26.4803 58.1835 26.588 58.0153 26.588 57.7722C26.588 57.301 26.307 57.1698 26.0251 57.5094ZM135.831 57.6717C135.718 57.9668 135.883 58.2486 136.168 58.2486C136.415 58.2486 136.63 57.8066 136.492 57.5836C136.35 57.3535 135.932 57.4094 135.831 57.6717ZM67.4268 58.2486L65.1783 58.3299L64.622 58.9372L64.0658 59.5446V63.2209C64.0658 67.2813 64.1133 67.5042 65.1041 68.104C65.5657 68.3837 65.9834 68.4107 69.8379 68.4107C73.7733 68.4107 74.1034 68.3882 74.616 68.0855C75.6687 67.4639 75.7726 67.0363 75.7726 63.3241C75.7726 59.7687 75.7254 59.5261 74.8811 58.7364C74.4684 58.3504 74.3261 58.3258 72.0609 58.2486C70.7487 58.2039 68.6635 58.2039 67.4268 58.2486ZM45.0228 58.4344C44.699 58.5234 44.1868 58.8511 43.8847 59.1628L43.3351 59.7296L43.2891 66.3064L43.2433 72.8833L43.8871 73.5737L44.531 74.2641L50.8069 74.3102C57.7736 74.3615 57.9216 74.3423 58.5562 73.3015C58.8414 72.8339 58.8617 72.3757 58.8617 66.3783C58.8617 60.2947 58.8449 59.9283 58.5441 59.4353C57.8804 58.3465 57.7951 58.333 51.3835 58.3013C47.9643 58.2843 45.3714 58.3386 45.0228 58.4344ZM79.5935 58.5512C78.4529 59.2557 78.4604 59.2272 78.4058 63.0591C78.3498 66.9784 78.4167 67.2937 79.4534 67.9993C80.0384 68.3975 80.0758 68.4011 83.8091 68.4058C87.9858 68.4112 88.1321 68.3788 88.7872 67.3044C89.0747 66.8329 89.1041 66.4682 89.1044 63.3703C89.1049 58.1585 89.1989 58.2482 83.7423 58.2492C80.4626 58.2497 80.0306 58.2811 79.5935 58.5512ZM93.2093 58.5729C92.1106 59.2427 92.0331 59.5589 92.0331 63.3703C92.0331 68.4894 91.936 68.3998 97.4788 68.3899C101.64 68.3824 101.991 68.3081 102.612 67.3052C102.912 66.8208 102.931 66.5344 102.889 63.1797C102.845 59.5887 102.843 59.5731 102.438 59.1347C101.684 58.318 101.285 58.2486 97.3621 58.2492C94.0338 58.2497 93.6961 58.2761 93.2093 58.5729ZM0.491676 58.5738C0.491676 58.6632 0.564843 58.7364 0.65427 58.7364C0.743696 58.7364 0.816863 58.6632 0.816863 58.5738C0.816863 58.4843 0.743696 58.4112 0.65427 58.4112C0.564843 58.4112 0.491676 58.4843 0.491676 58.5738ZM14.0151 58.6809C14.0468 58.8456 14.1814 58.9802 14.3144 58.9802C14.6629 58.9802 14.6126 58.5077 14.2567 58.4393C14.0395 58.3975 13.9733 58.4637 14.0151 58.6809ZM158.695 58.8989C158.695 58.9884 158.769 59.0615 158.858 59.0615C158.947 59.0615 159.021 58.9884 159.021 58.8989C159.021 58.8095 158.947 58.7364 158.858 58.7364C158.769 58.7364 158.695 58.8095 158.695 58.8989ZM120.548 59.135C120.434 59.4301 120.599 59.7119 120.885 59.7119C121.133 59.7119 121.284 59.4006 121.18 59.1022C121.083 58.8237 120.659 58.8458 120.548 59.135ZM50.4 61.9619C50.0632 62.2347 50.032 62.3903 50.0439 63.7348L50.0569 65.2087L48.5921 65.265C47.2847 65.3154 47.0938 65.3627 46.8164 65.7053C46.4103 66.2069 46.4223 66.7404 46.8484 67.1254C47.1297 67.3797 47.4429 67.4351 48.5963 67.4351H50.0015L50.0828 69.1154C50.1514 70.5342 50.2132 70.8314 50.4796 71.0258C50.9401 71.3618 51.4406 71.3081 51.843 70.8798C52.1555 70.547 52.1965 70.3216 52.1965 68.9346V67.3655L53.7759 67.319C55.281 67.2746 55.3666 67.2528 55.5895 66.8548C55.8989 66.3025 55.7262 65.67 55.2007 65.4305C54.9708 65.3258 54.2008 65.2401 53.4896 65.2401H52.1965V63.7768C52.1965 62.5302 52.1483 62.2653 51.8713 61.9882C51.4653 61.5822 50.8817 61.5718 50.4 61.9619ZM151.541 63.5194C151.541 63.661 151.657 63.7768 151.799 63.7768C152.086 63.7768 152.036 63.4267 151.734 63.3262C151.628 63.2908 151.541 63.3778 151.541 63.5194ZM128.483 64.0595C128.565 64.4832 129.103 64.5305 129.103 64.1138C129.103 63.8811 128.999 63.7768 128.766 63.7768C128.534 63.7768 128.446 63.8644 128.483 64.0595ZM114.99 64.6312C114.839 64.8141 114.83 64.9175 114.961 64.998C115.201 65.1468 115.324 65.0056 115.256 64.6585C115.207 64.4044 115.181 64.4018 114.99 64.6312ZM20.4421 64.6925C20.3795 64.7552 20.3281 64.9458 20.3281 65.1159C20.3281 65.3438 20.4245 65.4116 20.6939 65.3734C20.9331 65.3395 21.0598 65.2095 21.0598 64.9985C21.0598 64.6759 20.6578 64.4769 20.4421 64.6925ZM30.6754 64.7026C30.4811 64.8969 30.5705 65.2401 30.8154 65.2401C30.9495 65.2401 31.0593 65.1347 31.0593 65.0058C31.0593 64.7341 30.8273 64.5509 30.6754 64.7026ZM141.976 64.9411C142.005 65.1502 142.139 65.3214 142.273 65.3214C142.626 65.3214 142.577 64.6871 142.22 64.6182C141.989 64.5736 141.934 64.6461 141.976 64.9411ZM6.94469 65.3451C6.73251 65.5572 6.83381 65.7279 7.17151 65.7279C7.36077 65.7279 7.4819 65.6427 7.44597 65.5349C7.36679 65.2972 7.09526 65.1944 6.94469 65.3451ZM120.757 69.7386C120.586 69.9093 120.63 70.4127 120.827 70.534C121.086 70.6945 121.491 70.2228 121.369 69.903C121.262 69.6253 120.953 69.5423 120.757 69.7386ZM134.323 69.9413C134.047 70.1165 134.203 70.6057 134.536 70.6057C134.848 70.6057 134.983 70.3746 134.858 70.0513C134.746 69.7576 134.646 69.7371 134.323 69.9413ZM14.0039 71.2422C13.6966 71.4367 13.9109 71.945 14.271 71.8755C14.4277 71.8455 14.556 71.6814 14.556 71.5113C14.556 71.1506 14.3261 71.0385 14.0039 71.2422ZM93.4059 71.3223C93.1332 71.4409 92.7126 71.773 92.4709 72.0599L92.0319 72.5817L92.0326 76.187C92.0332 80.2854 92.1005 80.5457 93.3198 81.1678C93.9149 81.4713 94.2679 81.4995 97.4775 81.4995C101.277 81.4995 101.688 81.426 102.438 80.613L102.844 80.1725V76.294V72.4155L102.366 71.916C102.103 71.6414 101.627 71.3444 101.309 71.2559C100.409 71.0058 94.0092 71.0595 93.4059 71.3223ZM25.9155 71.4988C25.8592 71.6456 25.8911 71.8437 25.9864 71.939C26.2342 72.1868 26.7034 71.9603 26.6387 71.6244C26.5667 71.2501 26.0457 71.1597 25.9155 71.4988ZM148.019 71.9986C147.883 72.3518 148.227 72.684 148.474 72.4376C148.682 72.2295 148.553 71.7439 148.289 71.7439C148.194 71.7439 148.073 71.8585 148.019 71.9986ZM127.154 76.4578C126.852 76.6444 127.079 77.1094 127.472 77.1094C127.688 77.1094 127.803 77.0026 127.803 76.8017C127.803 76.4465 127.464 76.2666 127.154 76.4578ZM115.355 76.961C115.188 77.2322 115.565 77.5431 115.789 77.3187C115.977 77.1311 115.859 76.7843 115.608 76.7843C115.529 76.7843 115.416 76.8638 115.355 76.961ZM19.7742 77.3725C19.7153 77.526 19.7377 77.7223 19.8241 77.8086C20.059 78.0435 20.5227 77.8023 20.4601 77.4777C20.387 77.0971 19.908 77.0238 19.7742 77.3725ZM6.70146 77.4468C6.73349 77.5429 6.82909 77.6216 6.91413 77.6216C6.99916 77.6216 7.09477 77.5429 7.1268 77.4468C7.15883 77.3507 7.06323 77.272 6.91413 77.272C6.76503 77.272 6.66942 77.3507 6.70146 77.4468ZM140.897 77.7509C140.74 78.0047 140.946 78.2476 141.319 78.2476C141.543 78.2476 141.63 78.1578 141.592 77.9649C141.53 77.641 141.055 77.4948 140.897 77.7509ZM30.7341 78.3193C30.7341 78.4482 30.7925 78.5897 30.8639 78.6338C31.0718 78.7624 31.437 78.4642 31.3144 78.2658C31.1531 78.0047 30.7341 78.0434 30.7341 78.3193ZM44.6359 78.3146C44.3676 78.4338 43.9652 78.7294 43.7416 78.9715L43.3351 79.4116L43.2917 85.13C43.2501 90.6124 43.2618 90.8706 43.5748 91.3785C43.7543 91.67 44.1396 92.0538 44.4312 92.2315C44.935 92.5388 45.2604 92.5547 51.0583 92.5547C56.8562 92.5547 57.1816 92.5388 57.6855 92.2315C57.977 92.0538 58.3607 91.67 58.5384 91.3785C58.8441 90.8772 58.8617 90.5504 58.8617 85.3204C58.8617 80.063 58.8456 79.7659 58.5337 79.2544C58.3443 78.9438 57.9151 78.5845 57.518 78.4043C56.8803 78.1148 56.4052 78.0923 50.977 78.0949C46.4564 78.097 45.0126 78.1471 44.6359 78.3146ZM155.118 78.2476C155.118 78.337 155.191 78.4102 155.281 78.4102C155.37 78.4102 155.443 78.337 155.443 78.2476C155.443 78.1582 155.37 78.085 155.281 78.085C155.191 78.085 155.118 78.1582 155.118 78.2476ZM133.523 82.8409C133.551 83.042 133.684 83.2067 133.819 83.2067C133.953 83.2067 134.086 83.042 134.114 82.8409C134.154 82.5593 134.086 82.475 133.819 82.475C133.551 82.475 133.483 82.5593 133.523 82.8409ZM121.406 83.0835C121.359 83.1599 121.381 83.3208 121.456 83.4413C121.621 83.7081 122.167 83.5358 122.071 83.2472C121.99 83.003 121.526 82.8888 121.406 83.0835ZM13.174 83.7758C13.174 84.0207 13.2589 84.1085 13.4585 84.0701C13.6151 84.0398 13.7431 83.9075 13.7431 83.7758C13.7431 83.6441 13.6151 83.5117 13.4585 83.4815C13.2589 83.4431 13.174 83.5309 13.174 83.7758ZM47.2593 84.1128C46.6668 84.5788 46.6668 85.4116 47.2593 85.8776C47.6608 86.1936 47.8954 86.2147 50.9913 86.2147C53.0662 86.2147 54.4422 86.1475 54.6911 86.0342C55.5261 85.6537 55.569 84.5943 54.7721 84.0361C54.4604 83.8179 53.8583 83.7758 51.044 83.7758C47.8947 83.7758 47.6613 83.7966 47.2593 84.1128ZM148.019 84.1932C147.89 84.5284 148.227 84.8785 148.457 84.6484C148.643 84.4623 148.503 83.9384 148.267 83.9384C148.184 83.9384 148.073 84.053 148.019 84.1932ZM25.9181 84.3371C25.8036 84.6353 25.9701 84.9139 26.2628 84.9139C26.5974 84.9139 26.7242 84.607 26.5008 84.3377C26.2506 84.0364 26.0335 84.0361 25.9181 84.3371ZM139.889 89.3962C139.772 89.702 140.06 90.0355 140.308 89.8818C140.576 89.7161 140.52 89.1414 140.236 89.1414C140.099 89.1414 139.943 89.256 139.889 89.3962ZM6.42635 89.6292C6.36147 89.7342 6.38147 89.8932 6.4709 89.9826C6.57935 90.0911 6.67284 90.0817 6.75153 89.9543C6.81641 89.8493 6.79641 89.6903 6.70698 89.6009C6.59853 89.4924 6.50504 89.5018 6.42635 89.6292ZM19.0991 89.8074C19.0384 89.9054 19.089 90.0856 19.2114 90.208C19.4934 90.4899 19.9265 90.2508 19.7878 89.8895C19.6735 89.5916 19.2626 89.5427 19.0991 89.8074ZM127.507 89.995C127.535 90.1961 127.668 90.3608 127.803 90.3608C127.937 90.3608 128.07 90.1961 128.098 89.995C128.138 89.7134 128.07 89.6292 127.803 89.6292C127.535 89.6292 127.467 89.7134 127.507 89.995ZM30.7991 90.3446C30.7396 90.4997 30.7713 90.707 30.8697 90.8054C30.9998 90.9354 31.0782 90.9073 31.1569 90.7023C31.2164 90.5472 31.1847 90.3399 31.0863 90.2415C30.9562 90.1114 30.8778 90.1395 30.7991 90.3446ZM154.24 90.742C154.184 90.833 154.217 90.9564 154.313 91.0162C154.564 91.1707 154.725 90.9592 154.516 90.7504C154.399 90.6337 154.308 90.6309 154.24 90.742ZM146.176 95.2386C146.176 95.3728 146.285 95.4825 146.42 95.4825C146.554 95.4825 146.663 95.3728 146.663 95.2386C146.663 95.1045 146.554 94.9948 146.42 94.9948C146.285 94.9948 146.176 95.1045 146.176 95.2386ZM133.718 95.3934C133.603 95.6916 133.77 95.9703 134.062 95.9703C134.361 95.9703 134.493 95.7341 134.371 95.4159C134.247 95.0925 133.839 95.0785 133.718 95.3934ZM25.4231 95.8999C25.3693 96.0401 25.4033 96.2327 25.4986 96.328C25.7514 96.5809 26.1815 96.3589 26.1815 95.9754C26.1815 95.5744 25.5713 95.5137 25.4231 95.8999ZM12.8488 96.2955C12.8488 96.4761 12.9572 96.6207 13.0927 96.6207C13.2281 96.6207 13.3366 96.4761 13.3366 96.2955C13.3366 96.1149 13.2281 95.9703 13.0927 95.9703C12.9572 95.9703 12.8488 96.1149 12.8488 96.2955ZM159.183 97.2807C159.183 97.3753 159.256 97.4076 159.346 97.3524C159.435 97.2971 159.508 97.2197 159.508 97.1802C159.508 97.1407 159.435 97.1085 159.346 97.1085C159.256 97.1085 159.183 97.186 159.183 97.2807ZM126.664 98.2466C126.664 98.4562 126.747 98.5715 126.868 98.5312C126.979 98.4939 127.071 98.3658 127.071 98.2466C127.071 98.1274 126.979 97.9993 126.868 97.9621C126.747 97.9218 126.664 98.037 126.664 98.2466ZM151.216 101.905C151.216 102.039 151.326 102.149 151.46 102.149C151.594 102.149 151.704 102.039 151.704 101.905C151.704 101.771 151.594 101.661 151.46 101.661C151.326 101.661 151.216 101.771 151.216 101.905ZM140.16 102.149C140.16 102.366 140.268 102.474 140.485 102.474C140.702 102.474 140.81 102.366 140.81 102.149C140.81 101.932 140.702 101.824 140.485 101.824C140.268 101.824 140.16 101.932 140.16 102.149ZM6.10116 102.311C6.03628 102.417 6.05628 102.576 6.14571 102.665C6.25416 102.773 6.34765 102.764 6.42635 102.637C6.49122 102.532 6.47122 102.373 6.3818 102.283C6.27335 102.175 6.17985 102.184 6.10116 102.311ZM19.0566 102.84C19.0852 103.041 19.2184 103.206 19.3525 103.206C19.4867 103.206 19.6199 103.041 19.6485 102.84C19.6883 102.558 19.6202 102.474 19.3525 102.474C19.0849 102.474 19.0168 102.558 19.0566 102.84ZM30.3188 102.651C30.1514 102.922 30.5281 103.233 30.7525 103.009C30.9401 102.821 30.8227 102.474 30.5715 102.474C30.4927 102.474 30.379 102.554 30.3188 102.651ZM130.988 104.401C130.826 104.663 131.078 105.095 131.359 105.041C131.706 104.974 131.702 104.363 131.354 104.296C131.206 104.268 131.041 104.315 130.988 104.401ZM158.045 107.605C158.045 107.745 158.118 107.814 158.208 107.758C158.297 107.703 158.37 107.589 158.37 107.505C158.37 107.421 158.297 107.352 158.208 107.352C158.118 107.352 158.045 107.466 158.045 107.605ZM77.7575 108.124C77.8933 108.281 78.9939 109.653 80.2032 111.173C82.6116 114.2 84.1865 115.86 83.9822 115.156C83.6933 114.16 82.3282 110.87 81.6042 109.425L80.81 107.84H79.1604C77.6037 107.84 77.5247 107.856 77.7575 108.124ZM25.2059 108.978C25.2059 109.185 25.3144 109.303 25.504 109.303C25.8877 109.303 26.0186 109.166 25.909 108.881C25.7709 108.521 25.2059 108.599 25.2059 108.978ZM12.1083 108.992C12.0483 109.089 12.0836 109.253 12.1869 109.356C12.3287 109.498 12.41 109.487 12.5197 109.309C12.6747 109.059 12.5965 108.815 12.361 108.815C12.2822 108.815 12.1685 108.895 12.1083 108.992ZM145.923 109.317C145.863 109.414 145.889 109.569 145.981 109.661C146.186 109.866 146.501 109.693 146.501 109.375C146.501 109.101 146.082 109.059 145.923 109.317ZM135.865 110.055C135.723 110.426 136.181 110.908 136.434 110.655C136.68 110.409 136.555 109.887 136.235 109.825C136.091 109.798 135.925 109.901 135.865 110.055ZM32.0349 114.587C32.0349 114.755 32.1414 114.834 32.3194 114.8C32.6621 114.734 32.6405 114.446 32.2874 114.372C32.1401 114.341 32.0349 114.431 32.0349 114.587ZM153.204 114.699C153.305 115.001 153.655 115.051 153.655 114.763C153.655 114.622 153.539 114.506 153.398 114.506C153.256 114.506 153.169 114.593 153.204 114.699ZM5.46656 115.619C5.4103 115.71 5.44347 115.833 5.54021 115.893C5.79028 116.048 5.95157 115.836 5.7428 115.627C5.62606 115.51 5.53517 115.508 5.46656 115.619ZM18.8279 115.677C18.7004 116.023 18.8705 116.295 19.2148 116.295C19.4563 116.295 19.5247 116.203 19.4859 115.93C19.4283 115.528 18.9506 115.344 18.8279 115.677ZM142.026 116.788C141.963 116.89 141.988 117.05 142.082 117.143C142.3 117.362 142.809 117.171 142.721 116.904C142.63 116.632 142.17 116.555 142.026 116.788ZM132.721 117.148C132.758 117.26 132.886 117.351 133.006 117.351C133.125 117.351 133.253 117.26 133.29 117.148C133.33 117.027 133.215 116.945 133.006 116.945C132.796 116.945 132.681 117.027 132.721 117.148ZM26.361 120.674C26.0843 120.845 26.2415 121.335 26.5733 121.335C26.9302 121.335 27.0637 121.009 26.8104 120.756C26.6707 120.616 26.5036 120.586 26.361 120.674ZM62.8197 120.939C62.6916 121.273 62.9488 121.523 63.2372 121.345C63.4829 121.193 63.3698 120.685 63.0903 120.685C62.9951 120.685 62.8735 120.799 62.8197 120.939ZM50.925 121.056C50.6931 121.335 50.9544 121.735 51.2858 121.608C51.6037 121.486 51.6342 120.847 51.322 120.847C51.199 120.847 51.0203 120.941 50.925 121.056ZM12.1477 121.44C11.9243 121.663 12.0401 122.008 12.3204 121.954C12.4769 121.924 12.6049 121.797 12.6049 121.672C12.6049 121.415 12.3181 121.27 12.1477 121.44ZM39.9478 121.443C39.7439 121.647 39.839 122.158 40.0997 122.258C40.4414 122.389 40.6718 122 40.4727 121.628C40.3088 121.322 40.1315 121.259 39.9478 121.443ZM149.456 122.743C149.487 122.908 149.622 123.042 149.755 123.042C150.103 123.042 150.053 122.57 149.697 122.501C149.48 122.459 149.414 122.526 149.456 122.743ZM137.613 124.842C137.495 125.147 137.783 125.481 138.032 125.327C138.3 125.162 138.244 124.587 137.96 124.587C137.823 124.587 137.667 124.701 137.613 124.842ZM68.035 125.46C67.9129 125.778 68.0793 126.05 68.3955 126.05C68.555 126.05 68.6228 125.927 68.5892 125.697C68.5261 125.268 68.1674 125.115 68.035 125.46ZM32.9195 126.716C32.8589 126.814 32.9158 127.001 33.0459 127.131C33.2527 127.338 33.3076 127.337 33.4855 127.122C33.5974 126.988 33.6416 126.801 33.5839 126.708C33.4465 126.485 33.059 126.49 32.9195 126.716ZM57.2961 126.781C57.2398 126.928 57.2717 127.126 57.367 127.221C57.6147 127.469 58.084 127.242 58.0193 126.906C57.9473 126.532 57.4263 126.442 57.2961 126.781ZM19.2882 128.097C19.1672 128.412 19.2968 128.652 19.5886 128.652C19.8854 128.652 20.0185 128.245 19.7951 128.021C19.5452 127.771 19.4052 127.792 19.2882 128.097ZM7.55946 128.497C7.405 128.747 7.61653 128.909 7.8253 128.7C7.94204 128.583 7.94481 128.492 7.83376 128.424C7.7427 128.367 7.6193 128.4 7.55946 128.497ZM46.3956 128.912C46.2709 129.237 46.6663 129.506 46.9377 129.281C47.1837 129.077 47.0414 128.652 46.7271 128.652C46.5997 128.652 46.4506 128.769 46.3956 128.912ZM155.931 128.977C155.931 129.066 156.004 129.139 156.094 129.139C156.183 129.139 156.256 129.066 156.256 128.977C156.256 128.887 156.183 128.814 156.094 128.814C156.004 128.814 155.931 128.887 155.931 128.977ZM144.875 130.44C144.875 130.621 144.983 130.765 145.119 130.765C145.254 130.765 145.363 130.621 145.363 130.44C145.363 130.26 145.254 130.115 145.119 130.115C144.983 130.115 144.875 130.26 144.875 130.44ZM64.7975 133.042C64.6614 133.262 64.845 133.529 65.1323 133.529C65.2612 133.529 65.3666 133.383 65.3666 133.204C65.3666 132.868 64.9742 132.756 64.7975 133.042ZM26.731 133.278C26.6177 133.573 26.7823 133.855 27.0679 133.855C27.3167 133.855 27.4676 133.543 27.3634 133.245C27.2663 132.966 26.8421 132.989 26.731 133.278ZM74.0387 133.296C73.9031 133.65 74.2471 133.982 74.4934 133.735C74.7016 133.527 74.5726 133.042 74.3092 133.042C74.2141 133.042 74.0925 133.156 74.0387 133.296ZM38.376 134.252C38.376 134.38 38.4344 134.522 38.5058 134.566C38.7137 134.695 39.0789 134.396 38.9563 134.198C38.795 133.937 38.376 133.976 38.376 134.252ZM13.174 135.237C13.174 135.371 13.2837 135.481 13.4179 135.481C13.552 135.481 13.6618 135.371 13.6618 135.237C13.6618 135.103 13.552 134.993 13.4179 134.993C13.2837 134.993 13.174 135.103 13.174 135.237ZM53.3893 135.248C53.2537 135.601 53.5977 135.933 53.844 135.687C54.0522 135.478 53.9232 134.993 53.6598 134.993C53.5647 134.993 53.4431 135.107 53.3893 135.248ZM151.306 136.768C151.254 136.852 151.28 136.964 151.365 137.017C151.45 137.069 151.562 137.042 151.614 136.958C151.666 136.873 151.64 136.761 151.555 136.709C151.47 136.656 151.358 136.683 151.306 136.768ZM81.4126 139.163C81.1824 139.393 81.3126 139.708 81.6378 139.708C81.8651 139.708 81.9578 139.62 81.9223 139.437C81.8643 139.138 81.5867 138.988 81.4126 139.163ZM20.8775 140.27C20.7317 140.65 21.037 140.924 21.2801 140.631C21.4277 140.453 21.4157 140.356 21.2263 140.199C21.0273 140.034 20.963 140.047 20.8775 140.27ZM71.2925 140.373C71.1505 140.602 71.464 140.916 71.6936 140.774C71.7908 140.714 71.8703 140.559 71.8703 140.43C71.8703 140.156 71.4518 140.115 71.2925 140.373ZM45.642 140.951C45.4186 141.175 45.5344 141.52 45.8147 141.466C45.9711 141.435 46.0992 141.308 46.0992 141.183C46.0992 140.926 45.8124 140.781 45.642 140.951ZM32.5226 141.253C32.5226 141.387 32.6324 141.497 32.7665 141.497C32.9007 141.497 33.0104 141.387 33.0104 141.253C33.0104 141.119 32.9007 141.009 32.7665 141.009C32.6324 141.009 32.5226 141.119 32.5226 141.253ZM60.5413 141.432C60.4387 141.699 60.7777 142.026 61.0094 141.883C61.0808 141.839 61.1391 141.661 61.1391 141.487C61.1391 141.106 60.6822 141.064 60.5413 141.432ZM143.899 142.391C143.899 142.525 144.009 142.635 144.143 142.635C144.277 142.635 144.387 142.525 144.387 142.391C144.387 142.257 144.277 142.147 144.143 142.147C144.009 142.147 143.899 142.257 143.899 142.391ZM89.0127 145.092C88.8726 145.319 89.2958 145.598 89.4882 145.406C89.6444 145.25 89.4938 144.911 89.2678 144.911C89.189 144.911 89.0742 144.992 89.0127 145.092ZM78.2115 146.55C78.2115 146.947 78.5914 146.891 78.6705 146.483C78.7017 146.322 78.6188 146.212 78.4672 146.212C78.3165 146.212 78.2115 146.351 78.2115 146.55ZM39.6181 147.138C39.4238 147.332 39.5132 147.675 39.7581 147.675C39.8922 147.675 40.0019 147.57 40.0019 147.441C40.0019 147.169 39.7699 146.986 39.6181 147.138ZM52.5293 147.26C52.3065 147.528 52.429 147.838 52.7577 147.838C53.0685 147.838 53.1914 147.406 52.94 147.197C52.7838 147.068 52.675 147.084 52.5293 147.26ZM13.8244 147.431C13.8244 147.565 13.8975 147.675 13.987 147.675C14.0764 147.675 14.1495 147.565 14.1495 147.431C14.1495 147.297 14.0764 147.187 13.987 147.187C13.8975 147.187 13.8244 147.297 13.8244 147.431ZM25.9691 147.779C25.8174 147.931 26.0007 148.163 26.2724 148.163C26.4013 148.163 26.5067 148.053 26.5067 147.919C26.5067 147.674 26.1634 147.585 25.9691 147.779ZM66.8299 148.569C66.8299 148.704 66.9397 148.813 67.0738 148.813C67.2079 148.813 67.3177 148.704 67.3177 148.569C67.3177 148.435 67.2079 148.325 67.0738 148.325C66.9397 148.325 66.8299 148.435 66.8299 148.569ZM121.949 151.252C121.949 151.342 122.022 151.415 122.112 151.415C122.201 151.415 122.274 151.342 122.274 151.252C122.274 151.163 122.201 151.09 122.112 151.09C122.022 151.09 121.949 151.163 121.949 151.252ZM96.0426 151.361C95.8446 151.559 95.9306 151.903 96.1781 151.903C96.3135 151.903 96.422 151.758 96.422 151.577C96.422 151.253 96.2486 151.154 96.0426 151.361ZM112.031 152.228C112.031 152.317 112.104 152.39 112.194 152.39C112.283 152.39 112.356 152.317 112.356 152.228C112.356 152.138 112.283 152.065 112.194 152.065C112.104 152.065 112.031 152.138 112.031 152.228ZM85.203 152.39C85.203 152.48 85.2762 152.553 85.3656 152.553C85.455 152.553 85.5282 152.48 85.5282 152.39C85.5282 152.301 85.455 152.228 85.3656 152.228C85.2762 152.228 85.203 152.301 85.203 152.39ZM45.6927 153.863C45.6927 153.958 45.7659 153.99 45.8553 153.935C45.9447 153.88 46.0179 153.802 46.0179 153.763C46.0179 153.723 45.9447 153.691 45.8553 153.691C45.7659 153.691 45.6927 153.769 45.6927 153.863ZM59.3506 153.945C59.3506 154.084 59.4238 154.153 59.5132 154.098C59.6026 154.042 59.6758 153.928 59.6758 153.844C59.6758 153.76 59.6026 153.691 59.5132 153.691C59.4238 153.691 59.3506 153.805 59.3506 153.945ZM73.984 153.854C73.984 153.943 74.0572 154.016 74.1466 154.016C74.2361 154.016 74.3092 153.943 74.3092 153.854C74.3092 153.764 74.2361 153.691 74.1466 153.691C74.0572 153.691 73.984 153.764 73.984 153.854ZM33.3356 154.341C33.3356 154.431 33.4088 154.504 33.4982 154.504C33.5876 154.504 33.6608 154.431 33.6608 154.341C33.6608 154.252 33.5876 154.179 33.4982 154.179C33.4088 154.179 33.3356 154.252 33.3356 154.341ZM19.6777 154.504C19.6777 154.593 19.7509 154.667 19.8403 154.667C19.9298 154.667 20.0029 154.593 20.0029 154.504C20.0029 154.415 19.9298 154.341 19.8403 154.341C19.7509 154.341 19.6777 154.415 19.6777 154.504Z" fill="url(#paint0_linear_29234_33113)"/>
</g>
<defs>
<filter id="filter0_n_29234_33113" x="0.166489" y="5.33331" width="159.667" height="149.333" filterUnits="userSpaceOnUse" color-interpolation-filters="sRGB">
<feFlood flood-opacity="0" result="BackgroundImageFix"/>
<feBlend mode="normal" in="SourceGraphic" in2="BackgroundImageFix" result="shape"/>
<feTurbulence type="fractalNoise" baseFrequency="12.005715370178223 12.005715370178223" stitchTiles="stitch" numOctaves="3" result="noise" seed="9169" />
<feColorMatrix in="noise" type="luminanceToAlpha" result="alphaNoise" />
<feComponentTransfer in="alphaNoise" result="coloredNoise1">
<feFuncA type="discrete" tableValues="1 1 1 1 1 1 1 1 1 1 1 1 1 1 1 1 1 1 1 1 1 1 1 1 1 1 1 1 1 1 1 1 1 1 1 1 1 1 1 1 1 1 1 1 1 1 1 1 1 1 1 0 0 0 0 0 0 0 0 0 0 0 0 0 0 0 0 0 0 0 0 0 0 0 0 0 0 0 0 0 0 0 0 0 0 0 0 0 0 0 0 0 0 0 0 0 0 0 0 0 "/>
</feComponentTransfer>
<feComposite operator="in" in2="shape" in="coloredNoise1" result="noise1Clipped" />
<feComponentTransfer in="alphaNoise" result="coloredNoise2">
<feFuncA type="discrete" tableValues="0 0 0 0 0 0 0 0 0 0 0 0 0 0 0 0 0 0 0 0 0 0 0 0 0 0 0 0 0 0 0 0 0 0 0 0 0 0 0 0 0 0 0 0 0 0 0 0 0 1 1 1 1 1 1 1 1 1 1 1 1 1 1 1 1 1 1 1 1 1 1 1 1 1 1 1 1 1 1 1 1 1 1 1 1 1 1 1 1 1 1 1 1 1 1 1 1 1 1 1 "/>
</feComponentTransfer>
<feComposite operator="in" in2="shape" in="coloredNoise2" result="noise2Clipped" />
<feFlood flood-color="rgba(0, 0, 0, 0.25)" result="color1Flood" />
<feComposite operator="in" in2="noise1Clipped" in="color1Flood" result="color1" />
<feFlood flood-color="rgba(255, 255, 255, 0.25)" result="color2Flood" />
<feComposite operator="in" in2="noise2Clipped" in="color2Flood" result="color2" />
<feMerge result="effect1_noise_29234_33113">
<feMergeNode in="shape" />
<feMergeNode in="color1" />
<feMergeNode in="color2" />
</feMerge>
</filter>
<linearGradient id="paint0_linear_29234_33113" x1="159.625" y1="5.33331" x2="10.6253" y2="164.644" gradientUnits="userSpaceOnUse">
<stop stop-color="#1EDFAD"/>
<stop offset="0.5" stop-color="#11A7ED"/>
<stop offset="1" stop-color="#9738F5"/>
</linearGradient>
</defs>
</svg>
