<svg width="480" height="480" viewBox="0 0 480 480" fill="none" xmlns="http://www.w3.org/2000/svg">
<g filter="url(#filter0_n_29222_16652)">
<path fill-rule="evenodd" clip-rule="evenodd" d="M223.405 14.5166C223.405 14.8007 223.652 15.0331 223.953 15.0331C224.254 15.0331 224.356 14.8007 224.181 14.5166C224.005 14.2325 223.759 14 223.633 14C223.508 14 223.405 14.2325 223.405 14.5166ZM153.614 26.9141C153.614 27.1982 153.963 27.4307 154.39 27.4307C154.816 27.4307 155.165 27.1982 155.165 26.9141C155.165 26.63 154.816 26.3975 154.39 26.3975C153.963 26.3975 153.614 26.63 153.614 26.9141ZM339.207 29.2386C339.207 29.7123 339.457 30.0161 339.762 29.9143C340.068 29.8125 340.318 29.5088 340.318 29.2386C340.318 28.9685 340.068 28.6647 339.762 28.563C339.457 28.4612 339.207 28.7649 339.207 29.2386ZM112.257 38.7951C112.257 39.0792 112.489 39.3116 112.774 39.3116C113.058 39.3116 113.291 39.0792 113.291 38.7951C113.291 38.5109 113.058 38.2785 112.774 38.2785C112.489 38.2785 112.257 38.5109 112.257 38.7951ZM270.45 39.0533C270.45 39.4795 270.682 39.8282 270.967 39.8282C271.251 39.8282 271.483 39.4795 271.483 39.0533C271.483 38.6272 271.251 38.2785 270.967 38.2785C270.682 38.2785 270.45 38.6272 270.45 39.0533ZM186.183 43.4441C186.183 43.7282 186.416 43.9607 186.7 43.9607C186.985 43.9607 187.217 43.7282 187.217 43.4441C187.217 43.16 186.985 42.9276 186.7 42.9276C186.416 42.9276 186.183 43.16 186.183 43.4441ZM321.113 44.7355C320.598 45.3549 320.602 45.671 321.134 46.3111C321.72 47.0162 321.89 47.0213 322.561 46.3513C323.327 45.5853 323.1 43.9607 322.226 43.9607C321.968 43.9607 321.467 44.3094 321.113 44.7355ZM240.824 48.9398C240.411 49.3526 240.878 50.1595 241.53 50.1595C241.798 50.1595 242.016 49.8108 242.016 49.3846C242.016 48.586 241.406 48.3582 240.824 48.9398ZM295.781 49.6429C295.781 49.927 296 50.1595 296.268 50.1595C296.535 50.1595 296.898 49.927 297.074 49.6429C297.249 49.3588 297.03 49.1263 296.587 49.1263C296.144 49.1263 295.781 49.3588 295.781 49.6429ZM362.815 49.4709C362.22 50.0649 362.438 50.676 363.246 50.676C363.672 50.676 364.021 50.3273 364.021 49.9012C364.021 49.0943 363.41 48.8763 362.815 49.4709ZM140.69 54.0337C140.69 54.5074 140.94 54.8111 141.246 54.7093C141.551 54.6076 141.802 54.3033 141.802 54.0337C141.802 53.7635 141.551 53.4598 141.246 53.358C140.94 53.2563 140.69 53.56 140.69 54.0337ZM428.901 61.5239C428.725 61.808 428.828 62.0404 429.129 62.0404C429.43 62.0404 429.676 61.808 429.676 61.5239C429.676 61.2397 429.574 61.0073 429.448 61.0073C429.323 61.0073 429.077 61.2397 428.901 61.5239ZM209.964 62.0554C209.964 62.7951 210.747 63.0317 211.54 62.5306C211.952 62.2698 212.174 62.0347 212.032 62.0089C211.89 61.9826 211.366 61.8834 210.869 61.7883C210.371 61.6933 209.964 61.8136 209.964 62.0554ZM394.005 62.557C394.005 62.8411 394.238 63.0735 394.522 63.0735C394.807 63.0735 395.039 62.8411 395.039 62.557C395.039 62.2729 394.807 62.0404 394.522 62.0404C394.238 62.0404 394.005 62.2729 394.005 62.557ZM112.257 63.0735C112.257 63.3577 112.489 63.5901 112.774 63.5901C113.058 63.5901 113.291 63.3577 113.291 63.0735C113.291 62.7894 113.058 62.557 112.774 62.557C112.489 62.557 112.257 62.7894 112.257 63.0735ZM272.803 63.5462C272.637 63.8153 272.721 64.1712 272.99 64.3376C273.26 64.5039 273.616 64.4197 273.782 64.1506C273.949 63.8815 273.865 63.5255 273.595 63.3592C273.326 63.1929 272.97 63.2771 272.803 63.5462ZM90.2855 67.2061C90.1097 67.4902 90.3289 67.7226 90.7719 67.7226C91.215 67.7226 91.5779 67.4902 91.5779 67.2061C91.5779 66.9219 91.3592 66.6895 91.0914 66.6895C90.8236 66.6895 90.4612 66.9219 90.2855 67.2061ZM351.788 69.5652C351.414 70.5369 352.329 71.5963 353.12 71.1082C353.972 70.5818 353.793 68.7557 352.89 68.7557C352.454 68.7557 351.959 69.1199 351.788 69.5652ZM45.1498 73.9601C45.2517 74.2654 45.5556 74.5154 45.826 74.5154C46.0964 74.5154 46.4004 74.2654 46.5022 73.9601C46.6041 73.6548 46.3001 73.4048 45.826 73.4048C45.352 73.4048 45.048 73.6548 45.1498 73.9601ZM246.41 74.4379C246.204 74.7716 246.268 75.2768 246.552 75.561C246.897 75.9055 247.194 75.8755 247.444 75.4711C247.651 75.1374 247.587 74.6322 247.303 74.3481C246.958 74.0035 246.661 74.0335 246.41 74.4379ZM128.283 74.9545C128.283 75.2386 128.515 75.4711 128.8 75.4711C129.084 75.4711 129.317 75.2386 129.317 74.9545C129.317 74.6704 129.084 74.4379 128.8 74.4379C128.515 74.4379 128.283 74.6704 128.283 74.9545ZM173.535 75.4437C173.08 76.1788 173.66 77.0208 174.62 77.0208C175.073 77.0208 175.332 76.6576 175.236 76.1596C175.034 75.1219 174.002 74.688 173.535 75.4437ZM372.034 77.0208C372.21 77.3049 372.456 77.5373 372.582 77.5373C372.707 77.5373 372.81 77.3049 372.81 77.0208C372.81 76.7367 372.563 76.5042 372.262 76.5042C371.961 76.5042 371.858 76.7367 372.034 77.0208ZM286.476 77.5373C286.476 77.8214 286.708 78.0539 286.993 78.0539C287.277 78.0539 287.51 77.8214 287.51 77.5373C287.51 77.2532 287.277 77.0208 286.993 77.0208C286.708 77.0208 286.476 77.2532 286.476 77.5373ZM312.066 81.146C288.813 83.639 266.948 95.4554 252.788 113.18C244.868 123.095 238.521 136.594 235.701 149.521C234.721 154.017 234.557 156.345 234.554 165.87C234.55 176.245 234.645 177.381 236.002 183.134C240.023 200.176 246.636 212.302 258.301 224.013C266.658 232.405 277.555 239.591 287.251 243.105C288.673 243.62 290.069 244.27 290.353 244.549C290.694 244.883 290.581 244.955 290.023 244.76C289.558 244.598 283.742 244.176 277.099 243.823C265.04 243.183 265.018 243.184 262.8 244.324C260.979 245.26 260.048 245.412 257.63 245.167C256.009 245.002 249.725 244.534 243.667 244.127C226.367 242.964 227.467 241.942 221.412 264.792C219.981 270.19 218.327 276.165 217.734 278.071L216.657 281.536L214.274 279.254C212.963 277.999 210.004 275.992 207.698 274.793C205.391 273.594 202.458 271.868 201.177 270.958C196.181 267.404 187.142 263.74 179.635 262.226C172.698 260.827 172.742 260.863 172.742 256.722C172.742 253.341 172.801 253.169 173.952 253.169C176.379 253.169 183.446 251.042 187.582 249.066C196.262 244.92 203.055 239.177 208.488 231.392C210.295 228.801 213.006 225.261 214.512 223.524C222.266 214.583 225.979 198.87 223.679 184.724C222.361 176.614 219.747 170.539 215.696 166.171C214.356 164.727 212.137 161.718 210.764 159.484C207.409 154.026 203.218 148.835 197.927 143.584L193.539 139.228L197.084 132.016C199.034 128.048 201.109 123.385 201.694 121.652C202.66 118.793 202.897 118.498 204.25 118.46C207.51 118.367 210.481 115.374 210.481 112.182C210.481 107.268 205.017 103.954 200.642 106.215C197.629 107.772 196.62 112.414 198.592 115.646L199.624 117.337L197.558 121.442C196.423 123.7 194.544 127.936 193.384 130.857C192.223 133.778 191.097 136.35 190.881 136.574C190.665 136.798 188.883 136.006 186.922 134.816C172.001 125.758 150.143 123.536 133.194 129.355C126.499 131.653 118.912 135.941 113.219 140.643C111.9 141.733 110.62 142.615 110.375 142.602C110.131 142.59 108.767 140.933 107.346 138.92C105.924 136.908 103.431 133.81 101.805 132.037C98.9938 128.972 98.8729 128.729 99.3418 127.095C100.067 124.569 99.1505 121.846 96.9156 119.886C95.1853 118.368 94.8012 118.251 92.235 118.463C89.9655 118.651 89.1357 118.998 87.8293 120.304C86.464 121.668 86.1849 122.386 85.9931 125.035C85.7708 128.107 85.8013 128.192 87.8361 130.226C89.6615 132.049 90.1908 132.293 92.3265 132.293C93.6582 132.293 95.1739 132.065 95.695 131.787C96.456 131.379 96.821 131.557 97.5551 132.691C98.0571 133.466 99.4348 135.263 100.617 136.684C101.798 138.104 103.894 140.727 105.273 142.511L107.782 145.756L105.956 147.677C101.328 152.547 97.5691 158.871 94.1441 167.549C92.9386 170.603 91.7464 173.102 91.4952 173.102C90.3377 173.102 86.3922 177.555 84.9426 180.497C82.533 185.387 81.5652 190.032 81.5864 196.605C81.6086 203.564 82.6896 208.813 85.1132 213.733C88.2016 220.003 93.9668 224.241 99.4069 224.241C100.589 224.241 101.228 224.804 102.996 227.406C105.999 231.826 111.719 237.707 116.554 241.347C120.644 244.426 133.338 251.103 135.103 251.103C135.935 251.103 136.037 251.613 136.037 255.752C136.037 260.288 136.008 260.401 134.822 260.401C132.999 260.401 130.299 261.423 128.399 262.833C127.467 263.524 125.141 264.524 123.229 265.054C116.311 266.971 110.395 269.854 103.359 274.739C100.32 276.848 98.299 277.801 94.8565 278.747C87.8293 280.679 84.1216 282.743 79.6405 287.218C73.3991 293.451 70.3821 300.721 70.3821 309.529C70.3821 314.955 71.6699 319.56 74.1679 323.071L75.9121 325.522L75.6619 338.058C75.5146 345.467 75.6614 353.751 76.0223 358.315C76.8406 368.681 79.0936 389.118 79.7744 392.357C80.6295 396.423 82.6281 400.157 85.7589 403.535C91.3928 409.616 95.8501 411.227 108.121 411.617C125.703 412.175 159.738 409.095 166.312 406.35C167.205 405.977 170.653 405.594 174.078 405.488L180.238 405.297L180.083 409.171C179.898 413.791 180.809 415.692 183.925 417.187C187.464 418.884 240.724 425.031 298.318 430.388C305.809 431.085 308.282 430.844 311.772 429.077C316.403 426.732 317.875 423.963 323.732 406.588C326.078 399.628 328.368 393.497 328.82 392.964C329.272 392.432 332.551 390.079 336.105 387.736C347.391 380.296 364.249 366.098 376.764 353.493C382.238 347.98 383.63 346.872 387.372 345.051C389.741 343.899 392.087 342.591 392.587 342.146C393.086 341.7 393.573 341.431 393.669 341.547C393.764 341.664 394.751 343.472 395.862 345.565C399.25 351.946 403.742 354.951 408.668 354.13C413.325 353.354 418.424 349.51 420.087 345.521C420.528 344.465 420.888 342.261 420.888 340.623C420.888 337.924 420.491 336.855 416.645 329.211C413.112 322.188 412.505 320.631 413.019 319.904C414.462 317.859 415.298 315.181 415.568 311.741C415.993 306.327 415.441 303.751 413.104 300.255C411.587 297.984 411.065 296.681 411.065 295.157C411.065 291.604 409.736 288.301 407.282 285.755C405.409 283.811 404.896 282.842 404.415 280.335C402.977 272.845 398.537 269.219 391.778 270.012L388.954 270.344L384.663 261.94C379.971 252.751 378.789 251.046 376.43 250.07C375.127 249.531 374.246 248.205 371.256 242.28L367.652 235.14L370.877 232.697C385.7 221.466 395.979 207.415 401.987 190.166C404.876 181.874 405.925 176.025 406.257 166.353C406.708 153.199 405.166 143.484 400.97 133.053C396.732 122.52 391.325 114.492 382.693 105.923C369.741 93.0647 353.815 84.9908 335.329 81.9116C329.556 80.9497 317.573 80.5556 312.066 81.146ZM312.583 87.1428C305.784 88.1031 300.324 89.3098 295.173 90.9892C267.786 99.92 247.943 121.818 241.763 149.934C241.266 152.197 240.81 157.486 240.635 163.029C240.383 171.042 240.494 173.21 241.438 178.717C244.27 195.251 251.104 208.588 262.663 220.144C273.657 231.135 286.33 237.956 302.146 241.393C306.672 242.376 309.014 242.54 318.786 242.554C329.325 242.569 330.579 242.47 335.872 241.206C353.694 236.949 368.666 227.962 379.623 214.943C388.228 204.718 393.952 193.274 397.177 179.845C398.73 173.377 399.122 156.608 397.893 149.223C395.217 133.142 387.843 119.577 375.431 107.901C367.668 100.6 358.293 95.0127 347.513 91.2635C338.742 88.2126 333.411 87.3009 323.181 87.1005C318.205 87.0034 313.436 87.0225 312.583 87.1428ZM220.82 87.8686C220.82 88.1527 221.286 88.3852 221.854 88.3852C222.423 88.3852 222.888 88.1527 222.888 87.8686C222.888 87.5845 222.423 87.352 221.854 87.352C221.286 87.352 220.82 87.5845 220.82 87.8686ZM166.539 88.9322C166.539 89.2328 166.771 89.3356 167.056 89.16C167.34 88.9844 167.573 88.7385 167.573 88.613C167.573 88.4874 167.34 88.3852 167.056 88.3852C166.771 88.3852 166.539 88.6316 166.539 88.9322ZM309.481 90.6508C277.304 95.9766 253.227 117.392 245.347 147.695C242.592 158.29 242.689 172.637 245.593 184.128C252.663 212.1 273.834 232.153 303.019 238.521C309.79 239.999 326.624 239.86 334.037 238.266C350.015 234.829 362.028 228.338 373.342 217.027C386.344 204.028 393.762 188.113 395.642 169.184C396.671 158.819 394.948 145.368 391.458 136.522C385.04 120.249 371.859 105.98 356.124 98.2675C349.611 95.0747 343.297 92.8596 336.725 91.4618C330.246 90.0836 315.55 89.6461 309.481 90.6508ZM387.473 91.7392C387.294 92.2057 387.395 92.8348 387.698 93.1375C388.486 93.9248 389.978 93.2052 389.772 92.138C389.543 90.9489 387.887 90.6617 387.473 91.7392ZM86.236 94.9285C85.641 95.5225 85.8592 96.1336 86.6667 96.1336C87.0932 96.1336 87.4421 95.7849 87.4421 95.3588C87.4421 94.5519 86.8306 94.3339 86.236 94.9285ZM115.471 95.18C115.74 95.9848 116.896 96.1254 116.937 95.3588C116.952 95.0747 116.576 94.7621 116.102 94.6635C115.563 94.5524 115.326 94.7456 115.471 95.18ZM312.583 95.9394C297.437 98.2252 285.727 103.261 274.788 112.193C262.499 122.227 254.163 136.034 250.719 152.06C249.094 159.621 249.097 172.649 250.726 180.231C255.944 204.522 273.295 223.76 296.627 231.125C304.35 233.563 309.316 234.275 318.528 234.265C327.725 234.254 333.768 233.311 341.757 230.637C362.349 223.745 379.422 206.741 386.721 185.855C389.647 177.484 390.577 171.768 390.562 162.254C390.545 151.185 388.947 143.592 384.583 133.843C378.073 119.3 362.496 105.472 346.186 99.7558C338.037 96.8997 333.163 96.0789 323.181 95.8831C318.205 95.7854 313.436 95.8108 312.583 95.9394ZM193.163 102.332C192.987 102.616 193.09 102.849 193.391 102.849C193.691 102.849 193.938 102.616 193.938 102.332C193.938 102.048 193.836 101.816 193.71 101.816C193.584 101.816 193.338 102.048 193.163 102.332ZM148.675 104.444C148.143 105.305 149.341 106.293 150.054 105.58C150.651 104.984 150.277 103.882 149.479 103.882C149.228 103.882 148.866 104.135 148.675 104.444ZM242.792 104.399C242.616 104.683 242.719 104.915 243.02 104.915C243.321 104.915 243.567 104.683 243.567 104.399C243.567 104.115 243.465 103.882 243.339 103.882C243.213 103.882 242.967 104.115 242.792 104.399ZM407.964 110.081C407.964 110.365 408.196 110.597 408.481 110.597C408.765 110.597 408.998 110.365 408.998 110.081C408.998 109.797 408.765 109.564 408.481 109.564C408.196 109.564 407.964 109.797 407.964 110.081ZM56.9409 111.114C56.9409 111.398 57.1735 111.631 57.4579 111.631C57.7422 111.631 57.9748 111.398 57.9748 111.114C57.9748 110.83 57.7422 110.597 57.4579 110.597C57.1735 110.597 56.9409 110.83 56.9409 111.114ZM228.058 111.889C228.058 112.315 228.407 112.664 228.833 112.664C229.26 112.664 229.609 112.315 229.609 111.889C229.609 111.463 229.26 111.114 228.833 111.114C228.407 111.114 228.058 111.463 228.058 111.889ZM447.77 111.631C447.77 111.915 448.003 112.147 448.287 112.147C448.572 112.147 448.804 111.915 448.804 111.631C448.804 111.346 448.572 111.114 448.287 111.114C448.003 111.114 447.77 111.346 447.77 111.631ZM424.507 115.246C424.507 115.531 424.856 115.763 425.282 115.763C425.709 115.763 426.058 115.531 426.058 115.246C426.058 114.962 425.709 114.73 425.282 114.73C424.856 114.73 424.507 114.962 424.507 115.246ZM137.33 118.346C137.154 118.63 137.257 118.862 137.558 118.862C137.859 118.862 138.105 118.63 138.105 118.346C138.105 118.062 138.003 117.829 137.877 117.829C137.752 117.829 137.506 118.062 137.33 118.346ZM144.567 129.942C142.293 130.297 139.036 130.99 137.33 131.481C133.056 132.71 124.505 136.489 125.019 136.92C125.25 137.114 127.184 137.547 129.317 137.882C134.257 138.659 141.249 142.039 145.938 145.917C149.864 149.165 154.91 154.943 157.589 159.259C159.181 161.823 159.594 162.177 160.781 161.99C167.847 160.881 203.509 159.987 207.275 160.825L208.981 161.205L206.241 157.227C200.489 148.874 189.868 139.548 181.136 135.18C171.17 130.194 156.449 128.086 144.567 129.942ZM302.51 135.821C300.782 137.548 300.918 136.587 299.133 159.671C298.419 168.905 297.477 180.597 297.04 185.654C296.603 190.711 296.4 195.36 296.591 195.985C297.502 198.973 300.633 200.163 303.602 198.649C304.561 198.16 311.277 194.225 318.528 189.904C325.778 185.584 336.254 179.35 341.807 176.051C347.36 172.752 352.429 169.493 353.072 168.81C354.713 167.064 355.007 164.441 353.777 162.512C352.782 160.95 350.08 159.266 320.867 141.994C306.398 133.439 305.273 133.061 302.51 135.821ZM416.235 136.426C416.235 136.71 416.468 136.942 416.752 136.942C417.036 136.942 417.269 136.71 417.269 136.426C417.269 136.141 417.036 135.909 416.752 135.909C416.468 135.909 416.235 136.141 416.235 136.426ZM122.24 148.177C120.784 152.368 118.256 159.632 116.623 164.32L113.654 172.843L116.013 175.26C118.751 178.065 121.013 182.512 122.67 188.347C123.587 191.577 123.844 193.818 123.854 198.671C123.866 204.143 123.702 205.329 122.457 208.783C121.681 210.936 121.046 213.144 121.048 213.691C121.052 215.408 125.46 224.543 128.453 229.038C136.39 240.958 148.597 248.688 162.507 250.605C167.701 251.32 174.996 250.843 176.125 249.715C177.698 248.143 179.035 244.934 181.534 236.733L183 231.92L171.538 232.266C158.237 232.668 154.817 232.195 148.445 229.07C139.694 224.778 133.601 215.072 131.829 202.598C129.562 186.651 137.992 168.644 149.856 164.088C150.928 163.676 152.796 163.085 154.007 162.775L156.209 162.211L154.061 159.004C150.695 153.976 142.63 146.321 138.316 144.059C134.336 141.973 129.657 140.558 126.736 140.558H124.889L122.24 148.177ZM222.752 141.384C222.248 141.886 222.939 143.141 223.719 143.141C224.115 143.141 224.439 142.676 224.439 142.108C224.439 141.135 223.432 140.703 222.752 141.384ZM36.8783 142.147C36.9802 142.452 37.2841 142.702 37.5545 142.702C37.8249 142.702 38.1289 142.452 38.2307 142.147C38.3325 141.841 38.0286 141.591 37.5545 141.591C37.0804 141.591 36.7765 141.841 36.8783 142.147ZM435.88 142.624C435.88 142.908 436.113 143.141 436.397 143.141C436.681 143.141 436.914 142.908 436.914 142.624C436.914 142.34 436.681 142.108 436.397 142.108C436.113 142.108 435.88 142.34 435.88 142.624ZM372.293 146.757C372.293 147.041 372.525 147.273 372.81 147.273C373.094 147.273 373.327 147.041 373.327 146.757C373.327 146.473 373.094 146.24 372.81 146.24C372.525 146.24 372.293 146.473 372.293 146.757ZM61.0766 148.307C61.0766 148.591 61.4396 148.823 61.8826 148.823C62.3256 148.823 62.5448 148.591 62.3691 148.307C62.1933 148.022 61.8309 147.79 61.5631 147.79C61.2953 147.79 61.0766 148.022 61.0766 148.307ZM84.3403 151.148C84.3403 151.621 84.5905 151.925 84.896 151.823C85.2016 151.722 85.4518 151.417 85.4518 151.148C85.4518 150.878 85.2016 150.574 84.896 150.472C84.5905 150.37 84.3403 150.674 84.3403 151.148ZM422.72 160.668C422.337 161.287 423.309 161.899 423.998 161.474C424.576 161.117 424.196 160.188 423.473 160.188C423.222 160.188 422.883 160.404 422.72 160.668ZM24.3718 163.317C24.3718 163.618 24.6044 163.721 24.8887 163.545C25.1731 163.37 25.4057 163.124 25.4057 162.998C25.4057 162.873 25.1731 162.77 24.8887 162.77C24.6044 162.77 24.3718 163.017 24.3718 163.317ZM190.836 163.071C190.125 163.151 184.309 163.478 177.912 163.798C154.778 164.953 152.211 165.386 146.638 169.074C142.187 172.02 137.506 179.608 135.228 187.565C133.806 192.535 133.911 201.966 135.45 207.424C138.902 219.675 146.093 226.847 157.282 229.201C160.596 229.899 162.672 229.93 172.742 229.434C199.416 228.122 204.276 227.341 209.728 223.485C216.963 218.367 221.197 208.314 221.7 195.056C222.015 186.768 220.857 180.342 217.97 174.343C214.773 167.703 211.202 164.576 205.415 163.35C202.991 162.837 194.373 162.672 190.836 163.071ZM79.6876 166.386C79.6876 167.075 80.0324 167.419 80.7215 167.419C81.4106 167.419 81.7555 167.075 81.7555 166.386C81.7555 165.698 81.4106 165.353 80.7215 165.353C80.0324 165.353 79.6876 165.698 79.6876 166.386ZM187.476 166.225C167.802 167.241 156.541 168.098 154.131 168.764C139.549 172.794 132.151 197.824 140.768 213.979C142.818 217.822 147.132 222.272 150.425 223.939C156.57 227.05 159.686 227.262 181.317 226.035C202.325 224.844 205.602 224.002 211.3 218.332C214.716 214.933 216.985 210.812 218.573 205.129C219.916 200.317 219.931 186.028 218.596 181.712C216.073 173.549 211.868 168.151 206.897 166.693C204.204 165.903 197.051 165.731 187.476 166.225ZM46.6015 173.102C46.6015 173.386 46.8341 173.618 47.1185 173.618C47.4028 173.618 47.6354 173.386 47.6354 173.102C47.6354 172.817 47.4028 172.585 47.1185 172.585C46.8341 172.585 46.6015 172.817 46.6015 173.102ZM106.955 175.498C111.96 180.134 114.847 186.905 115.635 195.856C116.371 204.234 113.626 213.831 109.066 218.816C107.636 220.38 106.612 221.659 106.791 221.659C108.087 221.659 113.524 218.194 115.183 216.312C122.613 207.878 123.453 194.54 117.337 182.141C114.979 177.36 112.154 174.911 107.862 173.925C107.009 173.729 105.846 173.438 105.278 173.278C104.668 173.106 105.355 174.016 106.955 175.498ZM370.819 173.592C371.042 174.258 371.75 174.378 371.814 173.76C371.836 173.554 371.574 173.293 371.233 173.179C370.892 173.065 370.706 173.251 370.819 173.592ZM93.3873 175.462C87.5843 178.472 84.3403 186.066 84.3403 196.641C84.3403 205.726 86.3394 212.134 90.623 216.777C95.6335 222.209 101.083 222.521 106.124 217.665C110.622 213.332 112.823 206.994 112.811 198.413C112.796 187.649 108.701 178.841 102.265 175.728C99.6018 174.439 95.5906 174.319 93.3873 175.462ZM446.219 178.526C446.219 179.058 446.558 179.311 447.124 179.202C448.214 178.992 448.145 178.076 447.022 177.842C446.554 177.744 446.219 178.029 446.219 178.526ZM61.8521 180.85C61.6763 181.134 61.8955 181.367 62.3386 181.367C62.7816 181.367 63.1445 181.134 63.1445 180.85C63.1445 180.566 62.9258 180.333 62.6581 180.333C62.3903 180.333 62.0279 180.566 61.8521 180.85ZM94.6797 184.829C92.9742 185.446 90.5171 188.405 89.6506 190.884C89.0184 192.693 88.747 194.947 88.7744 198.155C88.8214 203.586 90.0415 207.038 92.8879 209.795C94.3266 211.188 95.1517 211.54 97.4233 211.728C99.9523 211.937 100.363 211.815 102.027 210.355C104.901 207.834 106.242 204.175 106.214 198.93C106.19 194.096 105.318 191.056 103.14 188.203C100.784 185.117 97.4998 183.807 94.6797 184.829ZM9.12115 186.532C8.91487 186.866 8.97846 187.371 9.26279 187.655C9.60761 188 9.90487 187.97 10.1551 187.565C10.3614 187.232 10.2978 186.726 10.0134 186.442C9.66862 186.098 9.37136 186.128 9.12115 186.532ZM199.757 190.168C196.578 191.432 195.374 198.106 197.702 201.559C200.083 205.089 203.551 204.774 205.325 200.866C206.506 198.268 206.609 195.903 205.641 193.618C204.411 190.714 201.975 189.286 199.757 190.168ZM163.969 191.325C159.565 193.552 158.979 202.002 163.032 204.839C166.6 207.336 171.216 203.632 171.18 198.301C171.163 195.733 169.435 192.402 167.639 191.474C165.765 190.506 165.604 190.499 163.969 191.325ZM416.235 192.473C416.235 192.899 416.584 193.248 417.011 193.248C417.437 193.248 417.786 192.899 417.786 192.473C417.786 192.047 417.437 191.698 417.011 191.698C416.584 191.698 416.235 192.047 416.235 192.473ZM67.5388 198.413C67.363 198.697 67.4659 198.93 67.7668 198.93C68.0676 198.93 68.3142 198.697 68.3142 198.413C68.3142 198.129 68.2119 197.897 68.0862 197.897C67.9606 197.897 67.7145 198.129 67.5388 198.413ZM346.191 200.471C345.81 201.087 346.294 202.029 346.992 202.029C347.621 202.029 347.625 200.631 346.997 200.243C346.732 200.08 346.37 200.182 346.191 200.471ZM52.2882 207.97C52.2882 208.502 52.6268 208.755 53.1928 208.646C54.2826 208.437 54.2139 207.52 53.091 207.286C52.6226 207.189 52.2882 207.473 52.2882 207.97ZM234.262 211.844C234.262 212.128 234.48 212.36 234.748 212.36C235.016 212.36 235.378 212.128 235.554 211.844C235.73 211.56 235.511 211.327 235.068 211.327C234.625 211.327 234.262 211.56 234.262 211.844ZM318.528 213.91C318.528 214.194 318.76 214.427 319.045 214.427C319.329 214.427 319.562 214.194 319.562 213.91C319.562 213.626 319.329 213.394 319.045 213.394C318.76 213.394 318.528 213.626 318.528 213.91ZM403.153 213.724C402.74 214.136 403.206 214.943 403.858 214.943C404.126 214.943 404.345 214.595 404.345 214.168C404.345 213.37 403.735 213.142 403.153 213.724ZM428.901 213.91C428.479 214.592 429.044 215.46 429.91 215.46C430.666 215.46 431.34 214.195 430.847 213.702C430.365 213.22 429.254 213.339 428.901 213.91ZM71.933 215.976C71.933 216.26 72.1796 216.493 72.4805 216.493C72.7814 216.493 72.8842 216.26 72.7085 215.976C72.5327 215.692 72.2866 215.46 72.161 215.46C72.0354 215.46 71.933 215.692 71.933 215.976ZM31.3509 222.692C31.1751 222.976 31.278 223.208 31.5788 223.208C31.8797 223.208 32.1263 222.976 32.1263 222.692C32.1263 222.408 32.024 222.175 31.8983 222.175C31.7727 222.175 31.5266 222.408 31.3509 222.692ZM203.533 229.501C201.844 230.027 197.169 230.73 193.142 231.063L185.823 231.669L184.666 236.091C184.03 238.523 182.839 242.244 182.019 244.36C181.199 246.476 180.636 248.315 180.768 248.447C181.174 248.853 187.838 246.042 191.251 244.025C195.2 241.69 201.399 236.063 204.6 231.906C205.905 230.212 206.889 228.763 206.788 228.685C206.686 228.608 205.222 228.975 203.533 229.501ZM223.405 233.023C223.405 233.307 223.754 233.54 224.181 233.54C224.607 233.54 224.956 233.307 224.956 233.023C224.956 232.739 224.607 232.506 224.181 232.506C223.754 232.506 223.405 232.739 223.405 233.023ZM245.118 234.056C245.118 234.34 245.351 234.573 245.635 234.573C245.919 234.573 246.152 234.34 246.152 234.056C246.152 233.772 245.919 233.54 245.635 233.54C245.351 233.54 245.118 233.772 245.118 234.056ZM68.6446 236.997C68.0268 237.615 68.3111 238.705 69.0897 238.705C69.5162 238.705 69.8651 238.37 69.8651 237.961C69.8651 237.098 69.1274 236.515 68.6446 236.997ZM90.544 237.672C90.544 237.956 90.7766 238.189 91.0609 238.189C91.3453 238.189 91.5779 237.956 91.5779 237.672C91.5779 237.388 91.3453 237.155 91.0609 237.155C90.7766 237.155 90.544 237.388 90.544 237.672ZM350.063 243.295C347.767 244.619 331.79 249.036 329.298 249.036C328.194 249.036 327.55 249.993 328.21 250.653C328.482 250.924 330.893 251.359 333.567 251.62C336.243 251.881 341.082 252.347 344.321 252.655C351.307 253.322 353.05 253.958 355.035 256.567C356.519 258.517 356.525 258.554 356.446 265.532C356.383 271.109 355.938 275.042 354.266 284.793C352.181 296.956 347.878 317.29 344.864 329.22C344 332.64 343.362 335.784 343.447 336.205C343.601 336.973 357.444 324.622 357.973 323.245C358.113 322.88 357.996 321.317 357.712 319.773C356.88 315.247 357.484 305.177 358.842 300.957C360.528 295.715 362.658 291.464 365.583 287.505C366.999 285.589 368.157 283.839 368.157 283.616C368.157 283.393 366.063 278.874 363.504 273.573C360.852 268.081 358.851 263.276 358.851 262.401C358.851 261.557 359.198 260.196 359.622 259.377C360.372 257.929 360.288 257.685 356.551 250.492C352.71 243.095 351.923 242.222 350.063 243.295ZM441.05 243.354C441.05 243.638 441.282 243.871 441.567 243.871C441.851 243.871 442.084 243.638 442.084 243.354C442.084 243.07 441.851 242.838 441.567 242.838C441.282 242.838 441.05 243.07 441.05 243.354ZM399.692 244.129C399.692 244.555 399.925 244.904 400.209 244.904C400.493 244.904 400.726 244.555 400.726 244.129C400.726 243.703 400.493 243.354 400.209 243.354C399.925 243.354 399.692 243.703 399.692 244.129ZM468.966 243.901C468.966 244.202 469.199 244.305 469.483 244.129C469.767 243.953 470 243.708 470 243.582C470 243.457 469.767 243.354 469.483 243.354C469.199 243.354 468.966 243.601 468.966 243.901ZM265.697 247.327C264.779 247.562 264.324 248.692 262.937 254.179C262.141 257.329 262.145 257.55 263.011 258.182C263.514 258.55 264.522 258.854 265.249 258.858C265.977 258.862 270.76 259.214 275.878 259.641C293.684 261.125 312.603 262.463 315.802 262.466C318.574 262.467 319.125 262.306 319.772 261.305C320.684 259.896 322.807 251.751 322.424 251.133C322.274 250.891 318.951 250.542 315.04 250.358C305.514 249.911 294.039 249.184 281.823 248.253C276.278 247.831 270.579 247.399 269.157 247.294C267.735 247.188 266.178 247.203 265.697 247.327ZM230.872 248.454C229.443 249.324 229.111 250.08 227.402 256.329C226.363 260.131 224.557 267.077 223.387 271.765C221.043 281.163 212.883 311.086 207.4 330.395C205.464 337.214 203.732 343.432 203.552 344.213L203.224 345.634L209.696 345.726C213.255 345.777 216.674 345.835 217.294 345.855C218.11 345.882 218.528 345.486 218.815 344.416C219.294 342.626 220.672 341.022 222.247 340.42C223.653 339.882 240.842 341.671 241.606 342.434C241.888 342.716 241.964 343.435 241.774 344.032C241.356 345.349 239.73 345.415 230.005 344.509C226.384 344.171 223.297 344.02 223.145 344.173C222.992 344.325 222.521 346.285 222.098 348.528C221.672 350.789 220.607 353.989 219.708 355.707C217.763 359.425 217.034 362.137 217.894 362.451C219.35 362.983 237.067 364.728 237.376 364.37C237.565 364.151 238.26 362.49 238.921 360.68C240.199 357.177 242.153 354.415 243.355 354.415C244.388 354.415 244.29 355.087 242.449 360.607C241.367 363.855 240.309 366.015 239.318 367.006C237.634 368.688 239.202 368.682 224.698 367.058C220.265 366.561 216.435 365.869 215.757 365.441C214.295 364.519 213.422 362.36 213.838 360.701C214.113 359.608 214.006 359.491 212.962 359.739C212.309 359.894 210.427 360.182 208.781 360.38L205.789 360.738L208.325 361.912C211.261 363.271 213.241 365.629 214.074 368.758C214.626 370.83 214.438 372.499 213.357 375.122C213.087 375.78 213.407 375.955 214.982 376.006C219.436 376.152 228.431 377.321 229.997 377.958C230.921 378.334 231.677 378.993 231.677 379.424C231.677 381.019 229.982 381.172 221.477 380.348C216.862 379.901 212.972 379.649 212.832 379.789C212.692 379.929 212.215 381.774 211.772 383.888C211.329 386.003 210.136 389.885 209.119 392.515C208.102 395.144 207.39 397.607 207.536 397.988C207.718 398.462 210.168 398.958 215.307 399.561C219.434 400.046 223.631 400.575 224.634 400.738C226.31 401.009 226.484 400.915 226.814 399.549C227.652 396.076 231.726 389.709 232.719 390.322C233.223 390.633 231.023 399.191 229.863 401.431C229.427 402.273 228.487 403.345 227.774 403.812C226.563 404.604 225.835 404.583 216.799 403.495C211.476 402.855 206.539 402.065 205.828 401.741C205.068 401.395 204.298 400.42 203.958 399.374C203.641 398.395 203.146 397.516 202.86 397.421C202.573 397.325 200.041 398.161 197.234 399.277C194.426 400.393 190.48 401.796 188.465 402.394C184.252 403.645 183.666 404.417 183.213 409.309C182.889 412.802 183.66 414.04 186.653 414.833C187.674 415.104 193.977 415.806 200.659 416.393C207.34 416.981 216.064 417.8 220.045 418.214C224.026 418.628 232.866 419.444 239.69 420.026C246.514 420.609 256.517 421.529 261.92 422.071C289.184 424.806 306.851 426.293 308.474 425.988C311.041 425.508 313.628 423.008 315.401 419.297C317.554 414.789 325.758 385.145 335.857 345.376C344.656 310.728 353.006 272.399 353.546 264.177C353.819 260.018 353.798 259.921 352.292 258.417C350.572 256.697 350.653 256.71 335.369 255.754C328.361 255.315 326.534 255.337 326.187 255.866C325.949 256.23 325.253 258.154 324.638 260.143C323.067 265.232 321.511 266.602 317.31 266.591C311.638 266.577 262.996 262.584 261.529 262.013C260.717 261.696 259.733 260.678 259.239 259.643C258.479 258.05 258.448 257.341 258.991 253.853C259.331 251.667 259.431 249.702 259.213 249.485C258.896 249.169 237.086 247.481 233.413 247.489C232.884 247.49 231.741 247.924 230.872 248.454ZM372.535 254.376C366.992 256.756 361.339 260.472 362.099 261.234C362.609 261.745 367.857 259.176 372.71 256.039C377.667 252.835 377.6 252.2 372.535 254.376ZM105.536 257.597C105.536 258.079 105.888 258.342 106.398 258.243C107.695 257.992 107.873 256.785 106.613 256.785C105.978 256.785 105.536 257.119 105.536 257.597ZM417.528 258.851C417.321 259.185 417.385 259.69 417.669 259.974C418.014 260.319 418.311 260.289 418.561 259.884C418.768 259.551 418.704 259.045 418.42 258.761C418.075 258.417 417.778 258.447 417.528 258.851ZM87.4421 262.725C87.4421 263.199 87.6923 263.503 87.9979 263.401C88.3034 263.299 88.5536 262.996 88.5536 262.725C88.5536 262.455 88.3034 262.151 87.9979 262.05C87.6923 261.948 87.4421 262.252 87.4421 262.725ZM181.136 267.922C180.741 276.981 171.238 282.228 156.716 281.403C150.299 281.039 144.993 279.768 138.82 277.118L134.316 275.185L130.912 276.076C126.863 277.135 122.897 279.396 119.287 282.704C117.241 284.579 116.767 285.292 117.168 285.89C117.452 286.314 118.593 287.993 119.702 289.621C124.441 296.575 125.938 306.617 123.592 315.709L122.387 320.38L124.071 333.394C126.361 351.091 129.224 369.912 129.849 371.37C130.427 372.719 127.682 372.711 152.58 371.44C158.125 371.157 163.028 370.988 163.476 371.065C163.969 371.149 165.786 369.369 168.081 366.555C177.748 354.698 183.682 350.452 194.638 347.557C197.161 346.89 199.414 345.991 199.659 345.554C199.903 345.118 201.404 340.018 202.994 334.22C204.584 328.423 207.182 319.282 208.767 313.907C211.499 304.644 211.635 303.915 211.368 299.959C210.773 291.16 205.801 278.86 201.15 274.681C198.012 271.862 191.911 268.673 186.286 266.911C183.925 266.171 181.824 265.566 181.617 265.566C181.409 265.566 181.193 266.626 181.136 267.922ZM62.7459 266.697C63.0654 267.654 64.1785 267.813 64.1785 266.901C64.1785 266.451 63.8099 266.083 63.3601 266.083C62.9098 266.083 62.6332 266.359 62.7459 266.697ZM177.745 267.56C177.381 269.381 175.182 272.063 173.223 273.075C170.124 274.677 165.77 275.408 159.224 275.427C149.422 275.455 145.356 274.548 136.631 270.387C133.973 269.119 131.708 268.17 131.6 268.279C131.491 268.387 133.007 269.696 134.969 271.186C142.066 276.577 149.942 278.746 161.037 278.363C169.364 278.075 172.6 277.03 175.757 273.608C177.581 271.63 178.934 268.709 178.943 266.729C178.948 265.471 178.037 266.105 177.745 267.56ZM242.705 270.266C240.623 270.868 238.539 273.328 238.091 275.712C237.556 278.563 238.844 280.674 242.377 282.737C245.626 284.634 246.226 285.753 244.825 287.3C243.194 289.101 240.736 288.263 239.784 285.583C239.549 284.919 238.894 284.679 237.312 284.679H235.16L235.443 286.796C235.826 289.644 237.436 291.221 240.707 291.953C243.088 292.485 243.662 292.434 245.769 291.503C248.212 290.423 249.343 288.929 249.988 285.931C250.552 283.312 249.557 281.732 245.901 279.442C243.271 277.795 242.533 277.06 242.533 276.087C242.533 274.403 244.596 273.428 246.41 274.254C247.169 274.599 247.703 275.274 247.703 275.887C247.703 276.784 248.039 276.931 250.097 276.931H252.491L252.187 275.059C251.52 270.952 247.449 268.894 242.705 270.266ZM256.025 273.186C252.506 286.634 252.289 288.252 253.657 290.895C255.139 293.761 259.905 294.911 263.211 293.203C265.977 291.774 267.198 289.422 269.39 281.302C270.537 277.051 271.478 273.269 271.48 272.898C271.482 272.423 270.839 272.27 269.317 272.382L267.152 272.54L265.439 279.514C263.434 287.672 263.049 288.54 261.078 289.356C259.135 290.16 257.008 288.909 257.008 286.962C257.008 285.897 259.342 275.789 260.427 272.153C260.652 271.397 260.356 271.249 258.614 271.249C256.642 271.249 256.504 271.351 256.025 273.186ZM274.615 274.799C272.708 282.042 269.933 293.551 269.933 294.213C269.933 294.793 270.471 295.011 271.906 295.011H273.879L274.8 291.107C275.608 287.685 275.853 287.223 276.793 287.362C277.949 287.533 278.318 288.394 279.242 293.073L279.828 296.044H282.174C284.344 296.044 284.499 295.957 284.242 294.881C284.09 294.242 283.687 292.275 283.347 290.511L282.73 287.302L284.414 285.886C287.48 283.309 288.372 279.125 286.508 276.071C285.461 274.355 283.503 273.717 277.56 273.157C275.113 272.926 275.106 272.93 274.615 274.799ZM388.263 273.997C380.002 276.979 376.525 281.806 380.185 285.213C381.701 286.624 383.333 286.489 387.812 284.583C391.049 283.204 392.508 282.9 396.772 282.712L401.864 282.489L401.557 280.955C401.004 278.189 399.298 274.968 397.902 274.055C395.7 272.613 392.156 272.592 388.263 273.997ZM37.813 274.895C37.813 275.196 38.0456 275.299 38.33 275.123C38.6143 274.947 38.8469 274.701 38.8469 274.576C38.8469 274.45 38.6143 274.348 38.33 274.348C38.0456 274.348 37.813 274.594 37.813 274.895ZM290.806 285.509C291.004 291.703 291.216 296.818 291.277 296.877C291.337 296.935 292.434 297.058 293.713 297.149L296.039 297.315L301.64 286.823C304.722 281.052 307.164 276.263 307.069 276.182C306.974 276.101 306.082 275.893 305.087 275.719L303.277 275.402L299.141 283.459L295.006 291.517L294.747 283.061L294.489 274.606L292.468 274.428L290.446 274.248L290.806 285.509ZM418.303 274.895C418.303 275.196 418.536 275.299 418.82 275.123C419.104 274.947 419.337 274.701 419.337 274.576C419.337 274.45 419.104 274.348 418.82 274.348C418.536 274.348 418.303 274.594 418.303 274.895ZM306.927 286.027C305.598 291.456 304.388 296.366 304.238 296.939C303.985 297.907 304.288 298.006 308.533 298.333C311.045 298.527 313.838 298.811 314.741 298.964C316.282 299.226 316.417 299.122 316.925 297.286C317.222 296.208 317.34 295.201 317.187 295.048C317.033 294.894 315.178 294.682 313.065 294.575C310.952 294.468 309.222 294.277 309.222 294.15C309.222 294.022 309.487 292.869 309.81 291.586L310.398 289.254L314.14 289.604C316.198 289.796 318 289.756 318.144 289.512C318.288 289.269 318.568 288.315 318.767 287.391C319.124 285.727 319.109 285.712 317.147 285.707C316.058 285.704 314.321 285.561 313.287 285.39L311.405 285.08L311.913 283.2C312.192 282.167 312.573 281.17 312.76 280.985C312.947 280.8 314.844 280.823 316.977 281.035C319.109 281.248 320.902 281.39 320.96 281.352C321.018 281.314 321.216 280.344 321.399 279.197L321.733 277.111L315.538 276.633L309.343 276.156L306.927 286.027ZM277.465 280.239C277.019 281.774 276.653 283.169 276.653 283.338C276.653 283.974 280.602 283.616 281.645 282.886C284.21 281.091 282.969 277.447 279.792 277.447C278.404 277.447 278.209 277.681 277.465 280.239ZM323.697 278.532C323.697 279.129 324.186 282.508 324.784 286.042C325.841 292.297 325.846 292.555 324.954 295.848C323.938 299.597 324.183 300.152 326.859 300.168C328.11 300.176 328.278 299.898 329.118 296.431C329.889 293.254 330.767 291.609 334.905 285.583L339.783 278.481H337.43H335.078L332.102 282.953L329.126 287.426L328.723 284.115C327.869 277.093 328.028 277.447 325.742 277.447C324.01 277.447 323.697 277.613 323.697 278.532ZM98.5637 282.509C107.045 285.44 112.575 292.064 114.646 301.775C115.695 306.696 115.329 313.662 113.784 318.147C112.171 322.83 107.893 328.095 104.07 330.103C103.406 330.452 102.977 330.852 103.117 330.991C103.257 331.131 105.134 330.432 107.288 329.438C117.682 324.639 122.938 314.79 121.473 302.859C120.857 297.848 119.479 294.336 116.417 289.98C112.252 284.053 107.344 281.564 99.8846 281.597L95.9721 281.614L98.5637 282.509ZM371.259 285.863C369.357 286.823 365.292 293.042 363.452 297.807C360.958 304.272 360.257 308.383 360.584 314.64C361.147 325.417 363.469 331.571 368.958 336.838C373.316 341.02 378.01 343.262 381.756 342.952C384.599 342.716 390.193 340.231 391.095 338.802C391.482 338.189 390.603 335.554 387.574 328.25C385.353 322.895 382.87 317.352 382.055 315.931C380.632 313.451 380.573 313.41 380.557 314.898C380.533 317.297 378.857 320.353 376.167 322.905C374.819 324.184 373.814 324.997 373.931 324.713C374.05 324.429 374.685 323.034 375.342 321.614C376.96 318.12 377.263 313.741 376.231 308.759C375.771 306.535 375.394 303.818 375.394 302.721V300.727L373.606 301.782C371.708 302.901 369.449 302.937 369.449 301.848C369.449 301.489 370.592 300.327 371.988 299.266C375.876 296.309 377.57 293.922 377.851 291.004C378.057 288.852 377.898 288.278 376.697 286.852C375.177 285.047 373.486 284.739 371.259 285.863ZM391.372 286.985C387.982 288.232 386.081 289.431 383.254 292.101C378.457 296.635 377.104 301.073 379.859 303.238C381.772 304.742 383.03 304.582 385.994 302.457C391.976 298.168 397.818 296.044 403.625 296.044C407.861 296.044 408.094 295.799 407.312 292.17C406.826 289.917 405.386 288.088 403.207 286.955C401.427 286.029 393.919 286.049 391.372 286.985ZM423.473 288.812C423.473 289.096 423.822 289.328 424.248 289.328C424.675 289.328 425.024 289.096 425.024 288.812C425.024 288.528 424.675 288.295 424.248 288.295C423.822 288.295 423.473 288.528 423.473 288.812ZM50.2203 290.62C50.2203 291.046 50.4529 291.395 50.7372 291.395C51.0216 291.395 51.2542 291.046 51.2542 290.62C51.2542 290.194 51.0216 289.845 50.7372 289.845C50.4529 289.845 50.2203 290.194 50.2203 290.62ZM169.681 290.667C160.3 294.057 154.418 304.321 156.087 314.386C157.241 321.344 161.731 327.683 167.516 330.522C170.094 331.787 170.99 331.945 175.586 331.945C181.488 331.945 183.456 331.201 187.564 327.418C198.491 317.353 195.861 298.286 182.648 291.787C178.536 289.764 173.408 289.321 169.681 290.667ZM397.613 300.319C389.824 302.973 383.666 308.04 383.666 311.796C383.666 315.252 386.564 316.006 391.748 313.902C396.386 312.019 403.13 310.436 405.77 310.611C408.077 310.763 408.122 310.801 408.708 313.09C409.035 314.369 409.568 315.88 409.893 316.448C410.919 318.239 412.345 314.172 412.352 309.437C412.357 306.006 412.178 305.254 410.902 303.326C408.196 299.241 403.737 298.232 397.613 300.319ZM230.45 307.128C229.645 307.996 228.506 311.159 226.856 317.115C225.526 321.909 224.439 326.291 224.439 326.854C224.439 328.152 226.189 330.05 227.685 330.372C228.316 330.509 232.09 330.979 236.071 331.419C240.052 331.857 244.04 332.335 244.933 332.481C247.557 332.909 249.493 330.876 251.011 326.096C251.71 323.895 252.075 321.927 251.831 321.674C251.021 320.835 249.834 321.797 248.273 324.558C247.421 326.064 246.527 327.621 246.285 328.019C245.91 328.637 244.602 328.612 237.34 327.849C232.661 327.358 228.686 326.8 228.506 326.609C228.199 326.284 232.377 310.152 232.905 309.625C233.038 309.491 236.161 309.766 239.844 310.236C247.792 311.249 250.98 311.154 251.22 309.894C251.518 308.32 249.057 307.372 242.704 306.617C233.588 305.534 231.861 305.606 230.45 307.128ZM249.341 313.893C244.129 317.997 239.662 321.355 239.414 321.355C239.167 321.355 238.254 320.325 237.387 319.065C235.834 316.81 234.255 315.814 233.232 316.445C232.242 317.057 232.718 318.622 234.868 321.821C237.551 325.813 238.501 326.392 240.371 325.173C243.995 322.81 261.094 309.316 261.368 308.603C261.752 307.603 260.79 306.366 259.659 306.402C259.196 306.417 254.553 309.788 249.341 313.893ZM468.191 312.574C468.015 312.858 468.118 313.09 468.419 313.09C468.719 313.09 468.966 312.858 468.966 312.574C468.966 312.29 468.864 312.057 468.738 312.057C468.612 312.057 468.366 312.29 468.191 312.574ZM433.137 313.42C432.724 313.833 433.191 314.64 433.843 314.64C434.11 314.64 434.329 314.291 434.329 313.865C434.329 313.067 433.719 312.839 433.137 313.42ZM265.108 317.567C264.918 317.756 264.763 318.329 264.763 318.839C264.763 320.196 266.767 320.572 283.374 322.33C313.759 325.545 323.023 326.261 323.981 325.467C325.102 324.537 324.887 322.946 323.568 322.414C322.929 322.155 317.752 321.569 312.066 321.111C306.379 320.652 294.068 319.59 284.707 318.75C266.248 317.094 265.619 317.055 265.108 317.567ZM357.874 327.858C357.022 328.94 356.837 329.693 357.072 331.121C357.556 334.074 360.678 340.038 362.826 342.115C365.643 344.837 370.408 347.551 373.642 348.275C376.134 348.832 376.533 348.799 377.46 347.96C378.917 346.643 378.769 346.265 376.558 345.657C369.794 343.796 363.473 337.494 360.131 329.279L358.981 326.451L357.874 327.858ZM10.1551 328.587C9.97932 328.871 10.0822 329.104 10.3831 329.104C10.6839 329.104 10.9305 328.871 10.9305 328.587C10.9305 328.303 10.8282 328.071 10.7026 328.071C10.5769 328.071 10.3309 328.303 10.1551 328.587ZM107.862 332.447C103.817 334.351 98.7457 335.626 93.1552 336.146C90.5021 336.392 89.3285 336.723 89.1119 337.287C88.7128 338.327 90.394 364.069 91.323 371.142C92.2929 378.527 93.6768 385.926 94.0873 385.925C94.2708 385.924 95.0824 384.878 95.891 383.6C98.7943 379.007 104.794 375.106 110.862 373.864L114.066 373.208L113.917 368.59C113.834 366.05 113.436 358.625 113.031 352.091C112.625 345.556 112.227 338.061 112.146 335.434C112.065 332.807 111.882 330.677 111.74 330.701C111.598 330.724 109.853 331.51 107.862 332.447ZM261.215 334.443C260.725 335.033 260.699 335.505 261.115 336.28C261.702 337.379 262.759 337.645 268.382 338.112C270.23 338.266 282.291 339.333 295.184 340.485C313.185 342.092 318.796 342.439 319.353 341.977C320.256 341.228 320.292 339.738 319.425 339.019C319.065 338.721 311.329 337.876 302.235 337.141C272.872 334.767 266.615 334.241 264.224 333.942C262.47 333.722 261.708 333.849 261.215 334.443ZM63.1445 335.561C63.1445 335.987 63.3772 336.336 63.6615 336.336C63.9458 336.336 64.1785 335.987 64.1785 335.561C64.1785 335.135 63.9458 334.786 63.6615 334.786C63.3772 334.786 63.1445 335.135 63.1445 335.561ZM247.186 343.382C242.037 347.776 230.45 356.998 230.077 356.998C229.895 356.998 229.121 356.054 228.356 354.9C226.78 352.52 224.828 352.203 224.533 354.28C224.358 355.516 227.768 360.895 229.043 361.393C229.939 361.742 231.597 360.604 240.495 353.531C253.05 343.549 253.859 342.694 252.252 341.088C251.268 340.105 250.75 340.34 247.186 343.382ZM29.0245 342.018C29.0245 342.302 29.2571 342.534 29.5415 342.534C29.8258 342.534 30.0584 342.302 30.0584 342.018C30.0584 341.734 29.8258 341.501 29.5415 341.501C29.2571 341.501 29.0245 341.734 29.0245 342.018ZM203.243 349.068C191.152 350.524 183.507 353.962 176.81 360.955C171.169 366.847 162.407 377.928 161.592 380.202C160.464 383.35 160.004 392.397 160.842 394.936C162.412 399.69 166.998 402.293 172.959 401.815C177.595 401.443 181.336 399.45 186.637 394.528C191.114 390.371 194.412 388.566 199.237 387.633C201.134 387.266 201.077 388.266 199.144 389.264C198.312 389.695 197.482 390.514 197.3 391.086C197.117 391.662 196.518 392.125 195.954 392.125C194.279 392.125 191.245 393.607 191.476 394.313C191.794 395.284 195.008 396.253 196.781 395.912C203 394.715 209.604 387.354 208.714 382.613C208.244 380.108 206.027 377.708 203.704 377.188C202.536 376.926 199.758 377.063 196.287 377.553C191.532 378.224 190.671 378.233 190.277 377.611C190.025 377.212 189.815 376.7 189.81 376.472C189.785 375.171 199.284 373.217 202.852 373.79C204.062 373.984 205.834 374.593 206.79 375.143C208.75 376.272 209.479 375.964 210.774 373.462C212.393 370.332 210.958 366.598 207.379 364.633C205.814 363.774 204.906 363.681 200.659 363.95C197.957 364.12 194.644 364.393 193.295 364.555C191.301 364.795 190.781 364.688 190.51 363.984C190.327 363.507 190.501 362.814 190.895 362.444C192.025 361.382 200.956 358.669 206.31 357.761C211.945 356.805 214.323 355.923 216.259 354.069C217.81 352.585 219.087 349.929 218.521 349.362C218.112 348.953 206.116 348.722 203.243 349.068ZM256.102 355.012C255.125 355.987 255.327 356.964 256.621 357.527C257.26 357.805 264.065 358.719 271.742 359.557C312.303 363.984 314.413 364.104 314.384 361.972C314.363 360.38 313.222 360.12 301.713 359.088C289.385 357.982 261.722 355.136 258.557 354.647C257.449 354.476 256.496 354.617 256.102 355.012ZM55.6324 362.19C55.1413 362.984 55.8139 363.497 56.4777 362.833C56.8489 362.462 56.8577 362.174 56.5046 361.956C56.2151 361.777 55.8227 361.882 55.6324 362.19ZM252.7 370.773C252.022 371.451 252.373 372.985 253.324 373.493C254.404 374.071 269.785 375.914 292.421 378.178C306.952 379.631 307.442 379.648 308.369 378.732C309.138 377.973 309.214 377.577 308.756 376.722C308.064 375.431 308.827 375.537 285.7 373.498C275.748 372.62 264.931 371.573 261.661 371.17C255.011 370.35 253.203 370.27 252.7 370.773ZM429.676 371.204C429.676 371.677 429.927 371.981 430.232 371.879C430.538 371.778 430.788 371.474 430.788 371.204C430.788 370.934 430.538 370.63 430.232 370.528C429.927 370.426 429.676 370.73 429.676 371.204ZM381.598 371.462C381.598 371.746 381.831 371.979 382.115 371.979C382.399 371.979 382.632 371.746 382.632 371.462C382.632 371.178 382.399 370.945 382.115 370.945C381.831 370.945 381.598 371.178 381.598 371.462ZM158.386 374.569C153.368 375.303 151.459 378.425 151.138 386.423C150.882 392.83 151.827 397.301 154.151 400.677C155.932 403.264 156.425 403.489 160.297 403.489H163.276L161.353 401.468C159.046 399.045 157.819 395.715 157.436 390.833C157.111 386.696 158.148 380.537 159.799 376.809C160.385 375.485 160.803 374.367 160.729 374.324C160.654 374.281 159.6 374.392 158.386 374.569ZM139.915 375.158C120.181 376.044 110.546 376.941 108.266 378.103C105.322 379.604 102.999 382.092 101.446 385.406C100.343 387.761 100.113 389.006 100.11 392.641C100.108 396.459 100.268 397.245 101.332 398.662C103.084 400.995 107.111 403.026 110.613 403.343C116.159 403.845 146.13 401.526 149.3 400.349C150.364 399.955 150.381 399.843 149.683 397.817C147.498 391.48 147.766 382 150.319 375.353C150.486 374.917 150.424 374.597 150.18 374.639C149.937 374.682 145.317 374.916 139.915 375.158ZM232.969 382.137C230.126 384.563 225.856 388.066 223.48 389.923L219.161 393.299L217.267 391.101C215.225 388.733 213.451 388.413 213.171 390.362C212.977 391.706 217.397 397.807 218.565 397.807C219.42 397.807 221.142 396.487 233.643 386.251C239.62 381.357 240.5 380.442 240.363 379.269C240.081 376.831 238.445 377.466 232.969 382.137ZM66.2463 381.277C66.2463 381.561 66.479 381.793 66.7633 381.793C67.0476 381.793 67.2803 381.561 67.2803 381.277C67.2803 380.993 67.0476 380.76 66.7633 380.76C66.479 380.76 66.2463 380.993 66.2463 381.277ZM370.225 382.826C370.225 383.111 370.471 383.343 370.772 383.343C371.073 383.343 371.176 383.111 371 382.826C370.824 382.542 370.578 382.31 370.453 382.31C370.327 382.31 370.225 382.542 370.225 382.826ZM449.321 383.343C449.321 383.627 449.554 383.86 449.838 383.86C450.123 383.86 450.355 383.627 450.355 383.343C450.355 383.059 450.123 382.826 449.838 382.826C449.554 382.826 449.321 383.059 449.321 383.343ZM31.1839 391.377C31.4176 392.499 32.3352 392.568 32.5451 391.479C32.6536 390.913 32.4003 390.575 31.8678 390.575C31.371 390.575 31.0862 390.909 31.1839 391.377ZM409.644 392.502C409.289 392.626 408.998 393.189 408.998 393.753C408.998 394.52 409.29 394.738 410.156 394.614C410.792 394.523 411.385 394.071 411.473 393.61C411.645 392.709 410.697 392.135 409.644 392.502ZM349.902 404.856C349.191 405.566 349.559 406.662 350.451 406.49C350.948 406.394 351.355 405.99 351.355 405.591C351.355 404.776 350.443 404.314 349.902 404.856ZM56.4989 405.723C56.0295 406.288 56.0677 406.595 56.67 407.095C57.3028 407.619 57.507 407.578 57.7789 406.87C58.2426 405.663 57.2717 404.792 56.4989 405.723ZM394.005 416.145C394.005 416.618 394.256 416.922 394.561 416.82C394.867 416.719 395.117 416.415 395.117 416.145C395.117 415.875 394.867 415.571 394.561 415.469C394.256 415.367 394.005 415.671 394.005 416.145ZM367.64 424.699C367.64 424.999 367.873 425.102 368.157 424.926C368.441 424.751 368.674 424.505 368.674 424.379C368.674 424.254 368.441 424.151 368.157 424.151C367.873 424.151 367.64 424.398 367.64 424.699ZM335.644 426.408C335.184 426.963 335.174 427.253 335.608 427.522C336.451 428.042 337.497 426.886 336.807 426.196C336.432 425.822 336.077 425.887 335.644 426.408ZM78.6536 427.767C78.6536 428.052 79.0026 428.284 79.4291 428.284C79.8556 428.284 80.2045 428.052 80.2045 427.767C80.2045 427.483 79.8556 427.251 79.4291 427.251C79.0026 427.251 78.6536 427.483 78.6536 427.767ZM157.492 428.284C157.285 428.618 157.349 429.123 157.633 429.407C157.978 429.752 158.275 429.722 158.526 429.317C158.732 428.983 158.668 428.478 158.384 428.194C158.039 427.85 157.742 427.88 157.492 428.284ZM53.0636 434.483C53.2394 434.767 53.6018 434.999 53.8696 434.999C54.1374 434.999 54.356 434.767 54.356 434.483C54.356 434.199 53.9931 433.966 53.5501 433.966C53.107 433.966 52.8878 434.199 53.0636 434.483ZM134.25 437.03C134.086 437.294 134.189 437.657 134.478 437.835C134.767 438.013 135.003 437.797 135.003 437.354C135.003 436.447 134.693 436.314 134.25 437.03ZM103.237 439.088C103.071 439.357 103.155 439.713 103.424 439.879C103.694 440.046 104.05 439.961 104.216 439.692C104.383 439.423 104.298 439.067 104.029 438.901C103.76 438.735 103.404 438.819 103.237 439.088ZM373.327 441.198C373.327 441.482 373.559 441.715 373.844 441.715C374.128 441.715 374.361 441.482 374.361 441.198C374.361 440.914 374.128 440.682 373.844 440.682C373.559 440.682 373.327 440.914 373.327 441.198ZM230.643 443.523C230.643 443.949 230.875 444.297 231.16 444.297C231.444 444.297 231.677 443.949 231.677 443.523C231.677 443.096 231.444 442.748 231.16 442.748C230.875 442.748 230.643 443.096 230.643 443.523ZM332.299 446.206C331.717 446.787 331.945 447.397 332.744 447.397C333.171 447.397 333.52 447.178 333.52 446.911C333.52 446.259 332.712 445.793 332.299 446.206ZM261.661 448.461C261.661 448.761 261.894 448.864 262.178 448.688C262.462 448.513 262.695 448.267 262.695 448.141C262.695 448.016 262.462 447.913 262.178 447.913C261.894 447.913 261.661 448.16 261.661 448.461ZM193.421 453.079C193.421 453.363 193.654 453.596 193.938 453.596C194.222 453.596 194.455 453.363 194.455 453.079C194.455 452.795 194.222 452.562 193.938 452.562C193.654 452.562 193.421 452.795 193.421 453.079ZM159.818 454.629C159.818 454.913 160.051 455.145 160.335 455.145C160.619 455.145 160.852 454.913 160.852 454.629C160.852 454.345 160.619 454.112 160.335 454.112C160.051 454.112 159.818 454.345 159.818 454.629ZM69.8651 457.728C69.8651 458.012 70.0978 458.245 70.3821 458.245C70.6664 458.245 70.8991 458.012 70.8991 457.728C70.8991 457.444 70.6664 457.212 70.3821 457.212C70.0978 457.212 69.8651 457.444 69.8651 457.728ZM249.848 464.418C249.962 464.759 250.224 465.02 250.43 464.999C251.048 464.935 250.928 464.227 250.262 464.004C249.921 463.891 249.735 464.077 249.848 464.418ZM279.238 464.443C279.238 464.728 279.485 464.96 279.785 464.96C280.086 464.96 280.189 464.728 280.013 464.443C279.838 464.159 279.592 463.927 279.466 463.927C279.34 463.927 279.238 464.159 279.238 464.443Z" fill="url(#paint0_linear_29222_16652)"/>
</g>
<defs>
<filter id="filter0_n_29222_16652" x="9" y="14" width="461" height="451" filterUnits="userSpaceOnUse" color-interpolation-filters="sRGB">
<feFlood flood-opacity="0" result="BackgroundImageFix"/>
<feBlend mode="normal" in="SourceGraphic" in2="BackgroundImageFix" result="shape"/>
<feTurbulence type="fractalNoise" baseFrequency="4.0019049644470215 4.0019049644470215" stitchTiles="stitch" numOctaves="3" result="noise" seed="9169" />
<feColorMatrix in="noise" type="luminanceToAlpha" result="alphaNoise" />
<feComponentTransfer in="alphaNoise" result="coloredNoise1">
<feFuncA type="discrete" tableValues="1 1 1 1 1 1 1 1 1 1 1 1 1 1 1 1 1 1 1 1 1 1 1 1 1 1 1 1 1 1 1 1 1 1 1 1 1 1 1 1 1 1 1 1 1 1 1 1 1 1 1 0 0 0 0 0 0 0 0 0 0 0 0 0 0 0 0 0 0 0 0 0 0 0 0 0 0 0 0 0 0 0 0 0 0 0 0 0 0 0 0 0 0 0 0 0 0 0 0 0 "/>
</feComponentTransfer>
<feComposite operator="in" in2="shape" in="coloredNoise1" result="noise1Clipped" />
<feComponentTransfer in="alphaNoise" result="coloredNoise2">
<feFuncA type="discrete" tableValues="0 0 0 0 0 0 0 0 0 0 0 0 0 0 0 0 0 0 0 0 0 0 0 0 0 0 0 0 0 0 0 0 0 0 0 0 0 0 0 0 0 0 0 0 0 0 0 0 0 1 1 1 1 1 1 1 1 1 1 1 1 1 1 1 1 1 1 1 1 1 1 1 1 1 1 1 1 1 1 1 1 1 1 1 1 1 1 1 1 1 1 1 1 1 1 1 1 1 1 1 "/>
</feComponentTransfer>
<feComposite operator="in" in2="shape" in="coloredNoise2" result="noise2Clipped" />
<feFlood flood-color="rgba(0, 0, 0, 0.25)" result="color1Flood" />
<feComposite operator="in" in2="noise1Clipped" in="color1Flood" result="color1" />
<feFlood flood-color="rgba(255, 255, 255, 0.25)" result="color2Flood" />
<feComposite operator="in" in2="noise2Clipped" in="color2Flood" result="color2" />
<feMerge result="effect1_noise_29222_16652">
<feMergeNode in="shape" />
<feMergeNode in="color1" />
<feMergeNode in="color2" />
</feMerge>
</filter>
<linearGradient id="paint0_linear_29222_16652" x1="469.398" y1="14" x2="18.5063" y2="474.889" gradientUnits="userSpaceOnUse">
<stop stop-color="#1EDFAD"/>
<stop offset="0.5" stop-color="#11A7ED"/>
<stop offset="1" stop-color="#9738F5"/>
</linearGradient>
</defs>
</svg>
