<svg width="33" height="32" viewBox="0 0 33 32" fill="none" xmlns="http://www.w3.org/2000/svg">
<g clip-path="url(#clip0_31409_6592)">
<path d="M12.5003 29.3333C13.2367 29.3333 13.8337 28.7363 13.8337 28C13.8337 27.2636 13.2367 26.6666 12.5003 26.6666C11.7639 26.6666 11.167 27.2636 11.167 28C11.167 28.7363 11.7639 29.3333 12.5003 29.3333Z" stroke="#B0B0B0" stroke-width="2" stroke-linecap="round" stroke-linejoin="round"/>
<path d="M27.1663 29.3333C27.9027 29.3333 28.4997 28.7363 28.4997 28C28.4997 27.2636 27.9027 26.6666 27.1663 26.6666C26.43 26.6666 25.833 27.2636 25.833 28C25.833 28.7363 26.43 29.3333 27.1663 29.3333Z" stroke="#B0B0B0" stroke-width="2" stroke-linecap="round" stroke-linejoin="round"/>
<path d="M1.83301 1.33337H7.16634L10.7397 19.1867C10.8616 19.8006 11.1956 20.352 11.6831 20.7444C12.1706 21.1369 12.7806 21.3454 13.4063 21.3334H26.3663C26.9921 21.3454 27.6021 21.1369 28.0896 20.7444C28.5771 20.352 28.9111 19.8006 29.033 19.1867L31.1663 8.00004H8.49967" stroke="#B0B0B0" stroke-width="2" stroke-linecap="round" stroke-linejoin="round"/>
</g>
<defs>
<clipPath id="clip0_31409_6592">
<rect width="32" height="32" fill="white" transform="translate(0.5)"/>
</clipPath>
</defs>
</svg>
