<svg width="128" height="32" viewBox="0 0 128 32" fill="none" xmlns="http://www.w3.org/2000/svg">
<path d="M5.75987 6.66431C9.09243 3.53679 10.017 2.85025 11.6054 2.32266C13.1565 1.80729 16.032 1.92494 17.5084 2.56396C20.9211 4.04132 22.7398 7.59632 21.7154 10.7877C21.4946 11.4761 21.1179 12.2651 20.8787 12.541L20.4437 13.0425L19.1278 11.9537C17.8687 10.9118 17.8241 10.8353 18.0913 10.1831C19.0861 7.75711 16.1335 4.79338 13.2888 5.36297C12.2753 5.56575 5.29386 11.9534 5.04621 12.9043C4.7539 14.0267 5.18046 14.7695 7.1914 16.6414L9.16165 18.4751L10.4681 17.2758C11.9726 15.8944 12.7826 15.7384 13.755 16.6427C14.8531 17.6633 14.6109 18.4262 12.5652 20.3911C10.8088 22.0777 9.84256 22.7257 9.21525 22.6373C9.04478 22.6131 8.77629 22.5806 8.61872 22.5646C8.11251 22.5137 2.68216 17.3812 1.99803 16.3071C1.43971 15.4307 1.33673 14.9993 1.33673 13.5388C1.33673 11.1294 1.84692 10.3363 5.75987 6.66431Z" fill="url(#paint0_linear_29719_3531)"/>
<path d="M8.4269 14.0843C7.55121 13.0495 7.74898 12.5918 9.89492 10.6858C12.7081 8.18712 12.6322 8.17397 16.668 11.8662C20.2663 15.1587 20.8035 15.9592 20.808 18.0373C20.8132 20.3541 20.1571 21.3069 15.8134 25.2912C11.3369 29.3973 10.2575 30.0214 7.66883 29.9995C3.52982 29.9642 0.444658 27.2637 0.049615 23.3306C-0.0724711 22.1155 0.00296891 21.7217 0.592555 20.5006C1.57024 18.4754 1.67098 18.4433 3.03254 19.7285C4.1539 20.7872 4.18789 20.8584 3.91617 21.5835C3.07695 23.8215 5.03703 26.4576 7.54029 26.4576C8.94949 26.4576 9.80608 25.9037 13.2061 22.7947C18.105 18.315 18.1387 18.1464 14.7682 14.9668L12.4423 12.7729L11.3681 13.7325C10.0768 14.8862 9.19466 14.9919 8.4269 14.0843Z" fill="url(#paint1_linear_29719_3531)"/>
<path d="M26.7998 12.4313C26.7998 11.6891 26.9834 11.0133 27.3506 10.4039C27.7256 9.79456 28.2256 9.31018 28.8506 8.95081C29.4834 8.58362 30.1787 8.40002 30.9365 8.40002H39.5615V10.861H30.9365C30.4834 10.861 30.0928 11.0211 29.7646 11.3414C29.4365 11.6617 29.2725 12.0485 29.2725 12.5016V13.65C29.2725 14.0641 29.4365 14.4196 29.7646 14.7164C30.0928 15.0133 30.4834 15.1617 30.9365 15.1617H36.2451C37.0107 15.1617 37.7061 15.3453 38.3311 15.7125C38.9561 16.0719 39.4521 16.5602 39.8193 17.1774C40.1943 17.7867 40.3818 18.4625 40.3818 19.2047V21.0211C40.3818 21.7633 40.1943 22.443 39.8193 23.0602C39.4521 23.6696 38.9561 24.1578 38.3311 24.525C37.7061 24.8844 37.0107 25.0641 36.2451 25.0641H26.8115V22.5914H36.2451C36.7061 22.5914 37.0967 22.4391 37.417 22.1344C37.7451 21.8219 37.9092 21.4469 37.9092 21.0094V19.2164C37.9092 18.7789 37.7451 18.4039 37.417 18.0914C37.0967 17.7789 36.7061 17.6227 36.2451 17.6227H30.9365C30.1787 17.6227 29.4834 17.4469 28.8506 17.0953C28.2256 16.736 27.7256 16.2555 27.3506 15.6539C26.9834 15.0524 26.7998 14.3883 26.7998 13.6617V12.4313Z" fill="#121212"/>
<path d="M43.2061 12.9235H45.6787V20.6461C45.6787 21.193 45.8662 21.6578 46.2412 22.0406C46.6162 22.4235 47.0654 22.6149 47.5889 22.6149H51.8896V12.9235H54.3623V22.6031C54.3623 23.2828 54.1201 23.8649 53.6357 24.3492C53.1514 24.8258 52.5615 25.0641 51.8662 25.0641H47.5889C46.7842 25.0641 46.0498 24.8688 45.3857 24.4781C44.7217 24.0797 44.1904 23.5485 43.792 22.8844C43.4014 22.2203 43.2061 21.486 43.2061 20.6813V12.9235Z" fill="#121212"/>
<path d="M57.0576 8.40002H59.5303V22.5914H63.8311C64.3623 22.5914 64.8115 22.4039 65.1787 22.0289C65.5537 21.6539 65.7412 21.2047 65.7412 20.6813V17.3297C65.7412 16.7985 65.5537 16.3453 65.1787 15.9703C64.8115 15.5875 64.3623 15.3961 63.8311 15.3961H60.9365V12.9235H63.8311C64.6357 12.9235 65.3701 13.1227 66.0342 13.5211C66.6982 13.9117 67.2256 14.4391 67.6162 15.1031C68.0146 15.7672 68.2139 16.5016 68.2139 17.3063V20.7047C68.2139 21.5016 68.0146 22.2321 67.6162 22.8961C67.2256 23.5524 66.6982 24.0797 66.0342 24.4781C65.3701 24.8688 64.6357 25.0641 63.8311 25.0641H59.5303C58.8506 25.0641 58.2686 24.8219 57.7842 24.3375C57.2998 23.8531 57.0576 23.2711 57.0576 22.5914V8.40002Z" fill="#121212"/>
<path d="M71.2607 8.40002H73.5225L78.9014 14.9742L84.2803 8.40002H86.542V25.0641H84.0693V12.6071L79.9326 17.6227H77.8818L73.7334 12.6071V25.0641H71.2607V8.40002Z" fill="#121212"/>
<path d="M89.4717 17.2828C89.4717 16.4781 89.667 15.7477 90.0576 15.0914C90.4561 14.4352 90.9873 13.9117 91.6514 13.5211C92.3154 13.1227 93.0498 12.9235 93.8545 12.9235H100.628V25.0641H98.1553V15.3961H93.8545C93.3311 15.3961 92.8818 15.5836 92.5068 15.9586C92.1318 16.3258 91.9443 16.775 91.9443 17.3063V20.6578C91.9443 21.1891 92.1318 21.6461 92.5068 22.0289C92.8818 22.4039 93.3311 22.5914 93.8545 22.5914H96.749V25.0641H93.8545C93.0498 25.0641 92.3154 24.8688 91.6514 24.4781C90.9873 24.0797 90.4561 23.5485 90.0576 22.8844C89.667 22.2203 89.4717 21.486 89.4717 20.6813V17.2828Z" fill="#121212"/>
<path d="M102.854 12.9235H104.437V8.40002H106.909V12.9235H110.647V15.3961H106.909V21.6188C106.909 21.8844 107.011 22.1149 107.214 22.3102C107.425 22.4977 107.675 22.5914 107.964 22.5914H110.647V25.0641H107.929C107.288 25.0641 106.702 24.9117 106.171 24.6071C105.647 24.2946 105.226 23.8805 104.905 23.3649C104.593 22.8414 104.437 22.2633 104.437 21.6305V15.3961H102.854V12.9235Z" fill="#121212"/>
<path d="M112.886 15.4313C112.886 14.736 113.14 14.1461 113.647 13.6617C114.155 13.1696 114.765 12.9235 115.476 12.9235H120.538C121.187 12.9235 121.772 13.0836 122.296 13.4039C122.827 13.7164 123.249 14.1422 123.562 14.6813C123.882 15.2125 124.042 15.8024 124.042 16.4508V16.7906C124.042 17.4313 123.882 18.0172 123.562 18.5485C123.249 19.0719 122.827 19.4938 122.296 19.8141C121.772 20.1266 121.187 20.2828 120.538 20.2828H116.765V17.8219H120.562C120.843 17.8219 121.081 17.7203 121.276 17.5172C121.479 17.3141 121.581 17.068 121.581 16.7789V16.4508C121.581 16.1539 121.479 15.9039 121.276 15.7008C121.081 15.4977 120.843 15.3961 120.562 15.3961H115.358V21.6305C115.358 21.8961 115.448 22.1227 115.628 22.3102C115.808 22.4977 116.026 22.5914 116.284 22.5914H123.187V25.0641H116.284C115.659 25.0641 115.089 24.9117 114.573 24.6071C114.058 24.2946 113.647 23.8805 113.343 23.3649C113.038 22.8414 112.886 22.2672 112.886 21.6422V15.4313Z" fill="#121212"/>
<defs>
<linearGradient id="paint0_linear_29719_3531" x1="21.9713" y1="2" x2="-5.23378" y2="23.3754" gradientUnits="userSpaceOnUse">
<stop stop-color="#1EDFAD"/>
<stop offset="0.5" stop-color="#11A7ED"/>
<stop offset="1" stop-color="#9738F5"/>
</linearGradient>
<linearGradient id="paint1_linear_29719_3531" x1="21.9713" y1="2" x2="-5.23378" y2="23.3754" gradientUnits="userSpaceOnUse">
<stop stop-color="#1EDFAD"/>
<stop offset="0.5" stop-color="#11A7ED"/>
<stop offset="1" stop-color="#9738F5"/>
</linearGradient>
</defs>
</svg>
