<svg width="28" height="36" viewBox="0 0 28 36" fill="none" xmlns="http://www.w3.org/2000/svg">
<path d="M7.19984 6.33039C11.3655 2.42099 12.5212 1.56282 14.5067 0.903322C16.4456 0.259109 20.04 0.406174 21.8855 1.20495C26.1514 3.05165 28.4247 7.4954 27.1443 11.4847C26.8682 12.3452 26.3974 13.3314 26.0984 13.6763L25.5546 14.3032L23.9097 12.9421C22.3359 11.6398 22.2801 11.5441 22.6141 10.7289C23.8576 7.69639 20.1668 3.99173 16.6109 4.70371C15.3442 4.95718 6.61732 12.9418 6.30777 14.1304C5.94238 15.5333 6.47557 16.4619 8.98925 18.8017L11.4521 21.0939L13.0852 19.5947C14.9658 17.868 15.9782 17.673 17.1938 18.8034C18.5663 20.0792 18.2636 21.0328 15.7065 23.4888C13.511 25.5971 12.3032 26.4071 11.5191 26.2966C11.306 26.2664 10.9704 26.2257 10.7734 26.2058C10.1406 26.1421 3.3527 19.7265 2.49754 18.3839C1.79964 17.2883 1.67092 16.7491 1.67092 14.9234C1.67092 11.9117 2.30865 10.9203 7.19984 6.33039Z" fill="url(#paint0_linear_31205_93)"/>
<path d="M10.5336 15.6054C9.43901 14.3118 9.68623 13.7397 12.3686 11.3572C15.8851 8.2339 15.7902 8.21746 20.8349 12.8328C25.3328 16.9484 26.0044 17.949 26.01 20.5466C26.0165 23.4427 25.1964 24.6336 19.7667 29.614C14.1711 34.7467 12.8218 35.5267 9.58604 35.4993C4.41227 35.4552 0.555822 32.0796 0.0620187 27.1632C-0.0905888 25.6444 0.00371114 25.1521 0.740694 23.6258C1.9628 21.0942 2.08873 21.0541 3.79068 22.6606C5.19237 23.9839 5.23486 24.073 4.89521 24.9794C3.84619 27.7768 6.29629 31.072 9.42536 31.072C11.1869 31.072 12.2576 30.3796 16.5077 26.4933C22.6312 20.8938 22.6734 20.683 18.4602 16.7084L15.5529 13.9661L14.2102 15.1657C12.596 16.6078 11.4933 16.7399 10.5336 15.6054Z" fill="url(#paint1_linear_31205_93)"/>
<defs>
<linearGradient id="paint0_linear_31205_93" x1="27.4641" y1="0.5" x2="-6.54223" y2="27.2192" gradientUnits="userSpaceOnUse">
<stop stop-color="#1EDFAD"/>
<stop offset="0.5" stop-color="#11A7ED"/>
<stop offset="1" stop-color="#9738F5"/>
</linearGradient>
<linearGradient id="paint1_linear_31205_93" x1="27.4641" y1="0.5" x2="-6.54223" y2="27.2192" gradientUnits="userSpaceOnUse">
<stop stop-color="#1EDFAD"/>
<stop offset="0.5" stop-color="#11A7ED"/>
<stop offset="1" stop-color="#9738F5"/>
</linearGradient>
</defs>
</svg>
