<svg width="24" height="24" viewBox="0 0 24 24" fill="none" xmlns="http://www.w3.org/2000/svg">
<mask id="mask0_29351_2148" style="mask-type:alpha" maskUnits="userSpaceOnUse" x="0" y="0" width="24" height="24">
<rect width="24" height="24" fill="#D9D9D9"/>
</mask>
<g mask="url(#mask0_29351_2148)">
<path d="M12 13.5L18 9.5L12 5.5V13.5ZM12.7 19H18.3C18.1833 19.4333 17.9833 19.7833 17.7 20.05C17.4167 20.3167 17.05 20.4833 16.6 20.55L5.7 21.875C5.15 21.9583 4.65417 21.8292 4.2125 21.4875C3.77084 21.1458 3.51667 20.7 3.45 20.15L2.125 9.225C2.05834 8.675 2.19167 8.18333 2.525 7.75C2.85834 7.31667 3.3 7.06667 3.85 7L5 6.85V8.85L4.1 8.975L5.45 19.9L12.7 19ZM9 17C8.45 17 7.97917 16.8042 7.5875 16.4125C7.19584 16.0208 7 15.55 7 15V4C7 3.45 7.19584 2.97917 7.5875 2.5875C7.97917 2.19583 8.45 2 9 2H20C20.55 2 21.0208 2.19583 21.4125 2.5875C21.8042 2.97917 22 3.45 22 4V15C22 15.55 21.8042 16.0208 21.4125 16.4125C21.0208 16.8042 20.55 17 20 17H9ZM9 15H20V4H9V15Z" fill="#4F4F4F"/>
</g>
</svg>
