<svg width="324" height="24" viewBox="0 0 324 24" fill="none" xmlns="http://www.w3.org/2000/svg">
<path d="M0.452994 12L12 23.547L23.547 12L12 0.452994L0.452994 12ZM324 14C325.105 14 326 13.1046 326 12C326 10.8955 325.105 10 324 10L324 12L324 14ZM12.4952 14C13.5998 14 14.4952 13.1046 14.4952 12C14.4952 10.8954 13.5998 10 12.4952 10L12.4952 12L12.4952 14ZM32.3048 10C31.2002 10 30.3048 10.8954 30.3048 12C30.3048 13.1046 31.2002 14 32.3048 14L32.3048 12L32.3048 10ZM33.2952 14C34.3998 14 35.2952 13.1046 35.2952 12C35.2952 10.8954 34.3998 10 33.2952 10L33.2952 12L33.2952 14ZM53.1048 10C52.0002 10 51.1048 10.8954 51.1048 12C51.1048 13.1046 52.0002 14 53.1048 14L53.1048 12L53.1048 10ZM54.0952 14C55.1998 14 56.0952 13.1046 56.0952 12C56.0952 10.8954 55.1998 10 54.0952 10L54.0952 12L54.0952 14ZM73.9048 10C72.8002 10 71.9048 10.8954 71.9048 12C71.9048 13.1046 72.8002 14 73.9048 14L73.9048 12L73.9048 10ZM74.8952 14C75.9998 14 76.8952 13.1046 76.8952 12C76.8952 10.8954 75.9998 10 74.8952 10L74.8952 12L74.8952 14ZM94.7048 10C93.6002 10 92.7048 10.8954 92.7048 12C92.7048 13.1046 93.6002 14 94.7048 14L94.7048 12L94.7048 10ZM95.6952 14C96.7998 14 97.6952 13.1046 97.6952 12C97.6952 10.8954 96.7998 10 95.6952 10L95.6952 12L95.6952 14ZM115.505 10C114.4 10 113.505 10.8954 113.505 12C113.505 13.1046 114.4 14 115.505 14L115.505 12L115.505 10ZM116.495 14C117.6 14 118.495 13.1046 118.495 12C118.495 10.8954 117.6 10 116.495 10L116.495 12L116.495 14ZM136.305 10C135.2 10 134.305 10.8954 134.305 12C134.305 13.1046 135.2 14 136.305 14L136.305 12L136.305 10ZM137.295 14C138.4 14 139.295 13.1046 139.295 12C139.295 10.8954 138.4 10 137.295 10L137.295 12L137.295 14ZM157.105 10C156 10 155.105 10.8954 155.105 12C155.105 13.1046 156 14 157.105 14L157.105 12L157.105 10ZM158.095 14C159.2 14 160.095 13.1046 160.095 12C160.095 10.8954 159.2 10 158.095 10L158.095 12L158.095 14ZM177.905 10C176.8 10 175.905 10.8954 175.905 12C175.905 13.1046 176.8 14 177.905 14L177.905 12L177.905 10ZM178.895 14C180 14 180.895 13.1046 180.895 12C180.895 10.8954 180 10 178.895 10L178.895 12L178.895 14ZM198.705 10C197.6 10 196.705 10.8954 196.705 12C196.705 13.1046 197.6 14 198.705 14L198.705 12L198.705 10ZM199.695 14C200.8 14 201.695 13.1046 201.695 12C201.695 10.8954 200.8 10 199.695 10L199.695 12L199.695 14ZM219.505 10C218.4 10 217.505 10.8954 217.505 12C217.505 13.1046 218.4 14 219.505 14L219.505 12L219.505 10ZM220.495 14C221.6 14 222.495 13.1046 222.495 12C222.495 10.8954 221.6 10 220.495 10L220.495 12L220.495 14ZM240.305 10C239.2 10 238.305 10.8955 238.305 12C238.305 13.1046 239.2 14 240.305 14L240.305 12L240.305 10ZM241.295 14C242.4 14 243.295 13.1046 243.295 12C243.295 10.8955 242.4 10 241.295 10L241.295 12L241.295 14ZM261.105 10C260 10 259.105 10.8955 259.105 12C259.105 13.1046 260 14 261.105 14L261.105 12L261.105 10ZM262.095 14C263.2 14 264.095 13.1046 264.095 12C264.095 10.8955 263.2 10 262.095 10L262.095 12L262.095 14ZM281.905 10C280.8 10 279.905 10.8955 279.905 12C279.905 13.1046 280.8 14 281.905 14L281.905 12L281.905 10ZM282.895 14C284 14 284.895 13.1046 284.895 12C284.895 10.8955 284 10 282.895 10L282.895 12L282.895 14ZM302.705 10C301.6 10 300.705 10.8955 300.705 12C300.705 13.1046 301.6 14 302.705 14L302.705 12L302.705 10ZM303.695 14C304.8 14 305.695 13.1046 305.695 12C305.695 10.8955 304.8 10 303.695 10L303.695 12L303.695 14ZM323.505 10C322.4 10 321.505 10.8955 321.505 12C321.505 13.1046 322.4 14 323.505 14L323.505 12L323.505 10ZM12 12L12 14L12.4952 14L12.4952 12L12.4952 10L12 10L12 12ZM32.3048 12L32.3048 14L33.2952 14L33.2952 12L33.2952 10L32.3048 10L32.3048 12ZM53.1048 12L53.1048 14L54.0952 14L54.0952 12L54.0952 10L53.1048 10L53.1048 12ZM73.9048 12L73.9048 14L74.8952 14L74.8952 12L74.8952 10L73.9048 10L73.9048 12ZM94.7048 12L94.7048 14L95.6952 14L95.6952 12L95.6952 10L94.7048 10L94.7048 12ZM115.505 12L115.505 14L116.495 14L116.495 12L116.495 10L115.505 10L115.505 12ZM136.305 12L136.305 14L137.295 14L137.295 12L137.295 10L136.305 10L136.305 12ZM157.105 12L157.105 14L158.095 14L158.095 12L158.095 10L157.105 10L157.105 12ZM177.905 12L177.905 14L178.895 14L178.895 12L178.895 10L177.905 10L177.905 12ZM198.705 12L198.705 14L199.695 14L199.695 12L199.695 10L198.705 10L198.705 12ZM219.505 12L219.505 14L220.495 14L220.495 12L220.495 10L219.505 10L219.505 12ZM240.305 12L240.305 14L241.295 14L241.295 12L241.295 10L240.305 10L240.305 12ZM261.105 12L261.105 14L262.095 14L262.095 12L262.095 10L261.105 10L261.105 12ZM281.905 12L281.905 14L282.895 14L282.895 12L282.895 10L281.905 10L281.905 12ZM302.705 12L302.705 14L303.695 14L303.695 12L303.695 10L302.705 10L302.705 12ZM323.505 12L323.505 14L324 14L324 12L324 10L323.505 10L323.505 12Z" fill="url(#paint0_linear_29400_5525)"/>
<defs>
<linearGradient id="paint0_linear_29400_5525" x1="12" y1="12.5" x2="324" y2="12.5" gradientUnits="userSpaceOnUse">
<stop stop-color="#1EDFAD"/>
<stop offset="1" stop-color="#1EDFAD" stop-opacity="0"/>
</linearGradient>
</defs>
</svg>
