<svg width="320" height="80" viewBox="0 0 320 80" fill="none" xmlns="http://www.w3.org/2000/svg">
<path d="M14.3997 16.6608C22.7311 8.84198 25.0425 7.12563 29.0134 5.80664C32.8912 4.51822 40.0799 4.81235 43.7711 6.4099C52.3028 10.1033 56.8494 18.9908 54.2886 26.9693C53.7364 28.6903 52.7947 30.6627 52.1967 31.3525L51.1092 32.6063L47.8195 29.8841C44.6718 27.2796 44.5602 27.0881 45.2283 25.4577C47.7153 19.3928 40.3336 11.9835 33.2219 13.4074C30.6884 13.9144 13.2346 29.8836 12.6155 32.2609C11.8848 35.0667 12.9511 36.9238 17.9785 41.6034L22.9041 46.1879L26.1703 43.1894C29.9315 39.7359 31.9564 39.346 34.3876 41.6068C37.1326 44.1583 36.5271 46.0656 31.4129 50.9776C27.0221 55.1941 24.6064 56.8142 23.0381 56.5933C22.6119 56.5327 21.9407 56.4514 21.5468 56.4116C20.2813 56.2842 6.70541 43.453 4.99508 40.7677C3.59928 38.5767 3.34183 37.4982 3.34183 33.8469C3.34183 27.8235 4.61729 25.8407 14.3997 16.6608Z" fill="url(#paint0_linear_29206_936)"/>
<path d="M21.0673 35.2109C18.878 32.6236 19.3725 31.4794 24.7373 26.7144C31.7703 20.4678 31.5804 20.4349 41.6699 29.6656C50.6657 37.8967 52.0088 39.898 52.0199 45.0932C52.033 50.8853 50.3927 53.2673 39.5334 63.228C28.3422 73.4933 25.6436 75.0534 19.1721 74.9986C8.82454 74.9104 1.11164 68.1591 0.124037 58.3264C-0.181178 55.2887 0.00742229 54.3042 1.48139 51.2516C3.92559 46.1884 4.17746 46.1083 7.58135 49.3212C10.3847 51.9679 10.4697 52.1461 9.79042 53.9588C7.69238 59.5537 12.5926 66.144 18.8507 66.144C22.3737 66.144 24.5152 64.7593 33.0153 56.9866C45.2624 45.7876 45.3467 45.366 36.9205 37.4169L31.1059 31.9321L28.4203 34.3313C25.192 37.2156 22.9866 37.4797 21.0673 35.2109Z" fill="url(#paint1_linear_29206_936)"/>
<path d="M68.5156 30.418C68.5156 28.5625 68.9746 26.873 69.8926 25.3496C70.8301 23.8262 72.0801 22.6152 73.6426 21.7168C75.2246 20.7988 76.9629 20.3398 78.8574 20.3398H100.42V26.4922H78.8574C77.7246 26.4922 76.748 26.8926 75.9277 27.6934C75.1074 28.4941 74.6973 29.4609 74.6973 30.5938V33.4648C74.6973 34.5 75.1074 35.3887 75.9277 36.1309C76.748 36.873 77.7246 37.2441 78.8574 37.2441H92.1289C94.043 37.2441 95.7812 37.7031 97.3438 38.6211C98.9062 39.5195 100.146 40.7402 101.064 42.2832C102.002 43.8066 102.471 45.4961 102.471 47.3516V51.8926C102.471 53.748 102.002 55.4473 101.064 56.9902C100.146 58.5137 98.9062 59.7344 97.3438 60.6523C95.7812 61.5508 94.043 62 92.1289 62H68.5449V55.8184H92.1289C93.2812 55.8184 94.2578 55.4375 95.0586 54.6758C95.8789 53.8945 96.2891 52.957 96.2891 51.8633V47.3809C96.2891 46.2871 95.8789 45.3496 95.0586 44.5684C94.2578 43.7871 93.2812 43.3965 92.1289 43.3965H78.8574C76.9629 43.3965 75.2246 42.957 73.6426 42.0781C72.0801 41.1797 70.8301 39.9785 69.8926 38.4746C68.9746 36.9707 68.5156 35.3105 68.5156 33.4941V30.418Z" fill="#121212"/>
<path d="M109.531 31.6484H115.713V50.9551C115.713 52.3223 116.182 53.4844 117.119 54.4414C118.057 55.3984 119.18 55.877 120.488 55.877H131.24V31.6484H137.422V55.8477C137.422 57.5469 136.816 59.002 135.605 60.2129C134.395 61.4043 132.92 62 131.182 62H120.488C118.477 62 116.641 61.5117 114.98 60.5352C113.32 59.5391 111.992 58.2109 110.996 56.5508C110.02 54.8906 109.531 53.0547 109.531 51.043V31.6484Z" fill="#121212"/>
<path d="M144.16 20.3398H150.342V55.8184H161.094C162.422 55.8184 163.545 55.3496 164.463 54.4121C165.4 53.4746 165.869 52.3516 165.869 51.043V42.6641C165.869 41.3359 165.4 40.2031 164.463 39.2656C163.545 38.3086 162.422 37.8301 161.094 37.8301H153.857V31.6484H161.094C163.105 31.6484 164.941 32.1465 166.602 33.1426C168.262 34.1191 169.58 35.4375 170.557 37.0977C171.553 38.7578 172.051 40.5938 172.051 42.6055V51.1016C172.051 53.0938 171.553 54.9199 170.557 56.5801C169.58 58.2207 168.262 59.5391 166.602 60.5352C164.941 61.5117 163.105 62 161.094 62H150.342C148.643 62 147.188 61.3945 145.977 60.1836C144.766 58.9727 144.16 57.5176 144.16 55.8184V20.3398Z" fill="#121212"/>
<path d="M179.082 37.8301C179.082 36.1309 179.688 34.6758 180.898 33.4648C182.109 32.2539 183.574 31.6484 185.293 31.6484H194.551C197.051 31.6484 199.102 32.4297 200.703 33.9922C202.266 32.4297 204.316 31.6484 206.855 31.6484H211.426C213.438 31.6484 215.273 32.1465 216.934 33.1426C218.594 34.1191 219.912 35.4375 220.889 37.0977C221.885 38.7383 222.383 40.5645 222.383 42.5762V62H216.23V42.6641C216.23 41.3164 215.762 40.1738 214.824 39.2363C213.887 38.2793 212.754 37.8008 211.426 37.8008H206.855C205.996 37.8008 205.264 38.0742 204.658 38.6211C204.053 39.1484 203.75 39.793 203.75 40.5547V62H197.568V40.5547C197.568 39.793 197.275 39.1484 196.689 38.6211C196.104 38.0742 195.391 37.8008 194.551 37.8008H185.264V62H179.082V37.8301Z" fill="#121212"/>
<path d="M229.121 42.5469C229.121 40.5352 229.609 38.709 230.586 37.0684C231.582 35.4277 232.91 34.1191 234.57 33.1426C236.23 32.1465 238.066 31.6484 240.078 31.6484H257.012V62H250.83V37.8301H240.078C238.77 37.8301 237.646 38.2988 236.709 39.2363C235.771 40.1543 235.303 41.2773 235.303 42.6055V50.9844C235.303 52.3125 235.771 53.4551 236.709 54.4121C237.646 55.3496 238.77 55.8184 240.078 55.8184H247.314V62H240.078C238.066 62 236.23 61.5117 234.57 60.5352C232.91 59.5391 231.582 58.2109 230.586 56.5508C229.609 54.8906 229.121 53.0547 229.121 51.043V42.5469Z" fill="#121212"/>
<path d="M262.578 31.6484H266.533V20.3398H272.715V31.6484H282.061V37.8301H272.715V53.3867C272.715 54.0508 272.969 54.627 273.477 55.1152C274.004 55.584 274.629 55.8184 275.352 55.8184H282.061V62H275.264C273.662 62 272.197 61.6191 270.869 60.8574C269.561 60.0762 268.506 59.041 267.705 57.752C266.924 56.4434 266.533 54.998 266.533 53.416V37.8301H262.578V31.6484Z" fill="#121212"/>
<path d="M287.656 37.918C287.656 36.1797 288.291 34.7051 289.561 33.4941C290.83 32.2637 292.354 31.6484 294.131 31.6484H306.787C308.408 31.6484 309.873 32.0488 311.182 32.8496C312.51 33.6309 313.564 34.6953 314.346 36.043C315.146 37.3711 315.547 38.8457 315.547 40.4668V41.3164C315.547 42.918 315.146 44.3828 314.346 45.7109C313.564 47.0195 312.51 48.0742 311.182 48.875C309.873 49.6562 308.408 50.0469 306.787 50.0469H297.354V43.8945H306.846C307.549 43.8945 308.145 43.6406 308.633 43.1328C309.141 42.625 309.395 42.0098 309.395 41.2871V40.4668C309.395 39.7246 309.141 39.0996 308.633 38.5918C308.145 38.084 307.549 37.8301 306.846 37.8301H293.838V53.416C293.838 54.0801 294.062 54.6465 294.512 55.1152C294.961 55.584 295.508 55.8184 296.152 55.8184H313.408V62H296.152C294.59 62 293.164 61.6191 291.875 60.8574C290.586 60.0762 289.561 59.041 288.799 57.752C288.037 56.4434 287.656 55.0078 287.656 53.4453V37.918Z" fill="#121212"/>
<defs>
<linearGradient id="paint0_linear_29206_936" x1="54.9282" y1="5" x2="-13.0845" y2="58.4385" gradientUnits="userSpaceOnUse">
<stop stop-color="#1EDFAD"/>
<stop offset="0.5" stop-color="#11A7ED"/>
<stop offset="1" stop-color="#9738F5"/>
</linearGradient>
<linearGradient id="paint1_linear_29206_936" x1="54.9282" y1="5" x2="-13.0845" y2="58.4385" gradientUnits="userSpaceOnUse">
<stop stop-color="#1EDFAD"/>
<stop offset="0.5" stop-color="#11A7ED"/>
<stop offset="1" stop-color="#9738F5"/>
</linearGradient>
</defs>
</svg>
