<svg width="200" height="80" viewBox="0 0 200 80" fill="none" xmlns="http://www.w3.org/2000/svg">
<path d="M16.2017 26.5799C20.9922 22.0841 22.3213 21.0972 24.6046 20.3388C26.8343 19.598 30.9678 19.7671 33.0902 20.6857C37.996 22.8094 40.6103 27.9197 39.1378 32.5074C38.8203 33.4969 38.2788 34.6311 37.935 35.0277L37.3097 35.7486L35.4181 34.1834C33.6082 32.6858 33.544 32.5757 33.9281 31.6382C35.3582 28.1508 31.1137 23.8905 27.0245 24.7093C25.5677 25.0008 15.5318 34.1831 15.1758 35.55C14.7556 37.1633 15.3688 38.2312 18.2595 40.922L21.0918 43.558L22.9698 41.8339C25.1325 39.8482 26.2968 39.624 27.6947 40.9239C29.2731 42.391 28.925 43.4877 25.9843 46.3121C23.4596 48.7366 22.0706 49.6682 21.1688 49.5411C20.9237 49.5063 20.5378 49.4596 20.3113 49.4367C19.5836 49.3634 11.7775 41.9855 10.794 40.4414C9.99146 39.1816 9.84343 38.5615 9.84343 36.462C9.84343 32.9985 10.5768 31.8584 16.2017 26.5799Z" fill="url(#paint0_linear_29359_3802)"/>
<path d="M20.0356 37.2462C18.7767 35.7586 19.061 35.1006 22.1458 32.3608C26.1898 28.769 26.0806 28.7501 31.8821 34.0577C37.0546 38.7906 37.8269 39.9413 37.8333 42.9286C37.8408 46.2591 36.8977 47.6287 30.6536 53.3561C24.2186 59.2587 22.667 60.1557 18.9458 60.1242C12.996 60.0735 8.56107 56.1915 7.9932 50.5377C7.8177 48.791 7.92614 48.2249 8.77367 46.4697C10.1791 43.5583 10.3239 43.5122 12.2812 45.3597C13.8931 46.8815 13.942 46.984 13.5514 48.0263C12.345 51.2434 15.1626 55.0328 18.761 55.0328C20.7868 55.0328 22.0181 54.2366 26.9057 49.7673C33.9477 43.3279 33.9963 43.0855 29.1511 38.5147L25.8077 35.361L24.2636 36.7405C22.4073 38.399 21.1392 38.5508 20.0356 37.2462Z" fill="url(#paint1_linear_29359_3802)"/>
<path d="M47.3184 34.4902C47.3184 33.4233 47.5823 32.4519 48.1101 31.5759C48.6492 30.7 49.3679 30.0037 50.2664 29.4871C51.176 28.9592 52.1755 28.6953 53.2649 28.6953H65.6633V32.2329H53.2649C52.6135 32.2329 52.052 32.4631 51.5803 32.9236C51.1086 33.384 50.8728 33.9399 50.8728 34.5913V36.2422C50.8728 36.8374 51.1086 37.3484 51.5803 37.7751C52.052 38.2019 52.6135 38.4153 53.2649 38.4153H60.896C61.9966 38.4153 62.9961 38.6792 63.8945 39.207C64.793 39.7236 65.5061 40.4255 66.0339 41.3127C66.573 42.1887 66.8425 43.1602 66.8425 44.2271V46.8381C66.8425 47.905 66.573 48.8821 66.0339 49.7693C65.5061 50.6453 64.793 51.3472 63.8945 51.875C62.9961 52.3916 61.9966 52.6499 60.896 52.6499H47.3352V49.0955H60.896C61.5586 49.0955 62.1201 48.8765 62.5806 48.4385C63.0522 47.9893 63.2881 47.4502 63.2881 46.8213V44.2439C63.2881 43.615 63.0522 43.0759 62.5806 42.6267C62.1201 42.1775 61.5586 41.9529 60.896 41.9529H53.2649C52.1755 41.9529 51.176 41.7002 50.2664 41.1948C49.3679 40.6782 48.6492 39.9875 48.1101 39.1228C47.5823 38.2581 47.3184 37.3035 47.3184 36.259V34.4902Z" fill="#121212"/>
<path d="M70.9023 35.1978H74.4568V46.2991C74.4568 47.0852 74.7263 47.7534 75.2654 48.3037C75.8044 48.854 76.4502 49.1292 77.2026 49.1292H83.385V35.1978H86.9395V49.1123C86.9395 50.0894 86.5913 50.926 85.895 51.6223C85.1987 52.3074 84.3508 52.6499 83.3513 52.6499H77.2026C76.0459 52.6499 74.9902 52.3691 74.0356 51.8076C73.0811 51.2349 72.3174 50.4712 71.7446 49.5166C71.1831 48.562 70.9023 47.5063 70.9023 46.3496V35.1978Z" fill="#121212"/>
<path d="M90.814 28.6953H94.3684V49.0955H100.551C101.314 49.0955 101.96 48.8259 102.488 48.2869C103.027 47.7478 103.297 47.1021 103.297 46.3496V41.5317C103.297 40.7681 103.027 40.1167 102.488 39.5776C101.96 39.0273 101.314 38.7522 100.551 38.7522H96.3899V35.1978H100.551C101.708 35.1978 102.763 35.4841 103.718 36.0569C104.672 36.6184 105.43 37.3765 105.992 38.3311C106.565 39.2856 106.851 40.3413 106.851 41.498V46.3833C106.851 47.5288 106.565 48.5789 105.992 49.5334C105.43 50.4768 104.672 51.2349 103.718 51.8076C102.763 52.3691 101.708 52.6499 100.551 52.6499H94.3684C93.3914 52.6499 92.5547 52.3018 91.8584 51.6055C91.1621 50.9092 90.814 50.0725 90.814 49.0955V28.6953Z" fill="#121212"/>
<path d="M110.894 38.7522C110.894 37.7751 111.242 36.9385 111.938 36.2422C112.635 35.5459 113.477 35.1978 114.465 35.1978H119.789C121.226 35.1978 122.405 35.647 123.326 36.5454C124.225 35.647 125.404 35.1978 126.864 35.1978H129.492C130.648 35.1978 131.704 35.4841 132.659 36.0569C133.613 36.6184 134.371 37.3765 134.933 38.3311C135.506 39.2744 135.792 40.3245 135.792 41.4812V52.6499H132.254V41.5317C132.254 40.7568 131.985 40.0999 131.446 39.5608C130.907 39.0105 130.255 38.7354 129.492 38.7354H126.864C126.37 38.7354 125.948 38.8926 125.6 39.207C125.252 39.5103 125.078 39.8809 125.078 40.3188V52.6499H121.524V40.3188C121.524 39.8809 121.355 39.5103 121.018 39.207C120.681 38.8926 120.271 38.7354 119.789 38.7354H114.448V52.6499H110.894V38.7522Z" fill="#121212"/>
<path d="M139.667 41.4644C139.667 40.3076 139.947 39.2576 140.509 38.3142C141.082 37.3708 141.845 36.6184 142.8 36.0569C143.754 35.4841 144.81 35.1978 145.967 35.1978H155.704V52.6499H152.149V38.7522H145.967C145.214 38.7522 144.569 39.0217 144.03 39.5608C143.49 40.0886 143.221 40.7344 143.221 41.498V46.3159C143.221 47.0796 143.49 47.7366 144.03 48.2869C144.569 48.8259 145.214 49.0955 145.967 49.0955H150.128V52.6499H145.967C144.81 52.6499 143.754 52.3691 142.8 51.8076C141.845 51.2349 141.082 50.4712 140.509 49.5166C139.947 48.562 139.667 47.5063 139.667 46.3496V41.4644Z" fill="#121212"/>
<path d="M158.904 35.1978H161.178V28.6953H164.733V35.1978H170.107V38.7522H164.733V47.6973C164.733 48.0791 164.879 48.4104 165.171 48.6912C165.474 48.9607 165.833 49.0955 166.249 49.0955H170.107V52.6499H166.198C165.278 52.6499 164.435 52.4309 163.672 51.9929C162.919 51.5437 162.313 50.9485 161.852 50.2073C161.403 49.4548 161.178 48.6238 161.178 47.7141V38.7522H158.904V35.1978Z" fill="#121212"/>
<path d="M173.324 38.8027C173.324 37.8032 173.689 36.9553 174.419 36.259C175.149 35.5515 176.025 35.1978 177.047 35.1978H184.324C185.257 35.1978 186.099 35.428 186.851 35.8884C187.615 36.3376 188.221 36.9497 188.671 37.7246C189.131 38.4883 189.361 39.3362 189.361 40.2683V40.7568C189.361 41.6777 189.131 42.52 188.671 43.2837C188.221 44.0361 187.615 44.6426 186.851 45.103C186.099 45.5522 185.257 45.7769 184.324 45.7769H178.9V42.2393H184.358C184.762 42.2393 185.105 42.0933 185.386 41.8013C185.678 41.5093 185.824 41.1555 185.824 40.74V40.2683C185.824 39.8416 185.678 39.4822 185.386 39.1902C185.105 38.8982 184.762 38.7522 184.358 38.7522H176.879V47.7141C176.879 48.0959 177.008 48.4216 177.266 48.6912C177.524 48.9607 177.839 49.0955 178.209 49.0955H188.132V52.6499H178.209C177.311 52.6499 176.491 52.4309 175.75 51.9929C175.009 51.5437 174.419 50.9485 173.981 50.2073C173.543 49.4548 173.324 48.6294 173.324 47.731V38.8027Z" fill="#121212"/>
<defs>
<linearGradient id="paint0_linear_29359_3802" x1="39.5056" y1="19.875" x2="0.398312" y2="50.6021" gradientUnits="userSpaceOnUse">
<stop stop-color="#1EDFAD"/>
<stop offset="0.5" stop-color="#11A7ED"/>
<stop offset="1" stop-color="#9738F5"/>
</linearGradient>
<linearGradient id="paint1_linear_29359_3802" x1="39.5056" y1="19.875" x2="0.398312" y2="50.6021" gradientUnits="userSpaceOnUse">
<stop stop-color="#1EDFAD"/>
<stop offset="0.5" stop-color="#11A7ED"/>
<stop offset="1" stop-color="#9738F5"/>
</linearGradient>
</defs>
</svg>
