<svg width="160" height="160" viewBox="0 0 160 160" fill="none" xmlns="http://www.w3.org/2000/svg">
<g filter="url(#filter0_n_29234_33115)">
<path fill-rule="evenodd" clip-rule="evenodd" d="M10.0908 8.16146C10.0359 8.25026 10.0681 8.32292 10.162 8.32292C10.256 8.32292 10.333 8.25026 10.333 8.16146C10.333 8.07266 10.301 8 10.2618 8C10.2226 8 10.1457 8.07266 10.0908 8.16146ZM32.9364 9.84725C32.9364 9.98562 33.0091 10.099 33.0979 10.099C33.1867 10.099 33.2593 10.0307 33.2593 9.94703C33.2593 9.86339 33.1867 9.75021 33.0979 9.69531C33.0091 9.64042 32.9364 9.70888 32.9364 9.84725ZM81.4531 9.77604C81.508 9.86484 81.5848 9.9375 81.6241 9.9375C81.6633 9.9375 81.6953 9.86484 81.6953 9.77604C81.6953 9.68724 81.6182 9.61458 81.5243 9.61458C81.4303 9.61458 81.3982 9.68724 81.4531 9.77604ZM70.7165 10.2604C70.7165 10.3492 70.7891 10.4219 70.8779 10.4219C70.9667 10.4219 71.0394 10.3492 71.0394 10.2604C71.0394 10.1716 70.9667 10.099 70.8779 10.099C70.7891 10.099 70.7165 10.1716 70.7165 10.2604ZM92.997 10.4269C92.997 10.5129 93.106 10.5833 93.2392 10.5833C93.3724 10.5833 93.4813 10.5548 93.4813 10.5199C93.4813 10.485 93.3724 10.4146 93.2392 10.3634C93.106 10.3124 92.997 10.341 92.997 10.4269ZM42.6236 10.5833C42.6236 10.6721 42.6963 10.7448 42.7851 10.7448C42.8739 10.7448 42.9465 10.6721 42.9465 10.5833C42.9465 10.4945 42.8739 10.4219 42.7851 10.4219C42.6963 10.4219 42.6236 10.4945 42.6236 10.5833ZM18.89 13.0052C18.89 13.094 18.9627 13.1667 19.0515 13.1667C19.1403 13.1667 19.2129 13.094 19.2129 13.0052C19.2129 12.9164 19.1403 12.8438 19.0515 12.8438C18.9627 12.8438 18.89 12.9164 18.89 13.0052ZM122.619 14.9508C122.47 15.1907 122.588 15.2756 122.847 15.1156C122.986 15.0297 123.003 14.9466 122.894 14.8796C122.802 14.8226 122.678 14.8547 122.619 14.9508ZM0.0807265 15.5885C0.135621 15.6773 0.212472 15.75 0.251705 15.75C0.290938 15.75 0.322906 15.6773 0.322906 15.5885C0.322906 15.4997 0.245893 15.4271 0.151927 15.4271C0.0579617 15.4271 0.0258325 15.4997 0.0807265 15.5885ZM86.6509 15.5303C86.5219 15.6593 86.6677 15.9115 86.8713 15.9115C86.9549 15.9115 87.0232 15.8025 87.0232 15.6693C87.0232 15.4197 86.8327 15.3485 86.6509 15.5303ZM109.465 15.8307C109.465 15.9788 109.543 16.0737 109.639 16.0419C109.734 16.0101 109.812 15.9152 109.812 15.8307C109.812 15.7463 109.734 15.6513 109.639 15.6195C109.543 15.5877 109.465 15.6827 109.465 15.8307ZM135.221 16.0663C135.154 16.1742 135.18 16.3422 135.277 16.4394C135.525 16.6876 135.682 16.4767 135.496 16.1451C135.383 15.9431 135.31 15.9223 135.221 16.0663ZM48.2207 17.1494C48.0349 17.335 48.103 17.526 48.3552 17.526C48.4884 17.526 48.5974 17.4171 48.5974 17.2839C48.5974 17.0317 48.4064 16.9635 48.2207 17.1494ZM61.5136 17.3702C61.5136 17.6488 61.5629 17.6725 61.8365 17.526C62.0141 17.4309 62.1594 17.3152 62.1594 17.2687C62.1594 17.2222 62.0868 17.229 61.998 17.2839C61.9092 17.3388 61.8365 17.3066 61.8365 17.2127C61.8365 17.1187 61.7639 17.0417 61.6751 17.0417C61.5863 17.0417 61.5136 17.1896 61.5136 17.3702ZM27.0591 17.3394C27.0032 17.4298 27.0361 17.5524 27.1322 17.6118C27.3805 17.7652 27.5407 17.5551 27.3334 17.3478C27.2174 17.2319 27.1272 17.2291 27.0591 17.3394ZM75.9906 17.6337C75.8048 17.8194 75.8729 18.0104 76.1251 18.0104C76.2583 18.0104 76.3673 17.9014 76.3673 17.7682C76.3673 17.516 76.1763 17.4479 75.9906 17.6337ZM98.1635 17.7548C98.1635 17.8953 98.2784 18.0104 98.4191 18.0104C98.5597 18.0104 98.6461 17.9242 98.6109 17.8188C98.5111 17.5193 98.1635 17.4697 98.1635 17.7548ZM11.216 18.9872C11.0626 19.2356 11.2727 19.3957 11.48 19.1884C11.5959 19.0725 11.5986 18.9822 11.4884 18.9141C11.3979 18.8582 11.2754 18.8912 11.216 18.9872ZM37.0485 19.4716C36.8951 19.7199 37.1051 19.8801 37.3125 19.6728C37.4284 19.5569 37.4311 19.4666 37.3209 19.3985C37.2304 19.3426 37.1079 19.3755 37.0485 19.4716ZM143.855 21.4818C143.855 21.615 143.927 21.724 144.016 21.724C144.105 21.724 144.178 21.615 144.178 21.4818C144.178 21.3486 144.105 21.2396 144.016 21.2396C143.927 21.2396 143.855 21.3486 143.855 21.4818ZM157.175 22.2083C157.12 22.2971 157.152 22.3698 157.246 22.3698C157.34 22.3698 157.417 22.2971 157.417 22.2083C157.417 22.1195 157.385 22.0469 157.346 22.0469C157.306 22.0469 157.229 22.1195 157.175 22.2083ZM115.439 22.4505C115.439 22.5837 115.512 22.6927 115.6 22.6927C115.689 22.6927 115.762 22.5837 115.762 22.4505C115.762 22.3173 115.689 22.2083 115.6 22.2083C115.512 22.2083 115.439 22.3173 115.439 22.4505ZM27.2484 24.8876C26.1623 25.2216 24.8615 26.5273 24.4085 27.738L24.0615 28.6652L24.0501 54.9534L24.0384 81.2415L24.381 82.1573C25.0908 84.0543 26.6478 85.3666 28.7062 85.8031C29.3141 85.9319 35.6175 85.9844 50.4694 85.9844H71.377L71.7887 85.5727C72.1091 85.2522 72.1768 85.0641 72.0936 84.725C71.8516 83.7374 73.4737 83.8121 50.4081 83.724C26.7757 83.6335 28.7065 83.739 27.4018 82.4677C26.256 81.3512 26.3169 82.653 26.3169 59.2336V38.1927H65.1463H103.976V49.1648V60.1367L103.333 59.91C102.288 59.5411 98.756 58.8594 97.8906 58.8594C96.8906 58.8594 96.3875 59.305 96.3875 60.1908C96.3875 60.6512 96.4868 60.8456 96.8563 61.1088C97.1143 61.2924 97.4901 61.4427 97.6914 61.4427C98.4499 61.4427 100.881 61.9628 102.314 62.4313C103.762 62.9054 105.852 64.0722 107.047 65.0747C107.356 65.3339 108.234 66.1733 108.999 66.9402C111.773 69.7221 113.058 72.9045 113.215 77.3808L113.261 78.7068L110.987 76.4524C109.046 74.5279 108.64 74.1979 108.213 74.1979C107.662 74.1979 107.043 74.8113 107.043 75.358C107.043 75.9795 107.565 76.6004 110.713 79.7279C113.998 82.9901 114.114 83.073 115.057 82.82C115.461 82.7113 121.247 76.6003 121.514 76.0001C121.732 75.5096 121.542 74.6959 121.14 74.3997C120.459 73.8974 120.118 74.1094 117.901 76.4126L115.762 78.635V77.1024C115.762 73.5737 114.631 69.9449 112.651 67.1225C111.412 65.3547 108.076 62.2342 106.599 61.4603L106.236 61.27V44.9743C106.236 29.0524 106.229 28.6589 105.912 27.8122C105.456 26.5923 104.588 25.6458 103.42 25.0933L102.442 24.6305L65.227 24.6415C33.1395 24.6512 27.9068 24.6851 27.2484 24.8876ZM2.7447 26.0833C2.7447 26.1721 2.81736 26.2448 2.90616 26.2448C2.99495 26.2448 3.06761 26.1721 3.06761 26.0833C3.06761 25.9945 2.99495 25.9219 2.90616 25.9219C2.81736 25.9219 2.7447 25.9945 2.7447 26.0833ZM136.105 28.1823C136.105 28.2711 136.178 28.3438 136.266 28.3438C136.355 28.3438 136.428 28.2711 136.428 28.1823C136.428 28.0935 136.355 28.0208 136.266 28.0208C136.178 28.0208 136.105 28.0935 136.105 28.1823ZM150.151 29.0703C150.151 29.2035 150.224 29.3125 150.313 29.3125C150.402 29.3125 150.474 29.2035 150.474 29.0703C150.474 28.9371 150.402 28.8281 150.313 28.8281C150.224 28.8281 150.151 28.9371 150.151 29.0703ZM13.7976 29.1619C13.739 29.2565 13.73 29.3727 13.7773 29.4202C13.893 29.5358 14.2079 29.332 14.2079 29.1415C14.2079 28.9352 13.9292 28.9489 13.7976 29.1619ZM31.6755 29.6396C31.0235 30.037 30.6118 30.9379 30.7487 31.6674C30.8676 32.3009 31.7304 33.1097 32.4576 33.2694C33.2246 33.4379 34.1769 32.9521 34.5629 32.1952C34.9433 31.4497 34.9489 31.2148 34.6042 30.4884C34.0797 29.3831 32.7353 28.9933 31.6755 29.6396ZM38.8403 29.617C37.3767 30.6121 37.7334 32.7401 39.4407 33.1999C40.0186 33.3556 40.202 33.3348 40.7944 33.047C42.668 32.1366 42.1759 29.541 40.0957 29.3622C39.5014 29.3112 39.2002 29.3724 38.8403 29.617ZM46.0819 29.617C45.8084 29.7838 45.455 30.1936 45.2965 30.5276C44.9296 31.3007 45.1476 32.1658 45.8603 32.7656C47.237 33.9239 49.2408 32.9908 49.2425 31.1906C49.243 30.6801 49.1289 30.4518 48.6164 29.9393C48.0793 29.4023 47.8886 29.3127 47.2844 29.3131C46.8795 29.3135 46.3674 29.4428 46.0819 29.617ZM123.118 30.1028C123.069 30.1824 123.138 30.289 123.27 30.34C123.417 30.3962 123.512 30.3395 123.512 30.1955C123.512 29.9343 123.259 29.8749 123.118 30.1028ZM111.968 30.9271C112.023 31.0159 112.099 31.0885 112.139 31.0885C112.178 31.0885 112.21 31.0159 112.21 30.9271C112.21 30.8383 112.133 30.7656 112.039 30.7656C111.945 30.7656 111.913 30.8383 111.968 30.9271ZM142.563 35.3806C142.563 35.6657 142.911 35.6162 143.01 35.3168C143.046 35.2112 142.959 35.125 142.819 35.125C142.678 35.125 142.563 35.2401 142.563 35.3806ZM130.454 36.0938C130.454 36.2714 130.527 36.4167 130.616 36.4167C130.704 36.4167 130.777 36.2714 130.777 36.0938C130.777 35.9161 130.704 35.7708 130.616 35.7708C130.527 35.7708 130.454 35.9161 130.454 36.0938ZM6.78103 36.8203C6.78103 36.9535 6.85368 37.0625 6.94248 37.0625C7.03128 37.0625 7.10394 36.9535 7.10394 36.8203C7.10394 36.6871 7.03128 36.5781 6.94248 36.5781C6.85368 36.5781 6.78103 36.6871 6.78103 36.8203ZM117.962 37.1904C117.919 37.2608 118.025 37.3291 118.198 37.3421C118.372 37.3552 118.471 37.2976 118.42 37.2141C118.305 37.0291 118.07 37.0168 117.962 37.1904ZM14.8537 41.8793C14.8537 42.1066 15.0355 42.2112 15.2722 42.1203C15.3962 42.0729 15.4575 41.9689 15.4083 41.8893C15.2956 41.707 14.8537 41.6991 14.8537 41.8793ZM149.603 42.8085C149.465 43.1682 149.476 43.1979 149.748 43.1979C149.881 43.1979 149.99 43.0933 149.99 42.9653C149.99 42.6236 149.717 42.5129 149.603 42.8085ZM50.5348 43.3594C50.5348 43.4482 50.6438 43.5208 50.777 43.5208C50.9102 43.5208 51.0192 43.4482 51.0192 43.3594C51.0192 43.2706 50.9102 43.1979 50.777 43.1979C50.6438 43.1979 50.5348 43.2706 50.5348 43.3594ZM63.4427 43.636C62.3698 44.1705 62.9539 43.2439 53.6449 59.1823C50.7145 64.1996 47.9131 68.9949 47.4197 69.8385C46.9262 70.6822 46.4727 71.6454 46.4116 71.979C46.1186 73.5811 46.9604 75.2727 48.4183 76.0113L49.2887 76.4522L65.2094 76.4545L81.1302 76.4569L81.9441 76.077C83.444 75.3771 84.1794 74.1199 84.0822 72.4219C84.0275 71.4665 83.9272 71.213 82.9644 69.5964C81.8984 67.8064 80.9358 66.1594 72.8673 52.3203C68.3786 44.6215 67.8938 43.9204 66.7066 43.4125C65.9052 43.0696 64.3683 43.1747 63.4427 43.636ZM76.6902 43.6016C76.6902 43.7348 76.7629 43.8438 76.8517 43.8438C76.9405 43.8438 77.0131 43.7348 77.0131 43.6016C77.0131 43.4684 76.9405 43.3594 76.8517 43.3594C76.7629 43.3594 76.6902 43.4684 76.6902 43.6016ZM98.2666 43.7943C98.0737 43.9873 98.1625 44.3281 98.4057 44.3281C98.5389 44.3281 98.6478 44.2235 98.6478 44.0955C98.6478 43.8257 98.4174 43.6437 98.2666 43.7943ZM32.2407 43.9553C32.1912 44.0356 32.2092 44.1965 32.2811 44.3128C32.3529 44.4289 32.4524 44.4583 32.502 44.378C32.5515 44.2978 32.5334 44.1368 32.4616 44.0205C32.3898 43.9045 32.2903 43.8751 32.2407 43.9553ZM124.319 44.0859C124.154 44.2844 124.165 44.3281 124.38 44.3281C124.524 44.3281 124.642 44.2191 124.642 44.0859C124.642 43.9527 124.614 43.8438 124.581 43.8438C124.547 43.8438 124.429 43.9527 124.319 44.0859ZM87.7567 44.1555C87.7055 44.2382 87.7376 44.3514 87.8279 44.4072C88.0205 44.5262 88.3148 44.3751 88.3148 44.1571C88.3148 43.9607 87.8778 43.9594 87.7567 44.1555ZM137.074 45.7005C137.074 45.8337 137.183 45.9427 137.316 45.9427C137.449 45.9427 137.558 45.8337 137.558 45.7005C137.558 45.5673 137.449 45.4583 137.316 45.4583C137.183 45.4583 137.074 45.5673 137.074 45.7005ZM5.4894 47.4766C5.4894 47.6098 5.56206 47.7188 5.65086 47.7188C5.73966 47.7188 5.81231 47.6098 5.81231 47.4766C5.81231 47.3434 5.73966 47.2344 5.65086 47.2344C5.56206 47.2344 5.4894 47.3434 5.4894 47.4766ZM113.986 47.6285C113.986 47.7565 114.059 47.906 114.147 47.9609C114.236 48.0158 114.309 47.911 114.309 47.7283C114.309 47.5455 114.236 47.3958 114.147 47.3958C114.059 47.3958 113.986 47.5005 113.986 47.6285ZM41.4143 47.8776C41.2953 48.0702 41.4465 48.3646 41.6644 48.3646C41.8609 48.3646 41.8622 47.9275 41.666 47.8064C41.5834 47.7552 41.4702 47.7874 41.4143 47.8776ZM52.8759 48.849C52.9308 48.9378 53.0076 49.0104 53.0469 49.0104C53.0861 49.0104 53.1181 48.9378 53.1181 48.849C53.1181 48.7602 53.0411 48.6875 52.9471 48.6875C52.8531 48.6875 52.821 48.7602 52.8759 48.849ZM94.152 50.7141C94.1828 50.8724 94.3056 51.0345 94.4252 51.0742C94.564 51.1205 94.6222 51.0429 94.5866 50.8588C94.5558 50.7006 94.4331 50.5385 94.3135 50.4987C94.1746 50.4524 94.1165 50.5301 94.152 50.7141ZM143.706 50.7191C143.714 50.9072 143.752 50.9455 143.804 50.8168C143.85 50.7002 143.844 50.5609 143.791 50.5073C143.737 50.4537 143.699 50.549 143.706 50.7191ZM81.5338 51.0286C81.5338 51.1618 81.6065 51.2708 81.6953 51.2708C81.7841 51.2708 81.8567 51.1618 81.8567 51.0286C81.8567 50.8954 81.7841 50.7865 81.6953 50.7865C81.6065 50.7865 81.5338 50.8954 81.5338 51.0286ZM153.806 51.0296C153.75 51.1761 153.807 51.2708 153.951 51.2708C154.212 51.2708 154.271 51.0185 154.043 50.8777C153.964 50.8284 153.857 50.8969 153.806 51.0296ZM129.808 51.5938C129.808 51.9084 129.98 52.0145 130.174 51.8201C130.303 51.6908 130.134 51.2708 129.952 51.2708C129.873 51.2708 129.808 51.4161 129.808 51.5938ZM64.2916 52.2514C63.2723 52.7687 62.9034 53.5773 63.0117 55.0561C63.2312 58.0514 63.9759 64.7688 64.118 65.0344C64.3324 65.4351 65.0167 65.677 65.5835 65.5525C66.5121 65.3486 66.4555 65.6372 67.5124 55.6988C67.6887 54.0398 67.6802 53.8658 67.3931 53.2874C66.7728 52.0374 65.5306 51.6225 64.2916 52.2514ZM121.03 54.1012C120.959 54.2861 121.008 54.3468 121.2 54.31C121.487 54.2547 121.542 53.978 121.283 53.8918C121.199 53.8635 121.085 53.9578 121.03 54.1012ZM47.8458 54.4262C47.7932 54.5633 47.7908 54.7159 47.8402 54.7653C47.9816 54.9067 48.2745 54.667 48.2745 54.4097C48.2745 54.0999 47.9664 54.1119 47.8458 54.4262ZM12.109 54.6004C12.109 54.815 12.1527 54.8261 12.3512 54.6615C12.4844 54.5509 12.5933 54.433 12.5933 54.3996C12.5933 54.366 12.4844 54.3385 12.3512 54.3385C12.218 54.3385 12.109 54.4564 12.109 54.6004ZM35.2946 55.3745C35.3487 55.5151 35.4637 55.6302 35.5504 55.6302C35.7627 55.6302 35.6298 55.2632 35.3884 55.1828C35.2704 55.1434 35.2344 55.2174 35.2946 55.3745ZM112.533 56.1146C112.533 56.2034 112.605 56.276 112.694 56.276C112.783 56.276 112.856 56.2034 112.856 56.1146C112.856 56.0258 112.783 55.9531 112.694 55.9531C112.605 55.9531 112.533 56.0258 112.533 56.1146ZM87.9367 56.5465C87.7478 56.7354 87.8232 56.8823 88.1534 56.9687C88.331 57.015 88.4763 56.9961 88.4763 56.9266C88.4763 56.7263 88.0543 56.4291 87.9367 56.5465ZM135.782 58.1328C135.782 58.2809 135.86 58.3758 135.956 58.344C136.051 58.3122 136.129 58.2171 136.129 58.1328C136.129 58.0485 136.051 57.9534 135.956 57.9216C135.86 57.8898 135.782 57.9848 135.782 58.1328ZM147.033 59.2866C146.825 59.4949 146.922 59.6466 147.247 59.6221C147.426 59.6087 147.548 59.5268 147.52 59.4405C147.451 59.234 147.174 59.1463 147.033 59.2866ZM5.1665 61.2813C5.1665 61.3701 5.27548 61.4427 5.40868 61.4427C5.54188 61.4427 5.65086 61.3701 5.65086 61.2813C5.65086 61.1925 5.54188 61.1198 5.40868 61.1198C5.27548 61.1198 5.1665 61.1925 5.1665 61.2813ZM41.332 61.4427C41.332 61.5315 41.441 61.6042 41.5742 61.6042C41.7074 61.6042 41.8163 61.5315 41.8163 61.4427C41.8163 61.3539 41.7074 61.2813 41.5742 61.2813C41.441 61.2813 41.332 61.3539 41.332 61.4427ZM117.376 61.9271C117.376 62.0159 117.449 62.0885 117.538 62.0885C117.627 62.0885 117.699 62.0159 117.699 61.9271C117.699 61.8383 117.627 61.7656 117.538 61.7656C117.449 61.7656 117.376 61.8383 117.376 61.9271ZM127.417 62.4216C127.456 62.538 127.583 62.6653 127.699 62.7042C127.82 62.7445 127.881 62.684 127.841 62.5629C127.802 62.4463 127.675 62.3191 127.558 62.2804C127.437 62.24 127.376 62.3005 127.417 62.4216ZM86.3236 63.9723C86.2644 64.0314 86.216 64.1549 86.216 64.2468C86.216 64.3478 86.2912 64.3383 86.4069 64.2225C86.512 64.1174 86.5605 63.9939 86.5146 63.9481C86.4688 63.9022 86.3827 63.913 86.3236 63.9723ZM139.98 65.7214C139.98 65.8546 140.098 65.9635 140.242 65.9635C140.456 65.9635 140.467 65.9198 140.303 65.7214C140.192 65.5882 140.074 65.4792 140.041 65.4792C140.007 65.4792 139.98 65.5882 139.98 65.7214ZM14.7177 65.9635C14.7177 66.1856 14.7544 66.2765 14.7991 66.1654C14.844 66.0544 14.844 65.8728 14.7991 65.7617C14.7544 65.6508 14.7177 65.7415 14.7177 65.9635ZM153.719 66.7613C153.558 66.8606 153.554 66.9205 153.7 67.0111C153.806 67.0766 153.966 67.0576 154.054 66.9688C154.265 66.7584 153.994 66.5911 153.719 66.7613ZM64.1451 68.056C62.8086 68.8709 62.817 70.4983 64.1626 71.4202C65.0315 72.0156 66.0994 71.7949 66.8274 70.8695C67.5176 69.9921 67.1215 68.3919 66.1096 67.969C65.359 67.6555 64.7583 67.6821 64.1451 68.056ZM101.319 68.2128C101.268 68.2955 101.3 68.4087 101.39 68.4645C101.48 68.5202 101.554 68.4526 101.554 68.3142C101.554 68.0305 101.457 67.9889 101.319 68.2128ZM92.3512 68.641C92.3512 68.9261 92.6988 68.8766 92.7985 68.5772C92.8337 68.4716 92.7474 68.3854 92.6067 68.3854C92.4661 68.3854 92.3512 68.5004 92.3512 68.641ZM36.5625 69.2035C36.5039 69.2981 36.4949 69.4144 36.5422 69.4619C36.6579 69.5775 36.9728 69.3737 36.9728 69.1832C36.9728 68.9768 36.6941 68.9906 36.5625 69.2035ZM132.392 71.359C132.392 71.4996 132.506 71.6146 132.647 71.6146C132.932 71.6146 132.883 71.267 132.583 71.1672C132.478 71.132 132.392 71.2184 132.392 71.359ZM145.971 72.4815C145.738 72.7629 145.955 72.9437 146.283 72.7409C146.45 72.6374 146.467 72.5475 146.341 72.4217C146.215 72.2961 146.111 72.3129 145.971 72.4815ZM7.10394 72.6545C7.10394 72.7929 7.17659 72.9063 7.26539 72.9063C7.35419 72.9063 7.42684 72.838 7.42684 72.7543C7.42684 72.6707 7.35419 72.5575 7.26539 72.5026C7.17659 72.4477 7.10394 72.5162 7.10394 72.6545ZM158.789 74.0365C158.734 74.1253 158.766 74.1979 158.86 74.1979C158.954 74.1979 159.031 74.1253 159.031 74.0365C159.031 73.9477 158.999 73.875 158.96 73.875C158.921 73.875 158.844 73.9477 158.789 74.0365ZM98.6478 75.4896C98.6478 75.5784 98.7249 75.651 98.8188 75.651C98.9128 75.651 98.9449 75.5784 98.89 75.4896C98.8351 75.4008 98.7583 75.3281 98.719 75.3281C98.6798 75.3281 98.6478 75.4008 98.6478 75.4896ZM40.1211 77.1042C40.176 77.193 40.2528 77.2656 40.2921 77.2656C40.3313 77.2656 40.3633 77.193 40.3633 77.1042C40.3633 77.0154 40.2863 76.9427 40.1923 76.9427C40.0983 76.9427 40.0662 77.0154 40.1211 77.1042ZM31.5076 77.2576C31.577 77.4657 31.7983 77.5031 31.8184 77.31C31.825 77.2456 31.7433 77.1639 31.6367 77.1284C31.5302 77.0929 31.472 77.151 31.5076 77.2576ZM90.194 77.7006C90.0122 77.8824 90.0834 78.0729 90.333 78.0729C90.4662 78.0729 90.5752 78.0046 90.5752 77.921C90.5752 77.7174 90.323 77.5716 90.194 77.7006ZM14.5308 78.1632C14.5308 78.3015 14.6034 78.37 14.6922 78.3151C14.781 78.2602 14.8537 78.147 14.8537 78.0634C14.8537 77.9798 14.781 77.9115 14.6922 77.9115C14.6034 77.9115 14.5308 78.0248 14.5308 78.1632ZM128.458 78.7995C128.509 78.9327 128.58 79.0417 128.615 79.0417C128.65 79.0417 128.678 78.9327 128.678 78.7995C128.678 78.6663 128.608 78.5573 128.522 78.5573C128.436 78.5573 128.407 78.6663 128.458 78.7995ZM139.416 78.8776C139.297 79.0703 139.448 79.3646 139.666 79.3646C139.863 79.3646 139.864 78.9275 139.668 78.8064C139.585 78.7552 139.472 78.7874 139.416 78.8776ZM48.3552 79.526C48.4101 79.6148 48.4869 79.6875 48.5262 79.6875C48.5654 79.6875 48.5974 79.6148 48.5974 79.526C48.5974 79.4372 48.5204 79.3646 48.4264 79.3646C48.3324 79.3646 48.3003 79.4372 48.3552 79.526ZM0.322906 79.849C0.322906 79.9378 0.399919 80.0104 0.493885 80.0104C0.587851 80.0104 0.61998 79.9378 0.565086 79.849C0.510192 79.7602 0.43334 79.6875 0.394107 79.6875C0.354874 79.6875 0.322906 79.7602 0.322906 79.849ZM151.987 79.9265C151.851 80.2817 152 80.3921 152.235 80.1094C152.367 79.9504 152.374 79.8448 152.257 79.7724C152.163 79.7145 152.042 79.7837 151.987 79.9265ZM81.1302 85.1377C80.5539 85.3274 80.0417 85.6829 79.3398 86.3801C77.6752 88.0339 77.8092 85.9367 77.8583 109.566L77.9011 130.143L78.3374 131.031C78.9191 132.215 79.9332 133.24 81.0351 133.757L81.9374 134.18H104.057H126.176L126.988 133.751C128.106 133.161 129.12 132.133 129.584 131.119L129.973 130.268L129.931 109.377L129.889 88.487L129.528 87.754C129.053 86.7902 127.969 85.6999 127.064 85.2756L126.337 84.9349L104.137 84.9033C83.9057 84.8745 81.8659 84.8953 81.1302 85.1377ZM8.07265 85.481C8.07265 85.5698 8.14531 85.6873 8.23411 85.7422C8.32291 85.7971 8.39556 85.7693 8.39556 85.6805C8.39556 85.5917 8.32291 85.4742 8.23411 85.4193C8.14531 85.3644 8.07265 85.3922 8.07265 85.481ZM145.469 86.0517C145.469 86.1923 145.584 86.3073 145.725 86.3073C146.01 86.3073 145.96 85.9597 145.661 85.8599C145.555 85.8247 145.469 85.9111 145.469 86.0517ZM158.143 86.6302C158.198 86.719 158.275 86.7917 158.314 86.7917C158.354 86.7917 158.385 86.719 158.385 86.6302C158.385 86.5414 158.308 86.4688 158.214 86.4688C158.121 86.4688 158.088 86.5414 158.143 86.6302ZM81.9374 87.4185C81.1554 87.7809 80.6637 88.2923 80.3307 89.0895C80.1096 89.6183 80.0812 91.9706 80.0843 109.431C80.0878 128.933 80.0919 129.183 80.4161 129.898C80.8286 130.808 81.1353 131.147 81.894 131.535C82.4788 131.833 83.1337 131.841 104.187 131.8L125.878 131.758L126.49 131.291C126.827 131.034 127.24 130.512 127.409 130.131C127.705 129.46 127.714 128.784 127.672 109.366C127.63 89.9949 127.618 89.2726 127.321 88.6744C127.152 88.3334 126.721 87.8612 126.364 87.625L125.715 87.1953L104.149 87.1572C83.4454 87.1207 82.5574 87.1312 81.9374 87.4185ZM17.4369 89.5269C17.4369 89.8066 17.7211 89.8584 17.9227 89.6154C18.0889 89.4154 18.0648 89.375 17.7795 89.375C17.5911 89.375 17.4369 89.4433 17.4369 89.5269ZM37.8246 91.5271C37.9019 91.7593 38.4258 91.8805 38.4258 91.6661C38.4258 91.5812 38.2763 91.4725 38.0937 91.4247C37.8824 91.3695 37.7845 91.4068 37.8246 91.5271ZM63.2089 91.7969C63.154 91.8857 63.1861 91.9583 63.2801 91.9583C63.3741 91.9583 63.4511 91.8857 63.4511 91.7969C63.4511 91.7081 63.4191 91.6354 63.3799 91.6354C63.3406 91.6354 63.2638 91.7081 63.2089 91.7969ZM0 92.2813C0 92.3701 0.0770131 92.4427 0.170979 92.4427C0.264945 92.4427 0.297074 92.3701 0.24218 92.2813C0.187286 92.1925 0.110434 92.1198 0.0712008 92.1198C0.0319677 92.1198 0 92.1925 0 92.2813ZM85.5701 92.4427C85.5701 92.5315 85.6791 92.6042 85.8123 92.6042C85.9455 92.6042 86.0545 92.5315 86.0545 92.4427C86.0545 92.3539 85.9455 92.2813 85.8123 92.2813C85.6791 92.2813 85.5701 92.3539 85.5701 92.4427ZM71.3623 92.6983C71.3623 92.8389 71.4485 92.9253 71.5541 92.8901C71.8534 92.7903 71.903 92.4427 71.6178 92.4427C71.4772 92.4427 71.3623 92.5577 71.3623 92.6983ZM101.815 92.6223C100.129 93.0182 98.2775 94.4974 97.4676 96.0957C96.8626 97.2895 96.5967 99.1439 96.851 100.397C97.486 103.527 99.6551 105.579 102.817 106.04C103.985 106.21 104.226 106.195 105.417 105.876C107.616 105.288 108.98 104.185 110.052 102.13C110.489 101.291 110.515 101.132 110.515 99.224C110.515 97.3343 110.485 97.1463 110.057 96.2725C109.546 95.2325 108.343 93.9588 107.285 93.3386C105.916 92.5367 103.518 92.2226 101.815 92.6223ZM121.127 92.6345C121.227 92.9339 121.574 92.9834 121.574 92.6983C121.574 92.5577 121.459 92.4427 121.319 92.4427C121.178 92.4427 121.092 92.5289 121.127 92.6345ZM139.495 93.1693C139.495 93.3025 139.568 93.4115 139.657 93.4115C139.746 93.4115 139.818 93.3025 139.818 93.1693C139.818 93.0361 139.746 92.9271 139.657 92.9271C139.568 92.9271 139.495 93.0361 139.495 93.1693ZM151.604 94.1246C151.604 94.2653 151.719 94.3802 151.86 94.3802C152.145 94.3802 152.096 94.0326 151.796 93.9328C151.691 93.8976 151.604 93.984 151.604 94.1246ZM50.777 94.3213C50.5994 94.3571 50.0182 94.4676 49.4854 94.5667C47.1383 95.0034 44.4589 96.4575 42.5397 98.3359C40.443 100.388 39.1357 102.602 38.3923 105.359C38.0737 106.541 38.0238 107.102 38.0337 109.396C38.0432 111.607 38.1047 112.276 38.3956 113.332C39.7862 118.379 43.9122 122.374 49.0817 123.678C50.4381 124.02 50.9146 124.059 53.1988 124.019C56.2879 123.965 57.5498 123.673 59.8975 122.467C63.6458 120.541 66.1874 117.263 67.3463 112.859C67.6697 111.63 67.7251 111.041 67.7179 108.911C67.71 106.527 67.6852 106.337 67.191 104.895C66.1596 101.883 65.2043 100.338 63.1751 98.4018C61.0118 96.3371 58.1665 94.9477 55.0721 94.4454C53.7812 94.2359 51.5242 94.1706 50.777 94.3213ZM27.891 95.1483C27.7355 95.1828 27.6085 95.2786 27.6085 95.3607C27.6085 95.55 27.7835 95.5479 28.0882 95.3553C28.3781 95.1718 28.2745 95.063 27.891 95.1483ZM8.48323 96.791C8.43205 96.8736 8.46418 96.9868 8.55443 97.0427C8.64468 97.0984 8.71847 97.0307 8.71847 96.8923C8.71847 96.6087 8.62159 96.567 8.48323 96.791ZM49.6468 96.9556C47.2082 97.5973 45.4138 98.6774 43.6609 100.56C42.3031 102.017 41.4636 103.402 40.8974 105.117C40.5302 106.229 40.4613 106.757 40.4015 108.911C40.3247 111.689 40.4831 112.635 41.3414 114.528C44.0176 120.431 51.2247 123.332 57.4561 121.015C61.1371 119.646 64.0299 116.277 65.0438 112.18C65.4925 110.366 65.4847 107.402 65.0273 105.868C63.862 101.96 61.0002 98.8717 57.2351 97.4599C54.9701 96.6104 51.768 96.3978 49.6468 96.9556ZM117.297 98.737C117.178 98.9296 117.329 99.224 117.547 99.224C117.744 99.224 117.745 98.7869 117.549 98.6658C117.466 98.6146 117.353 98.6468 117.297 98.737ZM89.7679 99.1432C89.7679 99.2764 89.8769 99.3854 90.0101 99.3854C90.1433 99.3854 90.2523 99.2764 90.2523 99.1432C90.2523 99.01 90.1433 98.901 90.0101 98.901C89.8769 98.901 89.7679 99.01 89.7679 99.1432ZM68.5438 99.2128C68.4926 99.2955 68.5247 99.4087 68.615 99.4645C68.7052 99.5202 68.779 99.4526 68.779 99.3142C68.779 99.0305 68.6821 98.9889 68.5438 99.2128ZM18.6787 99.497C18.6291 99.5772 18.6472 99.7382 18.719 99.8545C18.7909 99.9706 18.8903 99.9999 18.9399 99.9197C18.9895 99.8394 18.9714 99.6785 18.8995 99.5622C18.8277 99.4461 18.7282 99.4167 18.6787 99.497ZM144.016 100.102C144.016 100.23 144.081 100.375 144.161 100.424C144.327 100.527 144.527 100.112 144.382 99.9664C144.208 99.7931 144.016 99.8646 144.016 100.102ZM33.0979 102.297C33.0979 102.383 33.2069 102.453 33.3401 102.453C33.4733 102.453 33.5822 102.425 33.5822 102.39C33.5822 102.355 33.4733 102.284 33.3401 102.233C33.2069 102.182 33.0979 102.211 33.0979 102.297ZM58.1762 103.525C58.0721 103.567 57.0913 104.629 55.9966 105.884C52.4237 109.98 50.8429 111.736 50.6735 111.795C50.582 111.828 49.653 111.01 48.6088 109.979C46.5271 107.923 46.1809 107.761 45.4418 108.501C44.61 109.332 44.8917 109.841 47.7496 112.665C49.7891 114.681 50.0485 114.885 50.5702 114.885C50.8865 114.885 51.2904 114.758 51.4685 114.603C51.7644 114.345 53.6736 112.173 58.0827 107.081C59.4693 105.479 59.7376 105.082 59.7376 104.63C59.7376 103.831 58.8924 103.232 58.1762 103.525ZM122.003 104.511C121.957 104.586 121.985 104.754 122.067 104.883C122.178 105.058 122.216 105.064 122.218 104.906C122.219 104.79 122.302 104.745 122.402 104.807C122.511 104.874 122.556 104.834 122.513 104.706C122.426 104.442 122.118 104.325 122.003 104.511ZM152.412 106.086C152.412 106.219 152.484 106.328 152.573 106.328C152.662 106.328 152.735 106.219 152.735 106.086C152.735 105.953 152.662 105.844 152.573 105.844C152.484 105.844 152.412 105.953 152.412 106.086ZM25.3481 106.557C25.3481 106.698 25.4632 106.813 25.6037 106.813C25.8888 106.813 25.8393 106.465 25.5399 106.365C25.4344 106.33 25.3481 106.416 25.3481 106.557ZM11.3017 107.135C11.3017 107.224 11.3744 107.297 11.4632 107.297C11.552 107.297 11.6246 107.224 11.6246 107.135C11.6246 107.047 11.552 106.974 11.4632 106.974C11.3744 106.974 11.3017 107.047 11.3017 107.135ZM73.4726 107.202C73.3522 107.347 73.3016 107.514 73.3601 107.572C73.5109 107.723 73.8335 107.364 73.756 107.132C73.7114 106.998 73.6239 107.02 73.4726 107.202ZM84.9371 107.262C84.9259 107.582 84.9671 107.608 85.2472 107.458C85.6171 107.26 85.6864 107.056 85.3384 107.19C85.2109 107.239 85.0714 107.192 85.0283 107.086C84.985 106.98 84.944 107.059 84.9371 107.262ZM138.962 107.4C138.833 107.529 138.979 107.781 139.182 107.781C139.266 107.781 139.334 107.672 139.334 107.539C139.334 107.289 139.143 107.218 138.962 107.4ZM100.02 107.949C94.9136 109.109 90.9996 112.151 89.384 116.216C88.5772 118.246 88.5638 119.139 89.3325 119.642C89.6796 119.87 91.2334 119.897 103.744 119.892L117.766 119.887L118.217 119.455C118.744 118.95 118.785 118.47 118.421 117.074C117.52 113.614 113.955 110.131 109.746 108.597C107.72 107.86 106.866 107.723 104.057 107.689C101.895 107.663 101.037 107.718 100.02 107.949ZM31.1604 112.373C31.1604 112.512 31.2331 112.625 31.3219 112.625C31.4107 112.625 31.4834 112.557 31.4834 112.473C31.4834 112.389 31.4107 112.276 31.3219 112.221C31.2331 112.166 31.1604 112.235 31.1604 112.373ZM145.493 112.617C145.529 112.723 145.611 112.805 145.675 112.799C145.868 112.779 145.831 112.557 145.623 112.488C145.516 112.452 145.458 112.51 145.493 112.617ZM4.29611 113.404C4.23911 113.496 4.27124 113.62 4.36731 113.679C4.60722 113.828 4.69215 113.71 4.53215 113.451C4.44626 113.312 4.36311 113.295 4.29611 113.404ZM17.9523 113.444C17.9841 113.54 18.079 113.618 18.1635 113.618C18.2479 113.618 18.3428 113.54 18.3747 113.444C18.4065 113.349 18.3115 113.271 18.1635 113.271C18.0154 113.271 17.9205 113.349 17.9523 113.444ZM158.224 113.926C158.224 114.02 158.297 114.052 158.385 113.997C158.474 113.943 158.547 113.866 158.547 113.826C158.547 113.787 158.474 113.755 158.385 113.755C158.297 113.755 158.224 113.832 158.224 113.926ZM25.6076 119.362C25.5537 119.416 25.5096 119.557 25.5096 119.675C25.5096 119.903 25.9236 119.975 26.0482 119.77C26.1438 119.612 25.7355 119.234 25.6076 119.362ZM139.655 120.296C139.438 120.559 139.608 120.613 139.957 120.393C140.09 120.308 140.113 120.215 140.015 120.155C139.927 120.1 139.765 120.164 139.655 120.296ZM151.202 120.378C151.258 120.468 151.371 120.5 151.454 120.449C151.678 120.31 151.636 120.214 151.353 120.214C151.214 120.214 151.147 120.287 151.202 120.378ZM11.3017 120.617C11.3017 120.765 11.3799 120.86 11.4753 120.828C11.5707 120.797 11.6488 120.702 11.6488 120.617C11.6488 120.533 11.5707 120.438 11.4753 120.406C11.3799 120.374 11.3017 120.469 11.3017 120.617ZM34.8739 122.555C34.8739 122.688 34.9388 122.797 35.018 122.797C35.0973 122.797 35.204 122.688 35.2552 122.555C35.3117 122.407 35.2554 122.313 35.111 122.313C34.9806 122.313 34.8739 122.421 34.8739 122.555ZM68.6176 123.462C68.6176 123.748 68.6579 123.772 68.858 123.606C69.101 123.404 69.0491 123.12 68.7695 123.12C68.6859 123.12 68.6176 123.274 68.6176 123.462ZM159.758 123.766C159.813 123.854 159.89 123.927 159.929 123.927C159.968 123.927 160 123.854 160 123.766C160 123.677 159.923 123.604 159.829 123.604C159.735 123.604 159.703 123.677 159.758 123.766ZM85.8393 125.326C85.6534 125.512 85.7216 125.703 85.9738 125.703C86.107 125.703 86.216 125.594 86.216 125.461C86.216 125.209 86.0249 125.141 85.8393 125.326ZM109.465 125.784C109.465 125.917 109.538 126.026 109.627 126.026C109.715 126.026 109.788 125.917 109.788 125.784C109.788 125.651 109.715 125.542 109.627 125.542C109.538 125.542 109.465 125.651 109.465 125.784ZM121.114 125.695C121.15 125.802 121.231 125.883 121.296 125.877C121.489 125.857 121.451 125.635 121.243 125.566C121.137 125.53 121.079 125.589 121.114 125.695ZM18.4057 126.126C18.4057 126.341 18.4494 126.352 18.6478 126.188C18.781 126.077 18.89 125.959 18.89 125.926C18.89 125.892 18.781 125.865 18.6478 125.865C18.5146 125.865 18.4057 125.982 18.4057 126.126ZM95.4557 126.056C95.5555 126.356 95.9031 126.405 95.9031 126.12C95.9031 125.98 95.7882 125.865 95.6476 125.865C95.5069 125.865 95.4205 125.951 95.4557 126.056ZM144.501 127.479C144.501 127.568 144.609 127.641 144.743 127.641C144.876 127.641 144.985 127.568 144.985 127.479C144.985 127.39 144.876 127.318 144.743 127.318C144.609 127.318 144.501 127.39 144.501 127.479ZM41.5792 128.657C41.5101 128.816 41.4989 128.992 41.5541 129.047C41.7182 129.211 41.8504 128.981 41.7749 128.662C41.708 128.38 41.6993 128.38 41.5792 128.657ZM63.1282 129.336C63.1282 129.484 63.2063 129.579 63.3017 129.547C63.3971 129.515 63.4753 129.42 63.4753 129.336C63.4753 129.252 63.3971 129.157 63.3017 129.125C63.2063 129.093 63.1282 129.188 63.1282 129.336ZM52.4001 129.564C52.3481 129.649 52.3744 129.76 52.4585 129.812C52.5426 129.864 52.6539 129.837 52.7059 129.753C52.7579 129.669 52.7315 129.558 52.6474 129.506C52.5633 129.454 52.4521 129.48 52.4001 129.564ZM29.1692 130.493C28.9834 130.679 29.0515 130.87 29.3037 130.87C29.4369 130.87 29.5459 130.761 29.5459 130.628C29.5459 130.375 29.3549 130.307 29.1692 130.493ZM153.638 131.49C153.582 131.581 153.615 131.703 153.711 131.763C153.96 131.916 154.12 131.706 153.913 131.499C153.797 131.383 153.706 131.38 153.638 131.49ZM11.1403 132.727C11.1403 132.86 11.2129 132.969 11.3017 132.969C11.3905 132.969 11.4632 132.86 11.4632 132.727C11.4632 132.593 11.3905 132.484 11.3017 132.484C11.2129 132.484 11.1403 132.593 11.1403 132.727ZM139.738 135.391C139.683 135.479 139.715 135.552 139.809 135.552C139.903 135.552 139.98 135.479 139.98 135.391C139.98 135.302 139.948 135.229 139.909 135.229C139.869 135.229 139.793 135.302 139.738 135.391ZM34.8001 136.671C34.6898 136.85 34.9444 137.042 35.0936 136.893C35.247 136.74 35.2184 136.521 35.0448 136.521C34.9612 136.521 34.8511 136.589 34.8001 136.671ZM68.7207 136.633C68.5389 136.815 68.6101 137.005 68.8597 137.005C68.9929 137.005 69.1019 136.937 69.1019 136.853C69.1019 136.65 68.8497 136.504 68.7207 136.633ZM45.6912 136.915C45.6912 137.053 45.7639 137.167 45.8527 137.167C45.9415 137.167 46.0141 137.098 46.0141 137.015C46.0141 136.931 45.9415 136.818 45.8527 136.763C45.7639 136.708 45.6912 136.777 45.6912 136.915ZM20.6171 137.392C20.551 137.56 20.5351 137.735 20.5814 137.782C20.7288 137.929 20.8583 137.688 20.7966 137.381C20.7401 137.1 20.7314 137.101 20.6171 137.392ZM57.1544 137.409C56.9897 137.607 57.0008 137.651 57.2154 137.651C57.3594 137.651 57.4773 137.542 57.4773 137.409C57.4773 137.276 57.4499 137.167 57.4163 137.167C57.3829 137.167 57.265 137.276 57.1544 137.409ZM148.375 139.256C148.375 139.34 148.448 139.453 148.537 139.508C148.626 139.563 148.698 139.494 148.698 139.356C148.698 139.218 148.626 139.104 148.537 139.104C148.448 139.104 148.375 139.172 148.375 139.256ZM97.5177 139.817C97.5177 139.958 97.6326 140.073 97.7732 140.073C98.0584 140.073 98.0088 139.725 97.7095 139.626C97.6039 139.59 97.5177 139.677 97.5177 139.817ZM120.605 139.979C120.605 140.119 120.72 140.234 120.861 140.234C121.146 140.234 121.097 139.887 120.797 139.787C120.692 139.752 120.605 139.838 120.605 139.979ZM4.35923 140.144C4.35923 140.283 4.43189 140.396 4.52069 140.396C4.60949 140.396 4.68214 140.328 4.68214 140.244C4.68214 140.16 4.60949 140.047 4.52069 139.992C4.43189 139.937 4.35923 140.006 4.35923 140.144ZM84.6014 140.315C84.6014 140.448 84.6741 140.557 84.7629 140.557C84.8517 140.557 84.9243 140.448 84.9243 140.315C84.9243 140.182 84.8517 140.073 84.7629 140.073C84.6741 140.073 84.6014 140.182 84.6014 140.315ZM131.342 140.234C131.287 140.323 131.356 140.396 131.494 140.396C131.632 140.396 131.746 140.323 131.746 140.234C131.746 140.146 131.677 140.073 131.594 140.073C131.51 140.073 131.397 140.146 131.342 140.234ZM108.819 140.386C108.819 140.47 108.892 140.583 108.981 140.638C109.07 140.693 109.142 140.624 109.142 140.486C109.142 140.348 109.07 140.234 108.981 140.234C108.892 140.234 108.819 140.303 108.819 140.386ZM13.6378 144.279C13.4844 144.527 13.6945 144.687 13.9018 144.48C14.0177 144.364 14.0204 144.274 13.9102 144.206C13.8197 144.15 13.6972 144.183 13.6378 144.279ZM27.1241 144.523C27.1241 144.661 27.1968 144.729 27.2856 144.674C27.3744 144.62 27.447 144.506 27.447 144.423C27.447 144.339 27.3744 144.271 27.2856 144.271C27.1968 144.271 27.1241 144.384 27.1241 144.523ZM39.3088 144.44C39.1554 144.689 39.3655 144.849 39.5728 144.642C39.6887 144.526 39.6915 144.435 39.5812 144.367C39.4908 144.311 39.3682 144.344 39.3088 144.44ZM50.6289 144.411C50.5594 144.523 50.5461 144.659 50.5994 144.712C50.7439 144.857 50.9015 144.644 50.8233 144.41C50.7688 144.246 50.7307 144.246 50.6289 144.411ZM62.5581 144.44C62.4047 144.689 62.6147 144.849 62.822 144.642C62.938 144.526 62.9407 144.435 62.8304 144.367C62.74 144.311 62.6175 144.344 62.5581 144.44ZM75.7215 144.513C75.7215 144.646 75.7942 144.755 75.8829 144.755C75.9717 144.755 76.0444 144.646 76.0444 144.513C76.0444 144.38 75.9717 144.271 75.8829 144.271C75.7942 144.271 75.7215 144.38 75.7215 144.513ZM90.7366 146.37C90.7366 146.459 90.8049 146.531 90.8886 146.531C90.9722 146.531 91.0854 146.459 91.1403 146.37C91.1952 146.281 91.1267 146.208 90.9883 146.208C90.85 146.208 90.7366 146.281 90.7366 146.37ZM140.141 146.37C140.141 146.459 140.214 146.531 140.303 146.531C140.392 146.531 140.464 146.459 140.464 146.37C140.464 146.281 140.392 146.208 140.303 146.208C140.214 146.208 140.141 146.281 140.141 146.37ZM114.009 147.001C113.847 147.102 113.839 147.167 113.979 147.254C114.201 147.391 114.367 147.269 114.285 147.031C114.252 146.933 114.138 146.921 114.009 147.001ZM126.028 147.155C125.958 147.268 125.945 147.404 125.998 147.457C126.142 147.601 126.3 147.389 126.222 147.155C126.167 146.991 126.129 146.991 126.028 147.155ZM101.98 147.774C101.798 147.955 101.869 148.146 102.119 148.146C102.252 148.146 102.361 148.078 102.361 147.994C102.361 147.79 102.109 147.645 101.98 147.774ZM150.394 148.469C150.339 148.558 150.371 148.63 150.465 148.63C150.559 148.63 150.636 148.558 150.636 148.469C150.636 148.38 150.604 148.307 150.565 148.307C150.525 148.307 150.448 148.38 150.394 148.469ZM68.779 151.536C68.779 151.625 68.8517 151.698 68.9405 151.698C69.0293 151.698 69.1019 151.625 69.1019 151.536C69.1019 151.448 69.0293 151.375 68.9405 151.375C68.8517 151.375 68.779 151.448 68.779 151.536ZM32.1292 151.84C32.1292 151.929 32.2018 152.047 32.2906 152.102C32.3794 152.156 32.4521 152.129 32.4521 152.04C32.4521 151.951 32.3794 151.834 32.2906 151.779C32.2018 151.724 32.1292 151.752 32.1292 151.84ZM56.5086 151.859C56.5086 151.948 56.5812 152.021 56.67 152.021C56.7588 152.021 56.8315 151.948 56.8315 151.859C56.8315 151.771 56.7588 151.698 56.67 151.698C56.5812 151.698 56.5086 151.771 56.5086 151.859ZM19.8587 152.334C19.8587 152.418 19.9314 152.531 20.0202 152.586C20.109 152.641 20.1816 152.572 20.1816 152.434C20.1816 152.296 20.109 152.182 20.0202 152.182C19.9314 152.182 19.8587 152.251 19.8587 152.334ZM82.8254 152.353C82.8254 152.447 82.8981 152.479 82.9869 152.424C83.0757 152.37 83.1483 152.293 83.1483 152.253C83.1483 152.214 83.0757 152.182 82.9869 152.182C82.8981 152.182 82.8254 152.259 82.8254 152.353ZM44.884 152.505C44.884 152.594 44.9566 152.667 45.0454 152.667C45.1342 152.667 45.2069 152.594 45.2069 152.505C45.2069 152.416 45.1342 152.344 45.0454 152.344C44.9566 152.344 44.884 152.416 44.884 152.505Z" fill="url(#paint0_linear_29234_33115)"/>
</g>
<defs>
<filter id="filter0_n_29234_33115" x="0" y="8" width="160" height="144.667" filterUnits="userSpaceOnUse" color-interpolation-filters="sRGB">
<feFlood flood-opacity="0" result="BackgroundImageFix"/>
<feBlend mode="normal" in="SourceGraphic" in2="BackgroundImageFix" result="shape"/>
<feTurbulence type="fractalNoise" baseFrequency="12.005715370178223 12.005715370178223" stitchTiles="stitch" numOctaves="3" result="noise" seed="9169" />
<feColorMatrix in="noise" type="luminanceToAlpha" result="alphaNoise" />
<feComponentTransfer in="alphaNoise" result="coloredNoise1">
<feFuncA type="discrete" tableValues="1 1 1 1 1 1 1 1 1 1 1 1 1 1 1 1 1 1 1 1 1 1 1 1 1 1 1 1 1 1 1 1 1 1 1 1 1 1 1 1 1 1 1 1 1 1 1 1 1 1 1 0 0 0 0 0 0 0 0 0 0 0 0 0 0 0 0 0 0 0 0 0 0 0 0 0 0 0 0 0 0 0 0 0 0 0 0 0 0 0 0 0 0 0 0 0 0 0 0 0 "/>
</feComponentTransfer>
<feComposite operator="in" in2="shape" in="coloredNoise1" result="noise1Clipped" />
<feComponentTransfer in="alphaNoise" result="coloredNoise2">
<feFuncA type="discrete" tableValues="0 0 0 0 0 0 0 0 0 0 0 0 0 0 0 0 0 0 0 0 0 0 0 0 0 0 0 0 0 0 0 0 0 0 0 0 0 0 0 0 0 0 0 0 0 0 0 0 0 1 1 1 1 1 1 1 1 1 1 1 1 1 1 1 1 1 1 1 1 1 1 1 1 1 1 1 1 1 1 1 1 1 1 1 1 1 1 1 1 1 1 1 1 1 1 1 1 1 1 1 "/>
</feComponentTransfer>
<feComposite operator="in" in2="shape" in="coloredNoise2" result="noise2Clipped" />
<feFlood flood-color="rgba(0, 0, 0, 0.25)" result="color1Flood" />
<feComposite operator="in" in2="noise1Clipped" in="color1Flood" result="color1" />
<feFlood flood-color="rgba(255, 255, 255, 0.25)" result="color2Flood" />
<feComposite operator="in" in2="noise2Clipped" in="color2Flood" result="color2" />
<feMerge result="effect1_noise_29234_33115">
<feMergeNode in="shape" />
<feMergeNode in="color1" />
<feMergeNode in="color2" />
</feMerge>
</filter>
<linearGradient id="paint0_linear_29234_33115" x1="159.791" y1="8" x2="15.8553" y2="167.192" gradientUnits="userSpaceOnUse">
<stop stop-color="#1EDFAD"/>
<stop offset="0.5" stop-color="#11A7ED"/>
<stop offset="1" stop-color="#9738F5"/>
</linearGradient>
</defs>
</svg>
