<svg width="160" height="160" viewBox="0 0 160 160" fill="none" xmlns="http://www.w3.org/2000/svg">
<g filter="url(#filter0_n_29230_18390)">
<path fill-rule="evenodd" clip-rule="evenodd" d="M0 2.1649C0 2.2556 0.110656 2.32981 0.245902 2.32981C0.381148 2.32981 0.491803 2.2556 0.491803 2.1649C0.491803 2.07421 0.381148 2 0.245902 2C0.110656 2 0 2.07421 0 2.1649ZM66.9672 4.30867C66.9115 4.39937 66.9852 4.47357 67.1311 4.47357C67.277 4.47357 67.3508 4.39937 67.2951 4.30867C67.2393 4.21797 67.1656 4.14376 67.1311 4.14376C67.0967 4.14376 67.0229 4.21797 66.9672 4.30867ZM43.6066 4.95064C43.6066 5.31079 43.9484 5.49334 44.26 5.29942C44.5646 5.11011 44.3359 4.63848 43.9395 4.63848C43.7221 4.63848 43.6066 4.74682 43.6066 4.95064ZM75.4098 5.05074C75.4098 5.40776 75.4761 5.47652 75.7787 5.43332C76.0208 5.39869 76.1475 5.26726 76.1475 5.05074C76.1475 4.83422 76.0208 4.70279 75.7787 4.66816C75.4761 4.62496 75.4098 4.69372 75.4098 5.05074ZM116.967 5.13319C117.023 5.22389 117.101 5.2981 117.141 5.2981C117.181 5.2981 117.213 5.22389 117.213 5.13319C117.213 5.04249 117.135 4.96829 117.04 4.96829C116.944 4.96829 116.911 5.04249 116.967 5.13319ZM128.033 5.1543C128.033 5.35994 128.514 5.6538 128.681 5.54991C129.013 5.34394 128.857 5.00292 128.443 5.02699C128.217 5.04002 128.033 5.09724 128.033 5.1543ZM148.525 6.28753C148.525 6.37822 148.598 6.45243 148.689 6.45243C148.779 6.45243 148.852 6.37822 148.852 6.28753C148.852 6.19683 148.779 6.12262 148.689 6.12262C148.598 6.12262 148.525 6.19683 148.525 6.28753ZM97.1311 6.45243C97.1869 6.54313 97.3018 6.61734 97.3867 6.61734C97.4716 6.61734 97.541 6.54313 97.541 6.45243C97.541 6.36173 97.4259 6.28753 97.2854 6.28753C97.1449 6.28753 97.0754 6.36173 97.1311 6.45243ZM33.1075 10.6662C32.9595 10.8458 32.95 10.97 33.0746 11.0953C33.2848 11.3067 33.6066 11.1415 33.6066 10.8224C33.6066 10.47 33.3385 10.3862 33.1075 10.6662ZM155.738 11.8943C155.738 11.985 155.848 12.0592 155.984 12.0592C156.119 12.0592 156.23 11.985 156.23 11.8943C156.23 11.8036 156.119 11.7294 155.984 11.7294C155.848 11.7294 155.738 11.8036 155.738 11.8943ZM135.082 12.2968C135.082 12.4381 135.156 12.5539 135.246 12.5539C135.336 12.5539 135.41 12.4842 135.41 12.3987C135.41 12.3133 135.336 12.1977 135.246 12.1416C135.156 12.0856 135.082 12.1555 135.082 12.2968ZM72.1311 12.4812C72.1311 12.6225 72.2049 12.6924 72.2951 12.6364C72.3852 12.5803 72.459 12.4647 72.459 12.3793C72.459 12.2939 72.3852 12.2241 72.2951 12.2241C72.2049 12.2241 72.1311 12.3399 72.1311 12.4812ZM112.295 13.2863C112.295 13.4276 112.369 13.5433 112.459 13.5433C112.549 13.5433 112.623 13.4736 112.623 13.3882C112.623 13.3027 112.549 13.1871 112.459 13.1311C112.369 13.075 112.295 13.1449 112.295 13.2863ZM99.5082 14.4503C99.5082 14.6202 99.6156 14.701 99.7951 14.6663C100.141 14.5994 100.119 14.3067 99.7628 14.2321C99.6143 14.201 99.5082 14.2918 99.5082 14.4503ZM80.8197 16.0169C80.8197 16.1076 80.889 16.1818 80.9739 16.1818C81.0589 16.1818 81.1738 16.1076 81.2295 16.0169C81.2852 15.9262 81.2157 15.852 81.0752 15.852C80.9348 15.852 80.8197 15.9262 80.8197 16.0169ZM144.754 16.6765C144.754 16.7672 144.828 16.8414 144.918 16.8414C145.008 16.8414 145.082 16.7672 145.082 16.6765C145.082 16.5858 145.008 16.5116 144.918 16.5116C144.828 16.5116 144.754 16.5858 144.754 16.6765ZM53.4426 16.8414C53.4426 16.9321 53.5164 17.0063 53.6066 17.0063C53.6967 17.0063 53.7705 16.9321 53.7705 16.8414C53.7705 16.7507 53.6967 16.6765 53.6066 16.6765C53.5164 16.6765 53.4426 16.7507 53.4426 16.8414ZM62.86 17.3505C62.7995 17.4491 62.8141 17.5944 62.8926 17.6734C63.0866 17.8685 63.5133 17.5847 63.372 17.3546C63.2289 17.1214 63.0018 17.1196 62.86 17.3505ZM119.836 19.315C119.836 19.4057 119.91 19.4799 120 19.4799C120.09 19.4799 120.164 19.4057 120.164 19.315C120.164 19.2243 120.09 19.1501 120 19.1501C119.91 19.1501 119.836 19.2243 119.836 19.315ZM43.7377 19.8427C43.8907 19.9966 43.9782 19.9966 44.1311 19.8427C44.2841 19.6888 44.2405 19.6448 43.9344 19.6448C43.6284 19.6448 43.5848 19.6888 43.7377 19.8427ZM91.0567 19.989C90.9136 20.2218 91.2297 20.5398 91.4612 20.3958C91.7212 20.2342 91.6792 19.8097 91.4031 19.8097C91.2731 19.8097 91.1174 19.8904 91.0567 19.989ZM133.934 21.6237C133.934 21.7144 134.008 21.7886 134.098 21.7886C134.189 21.7886 134.262 21.7144 134.262 21.6237C134.262 21.533 134.189 21.4588 134.098 21.4588C134.008 21.4588 133.934 21.533 133.934 21.6237ZM73.6374 22.6235C73.6767 22.7424 73.8059 22.8723 73.9243 22.9121C74.0472 22.9533 74.1087 22.8915 74.0677 22.7678C74.0282 22.6487 73.899 22.5188 73.7808 22.4792C73.6579 22.438 73.5964 22.4998 73.6374 22.6235ZM54.831 23.7757C54.6752 24.0293 54.8885 24.1929 55.099 23.9812C55.2167 23.8628 55.2195 23.7706 55.1075 23.701C55.0157 23.6439 54.8913 23.6776 54.831 23.7757ZM8.85246 24.1797C8.85246 24.3309 8.9318 24.4279 9.02869 24.3954C9.12557 24.3629 9.20492 24.2658 9.20492 24.1797C9.20492 24.0936 9.12557 23.9965 9.02869 23.964C8.9318 23.9315 8.85246 24.0285 8.85246 24.1797ZM26.2295 25.5814C26.2295 25.6721 26.3402 25.7463 26.4754 25.7463C26.6107 25.7463 26.7213 25.6721 26.7213 25.5814C26.7213 25.4907 26.6107 25.4165 26.4754 25.4165C26.3402 25.4165 26.2295 25.4907 26.2295 25.5814ZM111.694 27.4888C111.558 27.847 111.905 28.1839 112.153 27.9341C112.363 27.723 112.233 27.2304 111.967 27.2304C111.871 27.2304 111.749 27.3467 111.694 27.4888ZM123.607 27.3953C123.607 27.486 123.68 27.5603 123.77 27.5603C123.861 27.5603 123.934 27.486 123.934 27.3953C123.934 27.3047 123.861 27.2304 123.77 27.2304C123.68 27.2304 123.607 27.3047 123.607 27.3953ZM130.016 28.0452C129.768 28.1993 129.882 28.7146 130.164 28.7146C130.404 28.7146 130.568 28.2308 130.389 28.0507C130.307 27.9681 130.144 27.9656 130.016 28.0452ZM39.918 28.8795C39.9738 28.9702 40.0518 29.0444 40.0916 29.0444C40.1315 29.0444 40.1639 28.9702 40.1639 28.8795C40.1639 28.7888 40.0857 28.7146 39.9903 28.7146C39.8949 28.7146 39.8623 28.7888 39.918 28.8795ZM78.9344 29.2147C74.7274 30.1044 71.5413 31.9096 68.4384 35.1617C66.6298 37.057 65.6303 38.548 64.5687 40.9335C63.3092 43.7635 62.9389 45.3276 62.8349 48.2558C62.7384 50.9789 62.879 52.2544 63.5272 54.5349C65.0251 59.8036 68.7948 64.1561 74.1602 66.8116C77.1239 68.2784 79.7271 68.9477 82.4785 68.9501C87.013 68.9542 92.4574 66.7639 95.9375 63.5357C98.4149 61.2378 101.211 56.5171 102.049 53.2175C102.905 49.843 102.958 46.8876 102.213 43.9694C101.342 40.5579 99.689 37.6453 97.2049 35.1465C92.5161 30.4299 84.8921 27.9547 78.9344 29.2147ZM64.4262 29.443C64.4262 29.5864 64.543 29.704 64.6857 29.704C64.8285 29.704 64.9162 29.616 64.8805 29.5083C64.7792 29.2024 64.4262 29.1518 64.4262 29.443ZM79.7541 30.6966C78.0343 31.0099 75.6425 31.6969 74.6851 32.1527C72.4728 33.2058 68.9967 36.1932 67.4603 38.3615C66.6385 39.5215 65.5954 41.5793 65.1198 42.9789C64.2643 45.497 64.1872 45.995 64.1885 48.9979C64.1897 51.4894 64.2423 52.0866 64.5738 53.3679C65.6048 57.352 67.6226 60.4906 70.7138 62.918C72.4834 64.3078 73.7215 65.0184 75.4212 65.6203C83.1751 68.3658 91.7043 65.2651 96.4223 57.9852C98.1836 55.2674 98.9688 52.5537 99.1287 48.6336C99.2418 45.8564 99.0674 44.4221 98.3603 42.3184C97.39 39.4309 95.9859 37.2469 93.847 35.2986C91.3359 33.0112 89.171 31.7554 86.4754 31.0226C84.9962 30.6204 81.187 30.4357 79.7541 30.6966ZM49.2897 31.1332C49.2295 31.1936 49.1803 31.3791 49.1803 31.5455C49.1803 31.9304 49.7613 31.952 49.9061 31.5724C50.0436 31.2117 49.5566 30.8648 49.2897 31.1332ZM151.967 31.1784C151.967 31.2639 152.041 31.3794 152.131 31.4355C152.221 31.4916 152.295 31.4217 152.295 31.2803C152.295 31.139 152.221 31.0233 152.131 31.0233C152.041 31.0233 151.967 31.093 151.967 31.1784ZM140.897 31.3613C140.741 31.6149 140.954 31.7785 141.165 31.5668C141.282 31.4484 141.285 31.3562 141.173 31.2866C141.081 31.2296 140.957 31.2632 140.897 31.3613ZM78.9584 33.1065C73.2548 34.337 68.5539 38.9217 66.9246 44.8428C66.5408 46.2375 66.4846 46.7474 66.4838 48.833C66.4828 51.4134 66.72 52.6472 67.6564 54.9345C70.2097 61.171 76.6284 65.0306 83.0328 64.1803C89.0525 63.3811 94.7116 58.2754 96.3887 52.1311C97.4087 48.3935 97.028 44.483 95.3075 41.0231C93.3734 37.1338 89.793 34.231 85.6284 33.1763C84.0016 32.7643 80.7044 32.7299 78.9584 33.1065ZM79.5082 34.1363C73.1992 35.5372 68.8584 39.9524 67.6918 46.1551C67.3802 47.8122 67.5795 51.0854 68.0989 52.8413C69.2756 56.8188 72.0289 60.1479 75.6643 61.9894C79.8843 64.1269 85.1662 63.5328 89.3443 60.4507C92.3092 58.2634 94.4533 55.1048 95.4393 51.4715C95.9557 49.5683 95.9505 46.2725 95.4279 44.2981C94.3638 40.2784 91.7675 37.0857 88.1148 35.3045C86.0105 34.2785 84.9277 33.998 82.7049 33.9036C81.3231 33.8449 80.5761 33.8992 79.5082 34.1363ZM22.7049 35.6406C22.7607 35.7313 22.9125 35.8055 23.0425 35.8055C23.1725 35.8055 23.2787 35.7313 23.2787 35.6406C23.2787 35.5499 23.1267 35.4757 22.9411 35.4757C22.7556 35.4757 22.6492 35.5499 22.7049 35.6406ZM35.7787 36.1765C35.8162 36.29 35.9454 36.3827 36.0656 36.3827C36.1857 36.3827 36.3149 36.29 36.3525 36.1765C36.3931 36.0538 36.2769 35.9704 36.0656 35.9704C35.8543 35.9704 35.738 36.0538 35.7787 36.1765ZM59.2348 38.3132C58.0516 39.9782 57.06 42.5287 56.5413 45.2417C56.2357 46.8398 56.1992 47.4496 56.2821 49.5751C56.4072 52.7836 56.8602 54.6606 58.12 57.1909C59.1362 59.2316 59.3884 59.5431 59.8089 59.2781C60.2862 58.9771 60.2085 58.4209 59.4487 56.6971C58.2508 53.9802 57.7049 51.246 57.7049 47.9646C57.7049 45.3677 58.4397 42.558 59.8644 39.7068C60.5579 38.3191 60.6177 37.7318 60.0739 37.6536C59.8366 37.6194 59.5903 37.8129 59.2348 38.3132ZM105.339 38.2616C105.223 38.4501 105.567 39.4303 106.188 40.6789C107.322 42.9594 107.705 44.8438 107.705 48.1366C107.705 51.563 107.134 54.1815 105.723 57.2247C105.007 58.7705 104.882 59.7167 105.395 59.7167C106.082 59.7167 107.284 57.657 108.174 54.9534C109.019 52.3905 109.208 51.1659 109.231 48.0909C109.251 45.4176 109.228 45.198 108.729 43.3562C107.83 40.0404 106.792 38.1142 105.903 38.1142C105.642 38.1142 105.389 38.1805 105.339 38.2616ZM81.6889 38.4065C81.2087 38.4588 81.1557 38.5235 81.0584 39.1773C80.9588 39.844 80.9123 39.8976 80.353 39.9909C79.4182 40.1469 78.0897 41.0092 77.4584 41.8699C76.8033 42.7628 76.2287 44.4287 76.2311 45.4285C76.232 45.8045 76.4098 46.4946 76.6262 46.9623C77.1349 48.0611 78.2236 48.9294 80.4089 49.9792C82.278 50.8771 82.7869 51.3699 82.7869 52.2815C82.7869 53.4497 81.8833 54.1113 80.2921 54.1083C79.1931 54.1063 78.0593 53.5765 76.9798 52.5607C76.5359 52.143 76.1023 51.8013 76.0162 51.8013C75.8277 51.8013 73.7298 53.3497 73.4362 53.7054C73.2607 53.9182 73.3533 54.075 74.0323 54.7143C75.1433 55.7606 76.808 56.861 77.7623 57.1798L78.5616 57.4469L78.4566 58.2436L78.3516 59.0404L78.8893 59.1418C79.1851 59.1977 79.7957 59.22 80.2464 59.1915L81.0656 59.1395L81.1475 58.4064C81.2289 57.6788 81.2364 57.6712 82.1311 57.4028C84.1038 56.8107 85.6326 55.5946 86.4159 53.9945C86.9846 52.8326 86.9574 51.0493 86.3533 49.8821C85.7538 48.7238 84.9813 48.1089 82.4887 46.806C80.7267 45.885 80.3282 45.6079 80.1897 45.2085C79.7984 44.0791 80.69 42.8984 81.9354 42.8971C82.5587 42.8962 84.1262 43.6362 85.2331 44.4534C85.9566 44.9877 86.0087 45.0013 86.3289 44.7387C86.8 44.3524 87.8689 42.9818 87.8689 42.7642C87.8689 42.4345 86.8215 41.591 85.4508 40.817L84.0984 40.0531V39.3341C84.0984 38.7207 84.0443 38.6041 83.7295 38.5403C83.0564 38.4036 82.2198 38.3487 81.6889 38.4065ZM127.637 38.4219C127.566 38.5368 127.552 38.6753 127.607 38.7298C127.753 38.8773 127.913 38.6603 127.834 38.4212C127.779 38.2537 127.74 38.2537 127.637 38.4219ZM145.082 39.4431C145.082 39.5391 145.156 39.5719 145.246 39.5159C145.336 39.4598 145.41 39.3813 145.41 39.3412C145.41 39.3011 145.336 39.2685 145.246 39.2685C145.156 39.2685 145.082 39.3472 145.082 39.4431ZM50.8197 39.7632C50.8197 39.8539 50.8934 39.9281 50.9836 39.9281C51.0738 39.9281 51.1475 39.8539 51.1475 39.7632C51.1475 39.6725 51.0738 39.5983 50.9836 39.5983C50.8934 39.5983 50.8197 39.6725 50.8197 39.7632ZM116.762 42.3552C116.481 42.4568 116.504 42.7315 116.794 42.7315C117.065 42.7315 117.28 42.4596 117.093 42.3529C117.024 42.3135 116.875 42.3146 116.762 42.3552ZM155.246 43.0613C155.246 43.152 155.357 43.2262 155.492 43.2262C155.627 43.2262 155.738 43.152 155.738 43.0613C155.738 42.9706 155.627 42.8964 155.492 42.8964C155.357 42.8964 155.246 42.9706 155.246 43.0613ZM13.1348 43.4493C12.9354 43.6909 13.0485 43.8858 13.388 43.8858C13.6321 43.8858 13.6872 43.4607 13.4611 43.3202C13.3813 43.2706 13.2344 43.3286 13.1348 43.4493ZM30.5738 44.2156C30.518 44.3063 30.5507 44.3806 30.6461 44.3806C30.7415 44.3806 30.8197 44.3063 30.8197 44.2156C30.8197 44.1249 30.7872 44.0507 30.7474 44.0507C30.7075 44.0507 30.6295 44.1249 30.5738 44.2156ZM50 46.0296C50 46.1203 50.0738 46.1945 50.1639 46.1945C50.2541 46.1945 50.3279 46.1203 50.3279 46.0296C50.3279 45.9389 50.2541 45.8647 50.1639 45.8647C50.0738 45.8647 50 45.9389 50 46.0296ZM138.852 46.4539C138.852 46.6076 138.964 46.6917 139.126 46.66C139.537 46.5799 139.593 46.1945 139.194 46.1945C138.993 46.1945 138.852 46.301 138.852 46.4539ZM129.836 47.5137C129.836 47.6044 129.91 47.6786 130 47.6786C130.09 47.6786 130.164 47.6044 130.164 47.5137C130.164 47.423 130.09 47.3488 130 47.3488C129.91 47.3488 129.836 47.423 129.836 47.5137ZM38.269 49.3435C38.1244 49.5787 38.603 50.06 38.8367 49.9146C39.1492 49.7205 39.0464 49.1628 38.6982 49.1628C38.5231 49.1628 38.33 49.2441 38.269 49.3435ZM26.3108 52.1322C26.2546 52.2236 26.3272 52.3441 26.4721 52.4C26.7859 52.5211 26.9608 52.3877 26.81 52.1421C26.6739 51.9205 26.4436 51.916 26.3108 52.1322ZM125.266 53.6731C125.112 53.8601 125.128 53.9676 125.341 54.1823C125.696 54.5395 125.984 54.4284 125.984 53.9335C125.984 53.4742 125.558 53.3195 125.266 53.6731ZM50.2459 53.945C50.3016 54.0357 50.4166 54.1099 50.5015 54.1099C50.5864 54.1099 50.6557 54.0357 50.6557 53.945C50.6557 53.8543 50.5407 53.7801 50.4002 53.7801C50.2597 53.7801 50.1902 53.8543 50.2459 53.945ZM144.426 54.5319C144.426 54.6732 144.5 54.7432 144.59 54.6871C144.68 54.631 144.754 54.5154 144.754 54.43C144.754 54.3446 144.68 54.2748 144.59 54.2748C144.5 54.2748 144.426 54.3906 144.426 54.5319ZM134.344 54.6047C134.4 54.6954 134.478 54.7696 134.518 54.7696C134.558 54.7696 134.59 54.6954 134.59 54.6047C134.59 54.514 134.512 54.4397 134.417 54.4397C134.321 54.4397 134.289 54.514 134.344 54.6047ZM43.7705 55.1818C43.7705 55.3179 43.832 55.4292 43.9071 55.4292C43.9823 55.4292 44.0438 55.3179 44.0438 55.1818C44.0438 55.0458 43.9823 54.9345 43.9071 54.9345C43.832 54.9345 43.7705 55.0458 43.7705 55.1818ZM115.246 55.0994C115.246 55.1901 115.361 55.2643 115.501 55.2643C115.642 55.2643 115.711 55.1901 115.656 55.0994C115.6 55.0087 115.485 54.9345 115.4 54.9345C115.315 54.9345 115.246 55.0087 115.246 55.0994ZM21.917 61.3062C21.7861 61.438 21.9341 61.6956 22.1408 61.6956C22.2257 61.6956 22.2951 61.5842 22.2951 61.4482C22.2951 61.1933 22.1016 61.1205 21.917 61.3062ZM13.9344 62.3552C13.9344 62.4459 14.0082 62.5201 14.0984 62.5201C14.1885 62.5201 14.2623 62.4459 14.2623 62.3552C14.2623 62.2645 14.1885 62.1903 14.0984 62.1903C14.0082 62.1903 13.9344 62.2645 13.9344 62.3552ZM128.261 63.0836C128.126 63.4393 128.314 63.8824 128.566 63.7981C128.678 63.7603 128.77 63.5562 128.77 63.3446C128.77 62.8926 128.405 62.7054 128.261 63.0836ZM38.2743 63.187C38.1457 63.3961 38.4846 63.8393 38.7729 63.8393C39.0148 63.8393 39.1638 63.5187 39.0605 63.2209C38.9739 62.9711 38.4215 62.9474 38.2743 63.187ZM149.508 63.5095C149.508 63.6002 149.582 63.6744 149.672 63.6744C149.762 63.6744 149.836 63.6002 149.836 63.5095C149.836 63.4188 149.762 63.3446 149.672 63.3446C149.582 63.3446 149.508 63.4188 149.508 63.5095ZM48.7705 63.6744C48.7148 63.7651 48.7474 63.8393 48.8428 63.8393C48.9382 63.8393 49.0164 63.7651 49.0164 63.6744C49.0164 63.5837 48.9839 63.5095 48.9441 63.5095C48.9043 63.5095 48.8262 63.5837 48.7705 63.6744ZM3.44262 66.6427C3.44262 66.7334 3.51639 66.8076 3.60656 66.8076C3.69672 66.8076 3.77049 66.7334 3.77049 66.6427C3.77049 66.552 3.69672 66.4778 3.60656 66.4778C3.51639 66.4778 3.44262 66.552 3.44262 66.6427ZM156.662 66.5922C156.478 66.7779 156.55 66.9725 156.803 66.9725C156.939 66.9725 157.049 66.9028 157.049 66.8173C157.049 66.6094 156.793 66.4605 156.662 66.5922ZM118.197 67.3023C118.197 67.393 118.266 67.4672 118.351 67.4672C118.436 67.4672 118.551 67.393 118.607 67.3023C118.662 67.2116 118.593 67.1374 118.452 67.1374C118.312 67.1374 118.197 67.2116 118.197 67.3023ZM124.18 69.2812C124.125 69.3719 124.157 69.4461 124.253 69.4461C124.348 69.4461 124.426 69.3719 124.426 69.2812C124.426 69.1905 124.394 69.1163 124.354 69.1163C124.314 69.1163 124.236 69.1905 124.18 69.2812ZM141.639 69.4461C141.639 69.5368 141.713 69.611 141.803 69.611C141.893 69.611 141.967 69.5368 141.967 69.4461C141.967 69.3554 141.893 69.2812 141.803 69.2812C141.713 69.2812 141.639 69.3554 141.639 69.4461ZM133.689 69.611C133.744 69.7017 133.822 69.7759 133.862 69.7759C133.902 69.7759 133.934 69.7017 133.934 69.611C133.934 69.5203 133.856 69.4461 133.761 69.4461C133.665 69.4461 133.633 69.5203 133.689 69.611ZM44.8361 69.9408C44.7803 70.0315 44.813 70.1057 44.9084 70.1057C45.0038 70.1057 45.082 70.0315 45.082 69.9408C45.082 69.8501 45.0495 69.7759 45.0097 69.7759C44.9698 69.7759 44.8918 69.8501 44.8361 69.9408ZM110.82 70.0867C109.186 70.6238 107.667 71.8225 106.4 73.5753C105.944 74.2066 105.503 74.723 105.421 74.723C105.339 74.723 105.184 74.4569 105.077 74.1317C104.84 73.4071 104.06 72.4889 103.377 72.1304C103.065 71.9662 102.486 71.8659 101.874 71.8705C99.7066 71.8864 98.2274 73.1118 96.0182 76.7217C94.5966 79.0445 91.9492 80.8865 87.7869 82.4487C85.3034 83.3807 84.1567 83.6465 82.4928 83.6757C80.8479 83.7048 80.5003 83.5659 77.8862 81.8361C72.4738 78.2546 66.4515 77.1565 60.208 78.6132C53.1233 80.266 48.4326 83.7618 44.1866 90.5539C42.931 92.5623 40.018 98.3196 39.5931 99.6327C39.2033 100.837 37.631 103.93 37.1351 104.469C36.8171 104.814 36.5857 104.901 35.9849 104.901C35.0549 104.901 34.1557 105.346 33.4485 106.156C33.1533 106.494 31.959 108.733 30.7946 111.13C29.6302 113.527 28.3036 116.114 27.8466 116.878C26.9136 118.437 26.9025 118.657 27.6997 119.809C28.3831 120.796 29.3049 121.624 31.9705 123.647C34.5498 125.604 34.8967 125.823 39.6721 128.496C43.4623 130.617 45.4408 131.371 50.72 132.705C56.6754 134.21 58.4757 134.416 59.6885 133.73C60.7987 133.102 60.9946 132.707 63.5366 125.961C64.1102 124.439 64.9139 122.421 65.3226 121.477C66.247 119.342 66.2861 118.693 65.5328 117.992C65.2397 117.719 64.6866 117.296 64.3033 117.05L63.6067 116.604L64.75 114.308C66.0105 111.777 66.5575 111.045 67.6864 110.377C68.3997 109.956 68.5787 109.927 70.839 109.874C73.2607 109.818 75.0056 109.971 80.1639 110.691C83.5528 111.165 87.8697 111.209 89.7992 110.79C93.9872 109.881 105.464 105.333 109.783 102.871C115.056 99.8648 118.837 96.2524 123.883 89.3996C127.246 84.8312 127.82 82.5939 126.098 80.7681C125.258 79.8783 124.492 79.5953 122.91 79.5914C122.121 79.5894 121.476 79.5213 121.476 79.4398C121.476 79.3585 121.697 78.597 121.967 77.7476C122.624 75.6858 122.633 74.4388 122.002 73.2165C121.371 71.9954 120.287 71.2594 119.121 71.2617C118.166 71.2635 117.003 71.7468 116.002 72.5577C115.651 72.8416 115.31 73.074 115.244 73.074C115.178 73.074 115.079 72.7899 115.023 72.4426C114.907 71.7086 114.373 70.8565 113.728 70.376C113.233 70.0073 111.566 69.8415 110.82 70.0867ZM32.623 71.1679C32.623 71.3092 32.6967 71.4249 32.7869 71.4249C32.877 71.4249 32.9508 71.3552 32.9508 71.2698C32.9508 71.1843 32.877 71.0688 32.7869 71.0127C32.6967 70.9566 32.623 71.0265 32.623 71.1679ZM54.5851 71.1839C54.409 71.3971 54.4167 71.4861 54.6295 71.7002C54.9044 71.9767 55.2459 71.8756 55.2459 71.5178C55.2459 71.3982 55.1451 71.2162 55.0218 71.1133C54.851 70.9706 54.747 70.9875 54.5851 71.1839ZM111.3 71.3206C110.335 71.5824 109.232 72.2402 108.593 72.9363C107.922 73.6667 106.17 76.111 104.875 78.1257C102.993 81.0506 101.047 83.1259 98.7705 84.6345C97.1954 85.6782 94.0034 87.256 92.3156 87.8252C91.4585 88.1141 90.7293 88.4354 90.6951 88.5389C90.6393 88.707 91.1075 89.0559 93.7011 90.7797C94.6374 91.4019 94.9651 91.3326 97.8208 89.9095C101.34 88.1557 104.613 85.8721 106.214 84.0519C106.448 83.7862 106.953 83.2526 107.336 82.8659C107.719 82.4792 108.033 82.0844 108.033 81.9884C108.033 81.8924 108.107 81.814 108.197 81.814C108.287 81.814 108.361 81.7397 108.361 81.649C108.361 81.5583 108.49 81.3432 108.648 81.171C108.805 80.9988 109.119 80.5856 109.344 80.2526C109.57 79.9199 109.92 79.4378 110.123 79.1816C110.326 78.9253 110.491 78.6521 110.489 78.5746C110.488 78.4969 110.418 78.5426 110.334 78.676C110.25 78.8094 110.143 78.8795 110.095 78.8316C110.048 78.7837 110.241 78.489 110.524 78.1766C110.808 77.8645 111.031 77.5718 111.019 77.5264C111.008 77.4811 111.151 77.4685 111.337 77.4986C111.547 77.5325 111.634 77.4859 111.566 77.3749C111.505 77.2769 111.542 77.1966 111.647 77.1966C111.757 77.1966 111.794 77.0815 111.735 76.926C111.612 76.6044 111.764 76.0423 111.973 76.0423C112.054 76.0423 112.077 76.1722 112.024 76.3309C111.965 76.5067 112.121 76.4207 112.422 76.111C113.951 74.538 114.196 71.7675 112.85 71.253C112.346 71.0602 112.244 71.0646 111.3 71.3206ZM23.6066 71.9197C23.6066 72.2366 23.9272 72.3667 24.1516 72.141C24.2757 72.0161 23.9654 71.5899 23.7505 71.5899C23.6713 71.5899 23.6066 71.7383 23.6066 71.9197ZM118.321 72.6428C116.522 73.307 114.755 75.2288 111.019 80.5838C108.734 83.8593 107.542 85.3065 106.115 86.5405C104.474 87.959 99.4046 91.1565 98.0757 91.6111C97.4643 91.8202 96.6154 92.1697 96.1893 92.3875L95.4148 92.7834L95.748 93.3347C96.0615 93.853 96.1172 93.8777 96.6882 93.7516C97.022 93.6777 98.8074 93.6144 100.656 93.6109L104.016 93.6047L105.246 92.9942C107.681 91.7851 113.279 87.1499 113.279 86.3427C113.279 86.2102 113.374 86.1015 113.491 86.1015C113.822 86.1015 114.972 84.8383 114.839 84.6218C114.688 84.3764 115.242 83.756 115.517 83.8622C115.633 83.9068 115.771 83.8723 115.824 83.7856C115.877 83.6988 115.824 83.6266 115.706 83.6251C115.435 83.6216 116.897 82.2317 117.503 81.9162C118.183 81.5621 119.585 79.9974 120.052 79.0694C120.495 78.19 121.312 75.5339 121.31 74.9775C121.309 74.2023 120.95 73.3946 120.43 72.996C119.74 72.4665 119.092 72.358 118.321 72.6428ZM13.7705 72.9091C13.7705 72.9998 13.8443 73.074 13.9344 73.074C14.0246 73.074 14.0984 72.9998 14.0984 72.9091C14.0984 72.8184 14.0246 72.7442 13.9344 72.7442C13.8443 72.7442 13.7705 72.8184 13.7705 72.9091ZM69.3443 72.9091C69.3443 72.9998 69.418 73.074 69.5082 73.074C69.5984 73.074 69.6721 72.9998 69.6721 72.9091C69.6721 72.8184 69.5984 72.7442 69.5082 72.7442C69.418 72.7442 69.3443 72.8184 69.3443 72.9091ZM13.2787 73.4038C13.2787 73.4945 13.3525 73.5687 13.4426 73.5687C13.5328 73.5687 13.6066 73.4945 13.6066 73.4038C13.6066 73.3131 13.5328 73.2389 13.4426 73.2389C13.3525 73.2389 13.2787 73.3131 13.2787 73.4038ZM75.2459 73.4038C75.2459 73.4945 75.3197 73.5687 75.4098 73.5687C75.5 73.5687 75.5738 73.4945 75.5738 73.4038C75.5738 73.3131 75.5 73.2389 75.4098 73.2389C75.3197 73.2389 75.2459 73.3131 75.2459 73.4038ZM100.92 73.5092C99.8331 73.8451 98.6603 75.0692 97.6243 76.9493C96.6336 78.7474 95.9005 79.583 94.1803 80.8747C92.9343 81.8103 89.5574 83.6279 89.0651 83.6279C88.9382 83.6279 88.3038 83.8578 87.6549 84.1389C87.0062 84.4199 85.8687 84.7723 85.1271 84.9222C84.3854 85.072 83.7626 85.2687 83.7429 85.3594C83.6457 85.8071 87.1454 87.257 88.3144 87.2533C89.4928 87.2497 92.5659 86.1368 95.2931 84.7262C97.9182 83.3682 99.6282 82.1677 100.454 81.1032C100.749 80.7231 101.206 80.1525 101.471 79.8351C101.736 79.5177 102.284 78.8589 102.689 78.3711C103.655 77.208 103.967 76.5123 103.96 75.541C103.951 74.5011 103.562 73.7671 102.863 73.4732C102.184 73.1879 101.946 73.1924 100.92 73.5092ZM36.8033 74.3932C36.859 74.4839 36.937 74.5581 36.9769 74.5581C37.0167 74.5581 37.0492 74.4839 37.0492 74.3932C37.0492 74.3025 36.971 74.2283 36.8756 74.2283C36.7802 74.2283 36.7475 74.3025 36.8033 74.3932ZM81.3115 74.3932C81.3115 74.4839 81.3852 74.5581 81.4754 74.5581C81.5656 74.5581 81.6393 74.4839 81.6393 74.3932C81.6393 74.3025 81.5656 74.2283 81.4754 74.2283C81.3852 74.2283 81.3115 74.3025 81.3115 74.3932ZM129.264 74.3959C129.321 74.4881 129.436 74.5209 129.52 74.4686C129.747 74.3273 129.705 74.2283 129.417 74.2283C129.276 74.2283 129.207 74.3037 129.264 74.3959ZM147.131 74.3932C147.075 74.4839 147.108 74.5581 147.203 74.5581C147.299 74.5581 147.377 74.4839 147.377 74.3932C147.377 74.3025 147.345 74.2283 147.305 74.2283C147.265 74.2283 147.187 74.3025 147.131 74.3932ZM49.0164 76.3721C49.0164 76.4628 49.0902 76.537 49.1803 76.537C49.2705 76.537 49.3443 76.4628 49.3443 76.3721C49.3443 76.2814 49.2705 76.2072 49.1803 76.2072C49.0902 76.2072 49.0164 76.2814 49.0164 76.3721ZM159.426 78.0211C159.37 78.1118 159.403 78.186 159.499 78.186C159.594 78.186 159.672 78.1118 159.672 78.0211C159.672 77.9304 159.64 77.8562 159.6 77.8562C159.56 77.8562 159.482 77.9304 159.426 78.0211ZM61.5574 79.9359C59.1826 80.466 56.1367 81.5147 54.5141 82.3608C50.7777 84.3095 47.3634 87.7997 45.0474 92.0381C43.9616 94.0248 41.3536 99.3649 40.75 100.837C39.98 102.714 39.3593 103.944 38.6366 105.022L38.0577 105.886L38.6934 106.433C39.9685 107.531 41.7856 108.761 44.7193 110.513C47.3472 112.082 48.2608 112.519 52.1192 114.054L56.521 115.805L57.5305 115.621C58.0857 115.52 58.6695 115.479 58.8277 115.529C59.3808 115.706 59.6861 115.218 60.2459 113.264C61.1979 109.941 61.1775 109.465 60.06 108.889L59.4744 108.586L60.2116 107.934C61.1675 107.087 62.3852 106.478 64.0164 106.029C65.103 105.731 65.7636 105.669 67.8689 105.67C70.5923 105.67 71.8438 105.818 78.2787 106.903C83.1438 107.722 85.9634 107.884 88.0328 107.462C88.7992 107.306 90.9754 106.668 92.8689 106.044C94.7623 105.421 97.6393 104.543 99.2623 104.094C100.885 103.645 102.63 103.121 103.139 102.93C104.922 102.258 105.869 101.259 106.15 99.7493C106.305 98.9215 105.661 97.5485 104.66 96.5701C103.648 95.5802 103.187 95.3581 101.762 95.1717C99.7743 94.912 98.5525 94.9818 94.3146 95.5969C88.9646 96.3734 87.3593 96.3904 85.2934 95.6922C83.0767 94.943 81.6003 94.1892 79.239 92.6009C76.3043 90.6266 75.1834 89.9802 73.8177 89.4743C72.5493 89.0043 72.1274 88.6778 72.4146 88.3889C72.7261 88.0756 74.3829 88.4205 75.7421 89.0816C76.4557 89.4289 77.5767 90.0765 78.2329 90.5209C79.9241 91.6662 82.2356 93.0822 83.1967 93.5619C84.9241 94.4242 87.6933 95.0937 88.8808 94.9363C89.1808 94.8965 89.9057 94.8174 90.4918 94.7603C91.8125 94.6317 93.9715 94.1998 94.1474 94.0291C94.3495 93.8327 93.0631 92.3019 91.9248 91.3839C90.8157 90.4898 88.8556 89.4687 85.4511 88.0119C82.8833 86.9133 82.5633 86.7289 78.9279 84.2534C75.9325 82.2135 74.1216 81.2564 71.8431 80.5086C68.529 79.4207 64.7959 79.2129 61.5574 79.9359ZM9.01639 80.5044C9.01639 80.6004 9.09016 80.6332 9.18033 80.5772C9.27049 80.5211 9.34426 80.4426 9.34426 80.4025C9.34426 80.3625 9.27049 80.3298 9.18033 80.3298C9.09016 80.3298 9.01639 80.4085 9.01639 80.5044ZM35.1913 80.6047C34.9916 80.8056 35.0784 81.1543 35.3279 81.1543C35.4644 81.1543 35.5738 81.0077 35.5738 80.8245C35.5738 80.496 35.399 80.3956 35.1913 80.6047ZM122.131 80.8143C120.144 81.4274 118.329 82.9843 114.379 87.4661C113.198 88.8061 111.7 90.3453 111.049 90.8865C109.89 91.8509 106.811 93.9831 105.756 94.552L105.222 94.8396L105.57 95.2941C105.76 95.5439 106.204 96.1148 106.555 96.5626C107.427 97.675 107.824 99.1334 107.554 100.233C107.446 100.669 107.207 101.345 107.021 101.735C106.836 102.125 106.726 102.487 106.779 102.54C107.142 102.905 111.898 99.9718 114.591 97.722C117.92 94.941 123.63 88.0772 125.145 85.0362C125.97 83.3792 125.964 82.5618 125.123 81.6743C124.303 80.8094 123.187 80.4886 122.131 80.8143ZM140.492 80.8245C140.492 80.9152 140.566 80.9894 140.656 80.9894C140.746 80.9894 140.82 80.9152 140.82 80.8245C140.82 80.7338 140.746 80.6596 140.656 80.6596C140.566 80.6596 140.492 80.7338 140.492 80.8245ZM150.053 84.0568C149.907 84.4391 150.353 84.6622 150.656 84.3581C150.874 84.1381 150.874 84.0933 150.656 83.9543C150.306 83.732 150.168 83.7554 150.053 84.0568ZM17.377 84.2973C17.377 84.3932 17.4508 84.426 17.541 84.37C17.6311 84.3139 17.7049 84.2354 17.7049 84.1953C17.7049 84.1553 17.6311 84.1226 17.541 84.1226C17.4508 84.1226 17.377 84.2013 17.377 84.2973ZM114.221 85.0246C114.064 85.2428 113.934 85.4709 113.934 85.5314C113.934 85.6825 114.748 84.8954 114.751 84.741C114.757 84.4984 114.504 84.634 114.221 85.0246ZM134.426 85.0199C134.426 85.1506 134.492 85.2982 134.572 85.3479C134.752 85.4602 135.12 85.0398 134.971 84.8908C134.776 84.6945 134.426 84.7775 134.426 85.0199ZM26.3934 85.4419C26.3934 85.5326 26.4672 85.6068 26.5574 85.6068C26.6475 85.6068 26.7213 85.5326 26.7213 85.4419C26.7213 85.3512 26.6475 85.277 26.5574 85.277C26.4672 85.277 26.3934 85.3512 26.3934 85.4419ZM141.234 89.5579C141.095 89.7841 141.218 89.954 141.46 89.8702C141.559 89.8359 141.572 89.7195 141.491 89.5881C141.388 89.4222 141.322 89.4144 141.234 89.5579ZM11.9925 89.9665C12.0238 90.1177 12.123 90.2376 12.2131 90.2328C12.4564 90.2198 12.4118 89.8509 12.1564 89.7653C12.0185 89.7192 11.9572 89.7945 11.9925 89.9665ZM31.3115 91.8732C31.3115 91.9638 31.3897 92.0381 31.4851 92.0381C31.5805 92.0381 31.6131 91.9638 31.5574 91.8732C31.5016 91.7825 31.4236 91.7082 31.3838 91.7082C31.3439 91.7082 31.3115 91.7825 31.3115 91.8732ZM3.19672 92.203C3.25246 92.2937 3.40426 92.3679 3.53426 92.3679C3.66426 92.3679 3.77049 92.2937 3.77049 92.203C3.77049 92.1123 3.61852 92.0381 3.43295 92.0381C3.24738 92.0381 3.14098 92.1123 3.19672 92.203ZM129.59 92.3679C129.534 92.4586 129.567 92.5328 129.662 92.5328C129.758 92.5328 129.836 92.4586 129.836 92.3679C129.836 92.2772 129.804 92.203 129.764 92.203C129.724 92.203 129.646 92.2772 129.59 92.3679ZM21.9789 92.8553C21.7462 92.9999 21.8457 93.5222 22.1059 93.5222C22.1879 93.5222 22.3387 93.4208 22.441 93.2968C22.6815 93.0052 22.3093 92.6498 21.9789 92.8553ZM159.613 93.6366C159.428 93.8223 159.501 94.0169 159.754 94.0169C159.889 94.0169 160 93.9472 160 93.8617C160 93.6538 159.744 93.5049 159.613 93.6366ZM147.869 95.6757C147.869 95.7717 147.943 95.8045 148.033 95.7484C148.123 95.6923 148.197 95.6138 148.197 95.5738C148.197 95.5337 148.123 95.5011 148.033 95.5011C147.943 95.5011 147.869 95.5797 147.869 95.6757ZM136.746 97.8505C136.479 98.1199 136.512 98.6272 136.805 98.7403C137.094 98.8519 137.541 98.5285 137.541 98.2076C137.541 97.8732 136.976 97.6193 136.746 97.8505ZM122.379 98.9667C122.435 99.0589 122.55 99.0917 122.634 99.0394C122.862 98.8981 122.819 98.7992 122.531 98.7992C122.391 98.7992 122.322 98.8745 122.379 98.9667ZM127.964 100.096C127.894 100.211 127.88 100.35 127.934 100.404C128.081 100.552 128.241 100.335 128.162 100.096C128.106 99.9281 128.068 99.9281 127.964 100.096ZM26.9743 101.261C26.8623 101.444 27.1208 101.64 27.2723 101.488C27.428 101.331 27.399 101.108 27.2228 101.108C27.1379 101.108 27.0261 101.177 26.9743 101.261ZM150.082 102.757C150.026 102.848 150.059 102.922 150.154 102.922C150.25 102.922 150.328 102.848 150.328 102.757C150.328 102.666 150.295 102.592 150.256 102.592C150.216 102.592 150.138 102.666 150.082 102.757ZM114.701 104.472C114.599 104.741 114.736 104.931 114.941 104.804C115.127 104.688 115.123 104.241 114.936 104.241C114.855 104.241 114.75 104.345 114.701 104.472ZM34.9293 107.032C34.6829 107.298 33.4705 109.505 32.2351 111.938C30.9997 114.371 29.7716 116.77 29.5062 117.269C28.8123 118.572 28.857 118.883 29.877 119.851C32.5398 122.376 36.8374 125.252 41.4754 127.613C44.9682 129.392 47.8351 130.538 48.5266 130.433C48.7984 130.392 49.1644 129.859 50.0377 128.235C51.542 125.436 55.2459 117.712 55.2459 117.374C55.2459 117.031 54.6885 116.758 50.6738 115.137C48.8352 114.394 46.8079 113.521 46.1685 113.197C44.6246 112.415 41.4846 110.413 39.2943 108.814C36.9636 107.112 36.0684 106.55 35.6893 106.55C35.5179 106.55 35.1757 106.767 34.9293 107.032ZM16.8852 106.879C16.8852 106.97 16.9959 107.044 17.1311 107.044C17.2664 107.044 17.377 106.97 17.377 106.879C17.377 106.789 17.2664 106.715 17.1311 106.715C16.9959 106.715 16.8852 106.789 16.8852 106.879ZM140.492 107.786C140.492 107.938 140.571 108.035 140.668 108.002C140.765 107.97 140.844 107.873 140.844 107.786C140.844 107.7 140.765 107.603 140.668 107.571C140.571 107.538 140.492 107.635 140.492 107.786ZM122.652 108.125C122.726 108.483 123.017 108.505 123.084 108.158C123.118 107.977 123.038 107.869 122.869 107.869C122.711 107.869 122.621 107.976 122.652 108.125ZM130.902 108.199C130.846 108.289 130.879 108.364 130.974 108.364C131.069 108.364 131.148 108.289 131.148 108.199C131.148 108.108 131.115 108.034 131.075 108.034C131.035 108.034 130.957 108.108 130.902 108.199ZM22.9508 108.621C22.9508 108.762 23.0257 108.831 23.1174 108.774C23.209 108.717 23.2416 108.602 23.1897 108.517C23.0492 108.288 22.9508 108.331 22.9508 108.621ZM153.792 110.564C153.692 110.685 153.653 110.829 153.706 110.882C153.864 111.042 154.262 110.82 154.262 110.572C154.262 110.281 154.029 110.277 153.792 110.564ZM113.01 112.569C112.87 112.935 113.371 113.449 113.621 113.197C113.876 112.941 113.739 112.418 113.399 112.352C113.242 112.322 113.067 112.419 113.01 112.569ZM93.2787 114.043C93.2787 114.184 93.3525 114.3 93.4426 114.3C93.5328 114.3 93.6066 114.23 93.6066 114.145C93.6066 114.06 93.5328 113.944 93.4426 113.888C93.3525 113.832 93.2787 113.902 93.2787 114.043ZM134.262 115.29C134.262 115.38 134.336 115.455 134.426 115.455C134.516 115.455 134.59 115.38 134.59 115.29C134.59 115.199 134.516 115.125 134.426 115.125C134.336 115.125 134.262 115.199 134.262 115.29ZM73.0646 115.56C72.9336 115.692 73.0816 115.949 73.2884 115.949C73.3733 115.949 73.4426 115.838 73.4426 115.702C73.4426 115.447 73.2492 115.374 73.0646 115.56ZM100.656 115.784C100.656 116.056 100.741 116.125 101.025 116.084C101.227 116.055 101.393 115.92 101.393 115.784C101.393 115.648 101.227 115.513 101.025 115.484C100.741 115.444 100.656 115.513 100.656 115.784ZM85.4279 117.329C85.2862 117.501 85.3026 117.605 85.4967 117.767C85.81 118.029 86.1597 117.753 86.0105 117.362C85.889 117.044 85.6734 117.032 85.4279 117.329ZM91.3934 119.247C91.3377 119.338 91.4115 119.412 91.5574 119.412C91.7033 119.412 91.777 119.338 91.7213 119.247C91.6656 119.157 91.5918 119.082 91.5574 119.082C91.5229 119.082 91.4492 119.157 91.3934 119.247ZM115.815 120.08C115.659 120.334 115.872 120.497 116.083 120.286C116.2 120.167 116.203 120.075 116.091 120.005C115.999 119.948 115.875 119.982 115.815 120.08ZM20.4918 120.567C20.4918 120.779 20.5748 120.896 20.6967 120.855C20.8095 120.817 20.9016 120.687 20.9016 120.567C20.9016 120.446 20.8095 120.316 20.6967 120.278C20.5748 120.237 20.4918 120.354 20.4918 120.567ZM124.061 121.154C123.869 121.347 124.13 121.721 124.456 121.721C124.674 121.721 124.76 121.628 124.723 121.434C124.667 121.142 124.249 120.965 124.061 121.154ZM78.1164 122.383C78.1731 122.475 78.288 122.508 78.372 122.456C78.5993 122.315 78.5571 122.216 78.269 122.216C78.1285 122.216 78.0598 122.291 78.1164 122.383ZM8.38902 123.644C8.45803 124.005 8.93443 124.055 8.93443 123.702C8.93443 123.567 8.79869 123.431 8.63262 123.399C8.41361 123.356 8.34689 123.423 8.38902 123.644ZM149.941 123.649C149.756 123.835 149.829 124.03 150.082 124.03C150.217 124.03 150.328 123.96 150.328 123.874C150.328 123.666 150.072 123.518 149.941 123.649ZM95.6148 125.128C95.3621 125.231 95.3448 125.784 95.5895 125.936C95.8446 126.094 96.2939 125.591 96.1751 125.279C96.0731 125.012 95.97 124.984 95.6148 125.128ZM109.536 125.54C109.566 125.752 109.701 125.926 109.836 125.926C110.192 125.926 110.143 125.283 109.782 125.213C109.549 125.168 109.494 125.241 109.536 125.54ZM137.251 125.38C137.352 125.686 137.705 125.736 137.705 125.445C137.705 125.301 137.588 125.184 137.445 125.184C137.303 125.184 137.215 125.272 137.251 125.38ZM72.9508 128.637C72.9508 128.723 73.0246 128.838 73.1148 128.894C73.2049 128.95 73.2787 128.88 73.2787 128.739C73.2787 128.598 73.2049 128.482 73.1148 128.482C73.0246 128.482 72.9508 128.552 72.9508 128.637ZM83.187 131.136C83.1259 131.236 83.1916 131.434 83.3329 131.576C83.5457 131.79 83.6343 131.797 83.8462 131.62C84.0415 131.457 84.0582 131.353 83.9164 131.181C83.6925 130.91 83.3395 130.888 83.187 131.136ZM16.0656 131.45C16.0656 131.541 16.1393 131.615 16.2295 131.615C16.3197 131.615 16.3934 131.541 16.3934 131.45C16.3934 131.36 16.3197 131.285 16.2295 131.285C16.1393 131.285 16.0656 131.36 16.0656 131.45ZM66.5574 131.45C66.5574 131.541 66.6311 131.615 66.7213 131.615C66.8115 131.615 66.8852 131.541 66.8852 131.45C66.8852 131.36 66.8115 131.285 66.7213 131.285C66.6311 131.285 66.5574 131.36 66.5574 131.45ZM102.295 131.78C102.295 131.871 102.369 131.945 102.459 131.945C102.549 131.945 102.623 131.871 102.623 131.78C102.623 131.689 102.549 131.615 102.459 131.615C102.369 131.615 102.295 131.689 102.295 131.78ZM33.7705 132.697C33.7705 132.838 33.8443 132.908 33.9344 132.852C34.0246 132.796 34.0984 132.68 34.0984 132.595C34.0984 132.509 34.0246 132.44 33.9344 132.44C33.8443 132.44 33.7705 132.556 33.7705 132.697ZM111.311 134.666C111.311 134.802 111.385 134.913 111.475 134.913C111.566 134.913 111.639 134.802 111.639 134.666C111.639 134.53 111.566 134.419 111.475 134.419C111.385 134.419 111.311 134.53 111.311 134.666ZM124.262 135.655C124.262 135.791 124.373 135.903 124.508 135.903C124.643 135.903 124.754 135.791 124.754 135.655C124.754 135.519 124.643 135.408 124.508 135.408C124.373 135.408 124.262 135.519 124.262 135.655ZM140.984 136.819C140.984 136.961 141.057 137.031 141.148 136.975C141.238 136.919 141.311 136.803 141.311 136.718C141.311 136.632 141.238 136.562 141.148 136.562C141.057 136.562 140.984 136.678 140.984 136.819ZM41.6393 137.789C41.6393 137.931 41.7131 138.047 41.8033 138.047C41.8934 138.047 41.9672 137.977 41.9672 137.891C41.9672 137.806 41.8934 137.69 41.8033 137.634C41.7131 137.578 41.6393 137.648 41.6393 137.789ZM50.9836 137.882C50.9836 137.972 51.053 138.047 51.1379 138.047C51.2228 138.047 51.3377 137.972 51.3934 137.882C51.4492 137.791 51.3797 137.717 51.2392 137.717C51.0987 137.717 50.9836 137.791 50.9836 137.882ZM60.2459 137.882C60.3016 137.972 60.3797 138.047 60.4195 138.047C60.4593 138.047 60.4918 137.972 60.4918 137.882C60.4918 137.791 60.4136 137.717 60.3182 137.717C60.2228 137.717 60.1902 137.791 60.2459 137.882ZM96.4666 138.226C96.2977 138.501 96.6775 138.816 96.9038 138.589C97.0929 138.398 96.9746 138.047 96.7213 138.047C96.6418 138.047 96.5272 138.127 96.4666 138.226ZM8.53754 138.472C8.54541 138.665 8.58426 138.704 8.63656 138.572C8.68393 138.453 8.67803 138.311 8.62361 138.256C8.56918 138.201 8.53049 138.299 8.53754 138.472ZM23.1148 138.541C23.1148 138.632 23.1885 138.706 23.2787 138.706C23.3689 138.706 23.4426 138.632 23.4426 138.541C23.4426 138.451 23.3689 138.376 23.2787 138.376C23.1885 138.376 23.1148 138.451 23.1148 138.541ZM68.8016 139.108C68.6039 139.259 68.5656 139.372 68.6866 139.447C68.9503 139.611 69.3443 139.417 69.3443 139.124C69.3443 138.815 69.1915 138.811 68.8016 139.108ZM131.475 142.327C131.475 142.402 131.592 142.509 131.735 142.564C132.095 142.703 132.131 142.693 132.131 142.452C132.131 142.335 131.984 142.228 131.803 142.214C131.623 142.201 131.475 142.251 131.475 142.327ZM35.6875 142.604C35.5566 142.736 35.7046 142.994 35.9113 142.994C35.9962 142.994 36.0656 142.882 36.0656 142.746C36.0656 142.491 35.8721 142.419 35.6875 142.604ZM78.6439 143.093C78.4654 143.273 78.6811 143.488 79.0397 143.488C79.2323 143.488 79.3429 143.402 79.3033 143.282C79.2254 143.047 78.809 142.928 78.6439 143.093ZM56.5574 145.137C56.5574 145.228 56.6725 145.302 56.813 145.302C56.9534 145.302 57.0229 145.228 56.9672 145.137C56.9115 145.047 56.7966 144.973 56.7116 144.973C56.6267 144.973 56.5574 145.047 56.5574 145.137ZM66.2295 147.776C66.2295 147.867 66.3077 147.941 66.4031 147.941C66.4985 147.941 66.5311 147.867 66.4754 147.776C66.4197 147.685 66.3416 147.611 66.3018 147.611C66.262 147.611 66.2295 147.685 66.2295 147.776ZM113.934 148.683C113.934 148.819 114.045 148.93 114.18 148.93C114.316 148.93 114.426 148.819 114.426 148.683C114.426 148.547 114.316 148.436 114.18 148.436C114.045 148.436 113.934 148.547 113.934 148.683ZM142.951 149.59C142.951 149.681 143.061 149.755 143.197 149.755C143.332 149.755 143.443 149.681 143.443 149.59C143.443 149.499 143.332 149.425 143.197 149.425C143.061 149.425 142.951 149.499 142.951 149.59ZM21.6769 150.28C21.7782 150.586 22.1311 150.637 22.1311 150.346C22.1311 150.202 22.0143 150.085 21.8716 150.085C21.7289 150.085 21.6411 150.173 21.6769 150.28ZM74.0984 152.393C74.0984 152.484 74.209 152.558 74.3443 152.558C74.4795 152.558 74.5902 152.484 74.5902 152.393C74.5902 152.303 74.4795 152.228 74.3443 152.228C74.209 152.228 74.0984 152.303 74.0984 152.393ZM130 155.526C130 155.617 130.074 155.691 130.164 155.691C130.254 155.691 130.328 155.617 130.328 155.526C130.328 155.436 130.254 155.362 130.164 155.362C130.074 155.362 130 155.436 130 155.526ZM51.349 155.722C51.4503 156.028 51.8033 156.079 51.8033 155.787C51.8033 155.644 51.6866 155.526 51.5438 155.526C51.401 155.526 51.3133 155.614 51.349 155.722ZM102.04 157.52C101.98 157.618 102.012 157.781 102.113 157.882C102.247 158.017 102.295 157.969 102.295 157.703C102.295 157.305 102.21 157.244 102.04 157.52ZM62.623 157.753C62.623 157.889 62.6967 158 62.7869 158C62.877 158 62.9508 157.889 62.9508 157.753C62.9508 157.617 62.877 157.505 62.7869 157.505C62.6967 157.505 62.623 157.617 62.623 157.753Z" fill="url(#paint0_linear_29230_18390)"/>
</g>
<defs>
<filter id="filter0_n_29230_18390" x="0" y="2" width="160" height="156" filterUnits="userSpaceOnUse" color-interpolation-filters="sRGB">
<feFlood flood-opacity="0" result="BackgroundImageFix"/>
<feBlend mode="normal" in="SourceGraphic" in2="BackgroundImageFix" result="shape"/>
<feTurbulence type="fractalNoise" baseFrequency="12.005715370178223 12.005715370178223" stitchTiles="stitch" numOctaves="3" result="noise" seed="9169" />
<feColorMatrix in="noise" type="luminanceToAlpha" result="alphaNoise" />
<feComponentTransfer in="alphaNoise" result="coloredNoise1">
<feFuncA type="discrete" tableValues="1 1 1 1 1 1 1 1 1 1 1 1 1 1 1 1 1 1 1 1 1 1 1 1 1 1 1 1 1 1 1 1 1 1 1 1 1 1 1 1 1 1 1 1 1 1 1 1 1 1 1 0 0 0 0 0 0 0 0 0 0 0 0 0 0 0 0 0 0 0 0 0 0 0 0 0 0 0 0 0 0 0 0 0 0 0 0 0 0 0 0 0 0 0 0 0 0 0 0 0 "/>
</feComponentTransfer>
<feComposite operator="in" in2="shape" in="coloredNoise1" result="noise1Clipped" />
<feComponentTransfer in="alphaNoise" result="coloredNoise2">
<feFuncA type="discrete" tableValues="0 0 0 0 0 0 0 0 0 0 0 0 0 0 0 0 0 0 0 0 0 0 0 0 0 0 0 0 0 0 0 0 0 0 0 0 0 0 0 0 0 0 0 0 0 0 0 0 0 1 1 1 1 1 1 1 1 1 1 1 1 1 1 1 1 1 1 1 1 1 1 1 1 1 1 1 1 1 1 1 1 1 1 1 1 1 1 1 1 1 1 1 1 1 1 1 1 1 1 1 "/>
</feComponentTransfer>
<feComposite operator="in" in2="shape" in="coloredNoise2" result="noise2Clipped" />
<feFlood flood-color="rgba(0, 0, 0, 0.25)" result="color1Flood" />
<feComposite operator="in" in2="noise1Clipped" in="color1Flood" result="color1" />
<feFlood flood-color="rgba(255, 255, 255, 0.25)" result="color2Flood" />
<feComposite operator="in" in2="noise2Clipped" in="color2Flood" result="color2" />
<feMerge result="effect1_noise_29230_18390">
<feMergeNode in="shape" />
<feMergeNode in="color1" />
<feMergeNode in="color2" />
</feMerge>
</filter>
<linearGradient id="paint0_linear_29230_18390" x1="159.791" y1="2" x2="3.841" y2="161.949" gradientUnits="userSpaceOnUse">
<stop stop-color="#1EDFAD"/>
<stop offset="0.5" stop-color="#11A7ED"/>
<stop offset="1" stop-color="#9738F5"/>
</linearGradient>
</defs>
</svg>
