<svg width="160" height="160" viewBox="0 0 160 160" fill="none" xmlns="http://www.w3.org/2000/svg">
<g filter="url(#filter0_n_29234_33111)">
<path fill-rule="evenodd" clip-rule="evenodd" d="M26.5967 4.16663C26.5967 4.25821 26.6676 4.28952 26.7541 4.23602C26.8407 4.18253 26.9115 4.10763 26.9115 4.06939C26.9115 4.03116 26.8407 4 26.7541 4C26.6676 4 26.5967 4.07506 26.5967 4.16663ZM99.0689 4.9441C99.0154 5.03064 99.0467 5.10145 99.1383 5.10145C99.2299 5.10145 99.305 5.03064 99.305 4.9441C99.305 4.85756 99.2738 4.78675 99.2356 4.78675C99.1973 4.78675 99.1224 4.85756 99.0689 4.9441ZM112.21 5.2588C112.21 5.34534 112.281 5.41615 112.367 5.41615C112.454 5.41615 112.525 5.34534 112.525 5.2588C112.525 5.17226 112.454 5.10145 112.367 5.10145C112.281 5.10145 112.21 5.17226 112.21 5.2588ZM92.4506 7.00334C92.2885 7.2658 92.6531 7.56665 92.8703 7.34951C93.0519 7.16793 92.9383 6.8323 92.6951 6.8323C92.6188 6.8323 92.5088 6.90924 92.4506 7.00334ZM144 7.92446C144 8.00597 144.071 8.11627 144.157 8.16977C144.244 8.22327 144.315 8.15655 144.315 8.02171C144.315 7.88686 144.244 7.7764 144.157 7.7764C144.071 7.7764 144 7.84296 144 7.92446ZM104.571 10.3045C104.426 10.5388 104.594 10.6661 104.895 10.5506C105.034 10.4973 105.104 10.3823 105.05 10.2951C104.922 10.0888 104.701 10.0931 104.571 10.3045ZM48.5508 10.4513C48.4973 10.5379 48.5287 10.6087 48.6202 10.6087C48.7118 10.6087 48.7869 10.5379 48.7869 10.4513C48.7869 10.3648 48.7557 10.294 48.7175 10.294C48.6793 10.294 48.6044 10.3648 48.5508 10.4513ZM136.702 11.008C136.601 11.2688 136.957 11.4872 137.218 11.3257C137.427 11.197 137.256 10.766 136.997 10.766C136.886 10.766 136.753 10.8749 136.702 11.008ZM21.8754 11.3261C21.8754 11.4609 21.9462 11.5276 22.0328 11.4741C22.1194 11.4206 22.1902 11.3103 22.1902 11.2288C22.1902 11.1473 22.1194 11.0807 22.0328 11.0807C21.9462 11.0807 21.8754 11.1912 21.8754 11.3261ZM70.4346 11.3821C70.3839 11.464 70.4096 11.5725 70.4916 11.6231C70.5736 11.6738 70.682 11.6481 70.7327 11.5662C70.7833 11.4842 70.7577 11.3758 70.6757 11.3251C70.5937 11.2744 70.4853 11.3001 70.4346 11.3821ZM35.9098 13.528C35.981 13.8698 36.2603 13.8907 36.3242 13.559C36.3573 13.3867 36.2801 13.2836 36.118 13.2836C35.9668 13.2836 35.8801 13.3854 35.9098 13.528ZM116.459 13.441C116.459 13.5275 116.53 13.5983 116.616 13.5983C116.703 13.5983 116.774 13.5275 116.774 13.441C116.774 13.3545 116.703 13.2836 116.616 13.2836C116.53 13.2836 116.459 13.3545 116.459 13.441ZM157.622 13.4276C157.571 13.5096 157.596 13.618 157.678 13.6687C157.76 13.7193 157.869 13.6937 157.92 13.6117C157.97 13.5297 157.945 13.4213 157.863 13.3707C157.781 13.32 157.672 13.3456 157.622 13.4276ZM7.39672 14.0704C7.39672 14.1569 7.4633 14.2277 7.54482 14.2277C7.62634 14.2277 7.73666 14.1569 7.79017 14.0704C7.84368 13.9839 7.77695 13.913 7.64208 13.913C7.5072 13.913 7.39672 13.9839 7.39672 14.0704ZM53.823 16.9962C53.1075 17.3061 52.4621 17.9266 52.038 18.7122L51.6984 19.3416V37.8302C51.6984 58.014 51.6518 56.9868 52.6186 58.0879C53.6434 59.2548 53.3496 59.2224 62.9697 59.2264L71.5657 59.2298L71.116 61.7868C70.8687 63.1931 70.6655 64.3887 70.6644 64.4439C70.6633 64.499 69.9359 64.5709 69.0481 64.6038C67.2235 64.6713 66.5924 64.9238 65.9808 65.831C65.6845 66.2706 65.6263 66.5692 65.6263 67.648C65.6263 69.0625 65.8763 69.6398 66.7786 70.3085C67.2066 70.6257 67.4243 70.6393 72.7982 70.6827L78.3738 70.7278V80.4576V90.1871L77.0023 88.7858C76.2478 88.0151 75.4754 87.3456 75.2858 87.2979C74.5754 87.1196 73.8549 87.8703 74.0376 88.5982C74.0909 88.811 75.061 89.9905 76.1932 91.2192C78.8606 94.1143 78.9144 94.1615 79.5483 94.1615C80.0272 94.1615 80.2829 93.9366 82.3329 91.7131C83.5745 90.3665 84.6779 89.0589 84.7852 88.8077C85.138 87.98 84.4799 87.0935 83.6644 87.298C83.4742 87.3457 82.7373 87.9805 82.0265 88.7084L80.7345 90.032V80.3742V70.7164H85.9329C90.2551 70.7164 91.2292 70.6756 91.7109 70.4744C92.9476 69.9578 93.3335 69.2849 93.3421 67.6312C93.3475 66.6097 93.2908 66.3537 92.9438 65.8292C92.3457 64.9257 91.7675 64.687 89.992 64.6101C88.519 64.5462 88.464 64.5306 88.307 64.1292C88.1716 63.7837 87.3443 59.6614 87.3443 59.3327C87.3443 59.2761 91.1912 59.2298 95.8932 59.2298H104.442L105.295 58.7971C105.854 58.5137 106.312 58.129 106.622 57.6821L107.095 56.9999L107.142 38.3281C107.175 25.1755 107.138 19.4812 107.017 19.0636C106.8 18.317 106.044 17.4471 105.267 17.0508C104.682 16.7521 104.11 16.7455 79.5211 16.7515C57.4061 16.757 54.3074 16.7864 53.823 16.9962ZM147.226 16.9027C147.173 16.9892 147.244 17.06 147.384 17.06C147.524 17.06 147.595 16.9892 147.541 16.9027C147.488 16.8161 147.417 16.7453 147.384 16.7453C147.351 16.7453 147.28 16.8161 147.226 16.9027ZM111.738 17.6894C111.738 17.776 111.809 17.8468 111.895 17.8468C111.982 17.8468 112.053 17.776 112.053 17.6894C112.053 17.6029 111.982 17.5321 111.895 17.5321C111.809 17.5321 111.738 17.6029 111.738 17.6894ZM45.9541 18.4762C45.9541 18.5627 46.0249 18.6335 46.1115 18.6335C46.1981 18.6335 46.2689 18.5627 46.2689 18.4762C46.2689 18.3896 46.1981 18.3188 46.1115 18.3188C46.0249 18.3188 45.9541 18.3896 45.9541 18.4762ZM124.752 19.0488C124.626 19.1745 124.768 19.4203 124.967 19.4203C125.048 19.4203 125.115 19.3141 125.115 19.1843C125.115 18.941 124.929 18.8716 124.752 19.0488ZM140.38 19.1056C140.38 19.1921 140.451 19.2629 140.538 19.2629C140.624 19.2629 140.695 19.1921 140.695 19.1056C140.695 19.019 140.624 18.9482 140.538 18.9482C140.451 18.9482 140.38 19.019 140.38 19.1056ZM54.3588 19.4368C54.0691 19.7567 54.0576 20.2651 54.0166 34.4637L53.9741 49.1594H79.4747H104.975L104.934 34.4637C104.893 20.2646 104.882 19.7567 104.592 19.4368L104.292 19.1056H79.4754H54.6586L54.3588 19.4368ZM36.063 20.8286C36.0976 20.9324 36.1772 21.012 36.24 21.0056C36.4282 20.9861 36.3917 20.7704 36.1889 20.7027C36.085 20.6681 36.0283 20.7247 36.063 20.8286ZM13.5738 21.6625C13.6098 21.7708 13.7338 21.8592 13.8492 21.8592C13.9645 21.8592 14.0886 21.7708 14.1246 21.6625C14.1636 21.5455 14.052 21.4658 13.8492 21.4658C13.6463 21.4658 13.5347 21.5455 13.5738 21.6625ZM27.646 22.6722C27.4648 22.8532 27.5312 23.0393 27.7771 23.0393C27.9069 23.0393 28.0131 22.9331 28.0131 22.8033C28.0131 22.5575 27.827 22.4911 27.646 22.6722ZM77.5082 23.8295C75.629 24.2067 73.3233 25.548 71.9253 27.0774C70.8606 28.2421 69.8108 30.0523 69.2935 31.6149C68.9329 32.7042 68.8752 33.1491 68.8646 34.9193C68.8504 37.3018 69.1447 38.5038 70.1483 40.1618C72.7901 44.5266 78.2243 46.3075 83.1294 44.4163C84.0759 44.0514 84.4127 43.8382 84.5926 43.4903C84.9032 42.8895 84.888 42.6714 84.5 42.1786C84.0919 41.6598 83.6873 41.6543 82.1463 42.1463C79.7228 42.9203 77.716 42.825 75.5687 41.8338C73.0235 40.6587 71.2918 37.8845 71.2918 34.9819C71.2918 33.0674 72.2792 30.5832 73.6821 28.9677C77.3768 24.7132 84.1837 25.3533 86.5595 30.1788C87.5181 32.126 87.3814 34.7754 86.2291 36.5864C85.6826 37.4452 84.8064 37.9926 84.3911 37.7347C83.6672 37.2852 83.6445 36.4839 84.2152 31.4904C84.3754 30.088 84.3661 29.9221 84.1123 29.6416C83.5868 29.061 82.3082 29.4613 82.3082 30.2062C82.3082 30.3836 82.1435 30.3172 81.7004 29.9613C79.8595 28.4821 77.0884 28.8106 75.295 30.7208C75.0772 30.9529 74.6715 31.6017 74.3937 32.1623C73.9169 33.1247 73.8887 33.2789 73.8903 34.916C73.8917 36.3411 73.9507 36.7777 74.2216 37.3662C74.6986 38.402 75.4409 39.1743 76.4206 39.6534C77.1854 40.0276 77.4125 40.0654 78.5134 40.0017C79.8052 39.9269 80.7585 39.5302 81.4305 38.7877L81.7329 38.4537L82.2055 39.0269C83.4843 40.578 85.9754 40.3407 87.6838 38.5051C89.0097 37.0805 89.5945 35.4075 89.5973 33.0311C89.6 30.871 88.9138 28.9354 87.5212 27.1739C86.3824 25.7335 83.9298 24.2481 82.0251 23.8451C81.0868 23.6467 78.4646 23.6376 77.5082 23.8295ZM44.3235 24.4073C44.1355 24.5954 44.222 24.9275 44.459 24.9275C44.5889 24.9275 44.6951 24.8256 44.6951 24.7008C44.6951 24.4379 44.4705 24.2605 44.3235 24.4073ZM135.719 25.156C135.609 25.4416 135.768 25.7143 136.045 25.7143C136.332 25.7143 136.461 25.3203 136.245 25.1041C136.005 24.8644 135.824 24.8822 135.719 25.156ZM3.77705 25.2422C3.77705 25.3288 3.85212 25.3996 3.94371 25.3996C4.03531 25.3996 4.06663 25.3288 4.01312 25.2422C3.95961 25.1557 3.8847 25.0849 3.84645 25.0849C3.80821 25.0849 3.77705 25.1557 3.77705 25.2422ZM111.423 25.7143C111.423 25.8008 111.494 25.8716 111.58 25.8716C111.667 25.8716 111.738 25.8008 111.738 25.7143C111.738 25.6277 111.667 25.5569 111.58 25.5569C111.494 25.5569 111.423 25.6277 111.423 25.7143ZM149.115 26.501C149.052 26.6027 149.071 26.7566 149.158 26.8431C149.263 26.9481 149.353 26.9389 149.43 26.8157C149.492 26.7141 149.473 26.5602 149.386 26.4737C149.281 26.3687 149.191 26.3778 149.115 26.501ZM117.613 27.2214C117.561 27.3578 117.63 27.5819 117.767 27.7192C117.973 27.9249 118.06 27.9332 118.261 27.7664C118.575 27.5057 118.573 27.1901 118.256 27.0686C117.865 26.9185 117.716 26.954 117.613 27.2214ZM37.5607 28.9662C37.3302 29.1968 37.4628 29.648 37.7612 29.648C38.163 29.648 38.3176 29.3772 38.0796 29.0904C37.8717 28.84 37.7225 28.8043 37.5607 28.9662ZM47.0558 29.0973C47.0558 29.2271 47.1266 29.3333 47.2131 29.3333C47.2997 29.3333 47.3705 29.2271 47.3705 29.0973C47.3705 28.9675 47.2997 28.8613 47.2131 28.8613C47.1266 28.8613 47.0558 28.9675 47.0558 29.0973ZM19.6721 29.5C19.6721 29.5915 19.743 29.6229 19.8295 29.5694C19.9161 29.5159 19.9869 29.441 19.9869 29.4027C19.9869 29.3645 19.9161 29.3333 19.8295 29.3333C19.743 29.3333 19.6721 29.4084 19.6721 29.5ZM12.6689 30.4348C12.6153 30.5213 12.6467 30.5921 12.7383 30.5921C12.8299 30.5921 12.9049 30.5213 12.9049 30.4348C12.9049 30.3482 12.8738 30.2774 12.8355 30.2774C12.7973 30.2774 12.7224 30.3482 12.6689 30.4348ZM141.797 31.0642C141.797 31.1507 141.868 31.2215 141.954 31.2215C142.041 31.2215 142.112 31.1507 142.112 31.0642C142.112 30.9776 142.041 30.9068 141.954 30.9068C141.868 30.9068 141.797 30.9776 141.797 31.0642ZM78.4525 31.4037C76.3027 32.1859 75.5738 35.9839 77.2956 37.4324C77.8833 37.9268 79.0118 37.9781 79.6753 37.5407C81.0993 36.602 81.8437 33.5546 80.9734 32.2265C80.4507 31.4291 79.3607 31.0733 78.4525 31.4037ZM25.9672 31.5455C25.9672 31.6371 26.038 31.6684 26.1246 31.6149C26.2112 31.5614 26.282 31.4865 26.282 31.4483C26.282 31.41 26.2112 31.3789 26.1246 31.3789C26.038 31.3789 25.9672 31.4539 25.9672 31.5455ZM128.577 31.8509C128.577 31.9375 128.648 32.0083 128.734 32.0083C128.821 32.0083 128.892 31.9375 128.892 31.8509C128.892 31.7644 128.821 31.6936 128.734 31.6936C128.648 31.6936 128.577 31.7644 128.577 31.8509ZM153.915 32.6377C153.915 32.7242 153.986 32.795 154.072 32.795C154.159 32.795 154.23 32.7242 154.23 32.6377C154.23 32.5511 154.159 32.4803 154.072 32.4803C153.986 32.4803 153.915 32.5511 153.915 32.6377ZM111.266 33.4244C111.266 33.511 111.341 33.5818 111.432 33.5818C111.524 33.5818 111.555 33.511 111.502 33.4244C111.448 33.3379 111.373 33.2671 111.335 33.2671C111.297 33.2671 111.266 33.3379 111.266 33.4244ZM31.576 34.4777C31.3988 34.6549 31.4682 34.8406 31.7115 34.8406C31.8413 34.8406 31.9476 34.774 31.9476 34.6925C31.9476 34.4941 31.7017 34.352 31.576 34.4777ZM7.39672 36.4813C7.39672 36.6271 7.53128 36.7288 7.72454 36.7288C8.10807 36.7288 8.05393 36.3611 7.65907 36.2846C7.50374 36.2544 7.39672 36.3346 7.39672 36.4813ZM136.998 36.4116C136.882 36.5993 137.03 36.8861 137.242 36.8861C137.434 36.8861 137.435 36.4602 137.244 36.3422C137.163 36.2923 137.053 36.3236 136.998 36.4116ZM19.7364 38.0471C19.609 38.3789 19.7878 38.617 20.1646 38.617C20.4022 38.617 20.4685 38.5293 20.4307 38.2645C20.372 37.8532 19.8711 37.6963 19.7364 38.0471ZM43.6722 38.1449C43.6094 38.2466 43.6287 38.4005 43.7153 38.487C43.8202 38.592 43.9107 38.5828 43.9869 38.4596C44.0497 38.358 44.0303 38.2041 43.9438 38.1175C43.8388 38.0126 43.7483 38.0217 43.6722 38.1449ZM144.66 38.1567C144.691 38.2497 144.783 38.3259 144.866 38.3259C144.948 38.3259 145.04 38.2497 145.071 38.1567C145.102 38.0637 145.01 37.9876 144.866 37.9876C144.721 37.9876 144.629 38.0637 144.66 38.1567ZM159.738 38.3023C159.738 38.3888 159.813 38.4596 159.904 38.4596C159.996 38.4596 160.027 38.3888 159.974 38.3023C159.92 38.2157 159.845 38.1449 159.807 38.1449C159.769 38.1449 159.738 38.2157 159.738 38.3023ZM125.224 39.0322C125.098 39.1579 125.24 39.4037 125.439 39.4037C125.52 39.4037 125.587 39.2975 125.587 39.1677C125.587 38.9244 125.401 38.855 125.224 39.0322ZM116.616 39.6398C116.46 39.8281 116.46 39.9235 116.616 40.1118C116.873 40.4212 117.188 40.4122 117.31 40.0918C117.407 39.841 117.166 39.4037 116.931 39.4037C116.866 39.4037 116.724 39.5099 116.616 39.6398ZM110.321 40.3478C110.321 40.4344 110.392 40.5052 110.479 40.5052C110.565 40.5052 110.636 40.4344 110.636 40.3478C110.636 40.2613 110.565 40.1905 110.479 40.1905C110.392 40.1905 110.321 40.2613 110.321 40.3478ZM151.977 40.7642C151.761 40.9804 151.873 41.3143 152.144 41.262C152.296 41.2328 152.42 41.1096 152.42 40.9882C152.42 40.7398 152.142 40.5993 151.977 40.7642ZM2.59672 42.8654C2.65023 42.952 2.72514 43.0228 2.76338 43.0228C2.80163 43.0228 2.83279 42.952 2.83279 42.8654C2.83279 42.7789 2.75772 42.7081 2.66613 42.7081C2.57453 42.7081 2.54321 42.7789 2.59672 42.8654ZM31.2 43.7571C30.938 43.8619 30.9482 44.3842 31.2143 44.4861C31.5274 44.6063 31.8289 44.3625 31.7663 44.0397C31.7068 43.7324 31.5088 43.6336 31.2 43.7571ZM140.459 43.8095C140.513 43.8961 140.588 43.9669 140.626 43.9669C140.664 43.9669 140.695 43.8961 140.695 43.8095C140.695 43.723 140.62 43.6522 140.528 43.6522C140.437 43.6522 140.406 43.723 140.459 43.8095ZM23.6066 44.4389C23.6066 44.5255 23.6774 44.5963 23.7639 44.5963C23.8505 44.5963 23.9213 44.5255 23.9213 44.4389C23.9213 44.3524 23.8505 44.2816 23.7639 44.2816C23.6774 44.2816 23.6066 44.3524 23.6066 44.4389ZM132.568 45.3054C132.512 45.4502 132.577 45.6732 132.714 45.8101C133.048 46.1443 133.492 45.9528 133.427 45.5017C133.365 45.0647 132.717 44.9168 132.568 45.3054ZM45.5674 45.3722C45.46 45.546 45.7081 45.7339 45.8536 45.5885C46.0031 45.4389 45.9752 45.2257 45.806 45.2257C45.7245 45.2257 45.6172 45.2916 45.5674 45.3722ZM121.285 45.96C121.104 46.141 121.171 46.3271 121.416 46.3271C121.546 46.3271 121.653 46.2209 121.653 46.0911C121.653 45.8453 121.466 45.7789 121.285 45.96ZM18.3412 46.631C18.2247 46.8193 18.5208 47.0058 18.7304 46.8763C18.9065 46.7675 18.7908 46.4845 18.5705 46.4845C18.4942 46.4845 18.3909 46.5504 18.3412 46.631ZM112.053 46.7205C112.053 46.8503 112.123 46.9565 112.21 46.9565C112.296 46.9565 112.367 46.8503 112.367 46.7205C112.367 46.5907 112.296 46.4845 112.21 46.4845C112.123 46.4845 112.053 46.5907 112.053 46.7205ZM146.203 47.9006C146.203 47.9872 146.274 48.058 146.361 48.058C146.447 48.058 146.518 47.9872 146.518 47.9006C146.518 47.8141 146.447 47.7433 146.361 47.7433C146.274 47.7433 146.203 47.8141 146.203 47.9006ZM10.8862 50.3646C10.9169 50.524 11.0472 50.6542 11.176 50.6542C11.5132 50.6542 11.4646 50.197 11.1201 50.1307C10.9099 50.0903 10.8458 50.1543 10.8862 50.3646ZM24.6558 50.3658C24.4747 50.5468 24.5411 50.7329 24.7869 50.7329C24.9167 50.7329 25.023 50.6267 25.023 50.4969C25.023 50.2511 24.8368 50.1847 24.6558 50.3658ZM38.6704 50.6149C38.572 50.8895 38.8404 51.3623 39.0945 51.3623C39.4075 51.3623 39.6786 50.9671 39.5662 50.6742C39.451 50.3739 38.773 50.3288 38.6704 50.6149ZM126.438 51.1068C126.305 51.4542 126.482 51.6315 126.723 51.3911C126.865 51.2492 126.865 51.1612 126.725 51.0213C126.585 50.8813 126.517 50.9016 126.438 51.1068ZM53.9804 53.6518C53.9804 55.8635 54.1396 56.5585 54.6956 56.7719C54.8357 56.8255 66.0101 56.8674 79.5277 56.8645C99.4416 56.8604 104.156 56.8208 104.374 56.6551C104.845 56.2978 104.971 55.643 104.971 53.555V51.5197H79.4754H53.9804V53.6518ZM139.436 51.9917C139.436 52.0783 139.547 52.1491 139.681 52.1491C139.816 52.1491 139.883 52.0783 139.83 51.9917C139.776 51.9052 139.666 51.8344 139.584 51.8344C139.503 51.8344 139.436 51.9052 139.436 51.9917ZM116.254 52.0923C116.128 52.218 116.27 52.4638 116.468 52.4638C116.55 52.4638 116.616 52.3576 116.616 52.2277C116.616 51.9845 116.431 51.9151 116.254 52.0923ZM46.5836 52.7785C46.5836 52.865 46.6544 52.9358 46.741 52.9358C46.8276 52.9358 46.8984 52.865 46.8984 52.7785C46.8984 52.6919 46.8276 52.6211 46.741 52.6211C46.6544 52.6211 46.5836 52.6919 46.5836 52.7785ZM152.813 52.7785C152.813 52.865 152.884 52.9358 152.971 52.9358C153.057 52.9358 153.128 52.865 153.128 52.7785C153.128 52.6919 153.057 52.6211 152.971 52.6211C152.884 52.6211 152.813 52.6919 152.813 52.7785ZM78.5191 53.2384C78.0063 53.751 77.9478 54.1525 78.2893 54.8127C78.5513 55.3194 78.8129 55.4534 79.5395 55.4534C80.6975 55.4534 81.2491 53.9128 80.3637 53.1514C79.7611 52.6332 79.0929 52.6647 78.5191 53.2384ZM1.51035 53.0686C1.4559 53.1567 1.488 53.2762 1.58164 53.3341C1.82369 53.4836 1.9798 53.2788 1.77773 53.0768C1.66474 52.9638 1.57676 52.9612 1.51035 53.0686ZM110.872 53.7226C110.819 53.8091 110.85 53.8799 110.942 53.8799C111.033 53.8799 111.108 53.8091 111.108 53.7226C111.108 53.636 111.077 53.5652 111.039 53.5652C111.001 53.5652 110.926 53.636 110.872 53.7226ZM30.2808 56.614C30.1475 56.9615 30.3248 57.1388 30.5653 56.8984C30.7073 56.7564 30.7077 56.6685 30.5678 56.5286C30.4278 56.3885 30.3595 56.4088 30.2808 56.614ZM134.821 57.0902C134.722 57.3476 134.839 57.499 135.135 57.499C135.25 57.499 135.344 57.3573 135.344 57.1843C135.344 56.8265 134.95 56.7555 134.821 57.0902ZM145.329 57.67C145.167 57.9325 145.532 58.2333 145.749 58.0162C145.931 57.8346 145.817 57.499 145.574 57.499C145.498 57.499 145.387 57.5759 145.329 57.67ZM10.7803 58.2857C10.8338 58.3723 10.9088 58.4431 10.947 58.4431C10.9852 58.4431 11.0164 58.3723 11.0164 58.2857C11.0164 58.1992 10.9413 58.1284 10.8497 58.1284C10.7581 58.1284 10.7268 58.1992 10.7803 58.2857ZM21.3312 58.3402C20.9648 58.608 21.1103 59.0725 21.5607 59.0725C21.9735 59.0725 22.145 58.6453 21.8504 58.3507C21.6592 58.1594 21.5805 58.1578 21.3312 58.3402ZM43.2787 58.6004C43.2787 58.687 43.3849 58.7578 43.5148 58.7578C43.6446 58.7578 43.7508 58.687 43.7508 58.6004C43.7508 58.5139 43.6446 58.4431 43.5148 58.4431C43.3849 58.4431 43.2787 58.5139 43.2787 58.6004ZM126.689 59.151C126.544 59.3255 126.531 59.4503 126.647 59.5659C126.906 59.8248 127.397 59.6561 127.397 59.3085C127.397 58.9176 126.963 58.821 126.689 59.151ZM73.6509 59.3478C73.65 59.4128 73.4729 60.587 73.2575 61.9572C73.0419 63.3274 72.8656 64.4781 72.8656 64.5141C72.8656 64.5501 75.8303 64.5797 79.4536 64.5797H86.0417L85.9869 64.2257C85.7329 62.5796 85.4235 60.741 85.2853 60.0559L85.1187 59.2298H79.3856C76.2324 59.2298 73.6517 59.2828 73.6509 59.3478ZM115.467 59.3304C115.341 59.4561 115.483 59.7019 115.681 59.7019C115.763 59.7019 115.83 59.5957 115.83 59.4658C115.83 59.2226 115.644 59.1532 115.467 59.3304ZM5.5082 61.914C5.5082 62.0056 5.57902 62.0369 5.66558 61.9834C5.75213 61.9299 5.82295 61.855 5.82295 61.8168C5.82295 61.7786 5.75213 61.7474 5.66558 61.7474C5.57902 61.7474 5.5082 61.8225 5.5082 61.914ZM35.1459 61.9993C35.0117 62.349 35.4309 62.5804 35.7038 62.3076C35.8223 62.1891 35.8713 62.0148 35.8126 61.9199C35.6543 61.6637 35.2566 61.7111 35.1459 61.9993ZM155.489 62.2195C155.489 62.306 155.559 62.3768 155.646 62.3768C155.733 62.3768 155.803 62.306 155.803 62.2195C155.803 62.1329 155.733 62.0621 155.646 62.0621C155.559 62.0621 155.489 62.1329 155.489 62.2195ZM98.8328 62.7008C98.8328 62.7924 98.9037 62.8237 98.9902 62.7702C99.0768 62.7167 99.1476 62.6418 99.1476 62.6036C99.1476 62.5653 99.0768 62.5342 98.9902 62.5342C98.9037 62.5342 98.8328 62.6092 98.8328 62.7008ZM104.184 63.1636C104.184 63.2501 104.254 63.3209 104.341 63.3209C104.428 63.3209 104.498 63.2501 104.498 63.1636C104.498 63.077 104.428 63.0062 104.341 63.0062C104.254 63.0062 104.184 63.077 104.184 63.1636ZM27.6984 63.3209C27.6984 63.4075 27.7734 63.4783 27.865 63.4783C27.9566 63.4783 27.9879 63.4075 27.9344 63.3209C27.8809 63.2344 27.806 63.1636 27.7678 63.1636C27.7295 63.1636 27.6984 63.2344 27.6984 63.3209ZM120.157 63.4783C120.012 63.7133 120.214 63.9503 120.56 63.9503C120.761 63.9503 120.866 63.8422 120.866 63.6356C120.866 63.3019 120.339 63.1848 120.157 63.4783ZM57.3707 63.9395C57.3208 64.02 57.3522 64.1303 57.4401 64.1848C57.5281 64.239 57.6 64.1731 57.6 64.0383C57.6 63.7618 57.5056 63.7212 57.3707 63.9395ZM49.6416 64.1253C49.506 64.3448 49.9156 64.6156 50.1018 64.4294C50.253 64.2782 50.1073 63.9503 49.8885 63.9503C49.8122 63.9503 49.7011 64.029 49.6416 64.1253ZM110.216 64.9847C110.093 65.3054 110.554 65.7029 110.896 65.5716C111.022 65.5233 111.103 65.3334 111.077 65.1498C111.016 64.7238 110.364 64.5989 110.216 64.9847ZM133.565 64.995C133.439 65.1207 133.581 65.3665 133.78 65.3665C133.861 65.3665 133.928 65.2603 133.928 65.1304C133.928 64.8872 133.742 64.8178 133.565 64.995ZM12.7647 66.0539C12.6245 66.2229 12.6215 66.3113 12.7537 66.393C13.0102 66.5516 13.3287 66.1993 13.1186 65.9893C13.0047 65.8753 12.8964 65.8952 12.7647 66.0539ZM127.003 67.0973C127.003 67.1839 127.11 67.2547 127.239 67.2547C127.369 67.2547 127.475 67.1839 127.475 67.0973C127.475 67.0108 127.369 66.94 127.239 66.94C127.11 66.94 127.003 67.0108 127.003 67.0973ZM67.8593 67.6864L67.9082 68.2774L79.5244 68.3177L91.1406 68.3582L91.0916 67.767L91.0427 67.176L79.4265 67.1357L67.8103 67.0953L67.8593 67.6864ZM100.8 68.8282C100.668 69.0412 100.846 69.3002 101.124 69.3002C101.249 69.3002 101.351 69.1586 101.351 68.9855C101.351 68.6598 100.971 68.5512 100.8 68.8282ZM140.912 69.214C140.792 69.5269 140.97 69.7723 141.317 69.7723C141.619 69.7723 141.861 69.3746 141.709 69.1287C141.569 68.9021 141.009 68.9622 140.912 69.214ZM30.3604 69.3949C30.2207 69.5633 30.2145 69.676 30.3384 69.7998C30.5557 70.0171 31.0033 69.8544 31.0033 69.5579C31.0033 69.2302 30.5853 69.1241 30.3604 69.3949ZM1.98909 69.8815C1.81188 70.0586 1.88129 70.2443 2.12459 70.2443C2.25443 70.2443 2.36066 70.1777 2.36066 70.0962C2.36066 69.8978 2.11483 69.7557 1.98909 69.8815ZM115.287 70.0736C115.236 70.1556 115.262 70.264 115.344 70.3146C115.426 70.3653 115.534 70.3397 115.585 70.2577C115.636 70.1757 115.61 70.0673 115.528 70.0166C115.446 69.966 115.338 69.9916 115.287 70.0736ZM56.1345 70.5033C55.9183 70.7195 56.0303 71.0534 56.3017 71.0012C56.4531 70.9719 56.5771 70.8487 56.5771 70.7274C56.5771 70.4789 56.2995 70.3384 56.1345 70.5033ZM107.095 70.7164C107.149 70.8029 107.224 70.8737 107.262 70.8737C107.3 70.8737 107.331 70.8029 107.331 70.7164C107.331 70.6298 107.256 70.559 107.165 70.559C107.073 70.559 107.042 70.6298 107.095 70.7164ZM43.8106 70.9448C43.6906 71.2578 43.8684 71.5031 44.2154 71.5031C44.5248 71.5031 44.6918 71.2329 44.5801 70.913C44.4855 70.6418 43.918 70.6652 43.8106 70.9448ZM150.689 72.1325C150.742 72.219 150.852 72.2899 150.934 72.2899C151.015 72.2899 151.082 72.219 151.082 72.1325C151.082 72.046 150.972 71.9752 150.837 71.9752C150.702 71.9752 150.635 72.046 150.689 72.1325ZM20.2198 72.2949C20.1588 72.3937 20.1828 72.5487 20.2733 72.6392C20.4848 72.8507 20.9779 72.6662 20.8918 72.4077C20.8043 72.1448 20.3589 72.0699 20.2198 72.2949ZM133.141 73.0766C133.141 73.2864 133.246 73.3913 133.456 73.3913C133.666 73.3913 133.771 73.2864 133.771 73.0766C133.771 72.8669 133.666 72.7619 133.456 72.7619C133.246 72.7619 133.141 72.8669 133.141 73.0766ZM121.863 74.2673C121.811 74.4029 121.845 74.5911 121.94 74.6855C122.167 74.9127 122.612 74.5579 122.492 74.2452C122.377 73.9453 121.981 73.9592 121.863 74.2673ZM69.0886 75.1222C69.0886 75.2087 69.1636 75.2795 69.2552 75.2795C69.3468 75.2795 69.3781 75.2087 69.3246 75.1222C69.2711 75.0356 69.1962 74.9648 69.158 74.9648C69.1197 74.9648 69.0886 75.0356 69.0886 75.1222ZM90.0476 75.2092C90.1187 75.5509 90.398 75.5719 90.4619 75.2402C90.495 75.0679 90.4179 74.9648 90.2558 74.9648C90.1045 74.9648 90.0178 75.0666 90.0476 75.2092ZM36.3541 75.3582C36.3541 75.5025 36.4303 75.595 36.5233 75.564C36.6163 75.533 36.6925 75.4403 36.6925 75.3582C36.6925 75.276 36.6163 75.1834 36.5233 75.1524C36.4303 75.1214 36.3541 75.2139 36.3541 75.3582ZM110.334 75.5007C110.112 75.7681 110.23 76.0663 110.557 76.0663C110.898 76.0663 111.011 75.7446 110.759 75.4926C110.559 75.2924 110.506 75.2934 110.334 75.5007ZM96.9777 76.7252C96.7196 76.9833 96.7378 77.2458 97.0309 77.489C97.3799 77.7785 97.8845 77.2884 97.6387 76.8988C97.4175 76.5484 97.2093 76.4936 96.9777 76.7252ZM63.0514 77.1196C62.8633 77.3076 62.9499 77.6398 63.1869 77.6398C63.3167 77.6398 63.423 77.5378 63.423 77.413C63.423 77.1501 63.1984 76.9727 63.0514 77.1196ZM12.3541 77.3251C12.2913 77.4267 12.3107 77.5806 12.3972 77.6671C12.5022 77.7721 12.5927 77.763 12.6689 77.6398C12.7317 77.5381 12.7123 77.3842 12.6257 77.2977C12.5208 77.1927 12.4303 77.2019 12.3541 77.3251ZM43.1213 78.5839C43.1213 78.6704 43.1922 78.7412 43.2787 78.7412C43.3653 78.7412 43.4361 78.6704 43.4361 78.5839C43.4361 78.4973 43.3653 78.4265 43.2787 78.4265C43.1922 78.4265 43.1213 78.4973 43.1213 78.5839ZM53.1247 81.5342C51.3891 83.2433 48.4838 86.1075 46.6685 87.899C44.8531 89.6902 43.3531 91.1415 43.3354 91.1237C43.3176 91.1059 43.4469 90.2518 43.6229 89.2256C43.9765 87.1618 43.9098 86.7212 43.2019 86.4521C42.7258 86.271 42.1036 86.4721 41.8881 86.8765C41.7528 87.1308 41.4111 89.1472 40.9103 92.6472C40.5721 95.0115 40.9421 95.5234 42.8834 95.3765C43.5245 95.3281 45.2347 95.1276 46.6839 94.9313C49.6101 94.5344 49.8885 94.4063 49.8885 93.457C49.8885 93.0438 49.79 92.8454 49.4861 92.6464C49.1105 92.4003 48.9621 92.4 47.2435 92.6429C46.2314 92.7859 45.2974 92.903 45.168 92.9028C45.0385 92.9028 47.7754 90.0528 51.2499 86.5694C54.7243 83.0859 57.6454 80.0814 57.741 79.8922C57.8652 79.6468 57.8671 79.423 57.7476 79.1088C57.5423 78.5686 57.3404 78.432 56.7434 78.4289C56.3517 78.4268 55.7938 78.9056 53.1247 81.5342ZM101.454 78.7143C101.311 78.8726 101.192 79.2443 101.191 79.5404C101.188 80.0417 101.635 80.5218 107.681 86.5168C113.919 92.7022 114.15 92.9513 113.546 92.8618C110.35 92.3866 110.046 92.3687 109.648 92.6297C108.798 93.1861 109.062 94.3835 110.096 94.6625C110.35 94.7309 112.102 94.9416 113.989 95.1305L117.421 95.4739L117.845 95.05C118.37 94.5253 118.365 94.1196 117.793 90.226C117.28 86.7379 117.298 86.8008 116.739 86.5121C116.354 86.313 116.187 86.3034 115.811 86.4589C115.078 86.7626 115.064 87.063 115.615 90.6211C115.708 91.2269 115.47 91.0101 109.267 84.8385C103.227 78.8287 102.788 78.4265 102.268 78.4265C101.932 78.4265 101.612 78.5393 101.454 78.7143ZM145.526 78.5271C145.4 78.6528 145.542 78.8986 145.741 78.8986C145.822 78.8986 145.889 78.7923 145.889 78.6625C145.889 78.4193 145.703 78.3499 145.526 78.5271ZM4.87869 79.0559C4.87869 79.1424 4.94951 79.2132 5.03607 79.2132C5.12263 79.2132 5.19345 79.1424 5.19345 79.0559C5.19345 78.9694 5.12263 78.8986 5.03607 78.8986C4.94951 78.8986 4.87869 78.9694 4.87869 79.0559ZM84.9837 79.0559C84.9837 79.1424 85.0545 79.2132 85.141 79.2132C85.2276 79.2132 85.2984 79.1424 85.2984 79.0559C85.2984 78.9694 85.2276 78.8986 85.141 78.8986C85.0545 78.8986 84.9837 78.9694 84.9837 79.0559ZM26.4708 80.5035C26.2165 80.7578 26.233 81.0223 26.518 81.2588C26.7064 81.415 26.8018 81.415 26.9902 81.2588C27.2993 81.0023 27.2922 80.5311 26.9773 80.4102C26.6603 80.2886 26.6915 80.2829 26.4708 80.5035ZM70.5507 80.9613C70.3013 81.2107 70.4773 81.5735 70.8476 81.5735C71.075 81.5735 71.1431 81.4835 71.1061 81.2317C71.0468 80.8296 70.8018 80.7103 70.5507 80.9613ZM135.908 80.923C135.84 81.0327 135.827 81.1649 135.879 81.2168C136.02 81.3576 136.174 81.1505 136.098 80.9224C136.044 80.7625 136.007 80.7625 135.908 80.923ZM48.6295 81.4162C48.6295 81.5027 48.7004 81.5735 48.7869 81.5735C48.8735 81.5735 48.9443 81.5027 48.9443 81.4162C48.9443 81.3296 48.8735 81.2588 48.7869 81.2588C48.7004 81.2588 48.6295 81.3296 48.6295 81.4162ZM115.866 81.4457C115.963 81.7375 116.302 81.7858 116.302 81.5079C116.302 81.3708 116.19 81.2588 116.053 81.2588C115.915 81.2588 115.831 81.3428 115.866 81.4457ZM153.6 81.4162C153.6 81.5027 153.671 81.5735 153.757 81.5735C153.844 81.5735 153.915 81.5027 153.915 81.4162C153.915 81.3296 153.844 81.2588 153.757 81.2588C153.671 81.2588 153.6 81.3296 153.6 81.4162ZM35.882 82.911C35.882 83.0408 35.9882 83.147 36.118 83.147C36.2479 83.147 36.3541 83.0408 36.3541 82.911C36.3541 82.7812 36.2479 82.6749 36.118 82.6749C35.9882 82.6749 35.882 82.7812 35.882 82.911ZM123.94 82.824C123.801 83.0479 123.978 83.3044 124.27 83.3044C124.408 83.3044 124.487 83.1937 124.457 83.042C124.396 82.7259 124.082 82.5938 123.94 82.824ZM89.3376 83.2142C89.2062 83.5567 89.647 83.8629 89.9317 83.6268C90.2182 83.3892 90.0761 82.9896 89.705 82.9896C89.5504 82.9896 89.3852 83.0907 89.3376 83.2142ZM9.12787 85.1926C9.12787 85.2791 9.19869 85.3499 9.28525 85.3499C9.37181 85.3499 9.44263 85.2791 9.44263 85.1926C9.44263 85.106 9.37181 85.0352 9.28525 85.0352C9.19869 85.0352 9.12787 85.106 9.12787 85.1926ZM100.721 85.2018C100.721 85.2934 100.792 85.3247 100.879 85.2712C100.965 85.2177 101.036 85.1428 101.036 85.1046C101.036 85.0664 100.965 85.0352 100.879 85.0352C100.792 85.0352 100.721 85.1103 100.721 85.2018ZM141.718 85.8219C141.665 85.9085 141.731 85.9793 141.866 85.9793C142.001 85.9793 142.112 85.9085 142.112 85.8219C142.112 85.7354 142.045 85.6646 141.963 85.6646C141.882 85.6646 141.772 85.7354 141.718 85.8219ZM131.567 87.0021C131.567 87.2831 131.652 87.3954 131.865 87.3954C132.225 87.3954 132.398 87.0298 132.153 86.7852C131.852 86.4842 131.567 86.5895 131.567 87.0021ZM1.73115 86.9234C1.73115 87.0099 1.80197 87.0807 1.88853 87.0807C1.97508 87.0807 2.0459 87.0099 2.0459 86.9234C2.0459 86.8369 1.97508 86.766 1.88853 86.766C1.80197 86.766 1.73115 86.8369 1.73115 86.9234ZM64.1219 87.2532C63.9555 87.5223 64.4802 87.9748 64.7018 87.7533C64.8005 87.6546 64.8386 87.463 64.7865 87.3273C64.6776 87.0436 64.279 86.9991 64.1219 87.2532ZM21.0013 87.7238C20.8392 87.9863 21.2039 88.2871 21.4211 88.07C21.6027 87.8884 21.4891 87.5528 21.2459 87.5528C21.1696 87.5528 21.0596 87.6297 21.0013 87.7238ZM121.259 88.4969C121.206 88.5834 121.237 88.6542 121.328 88.6542C121.42 88.6542 121.495 88.5834 121.495 88.4969C121.495 88.4104 121.464 88.3395 121.426 88.3395C121.387 88.3395 121.313 88.4104 121.259 88.4969ZM54.4525 88.8116C54.4525 88.8981 54.5276 88.9689 54.6191 88.9689C54.7107 88.9689 54.7421 88.8981 54.6885 88.8116C54.635 88.7251 54.5601 88.6542 54.5219 88.6542C54.4836 88.6542 54.4525 88.7251 54.4525 88.8116ZM96.7869 90.0589C96.7869 90.2841 96.888 90.3851 97.1132 90.3851C97.5165 90.3851 97.4707 89.8643 97.0606 89.7853C96.8718 89.7489 96.7869 89.8337 96.7869 90.0589ZM33.4675 90.1766C33.4105 90.2336 33.3639 90.3745 33.3639 90.49C33.3639 90.7243 33.7697 90.7772 33.9038 90.5602C34.0109 90.387 33.6098 90.0344 33.4675 90.1766ZM149.404 90.6317C149.273 90.9734 149.606 91.2949 149.844 91.0565C150.045 90.8551 149.921 90.3851 149.666 90.3851C149.574 90.3851 149.456 90.496 149.404 90.6317ZM158.794 90.6998C158.794 90.7863 158.869 90.8571 158.96 90.8571C159.052 90.8571 159.083 90.7863 159.03 90.6998C158.976 90.6133 158.901 90.5424 158.863 90.5424C158.825 90.5424 158.794 90.6133 158.794 90.6998ZM12.9578 91.5758C12.8266 91.9175 13.1596 92.239 13.398 92.0006C13.5994 91.7992 13.4746 91.3292 13.2197 91.3292C13.1276 91.3292 13.0099 91.4401 12.9578 91.5758ZM124.595 93.1606C124.469 93.2863 124.611 93.5321 124.809 93.5321C124.891 93.5321 124.957 93.4259 124.957 93.2961C124.957 93.0528 124.772 92.9834 124.595 93.1606ZM89.3902 93.5321C89.3902 93.7418 89.4952 93.8468 89.705 93.8468C89.9147 93.8468 90.0197 93.7418 90.0197 93.5321C90.0197 93.3223 89.9147 93.2174 89.705 93.2174C89.4952 93.2174 89.3902 93.3223 89.3902 93.5321ZM26.627 93.5439C26.658 93.6369 26.7506 93.7131 26.8328 93.7131C26.915 93.7131 27.0076 93.6369 27.0386 93.5439C27.0697 93.4509 26.9771 93.3747 26.8328 93.3747C26.6885 93.3747 26.5959 93.4509 26.627 93.5439ZM140.905 94.0934C140.774 94.4351 141.107 94.7566 141.346 94.5182C141.547 94.3168 141.422 93.8468 141.167 93.8468C141.075 93.8468 140.957 93.9577 140.905 94.0934ZM58.0833 94.1546C57.8227 94.3157 57.9744 94.7909 58.2865 94.7909C58.4097 94.7909 58.5493 94.6899 58.5969 94.5664C58.711 94.2688 58.3573 93.9853 58.0833 94.1546ZM5.74427 94.4762C5.79777 94.5627 5.87268 94.6335 5.91093 94.6335C5.94917 94.6335 5.98033 94.5627 5.98033 94.4762C5.98033 94.3896 5.90526 94.3188 5.81367 94.3188C5.72207 94.3188 5.69076 94.3896 5.74427 94.4762ZM19.0426 95.1056C19.0426 95.1921 19.1135 95.2629 19.2 95.2629C19.2866 95.2629 19.3574 95.1921 19.3574 95.1056C19.3574 95.0191 19.2866 94.9482 19.2 94.9482C19.1135 94.9482 19.0426 95.0191 19.0426 95.1056ZM101.757 96.186C101.69 96.2956 101.677 96.4278 101.729 96.4797C101.869 96.6206 102.023 96.4135 101.947 96.1853C101.894 96.0255 101.857 96.0255 101.757 96.186ZM33.9562 97.7857C30.5433 98.3602 27.3909 101.141 26.2688 104.566C25.7428 106.171 25.7329 108.676 26.2458 110.317C26.8588 112.279 28.3767 114.227 30.0353 115.18C30.5463 115.473 30.5595 115.506 30.4718 116.261C30.4212 116.696 30.258 117.161 30.1022 117.314C29.9486 117.465 28.6401 118.049 27.1946 118.612C23.8445 119.916 22.4602 120.594 21.4496 121.426C19.1748 123.297 18.2948 125.586 17.7152 131.139C17.4015 134.142 17.5136 134.551 18.8486 135.269C21.1178 136.489 26.7442 137.114 35.4885 137.116C42.3253 137.118 46.955 136.745 50.1411 135.938C51.9269 135.485 52.7992 135.047 53.2114 134.397C53.4975 133.946 53.5222 133.724 53.4417 132.319C53.3205 130.206 52.8069 126.978 52.3979 125.759C51.8822 124.221 51.2143 123.093 50.2348 122.103C48.9021 120.757 47.5995 120.052 43.5692 118.496C41.0885 117.538 40.8243 117.386 40.6203 116.801C40.312 115.917 40.4008 115.676 41.2479 115.101C42.1525 114.487 43.187 113.331 43.8673 112.172C45.7428 108.978 45.5456 105.206 43.3269 101.836C41.3659 98.8578 37.5041 97.1884 33.9562 97.7857ZM77.9406 97.7977C74.3489 98.3961 71.3875 100.961 70.2399 104.468C69.6756 106.192 69.6483 108.684 70.1771 110.211C70.8546 112.168 71.979 113.74 73.4995 114.856C74.2702 115.422 74.282 115.443 74.282 116.279C74.282 117.348 74.3077 117.33 70.7473 118.714C67.45 119.996 66.4037 120.538 65.2668 121.551C63.34 123.268 62.522 125.205 62.0154 129.251C61.591 132.64 61.5516 133.806 61.8434 134.352C62.141 134.91 63.0649 135.436 64.4459 135.835C67.4499 136.703 70.5677 136.978 78.4525 137.071C84.3611 137.141 85.4213 137.114 88.4459 136.819C92.5094 136.423 94.6406 136.012 95.9621 135.371C97.6272 134.564 97.7317 134.019 97.1127 129.37C96.5737 125.322 95.7994 123.478 93.9183 121.762C92.8114 120.753 91.142 119.883 88.0451 118.7C84.659 117.407 84.7292 117.451 84.5252 116.5C84.4311 116.062 84.3541 115.683 84.3541 115.658C84.3541 115.633 84.7457 115.344 85.2244 115.014C87.0676 113.745 88.4633 111.694 88.9003 109.613C88.9966 109.155 89.0743 108.199 89.0731 107.489C89.0644 102.645 85.6029 98.521 80.9403 97.7986C79.6626 97.6005 79.1248 97.6004 77.9406 97.7977ZM121.81 97.8487C118.707 98.5036 116.266 100.38 114.893 103.165C113.794 105.394 113.536 107.461 114.088 109.619C114.669 111.892 115.68 113.349 117.915 115.136C118.707 115.769 118.801 116.061 118.497 116.932C118.305 117.484 118.194 117.541 115.279 118.576C111.928 119.767 110.014 120.747 108.936 121.824C106.929 123.83 105.939 126.945 105.525 132.555C105.438 133.728 105.465 133.954 105.744 134.398C106.877 136.206 112.818 137.12 123.413 137.116C130.21 137.114 133.599 136.875 137.154 136.147C139.309 135.705 140.268 135.321 140.843 134.666C141.27 134.179 141.324 134.007 141.323 133.139C141.32 131.113 140.761 127.045 140.28 125.553C139.242 122.328 137.318 120.759 131.716 118.566C130.37 118.04 129.121 117.472 128.942 117.305C128.763 117.138 128.568 116.741 128.508 116.422C128.401 115.85 128.419 115.823 129.884 114.448C131.077 113.329 131.496 112.811 132.016 111.812C132.371 111.128 132.769 110.116 132.899 109.564C133.406 107.415 133.06 104.773 132.01 102.766C131.319 101.447 129.266 99.3876 128.014 98.7569C126.137 97.812 123.685 97.4531 121.81 97.8487ZM135.431 98.7113C135.381 98.7932 135.406 98.9017 135.488 98.9523C135.57 99.003 135.679 98.9773 135.729 98.8954C135.78 98.8134 135.754 98.705 135.672 98.6543C135.59 98.6036 135.482 98.6293 135.431 98.7113ZM154.387 98.9699C154.387 99.1048 154.459 99.1707 154.547 99.1164C154.635 99.062 154.666 98.9517 154.616 98.8711C154.481 98.6529 154.387 98.6935 154.387 98.9699ZM107.646 99.1967C107.646 99.2832 107.721 99.354 107.813 99.354C107.904 99.354 107.936 99.2832 107.882 99.1967C107.829 99.1101 107.754 99.0393 107.715 99.0393C107.677 99.0393 107.646 99.1101 107.646 99.1967ZM66.6303 99.7399C66.5822 99.8656 66.5907 100.046 66.6492 100.141C66.8031 100.39 67.2057 100.024 67.0952 99.7359C66.9838 99.4459 66.7424 99.448 66.6303 99.7399ZM33.5213 100.438C31.5047 101.089 30.0002 102.319 29.1488 104.01C28.2006 105.893 28.0731 108.256 28.8184 110.133L29.1935 111.077L29.2884 108.638C29.3595 106.81 29.4553 106.021 29.6708 105.491C30.7978 102.715 33.0114 101.266 35.8718 101.431C38.3048 101.572 40.3074 103.065 41.3159 105.491C41.5466 106.045 41.6292 106.761 41.6971 108.795L41.7836 111.391L42.1517 110.369C42.7128 108.81 42.7879 106.79 42.3395 105.315C41.5507 102.718 39.7242 100.996 37.1046 100.378C35.8086 100.072 34.5879 100.093 33.5213 100.438ZM77.8541 100.313C75.9403 100.764 73.8706 102.424 72.9638 104.236C71.9448 106.272 71.885 108.444 72.791 110.526L73.1678 111.391L73.1741 109.261C73.1832 106.153 73.6122 104.807 75.1128 103.18C76.9565 101.18 80.3838 100.815 82.758 102.366C83.8711 103.093 84.8461 104.284 85.3409 105.52C85.6171 106.21 85.6909 106.81 85.7633 108.952L85.851 111.549L86.3007 110.174C86.7039 108.942 86.7444 108.63 86.6906 107.175C86.6364 105.712 86.5776 105.444 86.0971 104.468C85.4355 103.124 83.8464 101.494 82.623 100.903C81.2014 100.217 79.276 99.9786 77.8541 100.313ZM121.81 100.355C119.329 101.03 117.19 103.139 116.536 105.554C116.158 106.949 116.273 108.829 116.82 110.211L117.224 111.234L117.235 109.182C117.247 106.916 117.475 105.743 118.144 104.515C118.691 103.509 119.874 102.423 120.989 101.9C121.788 101.525 122.073 101.479 123.541 101.483C125.028 101.486 125.285 101.531 126.106 101.93C127.904 102.804 129.326 104.738 129.685 106.796C129.787 107.383 129.844 108.636 129.812 109.582C129.764 110.985 129.787 111.237 129.942 110.952C130.389 110.132 130.659 108.473 130.597 106.941C130.543 105.623 130.465 105.263 130.027 104.33C129.459 103.12 127.927 101.479 126.855 100.932C125.448 100.215 123.249 99.963 121.81 100.355ZM95.8427 100.77C95.8427 101.007 95.9248 101.092 96.1181 101.055C96.2695 101.026 96.3935 100.898 96.3935 100.77C96.3935 100.643 96.2695 100.515 96.1181 100.485C95.9248 100.448 95.8427 100.533 95.8427 100.77ZM15.3189 100.858C15.2007 101.166 15.3429 101.307 15.6523 101.188C15.9635 101.069 15.964 100.83 15.653 100.711C15.5138 100.658 15.372 100.72 15.3189 100.858ZM0.33899 101.154C0.369049 101.298 0.464263 101.412 0.55082 101.408C0.784368 101.395 0.741561 101.044 0.496367 100.962C0.364013 100.918 0.305154 100.99 0.33899 101.154ZM52.0039 101.1C51.9452 101.195 51.9941 101.369 52.1126 101.488C52.3855 101.761 52.8047 101.529 52.6705 101.179C52.5599 100.891 52.1622 100.844 52.0039 101.1ZM141.639 102.029C141.639 102.116 141.71 102.186 141.797 102.186C141.883 102.186 141.954 102.116 141.954 102.029C141.954 101.942 141.883 101.872 141.797 101.872C141.71 101.872 141.639 101.942 141.639 102.029ZM7.49509 104.2C7.45244 104.269 7.48076 104.428 7.55788 104.553C7.66411 104.725 7.7428 104.736 7.88003 104.598C7.97996 104.498 8.01412 104.34 7.95604 104.246C7.83172 104.044 7.60509 104.022 7.49509 104.2ZM60.4689 104.734C60.5661 105.025 60.9049 105.074 60.9049 104.796C60.9049 104.659 60.7929 104.547 60.6558 104.547C60.5187 104.547 60.4345 104.631 60.4689 104.734ZM20.9312 105.412C20.9312 105.556 21.0073 105.649 21.1003 105.618C21.1933 105.587 21.2695 105.494 21.2695 105.412C21.2695 105.33 21.1933 105.237 21.1003 105.206C21.0073 105.175 20.9312 105.268 20.9312 105.412ZM37.0932 105.891C36.3366 106.929 33.8038 108.059 31.7477 108.274L30.8081 108.372L30.884 110.118C30.9981 112.75 31.7678 114.188 33.5341 115.071C35.8998 116.252 38.4107 115.258 39.5926 112.67C39.9433 111.902 40.0245 111.472 40.0712 110.131C40.1313 108.404 39.9757 107.666 39.4773 107.317C39.3086 107.198 38.7906 106.739 38.3264 106.296C37.8621 105.853 37.4586 105.493 37.4296 105.496C37.4007 105.498 37.2493 105.676 37.0932 105.891ZM80.8426 106.15C79.8255 107.21 76.9349 108.323 75.1962 108.323H74.7145L74.7829 110.109C74.8419 111.651 74.9098 112.014 75.2798 112.77C77.1194 116.53 81.7815 116.548 83.5691 112.804C83.938 112.031 84.0624 111.51 84.1406 110.408C84.3068 108.066 84.2471 107.943 81.9927 106.001L81.4409 105.526L80.8426 106.15ZM124.671 106.23C124.277 106.639 123.578 107.124 123.011 107.381C122.042 107.82 120.009 108.323 119.202 108.323H118.785L118.848 110.014C118.902 111.456 118.977 111.851 119.359 112.689C120.183 114.499 121.72 115.551 123.55 115.558C124.845 115.562 125.943 115.054 126.839 114.037C127.822 112.921 128.105 111.96 128.105 109.744V107.872L126.838 106.721C126.14 106.088 125.521 105.559 125.461 105.546C125.4 105.533 125.045 105.841 124.671 106.23ZM137.233 105.963C137.233 106.049 137.304 106.12 137.39 106.12C137.477 106.12 137.548 106.049 137.548 105.963C137.548 105.876 137.477 105.805 137.39 105.805C137.304 105.805 137.233 105.876 137.233 105.963ZM105.343 106.67C105.288 106.812 105.319 107.003 105.411 107.096C105.651 107.335 106.105 107.116 106.043 106.791C105.973 106.429 105.469 106.341 105.343 106.67ZM148.407 106.74C148.407 107.164 148.704 107.306 148.991 107.019C149.278 106.732 149.136 106.435 148.712 106.435C148.515 106.435 148.407 106.543 148.407 106.74ZM98.282 109.11C98.1503 109.323 98.328 109.582 98.6061 109.582C98.7309 109.582 98.8328 109.44 98.8328 109.267C98.8328 108.941 98.4531 108.833 98.282 109.11ZM110.164 110.693C110.164 110.784 110.235 110.815 110.321 110.762C110.408 110.708 110.479 110.634 110.479 110.595C110.479 110.557 110.408 110.526 110.321 110.526C110.235 110.526 110.164 110.601 110.164 110.693ZM141.246 112.099C141.118 112.307 141.306 112.602 141.493 112.486C141.684 112.368 141.683 111.942 141.491 111.942C141.41 111.942 141.299 112.013 141.246 112.099ZM62.0768 112.27C61.9394 112.493 62.2428 112.796 62.465 112.659C62.5591 112.6 62.6361 112.451 62.6361 112.326C62.6361 112.061 62.231 112.021 62.0768 112.27ZM92.3017 112.571C92.3552 112.658 92.4301 112.729 92.4683 112.729C92.5066 112.729 92.5378 112.658 92.5378 112.571C92.5378 112.485 92.4627 112.414 92.3711 112.414C92.2795 112.414 92.2482 112.485 92.3017 112.571ZM52.8296 112.988C52.6068 113.21 52.7328 113.516 53.0476 113.516C53.2676 113.516 53.3573 113.43 53.323 113.253C53.2668 112.964 52.9982 112.819 52.8296 112.988ZM19.1182 113.521C19.0571 113.619 19.0812 113.774 19.1717 113.865C19.3832 114.076 19.8763 113.892 19.7902 113.633C19.7027 113.37 19.2573 113.296 19.1182 113.521ZM5.59366 113.977C5.48617 114.151 5.73435 114.338 5.87977 114.193C6.02927 114.043 6.00142 113.83 5.83224 113.83C5.75072 113.83 5.64339 113.896 5.59366 113.977ZM104.096 114.316C103.934 114.578 104.299 114.879 104.516 114.662C104.698 114.481 104.584 114.145 104.341 114.145C104.265 114.145 104.155 114.222 104.096 114.316ZM155.489 115.089C155.489 115.176 155.559 115.246 155.646 115.246C155.733 115.246 155.803 115.176 155.803 115.089C155.803 115.002 155.733 114.932 155.646 114.932C155.559 114.932 155.489 115.002 155.489 115.089ZM148.201 115.662C148.075 115.787 148.217 116.033 148.416 116.033C148.497 116.033 148.564 115.927 148.564 115.797C148.564 115.554 148.378 115.484 148.201 115.662ZM110.649 116.44C110.656 116.623 110.693 116.66 110.744 116.535C110.789 116.421 110.783 116.285 110.731 116.233C110.679 116.181 110.642 116.274 110.649 116.44ZM96.3444 116.936C96.4234 117.346 96.9443 117.392 96.9443 116.989C96.9443 116.764 96.8433 116.663 96.6181 116.663C96.3929 116.663 96.308 116.747 96.3444 116.936ZM32.3515 117.18C32.0499 118.657 32.051 118.662 32.7905 119.402C33.589 120.2 34.2512 120.437 35.6903 120.438C37.1464 120.439 38.158 119.947 38.6482 118.999C38.8251 118.657 38.8293 118.435 38.6716 117.771C38.5058 117.073 38.4354 116.974 38.1641 117.052C35.839 117.726 34.5281 117.754 33.1686 117.159L32.4225 116.832L32.3515 117.18ZM76.4275 116.948C76.3926 117.007 76.3134 117.43 76.2517 117.887C76.1402 118.714 76.1436 118.723 76.8244 119.403C77.5937 120.172 78.3183 120.438 79.6328 120.435C80.7099 120.431 81.6003 120.041 82.2703 119.278C82.8472 118.621 82.8451 118.632 82.6011 117.664C82.4444 117.041 82.3802 116.965 82.0896 117.058C80.0063 117.721 78.5534 117.754 77.2358 117.17C76.8263 116.989 76.4626 116.889 76.4275 116.948ZM120.344 117.717C120.257 118.55 120.286 118.677 120.684 119.18C121.631 120.377 123.707 120.821 125.195 120.145C125.947 119.804 126.904 118.773 126.777 118.441C126.728 118.313 126.643 117.928 126.588 117.584C126.51 117.094 126.434 116.981 126.234 117.059C125.521 117.335 124.178 117.607 123.522 117.607C122.889 117.607 121.58 117.285 120.692 116.91C120.482 116.822 120.423 116.959 120.344 117.717ZM12.3456 118.092C12.1835 118.355 12.5482 118.656 12.7653 118.439C12.9469 118.257 12.8333 117.921 12.5902 117.921C12.5138 117.921 12.4038 117.998 12.3456 118.092ZM57.6509 119.589C57.5394 119.88 57.9201 120.182 58.131 119.971C58.3029 119.799 58.1452 119.337 57.9148 119.337C57.8227 119.337 57.7041 119.451 57.6509 119.589ZM27.8558 120.814C26.4276 121.438 24.8083 122.19 24.2573 122.484C21.3894 124.017 20.5314 125.775 19.9712 131.268C19.8486 132.469 19.8412 133.102 19.9485 133.209C20.1668 133.427 22.0618 133.909 23.2281 134.043L24.1871 134.154L24.2984 131.274C24.4049 128.515 24.4267 128.371 24.8097 127.869C25.2937 127.235 25.5982 127.264 26.0942 127.993C26.4653 128.538 26.4675 128.566 26.3655 131.48L26.2626 134.418L27.0986 134.503C31.2074 134.92 42.2038 134.827 44.341 134.357C44.6931 134.28 44.6951 134.263 44.6951 131.278C44.6951 128.496 44.7189 128.243 45.0206 127.819C45.4312 127.243 45.6261 127.246 46.193 127.837C46.6699 128.335 46.7001 128.594 46.8853 133.784C46.8976 134.125 46.9431 134.141 47.6063 134.042C47.9956 133.983 48.9341 133.78 49.6915 133.59C51.0498 133.25 51.0695 133.238 51.1191 132.731C51.1921 131.983 50.5366 127.628 50.1942 126.585C49.7507 125.234 49.1714 124.311 48.2262 123.447C47.2928 122.594 46.281 122.068 43.2908 120.88C42.2155 120.453 41.1433 120.005 40.9083 119.883C40.496 119.67 40.4675 119.683 40.0921 120.25C38.8219 122.169 35.373 122.924 33.0193 121.797C32.4697 121.535 31.8206 121.037 31.339 120.511C30.9074 120.038 30.5315 119.658 30.5035 119.666C30.4755 119.673 29.2839 120.19 27.8558 120.814ZM83.7566 120.455C82.9231 121.39 81.4428 122.152 80.2151 122.279C78.3205 122.474 76.2661 121.723 75.3429 120.497C75.0623 120.124 74.7266 119.817 74.5968 119.815C74.2378 119.808 70.5489 121.278 68.8404 122.109C66.2663 123.361 65.1557 124.847 64.5334 127.87C64.2757 129.123 63.982 131.809 63.9782 132.948C63.9774 133.21 64.194 133.32 65.2657 133.601C65.9742 133.787 66.9016 133.987 67.3267 134.045L68.0993 134.152L68.1987 133.55C68.2535 133.219 68.3034 132.382 68.3097 131.689C68.3309 129.347 68.51 128.204 68.9247 127.763C69.44 127.214 69.7387 127.261 70.1282 127.954C70.4409 128.509 70.4552 128.708 70.3842 131.493L70.3089 134.443L70.6823 134.448C70.8877 134.45 71.941 134.519 73.023 134.601C74.9723 134.747 84.8563 134.819 85.6132 134.693C85.8296 134.656 86.63 134.579 87.3918 134.52L88.7772 134.413L88.6682 131.554C88.564 128.82 88.5741 128.666 88.8992 128.029C89.2862 127.27 89.6387 127.182 90.1381 127.716C90.5776 128.187 90.6154 128.426 90.7278 131.449C90.7808 132.875 90.8596 134.076 90.9031 134.12C90.9948 134.212 94.2085 133.574 94.8136 133.344C95.2091 133.194 95.2196 133.156 95.1313 132.203C94.6299 126.796 94.1074 125.138 92.4011 123.542C91.4084 122.614 88.9998 121.413 85.4558 120.081L84.4328 119.697L83.7566 120.455ZM117.97 120.005C117.632 120.171 116.535 120.609 115.531 120.979C111.719 122.383 110.262 123.395 109.37 125.256C108.704 126.647 108.149 129.148 107.885 131.955C107.792 132.936 107.81 133.024 108.149 133.242C108.573 133.516 110.05 133.909 111.226 134.062L112.053 134.169L112.066 133.716C112.203 129.253 112.291 128.381 112.653 127.874C113.123 127.216 113.516 127.225 113.934 127.902C114.246 128.406 114.267 128.642 114.249 131.402L114.229 134.362L114.754 134.491C115.67 134.717 126.707 134.811 129.553 134.618C130.998 134.52 132.273 134.404 132.386 134.361C132.545 134.299 132.591 133.595 132.591 131.228C132.59 128.368 132.611 128.147 132.922 127.729C133.354 127.149 133.563 127.167 134.101 127.834C134.539 128.379 134.545 128.415 134.654 131.263L134.763 134.14L135.487 134.041C136.448 133.909 137.994 133.561 138.531 133.357C138.928 133.206 138.964 133.123 138.964 132.358C138.964 130.135 138.364 126.957 137.665 125.479C136.807 123.663 135.019 122.298 132.006 121.156C131.462 120.95 130.422 120.525 129.696 120.213L128.376 119.645L128.136 119.987C127.121 121.436 125.932 122.133 124.233 122.275C122.171 122.448 120.67 121.911 119.371 120.536L118.584 119.704L117.97 120.005ZM101.115 121.698C100.983 121.911 101.161 122.17 101.439 122.17C101.564 122.17 101.666 122.028 101.666 121.855C101.666 121.529 101.286 121.421 101.115 121.698ZM147.462 123.44C147.462 123.665 147.547 123.75 147.736 123.714C148.146 123.635 148.192 123.114 147.789 123.114C147.563 123.114 147.462 123.215 147.462 123.44ZM5.12782 124.194C5.05999 124.304 5.04708 124.436 5.09902 124.488C5.23987 124.629 5.39347 124.422 5.3173 124.194C5.26411 124.034 5.22697 124.034 5.12782 124.194ZM156.59 124.225C156.59 124.316 156.661 124.347 156.748 124.294C156.834 124.241 156.905 124.166 156.905 124.127C156.905 124.089 156.834 124.058 156.748 124.058C156.661 124.058 156.59 124.133 156.59 124.225ZM151.239 131.925C151.239 132.1 151.344 132.24 151.475 132.24C151.607 132.24 151.712 132.1 151.712 131.925C151.712 131.751 151.607 131.611 151.475 131.611C151.344 131.611 151.239 131.751 151.239 131.925ZM8.99835 132.485C9.06949 132.826 9.34883 132.847 9.41273 132.516C9.44578 132.343 9.36866 132.24 9.20656 132.24C9.05532 132.24 8.96861 132.342 8.99835 132.485ZM157.928 136.017C157.865 136.118 157.885 136.272 157.971 136.359C158.076 136.464 158.167 136.454 158.243 136.331C158.305 136.23 158.286 136.076 158.2 135.989C158.095 135.884 158.004 135.893 157.928 136.017ZM57.6 138.062C57.6 138.149 57.7063 138.219 57.8361 138.219C57.9659 138.219 58.0722 138.149 58.0722 138.062C58.0722 137.976 57.9659 137.905 57.8361 137.905C57.7063 137.905 57.6 137.976 57.6 138.062ZM99.9345 139.321C99.9345 139.558 100.017 139.643 100.21 139.606C100.361 139.576 100.485 139.448 100.485 139.321C100.485 139.193 100.361 139.065 100.21 139.036C100.017 138.999 99.9345 139.084 99.9345 139.321ZM30.2164 140.904C30.2164 140.995 30.2872 141.027 30.3738 140.973C30.4603 140.92 30.5312 140.845 30.5312 140.806C30.5312 140.768 30.4603 140.737 30.3738 140.737C30.2872 140.737 30.2164 140.812 30.2164 140.904ZM114.807 140.894C114.744 140.996 114.763 141.15 114.85 141.236C114.955 141.341 115.045 141.332 115.121 141.209C115.184 141.107 115.165 140.954 115.078 140.867C114.973 140.762 114.883 140.771 114.807 140.894ZM124.171 141.209C124.171 141.296 124.241 141.366 124.328 141.366C124.414 141.366 124.485 141.296 124.485 141.209C124.485 141.123 124.414 141.052 124.328 141.052C124.241 141.052 124.171 141.123 124.171 141.209ZM40.5509 141.471C40.3697 141.652 40.4362 141.839 40.682 141.839C40.8118 141.839 40.9181 141.732 40.9181 141.602C40.9181 141.357 40.7319 141.29 40.5509 141.471ZM69.7968 141.839C69.665 142.052 69.8427 142.311 70.1208 142.311C70.2456 142.311 70.3476 142.169 70.3476 141.996C70.3476 141.67 69.9678 141.562 69.7968 141.839ZM81.8361 141.996C81.8361 142.082 81.9069 142.153 81.9935 142.153C82.08 142.153 82.1509 142.082 82.1509 141.996C82.1509 141.909 82.08 141.839 81.9935 141.839C81.9069 141.839 81.8361 141.909 81.8361 141.996ZM131.81 141.985C131.76 142.066 131.792 142.176 131.88 142.23C131.967 142.285 132.039 142.219 132.039 142.084C132.039 141.807 131.945 141.767 131.81 141.985ZM144.03 142.008C144.061 142.101 144.154 142.177 144.236 142.177C144.318 142.177 144.411 142.101 144.442 142.008C144.473 141.915 144.38 141.839 144.236 141.839C144.092 141.839 143.999 141.915 144.03 142.008ZM6.45246 142.547C6.45246 142.691 6.52863 142.783 6.62164 142.752C6.71465 142.721 6.79082 142.629 6.79082 142.547C6.79082 142.464 6.71465 142.372 6.62164 142.341C6.52863 142.31 6.45246 142.402 6.45246 142.547ZM152.341 142.861C152.341 143.006 152.417 143.098 152.51 143.067C152.603 143.036 152.679 142.944 152.679 142.861C152.679 142.779 152.603 142.686 152.51 142.655C152.417 142.624 152.341 142.717 152.341 142.861ZM52.9481 144.057C52.8894 144.151 52.9445 144.332 53.0704 144.458C53.2706 144.658 53.3238 144.657 53.4959 144.45C53.6042 144.319 53.647 144.139 53.5912 144.048C53.4582 143.833 53.0831 143.838 52.9481 144.057ZM95.9229 144.359C95.9774 144.447 96.0877 144.478 96.1683 144.428C96.3866 144.293 96.346 144.199 96.0694 144.199C95.9346 144.199 95.8686 144.271 95.9229 144.359ZM16.3191 145.086C16.1933 145.212 16.3354 145.458 16.5339 145.458C16.6154 145.458 16.682 145.351 16.682 145.222C16.682 144.978 16.4963 144.909 16.3191 145.086ZM105.513 145.786C105.351 146.048 105.715 146.349 105.933 146.132C106.114 145.951 106.001 145.615 105.757 145.615C105.681 145.615 105.571 145.692 105.513 145.786ZM119.843 145.93C119.714 146.137 119.902 146.432 120.09 146.316C120.281 146.198 120.28 145.772 120.088 145.772C120.007 145.772 119.896 145.843 119.843 145.93ZM88.3588 146.73C88.1967 146.993 88.5613 147.293 88.7785 147.076C88.9601 146.895 88.8465 146.559 88.6033 146.559C88.527 146.559 88.417 146.636 88.3588 146.73ZM34.623 146.952C34.623 147.082 34.7292 147.188 34.859 147.188C34.9889 147.188 35.0951 147.082 35.0951 146.952C35.0951 146.823 34.9889 146.716 34.859 146.716C34.7292 146.716 34.623 146.823 34.623 146.952ZM75.4623 147.031C75.5158 147.118 75.6262 147.188 75.7077 147.188C75.7892 147.188 75.8558 147.118 75.8558 147.031C75.8558 146.945 75.7453 146.874 75.6104 146.874C75.4756 146.874 75.4088 146.945 75.4623 147.031ZM45.8885 147.167C45.8207 147.277 45.8078 147.409 45.8597 147.461C46.0005 147.602 46.1541 147.395 46.078 147.167C46.0248 147.007 45.9876 147.007 45.8885 147.167ZM0 149.077C0 149.163 0.0708197 149.234 0.157377 149.234C0.243935 149.234 0.314754 149.163 0.314754 149.077C0.314754 148.99 0.243935 148.919 0.157377 148.919C0.0708197 148.919 0 148.99 0 149.077ZM138.334 149.313C138.334 149.442 138.441 149.549 138.571 149.549C138.7 149.549 138.807 149.442 138.807 149.313C138.807 149.183 138.7 149.077 138.571 149.077C138.441 149.077 138.334 149.183 138.334 149.313ZM126.846 149.391C126.846 149.478 126.917 149.549 127.003 149.549C127.09 149.549 127.161 149.478 127.161 149.391C127.161 149.305 127.09 149.234 127.003 149.234C126.917 149.234 126.846 149.305 126.846 149.391ZM98.1495 150.599C98.0925 150.656 98.046 150.797 98.046 150.912C98.046 151.147 98.4517 151.2 98.5857 150.983C98.6929 150.809 98.2918 150.457 98.1495 150.599ZM63.8164 151.122C63.688 151.33 63.8762 151.624 64.0633 151.509C64.2546 151.391 64.2533 150.965 64.0618 150.965C63.9803 150.965 63.8699 151.036 63.8164 151.122ZM22.8197 151.752C22.8197 151.838 22.8905 151.909 22.9771 151.909C23.0636 151.909 23.1344 151.838 23.1344 151.752C23.1344 151.665 23.0636 151.594 22.9771 151.594C22.8905 151.594 22.8197 151.665 22.8197 151.752ZM113.893 151.695C113.767 151.82 113.909 152.066 114.108 152.066C114.189 152.066 114.256 151.96 114.256 151.83C114.256 151.587 114.07 151.518 113.893 151.695ZM54.4525 152.381C54.4525 152.467 54.5233 152.538 54.6099 152.538C54.6964 152.538 54.7672 152.467 54.7672 152.381C54.7672 152.294 54.6964 152.224 54.6099 152.224C54.5233 152.224 54.4525 152.294 54.4525 152.381ZM82.5526 152.682C82.502 152.764 82.5276 152.873 82.6096 152.923C82.6916 152.974 82.8 152.948 82.8507 152.866C82.9014 152.784 82.8757 152.676 82.7937 152.625C82.7118 152.575 82.6033 152.6 82.5526 152.682ZM157.143 152.856C157.197 152.943 157.307 152.975 157.388 152.925C157.606 152.79 157.566 152.696 157.289 152.696C157.154 152.696 157.088 152.768 157.143 152.856ZM10.5443 153.954C10.5443 154.041 10.6151 154.112 10.7016 154.112C10.7882 154.112 10.859 154.041 10.859 153.954C10.859 153.868 10.7882 153.797 10.7016 153.797C10.6151 153.797 10.5443 153.868 10.5443 153.954ZM31.5625 155.357C31.5118 155.439 31.5374 155.548 31.6194 155.598C31.7014 155.649 31.8099 155.623 31.8605 155.541C31.9112 155.459 31.8856 155.351 31.8036 155.3C31.7216 155.25 31.6131 155.275 31.5625 155.357ZM74.282 155.371C74.282 155.457 74.3528 155.528 74.4394 155.528C74.5259 155.528 74.5968 155.457 74.5968 155.371C74.5968 155.284 74.5259 155.213 74.4394 155.213C74.3528 155.213 74.282 155.284 74.282 155.371ZM44.5377 155.528C44.5377 155.615 44.6085 155.685 44.6951 155.685C44.7817 155.685 44.8525 155.615 44.8525 155.528C44.8525 155.441 44.7817 155.371 44.6951 155.371C44.6085 155.371 44.5377 155.441 44.5377 155.528ZM130.308 155.843C130.308 155.929 130.379 156 130.466 156C130.552 156 130.623 155.929 130.623 155.843C130.623 155.756 130.552 155.685 130.466 155.685C130.379 155.685 130.308 155.756 130.308 155.843Z" fill="url(#paint0_linear_29234_33111)"/>
</g>
<defs>
<filter id="filter0_n_29234_33111" x="0" y="4" width="160" height="152" filterUnits="userSpaceOnUse" color-interpolation-filters="sRGB">
<feFlood flood-opacity="0" result="BackgroundImageFix"/>
<feBlend mode="normal" in="SourceGraphic" in2="BackgroundImageFix" result="shape"/>
<feTurbulence type="fractalNoise" baseFrequency="12.005715370178223 12.005715370178223" stitchTiles="stitch" numOctaves="3" result="noise" seed="9169" />
<feColorMatrix in="noise" type="luminanceToAlpha" result="alphaNoise" />
<feComponentTransfer in="alphaNoise" result="coloredNoise1">
<feFuncA type="discrete" tableValues="1 1 1 1 1 1 1 1 1 1 1 1 1 1 1 1 1 1 1 1 1 1 1 1 1 1 1 1 1 1 1 1 1 1 1 1 1 1 1 1 1 1 1 1 1 1 1 1 1 1 1 0 0 0 0 0 0 0 0 0 0 0 0 0 0 0 0 0 0 0 0 0 0 0 0 0 0 0 0 0 0 0 0 0 0 0 0 0 0 0 0 0 0 0 0 0 0 0 0 0 "/>
</feComponentTransfer>
<feComposite operator="in" in2="shape" in="coloredNoise1" result="noise1Clipped" />
<feComponentTransfer in="alphaNoise" result="coloredNoise2">
<feFuncA type="discrete" tableValues="0 0 0 0 0 0 0 0 0 0 0 0 0 0 0 0 0 0 0 0 0 0 0 0 0 0 0 0 0 0 0 0 0 0 0 0 0 0 0 0 0 0 0 0 0 0 0 0 0 1 1 1 1 1 1 1 1 1 1 1 1 1 1 1 1 1 1 1 1 1 1 1 1 1 1 1 1 1 1 1 1 1 1 1 1 1 1 1 1 1 1 1 1 1 1 1 1 1 1 1 "/>
</feComponentTransfer>
<feComposite operator="in" in2="shape" in="coloredNoise2" result="noise2Clipped" />
<feFlood flood-color="rgba(0, 0, 0, 0.25)" result="color1Flood" />
<feComposite operator="in" in2="noise1Clipped" in="color1Flood" result="color1" />
<feFlood flood-color="rgba(255, 255, 255, 0.25)" result="color2Flood" />
<feComposite operator="in" in2="noise2Clipped" in="color2Flood" result="color2" />
<feMerge result="effect1_noise_29234_33111">
<feMergeNode in="shape" />
<feMergeNode in="color1" />
<feMergeNode in="color2" />
</feMerge>
</filter>
<linearGradient id="paint0_linear_29234_33111" x1="159.791" y1="4" x2="7.99075" y2="163.79" gradientUnits="userSpaceOnUse">
<stop stop-color="#1EDFAD"/>
<stop offset="0.5" stop-color="#11A7ED"/>
<stop offset="1" stop-color="#9738F5"/>
</linearGradient>
</defs>
</svg>
