<svg width="160" height="160" viewBox="0 0 160 160" fill="none" xmlns="http://www.w3.org/2000/svg">
<g filter="url(#filter0_n_29234_33119)">
<path fill-rule="evenodd" clip-rule="evenodd" d="M117.253 0.18648C117.253 0.289044 117.337 0.37296 117.44 0.37296C117.543 0.37296 117.627 0.289044 117.627 0.18648C117.627 0.0839161 117.543 0 117.44 0C117.337 0 117.253 0.0839161 117.253 0.18648ZM96.6929 0.481678C96.6929 0.811002 97.0953 0.753754 97.2108 0.408019C97.2515 0.286061 97.1516 0.18648 96.9888 0.18648C96.826 0.18648 96.6929 0.319441 96.6929 0.481678ZM124.169 0.37296C124.169 0.475524 124.253 0.559441 124.356 0.559441C124.459 0.559441 124.543 0.475524 124.543 0.37296C124.543 0.270396 124.459 0.18648 124.356 0.18648C124.253 0.18648 124.169 0.270396 124.169 0.37296ZM83.609 1.67832C83.609 1.78089 83.6931 1.8648 83.7959 1.8648C83.8987 1.8648 83.9829 1.78089 83.9829 1.67832C83.9829 1.57576 83.8987 1.49184 83.7959 1.49184C83.6931 1.49184 83.609 1.57576 83.609 1.67832ZM37.4418 2.7972C37.4418 2.89977 37.5259 2.98368 37.6287 2.98368C37.7315 2.98368 37.8156 2.89977 37.8156 2.7972C37.8156 2.69464 37.7315 2.61072 37.6287 2.61072C37.5259 2.61072 37.4418 2.69464 37.4418 2.7972ZM153.421 2.7972C153.357 2.89977 153.441 2.98368 153.608 2.98368C153.774 2.98368 153.858 2.89977 153.794 2.7972C153.731 2.69464 153.647 2.61072 153.608 2.61072C153.568 2.61072 153.484 2.69464 153.421 2.7972ZM33.7035 3.54312C33.7035 3.64569 33.7876 3.7296 33.8904 3.7296C33.9932 3.7296 34.0774 3.64569 34.0774 3.54312C34.0774 3.44056 33.9932 3.35664 33.8904 3.35664C33.7876 3.35664 33.7035 3.44056 33.7035 3.54312ZM134.449 4.76625C134.449 4.92606 134.533 5.00513 134.636 4.94172C134.739 4.87832 134.823 4.7476 134.823 4.651C134.823 4.55441 134.739 4.47552 134.636 4.47552C134.533 4.47552 134.449 4.60643 134.449 4.76625ZM64.9178 4.84848C64.9178 4.95105 65.0019 5.03497 65.1047 5.03497C65.2075 5.03497 65.2917 4.95105 65.2917 4.84848C65.2917 4.74592 65.2075 4.662 65.1047 4.662C65.0019 4.662 64.9178 4.74592 64.9178 4.84848ZM73.7027 5.22145C73.7027 5.32401 73.7868 5.40793 73.8896 5.40793C73.9924 5.40793 74.0765 5.32401 74.0765 5.22145C74.0765 5.11888 73.9924 5.03497 73.8896 5.03497C73.7868 5.03497 73.7027 5.11888 73.7027 5.22145ZM109.777 5.96737C109.777 6.06993 109.866 6.15385 109.975 6.15385C110.083 6.15385 110.121 6.06993 110.057 5.96737C109.994 5.8648 109.905 5.78089 109.859 5.78089C109.814 5.78089 109.777 5.8648 109.777 5.96737ZM151.738 7.08625C151.802 7.18881 151.891 7.27273 151.936 7.27273C151.982 7.27273 152.019 7.18881 152.019 7.08625C152.019 6.98368 151.93 6.89977 151.821 6.89977C151.712 6.89977 151.675 6.98368 151.738 7.08625ZM10.5264 8.21613C10.5264 8.32466 10.6106 8.36177 10.7134 8.29837C10.8162 8.23496 10.9003 8.1462 10.9003 8.10089C10.9003 8.05557 10.8162 8.01865 10.7134 8.01865C10.6106 8.01865 10.5264 8.1076 10.5264 8.21613ZM60.245 10.6294C60.245 10.7319 60.3291 10.8159 60.4319 10.8159C60.5347 10.8159 60.6189 10.7319 60.6189 10.6294C60.6189 10.5268 60.5347 10.4429 60.4319 10.4429C60.3291 10.4429 60.245 10.5268 60.245 10.6294ZM71.6467 10.8269C71.6467 10.9354 71.7308 10.9725 71.8336 10.9091C71.9364 10.8457 72.0205 10.7569 72.0205 10.7116C72.0205 10.6663 71.9364 10.6294 71.8336 10.6294C71.7308 10.6294 71.6467 10.7183 71.6467 10.8269ZM140.617 13.4266C140.617 13.5291 140.701 13.6131 140.804 13.6131C140.907 13.6131 140.991 13.5291 140.991 13.4266C140.991 13.324 140.907 13.2401 140.804 13.2401C140.701 13.2401 140.617 13.324 140.617 13.4266ZM29.498 14.359C29.4345 14.4615 29.4717 14.5455 29.5804 14.5455C29.6892 14.5455 29.7784 14.4615 29.7784 14.359C29.7784 14.2564 29.7414 14.1725 29.6959 14.1725C29.6505 14.1725 29.5616 14.2564 29.498 14.359ZM117.72 15.1049C117.564 15.3574 117.775 15.6643 118.105 15.6643C118.254 15.6643 118.375 15.4965 118.375 15.2914C118.375 14.9054 117.924 14.7767 117.72 15.1049ZM47.8154 15.4779C47.7518 15.5804 47.789 15.6643 47.8978 15.6643C48.0066 15.6643 48.0958 15.5804 48.0958 15.4779C48.0958 15.3753 48.0587 15.2914 48.0133 15.2914C47.9679 15.2914 47.8789 15.3753 47.8154 15.4779ZM65.8524 16.2348C65.8524 16.3433 65.9365 16.3804 66.0393 16.317C66.1421 16.2536 66.2262 16.1648 66.2262 16.1195C66.2262 16.0742 66.1421 16.0373 66.0393 16.0373C65.9365 16.0373 65.8524 16.1262 65.8524 16.2348ZM54.8246 16.9697C54.8246 17.0723 54.9087 17.1562 55.0115 17.1562C55.1143 17.1562 55.1984 17.0723 55.1984 16.9697C55.1984 16.8671 55.1143 16.7832 55.0115 16.7832C54.9087 16.7832 54.8246 16.8671 54.8246 16.9697ZM27.2551 17.1562C27.1915 17.2587 27.2287 17.3427 27.3375 17.3427C27.4463 17.3427 27.5354 17.2587 27.5354 17.1562C27.5354 17.0536 27.4984 16.9697 27.453 16.9697C27.4076 16.9697 27.3186 17.0536 27.2551 17.1562ZM8.65732 18.2751C8.65732 18.3776 8.74143 18.4615 8.84423 18.4615C8.94704 18.4615 9.03115 18.3776 9.03115 18.2751C9.03115 18.1725 8.94704 18.0886 8.84423 18.0886C8.74143 18.0886 8.65732 18.1725 8.65732 18.2751ZM77.5787 18.7185C76.6798 19.051 76.6353 19.0849 73.7728 21.6101C68.4796 26.2793 59.746 31.151 52.0209 33.7432C46.4674 35.6069 41.4686 36.5848 35.427 36.9898C31.4398 37.2571 31.1197 37.3622 30.4797 38.6146C30.1772 39.2062 30.1528 40.2764 30.1526 52.8873L30.1522 66.5205L28.999 67.2306C26.7024 68.6448 24.9009 71.0038 24.3738 73.2867C24.0897 74.5175 24.1295 76.7793 24.4576 78.0354C25.2338 81.0087 27.4738 83.4064 30.4787 84.4807C31.5791 84.874 31.658 84.9425 31.8471 85.6658C33.5564 92.2046 37.0653 99.0202 41.9736 105.335C43.9145 107.831 49.0677 113.005 51.6471 115.047C52.7265 115.901 53.633 116.619 53.6616 116.642C53.6902 116.666 52.3445 116.644 50.671 116.593C47.281 116.491 45.2756 116.69 42.3966 117.415C39.2772 118.2 35.75 119.714 32.6301 121.608C31.1064 122.533 26.1147 125.967 25.5261 126.494C24.8161 127.131 25.0703 128.112 25.9452 128.112C26.1603 128.112 27.5104 127.308 28.9451 126.325C34.1045 122.79 37.4451 121.012 41.3669 119.712C45.2874 118.412 48.3455 118.036 52.0209 118.403C57.5746 118.957 62.3175 120.401 69.4037 123.696C74.0369 125.85 74.5075 125.966 78.5624 125.96C80.3614 125.957 82.7586 125.84 83.8894 125.699C86.8551 125.328 92.335 125.354 93.9359 125.746C95.5469 126.141 97.257 127.001 97.8669 127.724C99.3394 129.47 98.7498 132.11 96.663 133.115C94.7972 134.013 85.9254 134.696 75.8522 134.716C68.6224 134.731 68.0537 134.708 65.8017 134.301C64.4887 134.065 63.1009 133.897 62.7177 133.928C62.1162 133.978 62.0127 134.055 61.9622 134.491C61.913 134.917 62.0085 135.041 62.5665 135.273C64.01 135.875 68.3071 136.634 72.8616 137.092C76.521 137.461 85.2453 137.412 89.0295 137.003C94.6342 136.396 96.9824 135.74 98.5338 134.349C99.1061 133.836 99.6356 133.52 99.9246 133.52C100.952 133.52 104.821 132.382 106.513 131.582C109.338 130.247 111.279 128.835 118.844 122.614C122.543 119.572 123.501 118.929 124.952 118.513C125.782 118.275 126.175 118.251 126.737 118.402C128.15 118.781 128.953 120.198 128.462 121.444C127.994 122.63 126.102 124.895 122.682 128.365C117.506 133.616 111.651 138.673 109.496 139.754C108.982 140.012 106.333 140.894 103.609 141.714C98.7732 143.168 94.3406 144.539 87.7211 146.626C81.033 148.735 77.6865 149.185 74.1328 148.454C71.8018 147.975 64.0003 145.681 57.0101 143.42C51.4189 141.612 48.3748 140.845 46.0836 140.67C44.8749 140.577 44.3437 140.639 42.8432 141.047C40.0658 141.802 36.3164 143.387 35.7801 144.031C35.4257 144.457 35.6042 145.128 36.1536 145.434C36.6119 145.69 36.8152 145.637 39.552 144.555C43.7078 142.912 44.6633 142.71 46.8332 143.016C49.2823 143.362 50.6755 143.748 56.6003 145.728C63.4162 148.006 70.2342 149.894 74.17 150.596C78.6772 151.399 82.4735 150.593 98.3751 145.457C101.202 144.544 104.633 143.447 105.999 143.021C111.486 141.307 113.967 139.517 122.653 131.007C128.465 125.312 130.069 123.323 130.435 121.357C130.757 119.623 129.509 117.466 127.81 116.819C127.35 116.643 126.973 116.4 126.973 116.279C126.973 116.158 126.843 115.622 126.684 115.089C125.673 111.694 121.963 111.373 118.072 114.344L116.928 115.218L116.109 114.934C115.092 114.581 113.679 114.715 112.217 115.305C111.573 115.564 109.474 116.992 106.781 119.002C102.172 122.442 99.2422 124.505 98.2497 125.008C97.677 125.299 97.6157 125.29 96.4245 124.733C95.6202 124.358 94.5359 124.057 93.3049 123.868L91.418 123.577L93.8217 122.379C109.501 114.563 120.943 101.487 125.654 86.0009L126.353 83.7035L127.6 82.5798C129.614 80.767 130.505 79.1896 130.896 76.7463C131.274 74.3866 130.362 71.2507 128.768 69.429L128.085 68.648L128.09 54.3241C128.093 44.9716 128.027 39.7593 127.9 39.3065C127.644 38.391 126.917 37.5532 126.172 37.3151C125.841 37.2093 124.015 37.0398 122.113 36.9386C114.18 36.5162 106.412 34.394 98.4685 30.4791C93.0827 27.8247 88.6446 24.9274 84.0991 21.0978C82.8782 20.069 81.5745 19.0807 81.202 18.9014C80.3213 18.4774 78.4813 18.3845 77.5787 18.7185ZM99.9638 19.021C100.027 19.1235 100.116 19.2075 100.162 19.2075C100.207 19.2075 100.244 19.1235 100.244 19.021C100.244 18.9184 100.155 18.8345 100.046 18.8345C99.9375 18.8345 99.9003 18.9184 99.9638 19.021ZM63.4225 20.3263C63.4225 20.4289 63.5066 20.5128 63.6094 20.5128C63.7122 20.5128 63.7964 20.4289 63.7964 20.3263C63.7964 20.2238 63.7122 20.1399 63.6094 20.1399C63.5066 20.1399 63.4225 20.2238 63.4225 20.3263ZM153.853 20.4537C153.988 20.5076 154.149 20.5009 154.211 20.439C154.273 20.3771 154.163 20.3331 153.966 20.3411C153.748 20.35 153.704 20.3942 153.853 20.4537ZM77.1611 21.1955C76.8531 21.366 75.8438 22.1729 74.9182 22.9889C68.3764 28.7564 58.9458 33.7501 49.4492 36.4755C44.1005 38.0106 40.8024 38.5613 35.9547 38.7286C32.6877 38.8414 32.4824 38.8703 32.0763 39.2755L31.6475 39.7033L31.6473 52.9054L31.6471 66.1072L33.3805 66.044C34.7257 65.995 35.3532 66.0615 36.1827 66.3409C36.7706 66.5389 37.2945 66.6583 37.3466 66.6061C37.399 66.554 37.4418 61.4931 37.4418 55.3602C37.4418 44.9296 37.4629 44.1979 37.7689 44.0373C37.9487 43.9429 39.1053 43.7695 40.3389 43.652C52.7914 42.4649 64.6612 37.7548 75.2371 29.8038C76.4408 28.899 77.6075 28.1585 77.8297 28.1585C78.0521 28.1585 79.3725 29.0029 80.7642 30.0351C91.6997 38.1449 102.539 42.4947 114.678 43.6446C116.231 43.7915 117.079 43.9554 117.3 44.1511C117.604 44.4201 117.627 45.1972 117.627 55.4171V66.394L118.141 66.2506C118.792 66.0692 121.823 66.0636 122.627 66.2424L123.234 66.3776V52.9557C123.234 39.7824 123.227 39.5269 122.861 39.1608C122.53 38.8315 122.238 38.7879 120.357 38.7879C115.132 38.7879 108.347 37.5454 102.471 35.5124C94.9591 32.9137 86.8875 28.2061 80.8209 22.885C78.5977 20.9352 78.0712 20.692 77.1611 21.1955ZM112.767 21.0833C112.767 21.1918 112.851 21.2289 112.954 21.1655C113.057 21.1021 113.141 21.0133 113.141 20.968C113.141 20.9227 113.057 20.8858 112.954 20.8858C112.851 20.8858 112.767 20.9747 112.767 21.0833ZM131.567 22.9121C131.487 23.042 131.472 23.1987 131.533 23.2602C131.701 23.4271 131.883 23.1817 131.793 22.9113C131.729 22.7219 131.685 22.7219 131.567 22.9121ZM103.982 23.31C103.982 23.4126 104.072 23.4965 104.18 23.4965C104.289 23.4965 104.326 23.4126 104.263 23.31C104.199 23.2075 104.11 23.1235 104.065 23.1235C104.019 23.1235 103.982 23.2075 103.982 23.31ZM21.7412 23.8695C21.7412 23.972 21.8253 24.0559 21.9281 24.0559C22.0309 24.0559 22.115 23.972 22.115 23.8695C22.115 23.7669 22.0309 23.683 21.9281 23.683C21.8253 23.683 21.7412 23.7669 21.7412 23.8695ZM59.7796 24.9913C59.8443 25.0956 59.9753 25.1327 60.071 25.0736C60.3303 24.9138 60.282 24.8019 59.9536 24.8019C59.7935 24.8019 59.7151 24.8871 59.7796 24.9913ZM50.8357 26.2456C50.7815 26.3332 50.8073 26.5179 50.8929 26.656C51.0824 26.962 51.7108 26.7644 51.6004 26.4334C51.5069 26.1533 50.974 26.0224 50.8357 26.2456ZM12.2963 26.676C12.1187 26.9628 12.3619 27.1478 12.6019 26.9083C12.7361 26.7745 12.7393 26.6702 12.6116 26.5915C12.507 26.527 12.3651 26.565 12.2963 26.676ZM157.626 28.0653C157.626 28.2191 157.71 28.345 157.813 28.345C157.916 28.345 158 28.2191 158 28.0653C158 27.9114 157.916 27.7855 157.813 27.7855C157.71 27.7855 157.626 27.9114 157.626 28.0653ZM112.855 28.7273C112.677 29.0141 112.921 29.1991 113.161 28.9596C113.295 28.8257 113.298 28.7215 113.17 28.6428C113.066 28.5783 112.924 28.6163 112.855 28.7273ZM43.0491 29.2774C43.0491 29.38 43.1332 29.4639 43.236 29.4639C43.3388 29.4639 43.423 29.38 43.423 29.2774C43.423 29.1748 43.3388 29.0909 43.236 29.0909C43.1332 29.0909 43.0491 29.1748 43.0491 29.2774ZM76.5064 30.987C74.9088 32.2467 69.9506 35.5021 67.7636 36.7271C59.5383 41.3339 50.6178 44.2454 41.7407 45.2205C40.3529 45.3729 39.1544 45.4984 39.0772 45.4993C39.0001 45.5004 38.9371 50.4942 38.9371 56.5967C38.9371 62.9725 39.0079 67.6923 39.1038 67.6923C39.4367 67.6923 41.163 69.3995 41.8034 70.3621C42.846 71.9295 43.2828 73.4536 43.2826 75.5245C43.2822 78.1516 42.4344 80.4144 40.8023 82.1445L40.2746 82.704L40.9011 84.7552C42.5142 90.0362 45.4655 95.4887 49.3292 100.326C51.9276 103.58 56.6229 107.842 60.3867 110.365C64.4233 113.07 71.0837 116.621 75.6873 118.523L77.248 119.167L80.5687 117.659C84.8473 115.715 89.3693 113.387 91.7659 111.894C102.831 105.001 110.208 96.2007 113.977 85.3967L114.65 83.4683L113.815 82.7567C112.664 81.7745 111.53 80.0114 111.062 78.4752C110.544 76.773 110.629 73.9151 111.245 72.3347C111.995 70.411 113.494 68.5546 115.152 67.498L115.948 66.9906L115.993 56.2458C116.023 49.178 115.974 45.5006 115.851 45.4993C115.121 45.4924 110.425 44.8828 108.699 44.5708C98.6938 42.7625 88.4235 38.091 79.7095 31.3848C78.8499 30.7234 78.0508 30.1475 77.9338 30.1055C77.817 30.0634 77.1746 30.46 76.5064 30.987ZM136.131 31.06C136.131 31.2198 136.215 31.2988 136.318 31.2354C136.421 31.172 136.505 31.0413 136.505 30.9447C136.505 30.8481 136.421 30.7692 136.318 30.7692C136.215 30.7692 136.131 30.9001 136.131 31.06ZM30.4326 31.7016C30.369 31.8042 30.4531 31.8881 30.6195 31.8881C30.7858 31.8881 30.8699 31.8042 30.8064 31.7016C30.7428 31.5991 30.6587 31.5152 30.6195 31.5152C30.5802 31.5152 30.4961 31.5991 30.4326 31.7016ZM142.954 33.5664C143.017 33.669 143.106 33.7529 143.152 33.7529C143.197 33.7529 143.234 33.669 143.234 33.5664C143.234 33.4639 143.145 33.38 143.036 33.38C142.927 33.38 142.89 33.4639 142.954 33.5664ZM140.43 36.7366C140.43 36.8392 140.514 36.9231 140.617 36.9231C140.72 36.9231 140.804 36.8392 140.804 36.7366C140.804 36.634 140.72 36.5501 140.617 36.5501C140.514 36.5501 140.43 36.634 140.43 36.7366ZM151.645 38.2284C151.645 38.331 151.729 38.4149 151.832 38.4149C151.935 38.4149 152.019 38.331 152.019 38.2284C152.019 38.1259 151.935 38.042 151.832 38.042C151.729 38.042 151.645 38.1259 151.645 38.2284ZM87.5342 41.3986C87.5342 41.5012 87.6183 41.5851 87.7211 41.5851C87.8239 41.5851 87.908 41.5012 87.908 41.3986C87.908 41.296 87.8239 41.2121 87.7211 41.2121C87.6183 41.2121 87.5342 41.296 87.5342 41.3986ZM79.7773 42.5175C79.7138 42.62 79.793 42.704 79.9532 42.704C80.1134 42.704 80.2446 42.62 80.2446 42.5175C80.2446 42.4149 80.1656 42.331 80.0687 42.331C79.9719 42.331 79.8409 42.4149 79.7773 42.5175ZM136.692 44.5688C136.692 44.6713 136.776 44.7552 136.879 44.7552C136.982 44.7552 137.066 44.6713 137.066 44.5688C137.066 44.4662 136.982 44.3823 136.879 44.3823C136.776 44.3823 136.692 44.4662 136.692 44.5688ZM65.6655 45.1282C65.6655 45.2308 65.7496 45.3147 65.8524 45.3147C65.9552 45.3147 66.0393 45.2308 66.0393 45.1282C66.0393 45.0256 65.9552 44.9417 65.8524 44.9417C65.7496 44.9417 65.6655 45.0256 65.6655 45.1282ZM85.9535 45.1153C85.8152 45.3386 86.1667 45.5595 86.4157 45.4061C86.6249 45.2772 86.4875 44.9417 86.2258 44.9417C86.1351 44.9417 86.0125 45.0199 85.9535 45.1153ZM23.8906 45.5012C23.8271 45.6037 23.8643 45.6876 23.9731 45.6876C24.0819 45.6876 24.171 45.6037 24.171 45.5012C24.171 45.3986 24.134 45.3147 24.0886 45.3147C24.0432 45.3147 23.9542 45.3986 23.8906 45.5012ZM17.2553 46.0606C17.2553 46.1632 17.3394 46.2471 17.4422 46.2471C17.545 46.2471 17.6291 46.1632 17.6291 46.0606C17.6291 45.958 17.545 45.8741 17.4422 45.8741C17.3394 45.8741 17.2553 45.958 17.2553 46.0606ZM51.1798 46.4336C51.1163 46.5361 51.1535 46.62 51.2622 46.62C51.371 46.62 51.4602 46.5361 51.4602 46.4336C51.4602 46.331 51.4232 46.2471 51.3777 46.2471C51.3323 46.2471 51.2434 46.331 51.1798 46.4336ZM143.234 47.7389C143.234 47.8415 143.318 47.9254 143.421 47.9254C143.524 47.9254 143.608 47.8415 143.608 47.7389C143.608 47.6364 143.524 47.5524 143.421 47.5524C143.318 47.5524 143.234 47.6364 143.234 47.7389ZM107.267 48.9044C106.882 50.1911 106.527 50.6118 105.291 51.249C103.941 51.9444 103.893 52.2723 105.07 52.7772C106.244 53.2811 106.903 53.9694 107.317 55.1239C107.735 56.289 108.278 56.3884 108.525 55.3451C108.75 54.3959 109.964 53.0734 110.996 52.6527C112.099 52.2034 112.08 51.7041 110.947 51.3283C110.012 51.0187 108.995 49.923 108.541 48.7364C108.099 47.5815 107.645 47.6412 107.267 48.9044ZM21.6477 49.9767C21.5842 50.0793 21.6214 50.1632 21.7301 50.1632C21.8389 50.1632 21.9281 50.0793 21.9281 49.9767C21.9281 49.8741 21.8911 49.7902 21.8456 49.7902C21.8002 49.7902 21.7113 49.8741 21.6477 49.9767ZM138.748 50.1632C138.748 50.2657 138.832 50.3496 138.935 50.3496C139.038 50.3496 139.122 50.2657 139.122 50.1632C139.122 50.0606 139.038 49.9767 138.935 49.9767C138.832 49.9767 138.748 50.0606 138.748 50.1632ZM147.72 50.5361C147.72 50.6387 147.809 50.7226 147.918 50.7226C148.027 50.7226 148.064 50.6387 148 50.5361C147.937 50.4336 147.848 50.3496 147.802 50.3496C147.757 50.3496 147.72 50.4336 147.72 50.5361ZM53.8768 51.9099C51.7766 52.475 50.1927 53.9515 49.5866 55.9094C49.2329 57.0514 49.2172 57.6847 49.2172 70.7551C49.2172 85.7523 49.2019 85.531 50.3535 87.2009C51.1632 88.3752 53.654 90.5766 54.8195 91.1483L55.8526 91.655H77.8148H99.7769L100.831 91.1385C102.116 90.5091 103.288 89.2802 103.953 87.8648L104.45 86.8065L104.501 72.3543L104.553 57.9021L103.888 56.5585C103.168 55.1041 101.693 53.3578 100.607 52.6739C98.9293 51.617 99.8184 51.6539 76.3322 51.6675C59.8363 51.6772 54.5293 51.7345 53.8768 51.9099ZM134.075 52.028C134.075 52.1305 134.159 52.2145 134.262 52.2145C134.365 52.2145 134.449 52.1305 134.449 52.028C134.449 51.9254 134.365 51.8415 134.262 51.8415C134.159 51.8415 134.075 51.9254 134.075 52.028ZM142.112 52.7739C142.112 52.8765 142.197 52.9604 142.299 52.9604C142.402 52.9604 142.486 52.8765 142.486 52.7739C142.486 52.6713 142.402 52.5874 142.299 52.5874C142.197 52.5874 142.112 52.6713 142.112 52.7739ZM14.1406 53.0661C13.9705 53.5084 14.3692 53.8202 14.7264 53.5245C14.9477 53.3412 14.9664 53.2231 14.8049 53.0288C14.5249 52.6924 14.2791 52.7062 14.1406 53.0661ZM54.4496 53.694C53.0986 54.1041 52.076 54.9861 51.5168 56.2238C51.2039 56.9165 51.1759 57.9258 51.126 70.3709C51.0663 85.2222 51.0578 85.0982 52.2581 86.4623C52.5887 86.838 53.2805 87.341 53.7953 87.5802L54.7311 88.0149L76.2043 88.0168C92.5219 88.0183 97.8622 87.9642 98.4468 87.7919C99.5317 87.4721 101.037 85.9396 101.337 84.8485C101.513 84.2087 101.555 80.7547 101.514 70.303L101.459 56.5967L101.047 55.8277C100.82 55.4046 100.374 54.8403 100.057 54.5734C98.761 53.4859 99.5066 53.5183 76.2387 53.5358C64.5124 53.5446 54.7072 53.6158 54.4496 53.694ZM146.225 53.8928C146.225 53.9953 146.309 54.0793 146.411 54.0793C146.514 54.0793 146.598 53.9953 146.598 53.8928C146.598 53.7902 146.514 53.7063 146.411 53.7063C146.309 53.7063 146.225 53.7902 146.225 53.8928ZM139.971 54.9988C139.912 55.0943 139.949 55.225 140.053 55.2895C140.158 55.3538 140.243 55.2757 140.243 55.1159C140.243 54.7882 140.131 54.7401 139.971 54.9988ZM20.9057 57.983C20.5795 58.7043 20.5812 58.7282 20.9961 59.3982C21.4445 60.122 21.4642 60.1158 22.0318 59.0702C22.2873 58.5995 22.2759 58.5093 21.8847 57.9069C21.6516 57.548 21.4105 57.253 21.349 57.2517C21.2875 57.2505 21.0879 57.5795 20.9057 57.983ZM74.5875 58.3737C71.2977 59.1981 68.9613 62.5553 69.2832 65.9951C69.4716 68.0075 70.6476 70.0867 72.2543 71.2479C73.0268 71.8062 73.0096 71.8676 72.0205 72.074C70.6289 72.3646 68.6194 73.5273 67.3499 74.7763C64.8277 77.258 63.3859 81.7904 64.6687 83.2045C64.959 83.5245 65.595 83.5431 76.255 83.5431C87.285 83.5431 87.5424 83.5349 87.908 83.1702C88.6472 82.4326 88.3235 79.7372 87.2162 77.41C86.0492 74.9574 83.2132 72.637 80.5708 71.9733L79.6822 71.7501L80.5527 70.9857C82.9044 68.9205 83.7958 65.8085 82.8462 62.9777C81.9251 60.232 79.4706 58.372 76.6101 58.2525C75.8849 58.2223 74.9748 58.2767 74.5875 58.3737ZM137.253 60.2331C137.253 60.3357 137.337 60.4196 137.44 60.4196C137.542 60.4196 137.627 60.3357 137.627 60.2331C137.627 60.1305 137.542 60.0466 137.44 60.0466C137.337 60.0466 137.253 60.1305 137.253 60.2331ZM74.4975 61.1849C73.4388 61.7078 72.8351 62.4634 72.467 63.7266C71.2887 67.7701 75.2032 70.9973 78.5794 68.7657C80.5861 67.4393 80.8246 63.55 79.0045 61.8344C77.8374 60.7345 75.958 60.4636 74.4975 61.1849ZM113.235 62.0979C113.171 62.2005 113.208 62.2844 113.317 62.2844C113.426 62.2844 113.515 62.2005 113.515 62.0979C113.515 61.9953 113.478 61.9114 113.433 61.9114C113.387 61.9114 113.298 61.9953 113.235 62.0979ZM142.393 66.014C142.24 66.2601 142.464 66.6092 142.686 66.4722C142.913 66.3323 142.912 65.8275 142.684 65.8275C142.587 65.8275 142.456 65.9114 142.393 66.014ZM31.8813 68.1615C28.7988 68.8296 26.6011 71.1586 25.9973 74.397C25.4487 77.3404 27.1523 80.7269 29.923 82.2003C33.4226 84.0612 37.6569 82.9438 39.7946 79.5952C42.6379 75.1407 39.9593 69.0346 34.7439 68.0815C33.4155 67.8387 33.3647 67.8402 31.8813 68.1615ZM117.905 68.2143C115.734 68.9634 114.071 70.4056 113.171 72.3217C112.723 73.2753 112.674 73.592 112.674 75.5245C112.674 77.4995 112.716 77.7537 113.201 78.7409C113.982 80.3275 115.376 81.7505 116.85 82.4668C118.01 83.0297 118.228 83.0711 120.057 83.0739C121.916 83.0767 122.085 83.0439 123.278 82.4466C127.796 80.1848 128.895 74.1275 125.488 70.2663C123.765 68.3129 120.32 67.3809 117.905 68.2143ZM152.393 68.174C152.393 68.5033 152.795 68.4461 152.911 68.1003C152.951 67.9784 152.851 67.8788 152.689 67.8788C152.526 67.8788 152.393 68.0116 152.393 68.174ZM147.72 70.0343C147.72 70.1941 147.804 70.2732 147.907 70.2098C148.01 70.1464 148.094 70.0157 148.094 69.9191C148.094 69.8225 148.01 69.7436 147.907 69.7436C147.804 69.7436 147.72 69.8745 147.72 70.0343ZM32.8624 71.7522C31.4217 72.0103 30.3348 72.8048 29.8548 73.9513C29.5021 74.7935 29.5214 76.337 29.8937 77.0723C31.0617 79.3785 33.7609 80.0265 35.6676 78.4582C37.5403 76.9182 37.4926 74.0319 35.5693 72.5074C34.9205 71.9931 33.5899 71.6218 32.8624 71.7522ZM118.681 71.8816C115.96 72.849 115.225 76.8889 117.466 78.5507C118.798 79.5375 120.022 79.6701 121.493 78.9867C122.824 78.3685 123.474 77.3755 123.574 75.8066C123.664 74.4006 123.335 73.589 122.294 72.6508C121.2 71.6649 120.005 71.4105 118.681 71.8816ZM3.74042 73.0329C3.59107 73.1819 3.75985 73.4732 3.99555 73.4732C4.09237 73.4732 4.17144 73.3473 4.17144 73.1935C4.17144 72.9052 3.95088 72.8229 3.74042 73.0329ZM73.6343 73.57C70.2035 74.4377 67.129 77.504 66.6726 80.5128L66.5522 81.3054H76.3105H86.0686L85.9424 80.6993C85.5084 78.6159 83.5808 75.9881 81.6689 74.8735C79.2794 73.4805 76.0559 72.9576 73.6343 73.57ZM18.0029 75.1515C18.0029 75.2541 18.087 75.338 18.1898 75.338C18.2926 75.338 18.3767 75.2541 18.3767 75.1515C18.3767 75.049 18.2926 74.965 18.1898 74.965C18.087 74.965 18.0029 75.049 18.0029 75.1515ZM155.273 76.3405C155.114 76.7523 155.325 76.9624 155.611 76.6775C155.779 76.5093 155.78 76.405 155.614 76.2393C155.447 76.0733 155.366 76.0973 155.273 76.3405ZM7.72276 76.6434C7.72276 76.7459 7.80687 76.8298 7.90967 76.8298C8.01248 76.8298 8.09659 76.7459 8.09659 76.6434C8.09659 76.5408 8.01248 76.4569 7.90967 76.4569C7.80687 76.4569 7.72276 76.5408 7.72276 76.6434ZM150.337 79.4406C150.337 79.5431 150.421 79.627 150.524 79.627C150.626 79.627 150.71 79.5431 150.71 79.4406C150.71 79.338 150.626 79.2541 150.524 79.2541C150.421 79.2541 150.337 79.338 150.337 79.4406ZM16.1338 81.1189C16.1338 81.2214 16.2179 81.3054 16.3207 81.3054C16.4235 81.3054 16.5076 81.2214 16.5076 81.1189C16.5076 81.0163 16.4235 80.9324 16.3207 80.9324C16.2179 80.9324 16.1338 81.0163 16.1338 81.1189ZM136.038 82.2378C136.101 82.3403 136.19 82.4242 136.236 82.4242C136.281 82.4242 136.318 82.3403 136.318 82.2378C136.318 82.1352 136.229 82.0513 136.12 82.0513C136.011 82.0513 135.974 82.1352 136.038 82.2378ZM38.1894 84.0136C37.4648 84.4334 35.8582 84.869 34.534 85.0048L33.3308 85.1282L34.2757 87.9254C36.09 93.2971 39.5909 99.6168 43.4177 104.429C46.3664 108.137 51.3585 112.777 55.938 116.067C57.2058 116.978 57.7228 117.214 59.6688 117.773C62.6042 118.616 65.4049 119.663 70.2747 121.739C75.7279 124.064 75.4933 124.009 79.9964 124.009H83.7926L86.351 122.89C103.721 115.29 116.423 101.95 121.361 86.1203L121.7 85.035H120.054C118.963 85.035 118.024 84.9158 117.269 84.6812C116.643 84.4867 116.1 84.3819 116.062 84.4481C116.025 84.5145 115.76 85.2821 115.472 86.1538C113.95 90.7711 111.097 95.9375 107.749 100.14C102.969 106.138 96.0164 111.753 88.2818 115.86C84.7791 117.72 77.8071 120.839 77.1523 120.839C76.5432 120.839 72.4145 119.084 68.9725 117.362C57.9776 111.861 50.4615 105.554 44.9997 97.2494C42.5607 93.5403 40.3888 88.9516 39.2847 85.1748C39.0522 84.3799 38.8159 83.7326 38.7595 83.7361C38.7029 83.7399 38.4464 83.8646 38.1894 84.0136ZM11.8348 84.2068C11.8348 84.3666 11.9189 84.4457 12.0217 84.3823C12.1245 84.3189 12.2087 84.1881 12.2087 84.0916C12.2087 83.995 12.1245 83.9161 12.0217 83.9161C11.9189 83.9161 11.8348 84.047 11.8348 84.2068ZM22.4888 86.5268C22.4888 86.6294 22.5729 86.7133 22.6757 86.7133C22.7785 86.7133 22.8626 86.6294 22.8626 86.5268C22.8626 86.4242 22.7785 86.3403 22.6757 86.3403C22.5729 86.3403 22.4888 86.4242 22.4888 86.5268ZM148.374 88.0186C148.31 88.1212 148.348 88.2051 148.456 88.2051C148.565 88.2051 148.654 88.1212 148.654 88.0186C148.654 87.9161 148.617 87.8322 148.572 87.8322C148.527 87.8322 148.438 87.9161 148.374 88.0186ZM138.561 88.7646C138.561 88.8671 138.645 88.951 138.748 88.951C138.851 88.951 138.935 88.8671 138.935 88.7646C138.935 88.662 138.851 88.5781 138.748 88.5781C138.645 88.5781 138.561 88.662 138.561 88.7646ZM6.52597 89.1084C6.46129 89.2129 6.49942 89.3544 6.61064 89.423C6.89811 89.6002 7.08352 89.3576 6.84353 89.1181C6.70933 88.9842 6.60484 88.9811 6.52597 89.1084ZM17.2553 92.8671C17.2553 92.9697 17.3394 93.0536 17.4422 93.0536C17.545 93.0536 17.6291 92.9697 17.6291 92.8671C17.6291 92.7646 17.545 92.6806 17.4422 92.6806C17.3394 92.6806 17.2553 92.7646 17.2553 92.8671ZM130.466 93.007C130.422 93.084 130.331 93.4493 130.265 93.8189C130.111 94.6678 129.182 95.7236 128.094 96.2855C126.999 96.8511 126.927 97.241 127.848 97.6242C128.864 98.047 129.753 98.9576 130.271 100.107C130.525 100.67 130.818 101.07 130.948 101.03C131.075 100.992 131.388 100.529 131.645 100.002C132.26 98.7414 132.795 98.2025 133.907 97.7255C135.107 97.2104 135.132 96.7651 133.985 96.3282C132.979 95.945 131.736 94.612 131.428 93.5862C131.283 93.1012 131.104 92.8671 130.879 92.8671C130.696 92.8671 130.51 92.93 130.466 93.007ZM28.2831 93.986C28.2831 94.0886 28.3722 94.1725 28.481 94.1725C28.5898 94.1725 28.627 94.0886 28.5634 93.986C28.4999 93.8834 28.4109 93.7995 28.3655 93.7995C28.3201 93.7995 28.2831 93.8834 28.2831 93.986ZM102.3 94.1725C102.3 94.2751 102.384 94.359 102.487 94.359C102.59 94.359 102.674 94.2751 102.674 94.1725C102.674 94.0699 102.59 93.986 102.487 93.986C102.384 93.986 102.3 94.0699 102.3 94.1725ZM23.2365 96.0373C23.2365 96.1399 23.3206 96.2238 23.4234 96.2238C23.5262 96.2238 23.6103 96.1399 23.6103 96.0373C23.6103 95.9347 23.5262 95.8508 23.4234 95.8508C23.3206 95.8508 23.2365 95.9347 23.2365 96.0373ZM95.0107 96.0373C95.0107 96.1399 95.0948 96.2238 95.1976 96.2238C95.3004 96.2238 95.3845 96.1399 95.3845 96.0373C95.3845 95.9347 95.3004 95.8508 95.1976 95.8508C95.0948 95.8508 95.0107 95.9347 95.0107 96.0373ZM69.2168 97.7266C69.2168 97.8352 69.3009 97.8723 69.4037 97.8089C69.5065 97.7455 69.5906 97.6567 69.5906 97.6114C69.5906 97.5661 69.5065 97.5291 69.4037 97.5291C69.3009 97.5291 69.2168 97.6181 69.2168 97.7266ZM54.8246 98.648C54.8246 98.7506 54.9087 98.8345 55.0115 98.8345C55.1143 98.8345 55.1984 98.7506 55.1984 98.648C55.1984 98.5454 55.1143 98.4615 55.0115 98.4615C54.9087 98.4615 54.8246 98.5454 54.8246 98.648ZM99.3096 99.5804C99.3096 99.683 99.3937 99.7669 99.4966 99.7669C99.5993 99.7669 99.6835 99.683 99.6835 99.5804C99.6835 99.4779 99.5993 99.3939 99.4966 99.3939C99.3937 99.3939 99.3096 99.4779 99.3096 99.5804ZM19.7885 99.751C19.7283 99.8482 19.7588 99.9767 19.8562 100.037C19.9535 100.097 20.0823 100.066 20.1425 99.9692C20.2027 99.8721 20.1722 99.7436 20.0748 99.6835C19.9775 99.6235 19.8487 99.6539 19.7885 99.751ZM84.637 100.699C84.5735 100.802 84.6107 100.886 84.7195 100.886C84.8283 100.886 84.9174 100.802 84.9174 100.699C84.9174 100.597 84.8804 100.513 84.835 100.513C84.7896 100.513 84.7006 100.597 84.637 100.699ZM6.41438 101.259C6.41438 101.361 6.49849 101.445 6.60129 101.445C6.70409 101.445 6.7882 101.361 6.7882 101.259C6.7882 101.156 6.70409 101.072 6.60129 101.072C6.49849 101.072 6.41438 101.156 6.41438 101.259ZM138.374 101.259C138.374 101.361 138.463 101.445 138.572 101.445C138.681 101.445 138.718 101.361 138.655 101.259C138.591 101.156 138.502 101.072 138.457 101.072C138.411 101.072 138.374 101.156 138.374 101.259ZM80.8054 102.74C80.8054 102.836 80.8895 102.967 80.9923 103.03C81.0951 103.094 81.1792 103.015 81.1792 102.855C81.1792 102.695 81.0951 102.564 80.9923 102.564C80.8895 102.564 80.8054 102.643 80.8054 102.74ZM155.57 102.937C155.57 103.04 155.701 103.124 155.862 103.124C156.022 103.124 156.101 103.04 156.037 102.937C155.974 102.834 155.843 102.751 155.746 102.751C155.649 102.751 155.57 102.834 155.57 102.937ZM122.674 104.242C122.674 104.345 122.758 104.429 122.861 104.429C122.963 104.429 123.047 104.345 123.047 104.242C123.047 104.14 122.963 104.056 122.861 104.056C122.758 104.056 122.674 104.14 122.674 104.242ZM76.3195 104.429C76.3195 104.531 76.4036 104.615 76.5064 104.615C76.6092 104.615 76.6933 104.531 76.6933 104.429C76.6933 104.326 76.6092 104.242 76.5064 104.242C76.4036 104.242 76.3195 104.326 76.3195 104.429ZM91.2724 104.906C91.2724 105.066 91.3578 105.144 91.4623 105.08C91.5668 105.015 91.604 104.884 91.5447 104.789C91.3846 104.53 91.2724 104.578 91.2724 104.906ZM33.716 105.151C33.6063 105.356 33.5166 105.7 33.5166 105.916C33.5166 106.506 32.8572 107.678 32.2294 108.205C31.9236 108.462 31.2875 108.859 30.8161 109.086C29.3509 109.794 29.3754 110.543 30.8741 110.861C32.0213 111.105 33.5166 112.768 33.5166 113.801C33.5166 114.397 33.9252 114.918 34.2843 114.781C34.4441 114.72 34.7205 114.208 34.8985 113.645C35.3085 112.347 36.0736 111.477 37.3513 110.853C37.9042 110.583 38.3917 110.265 38.4346 110.146C38.5515 109.823 38.215 109.277 37.8988 109.277C37.4517 109.277 36.2014 108.41 35.6317 107.704C35.3422 107.345 34.9721 106.567 34.8093 105.974C34.4932 104.822 34.0654 104.5 33.716 105.151ZM65.1047 105.361C65.1047 105.464 65.1889 105.548 65.2917 105.548C65.3945 105.548 65.4786 105.464 65.4786 105.361C65.4786 105.259 65.3945 105.175 65.2917 105.175C65.1889 105.175 65.1047 105.259 65.1047 105.361ZM9.96571 106.305C9.96571 106.413 10.0498 106.45 10.1526 106.387C10.2554 106.324 10.3395 106.235 10.3395 106.189C10.3395 106.144 10.2554 106.107 10.1526 106.107C10.0498 106.107 9.96571 106.196 9.96571 106.305ZM120.244 108.531C120.244 108.634 120.328 108.718 120.431 108.718C120.533 108.718 120.618 108.634 120.618 108.531C120.618 108.429 120.533 108.345 120.431 108.345C120.328 108.345 120.244 108.429 120.244 108.531ZM85.9454 110.396C85.8819 110.499 85.966 110.583 86.1323 110.583C86.2987 110.583 86.3828 110.499 86.3193 110.396C86.2557 110.294 86.1716 110.21 86.1323 110.21C86.0931 110.21 86.009 110.294 85.9454 110.396ZM17.5356 111.329C17.4721 111.431 17.5562 111.515 17.7226 111.515C17.8889 111.515 17.973 111.431 17.9095 111.329C17.8459 111.226 17.7618 111.142 17.7226 111.142C17.6833 111.142 17.5992 111.226 17.5356 111.329ZM138.374 112.634C138.374 112.737 138.458 112.821 138.561 112.821C138.664 112.821 138.748 112.737 138.748 112.634C138.748 112.531 138.664 112.448 138.561 112.448C138.458 112.448 138.374 112.531 138.374 112.634ZM147.346 113.193C147.346 113.296 147.43 113.38 147.533 113.38C147.636 113.38 147.72 113.296 147.72 113.193C147.72 113.091 147.636 113.007 147.533 113.007C147.43 113.007 147.346 113.091 147.346 113.193ZM121.459 114.462C119.818 115.031 118.567 116.003 113.595 120.575C108.437 125.317 105.237 127.818 102.664 129.115C101.784 129.559 100.977 129.955 100.87 129.996C100.763 130.037 100.621 130.416 100.555 130.838L100.434 131.606L101.321 131.442C105.242 130.717 108.884 128.534 116.049 122.613C121.542 118.073 123.064 117.045 124.886 116.649C125.446 116.527 125.496 116.464 125.387 116.019C125.191 115.222 124.745 114.673 124.067 114.39C123.244 114.047 122.606 114.064 121.459 114.462ZM113.982 116.677C112.49 117.011 111.975 117.347 105.068 122.474C103.249 123.825 101.222 125.297 100.564 125.747C99.4536 126.506 99.3868 126.59 99.6373 126.919C99.7857 127.113 99.9913 127.503 100.094 127.786C100.197 128.068 100.36 128.298 100.457 128.298C101.269 128.298 105.621 125.297 108.936 122.451C111.952 119.862 115.173 116.848 115.082 116.701C114.984 116.543 114.615 116.535 113.982 116.677ZM13.7039 118.415C13.7039 118.517 13.7881 118.601 13.8909 118.601C13.9937 118.601 14.0778 118.517 14.0778 118.415C14.0778 118.312 13.9937 118.228 13.8909 118.228C13.7881 118.228 13.7039 118.312 13.7039 118.415ZM135.384 118.601C135.384 118.704 135.468 118.788 135.571 118.788C135.673 118.788 135.757 118.704 135.757 118.601C135.757 118.499 135.673 118.415 135.571 118.415C135.468 118.415 135.384 118.499 135.384 118.601ZM157.159 120.839C157.095 120.942 157.133 121.026 157.241 121.026C157.35 121.026 157.439 120.942 157.439 120.839C157.439 120.737 157.402 120.653 157.357 120.653C157.311 120.653 157.222 120.737 157.159 120.839ZM2.02195 122.517C1.9584 122.62 2.03765 122.704 2.19783 122.704C2.35802 122.704 2.48923 122.62 2.48923 122.517C2.48923 122.415 2.41016 122.331 2.31334 122.331C2.21652 122.331 2.0855 122.415 2.02195 122.517ZM20.8066 123.263C20.8066 123.366 20.8907 123.45 20.9935 123.45C21.0963 123.45 21.1804 123.366 21.1804 123.263C21.1804 123.161 21.0963 123.077 20.9935 123.077C20.8907 123.077 20.8066 123.161 20.8066 123.263ZM138 124.009C138 124.112 138.085 124.196 138.187 124.196C138.29 124.196 138.374 124.112 138.374 124.009C138.374 123.907 138.29 123.823 138.187 123.823C138.085 123.823 138 123.907 138 124.009ZM13.7039 124.196C13.7039 124.298 13.7881 124.382 13.8909 124.382C13.9937 124.382 14.0778 124.298 14.0778 124.196C14.0778 124.093 13.9937 124.009 13.8909 124.009C13.7881 124.009 13.7039 124.093 13.7039 124.196ZM156.972 127.552C156.908 127.655 156.946 127.739 157.054 127.739C157.163 127.739 157.252 127.655 157.252 127.552C157.252 127.45 157.215 127.366 157.17 127.366C157.125 127.366 157.036 127.45 156.972 127.552ZM4.26489 132.028C4.32844 132.131 4.41741 132.214 4.46283 132.214C4.50825 132.214 4.54526 132.131 4.54526 132.028C4.54526 131.925 4.4561 131.841 4.34732 131.841C4.23854 131.841 4.20134 131.925 4.26489 132.028ZM134.075 132.96C134.075 133.063 134.159 133.147 134.262 133.147C134.365 133.147 134.449 133.063 134.449 132.96C134.449 132.858 134.365 132.774 134.262 132.774C134.159 132.774 134.075 132.858 134.075 132.96ZM126.973 135.198C126.973 135.301 127.057 135.385 127.16 135.385C127.262 135.385 127.346 135.301 127.346 135.198C127.346 135.096 127.262 135.012 127.16 135.012C127.057 135.012 126.973 135.096 126.973 135.198ZM28.6569 137.332C28.6569 137.491 28.741 137.622 28.8438 137.622C28.9466 137.622 29.0307 137.544 29.0307 137.447C29.0307 137.35 28.9466 137.22 28.8438 137.156C28.741 137.093 28.6569 137.172 28.6569 137.332ZM132.393 137.622C132.393 137.725 132.477 137.809 132.58 137.809C132.683 137.809 132.767 137.725 132.767 137.622C132.767 137.52 132.683 137.436 132.58 137.436C132.477 137.436 132.393 137.52 132.393 137.622ZM142.86 138.648C142.86 138.819 142.951 138.929 143.061 138.892C143.172 138.855 143.262 138.746 143.262 138.648C143.262 138.55 143.172 138.441 143.061 138.404C142.951 138.367 142.86 138.477 142.86 138.648ZM129.122 141.725C129.186 141.827 129.275 141.911 129.32 141.911C129.365 141.911 129.402 141.827 129.402 141.725C129.402 141.622 129.313 141.538 129.205 141.538C129.096 141.538 129.059 141.622 129.122 141.725ZM28.0962 143.59C28.0962 143.692 28.1853 143.776 28.2941 143.776C28.4029 143.776 28.4401 143.692 28.3765 143.59C28.313 143.487 28.224 143.403 28.1786 143.403C28.1332 143.403 28.0962 143.487 28.0962 143.59ZM119.683 144.149C119.683 144.252 119.772 144.336 119.881 144.336C119.99 144.336 120.027 144.252 119.963 144.149C119.9 144.047 119.811 143.963 119.765 143.963C119.72 143.963 119.683 144.047 119.683 144.149ZM7.4523 145.812C7.39211 145.909 7.42258 146.037 7.51996 146.097C7.61734 146.157 7.74613 146.127 7.80631 146.03C7.8665 145.933 7.83603 145.804 7.73865 145.744C7.64127 145.684 7.51249 145.714 7.4523 145.812ZM17.8093 147.794C17.6001 148.045 17.6031 148.121 17.828 148.263C18.2016 148.498 18.4702 148.377 18.4702 147.972C18.4702 147.516 18.1192 147.421 17.8093 147.794ZM154.168 147.879C154.105 147.981 154.142 148.065 154.251 148.065C154.36 148.065 154.449 147.981 154.449 147.879C154.449 147.776 154.412 147.692 154.366 147.692C154.321 147.692 154.232 147.776 154.168 147.879ZM139.122 149.557C139.122 149.66 139.206 149.744 139.309 149.744C139.412 149.744 139.496 149.66 139.496 149.557C139.496 149.455 139.412 149.371 139.309 149.371C139.206 149.371 139.122 149.455 139.122 149.557ZM43.8902 150.862C43.6889 151.187 43.9872 151.465 44.2786 151.223C44.4226 151.104 44.4941 150.932 44.4379 150.841C44.3014 150.621 44.0332 150.632 43.8902 150.862ZM26.7878 151.608C26.7878 151.711 26.8719 151.795 26.9747 151.795C27.0775 151.795 27.1616 151.711 27.1616 151.608C27.1616 151.506 27.0775 151.422 26.9747 151.422C26.8719 151.422 26.7878 151.506 26.7878 151.608ZM100.431 152.168C100.431 152.27 100.51 152.354 100.607 152.354C100.704 152.354 100.835 152.27 100.898 152.168C100.962 152.065 100.883 151.981 100.723 151.981C100.562 151.981 100.431 152.065 100.431 152.168ZM15.76 155.338C15.76 155.441 15.8441 155.524 15.9469 155.524C16.0497 155.524 16.1338 155.441 16.1338 155.338C16.1338 155.235 16.0497 155.152 15.9469 155.152C15.8441 155.152 15.76 155.235 15.76 155.338ZM126.225 156.643C126.225 156.746 126.309 156.83 126.412 156.83C126.515 156.83 126.599 156.746 126.599 156.643C126.599 156.541 126.515 156.457 126.412 156.457C126.309 156.457 126.225 156.541 126.225 156.643ZM66.7034 157.746C66.6432 157.844 66.6737 157.972 66.7711 158.032C66.8684 158.092 66.9972 158.062 67.0574 157.965C67.1176 157.867 67.0871 157.739 66.9898 157.679C66.8924 157.619 66.7636 157.649 66.7034 157.746ZM30.8064 159.068C30.8699 159.17 30.9589 159.254 31.0043 159.254C31.0498 159.254 31.0868 159.17 31.0868 159.068C31.0868 158.965 30.9976 158.881 30.8888 158.881C30.78 158.881 30.7428 158.965 30.8064 159.068ZM8.65732 159.72C8.65732 159.874 8.78349 160 8.93769 160C9.09189 160 9.21806 159.874 9.21806 159.72C9.21806 159.566 9.09189 159.441 8.93769 159.441C8.78349 159.441 8.65732 159.566 8.65732 159.72Z" fill="url(#paint0_linear_29234_33119)"/>
</g>
<defs>
<filter id="filter0_n_29234_33119" x="2" y="0" width="156" height="160" filterUnits="userSpaceOnUse" color-interpolation-filters="sRGB">
<feFlood flood-opacity="0" result="BackgroundImageFix"/>
<feBlend mode="normal" in="SourceGraphic" in2="BackgroundImageFix" result="shape"/>
<feTurbulence type="fractalNoise" baseFrequency="12.005715370178223 12.005715370178223" stitchTiles="stitch" numOctaves="3" result="noise" seed="9169" />
<feColorMatrix in="noise" type="luminanceToAlpha" result="alphaNoise" />
<feComponentTransfer in="alphaNoise" result="coloredNoise1">
<feFuncA type="discrete" tableValues="1 1 1 1 1 1 1 1 1 1 1 1 1 1 1 1 1 1 1 1 1 1 1 1 1 1 1 1 1 1 1 1 1 1 1 1 1 1 1 1 1 1 1 1 1 1 1 1 1 1 1 0 0 0 0 0 0 0 0 0 0 0 0 0 0 0 0 0 0 0 0 0 0 0 0 0 0 0 0 0 0 0 0 0 0 0 0 0 0 0 0 0 0 0 0 0 0 0 0 0 "/>
</feComponentTransfer>
<feComposite operator="in" in2="shape" in="coloredNoise1" result="noise1Clipped" />
<feComponentTransfer in="alphaNoise" result="coloredNoise2">
<feFuncA type="discrete" tableValues="0 0 0 0 0 0 0 0 0 0 0 0 0 0 0 0 0 0 0 0 0 0 0 0 0 0 0 0 0 0 0 0 0 0 0 0 0 0 0 0 0 0 0 0 0 0 0 0 0 1 1 1 1 1 1 1 1 1 1 1 1 1 1 1 1 1 1 1 1 1 1 1 1 1 1 1 1 1 1 1 1 1 1 1 1 1 1 1 1 1 1 1 1 1 1 1 1 1 1 1 "/>
</feComponentTransfer>
<feComposite operator="in" in2="shape" in="coloredNoise2" result="noise2Clipped" />
<feFlood flood-color="rgba(0, 0, 0, 0.25)" result="color1Flood" />
<feComposite operator="in" in2="noise1Clipped" in="color1Flood" result="color1" />
<feFlood flood-color="rgba(255, 255, 255, 0.25)" result="color2Flood" />
<feComposite operator="in" in2="noise2Clipped" in="color2Flood" result="color2" />
<feMerge result="effect1_noise_29234_33119">
<feMergeNode in="shape" />
<feMergeNode in="color1" />
<feMergeNode in="color2" />
</feMerge>
</filter>
<linearGradient id="paint0_linear_29234_33119" x1="157.796" y1="0" x2="-2.1525" y2="155.95" gradientUnits="userSpaceOnUse">
<stop stop-color="#1EDFAD"/>
<stop offset="0.5" stop-color="#11A7ED"/>
<stop offset="1" stop-color="#9738F5"/>
</linearGradient>
</defs>
</svg>
