<svg width="160" height="160" viewBox="0 0 160 160" fill="none" xmlns="http://www.w3.org/2000/svg">
<g filter="url(#filter0_n_29234_33117)">
<path fill-rule="evenodd" clip-rule="evenodd" d="M97.9749 25.2458C97.9076 25.2458 97.8526 25.1905 97.8526 25.1229C97.8526 25.0553 97.9076 25 97.9749 25C98.0421 25 98.0972 25.0553 98.0972 25.1229C98.0972 25.1905 98.0421 25.2458 97.9749 25.2458ZM73.2747 25.4916C73.2075 25.4916 73.1524 25.4363 73.1524 25.3687C73.1524 25.3011 73.2075 25.2458 73.2747 25.2458C73.342 25.2458 73.397 25.3011 73.397 25.3687C73.397 25.4363 73.342 25.4916 73.2747 25.4916ZM87.8238 25.6747C87.7555 25.6322 87.7312 25.5461 87.7699 25.4831C87.8616 25.3338 88.1926 25.3348 88.1926 25.4844C88.1926 25.6503 87.9697 25.7653 87.8238 25.6747ZM108.993 26.7571C108.836 26.9149 108.677 26.7929 108.793 26.6039C108.838 26.5308 108.931 26.5057 108.999 26.5482C109.082 26.6001 109.08 26.6688 108.993 26.7571ZM124.132 27.0214C124.068 26.9818 124.048 26.8972 124.088 26.8331C124.127 26.7691 124.211 26.7491 124.275 26.7886C124.339 26.8282 124.359 26.9129 124.319 26.9769C124.28 27.041 124.196 27.061 124.132 27.0214ZM34.6348 27.2123C34.5676 27.2123 34.5126 27.1293 34.5126 27.0279C34.5126 26.9265 34.5676 26.8436 34.6348 26.8436C34.7021 26.8436 34.7571 26.9265 34.7571 27.0279C34.7571 27.1293 34.7021 27.2123 34.6348 27.2123ZM21.4288 27.581C21.3616 27.581 21.3065 27.4947 21.3065 27.3894C21.3065 27.2841 21.3616 27.232 21.4288 27.2737C21.4961 27.3155 21.5511 27.4017 21.5511 27.4654C21.5511 27.529 21.4961 27.581 21.4288 27.581ZM56.3392 27.581C56.1502 27.581 56.0962 27.436 56.2339 27.2976C56.3316 27.1994 56.5226 27.3104 56.5226 27.4654C56.5226 27.529 56.4401 27.581 56.3392 27.581ZM63.0717 28.1955C63.042 28.1955 62.9838 28.1402 62.9422 28.0726C62.9006 28.005 62.925 27.9497 62.9961 27.9497C63.0673 27.9497 63.1256 28.005 63.1256 28.0726C63.1256 28.1402 63.1014 28.1955 63.0717 28.1955ZM139.471 28.4789C139.358 28.5925 139.165 28.4458 139.249 28.31C139.288 28.247 139.371 28.1955 139.434 28.1955C139.566 28.1955 139.587 28.3621 139.471 28.4789ZM80.8456 28.865C80.7818 28.8254 80.7619 28.7407 80.8013 28.6767C80.8407 28.6127 80.9249 28.5926 80.9886 28.6322C81.0523 28.6718 81.0723 28.7565 81.0329 28.8205C80.9935 28.8845 80.9093 28.9046 80.8456 28.865ZM49.4285 29.239C49.3602 29.1965 49.3358 29.1103 49.3746 29.0474C49.4663 28.8981 49.7973 28.899 49.7973 29.0486C49.7973 29.2145 49.5744 29.3296 49.4285 29.239ZM68.4447 31.0223C68.2537 31.0223 68.2021 30.8769 68.3429 30.7356C68.4835 30.5941 68.6281 30.646 68.6281 30.838C68.6281 30.9394 68.5456 31.0223 68.4447 31.0223ZM118.159 31.5701C118.014 31.6605 117.868 31.4304 117.967 31.2682C118.009 31.2006 118.095 31.1453 118.158 31.1453C118.307 31.1453 118.308 31.478 118.159 31.5701ZM129.708 31.5915C129.474 31.6817 129.344 31.5823 129.456 31.3993C129.558 31.2341 129.73 31.2308 129.829 31.3919C129.871 31.46 129.817 31.5499 129.708 31.5915ZM89.3543 31.7598C89.2534 31.7598 89.1709 31.6768 89.1709 31.5754C89.1709 31.474 89.2534 31.3911 89.3543 31.3911C89.4551 31.3911 89.5377 31.474 89.5377 31.5754C89.5377 31.6768 89.4551 31.7598 89.3543 31.7598ZM103.049 31.8827C102.949 31.8827 102.866 31.7997 102.866 31.6983C102.866 31.5969 102.949 31.514 103.049 31.514C103.15 31.514 103.233 31.5969 103.233 31.6983C103.233 31.7997 103.15 31.8827 103.049 31.8827ZM16.2344 32.8206C16.0004 32.9108 15.8699 32.8114 15.9824 32.6283C16.0839 32.4632 16.2557 32.4598 16.3548 32.621C16.3967 32.6891 16.3425 32.7789 16.2344 32.8206ZM40.871 32.6816C40.8038 32.7234 40.7487 32.6989 40.7487 32.6274C40.7487 32.5558 40.8038 32.4972 40.871 32.4972C40.9383 32.4972 40.9933 32.5215 40.9933 32.5514C40.9933 32.5813 40.9383 32.6398 40.871 32.6816ZM111.55 33.2949C111.481 33.3373 111.425 33.2858 111.425 33.1804C111.425 32.9645 111.499 32.9328 111.604 33.1033C111.642 33.1662 111.618 33.2523 111.55 33.2949ZM60.0075 33.6034C59.8165 33.6034 59.7649 33.458 59.9057 33.3166C60.0463 33.1752 60.191 33.227 60.191 33.419C60.191 33.5204 60.1084 33.6034 60.0075 33.6034ZM33.7789 33.9721C33.7116 33.9721 33.6566 33.9168 33.6566 33.8492C33.6566 33.7816 33.7116 33.7263 33.7789 33.7263C33.8461 33.7263 33.9012 33.7816 33.9012 33.8492C33.9012 33.9168 33.8461 33.9721 33.7789 33.9721ZM143.829 33.9721C143.762 33.9721 143.707 33.9168 143.707 33.8492C143.707 33.7816 143.762 33.7263 143.829 33.7263C143.896 33.7263 143.951 33.7816 143.951 33.8492C143.951 33.9168 143.896 33.9721 143.829 33.9721ZM96.5003 34.4637C96.4292 34.4637 96.4048 34.4084 96.4464 34.3408C96.488 34.2732 96.5462 34.2179 96.5759 34.2179C96.6056 34.2179 96.6298 34.2732 96.6298 34.3408C96.6298 34.4084 96.5715 34.4637 96.5003 34.4637ZM10.6072 36.5715C10.5434 36.5715 10.4714 36.512 10.4473 36.4394C10.4232 36.3667 10.4951 36.3073 10.6072 36.3073C10.7193 36.3073 10.7912 36.3667 10.7671 36.4394C10.7431 36.512 10.671 36.5715 10.6072 36.5715ZM18.4872 42.1563C19.2552 39.973 21.2304 38.232 23.4464 37.7848C23.7154 37.7305 49.1645 37.6808 80 37.6745C135.84 37.6629 137.159 37.6093 138.029 38.2085C138.122 38.2727 138.21 38.3444 138.36 38.4244C139.819 39.2062 140.977 40.5777 141.526 42.174L141.812 43.0056V79.1397V115.274L141.53 116.094C140.927 117.846 139.511 119.328 137.776 120.02L137.043 120.313L80.4286 120.344C42.8693 120.365 23.5879 120.334 23.1413 120.252C22.1501 120.07 21.0265 119.464 20.1481 118.638C19.1829 117.731 18.4468 116.33 18.2509 115.028C18.1614 114.434 18.1318 103.161 18.1549 78.5866L18.1884 43.0056L18.4872 42.1563ZM148.72 39.0726C148.653 39.1144 148.598 39.0623 148.598 38.957C148.598 38.8516 148.653 38.7654 148.72 38.7654C148.788 38.7654 148.843 38.8174 148.843 38.881C148.843 38.9447 148.788 39.0308 148.72 39.0726ZM20.9714 41.6384C21.4563 40.9134 22.403 40.1715 23.1407 39.9389C23.6118 39.7901 31.8092 39.7684 80.1248 39.7876L136.559 39.8101L137.368 40.2107C138.311 40.6769 138.957 41.3433 139.411 42.3149L139.733 43.0056L139.769 47.2151L139.806 51.4246H80.006H20.206V47.4525C20.206 43.0555 20.2507 42.7163 20.9714 41.6384ZM14.5885 41.3464C14.5173 41.3464 14.459 41.2911 14.459 41.2235C14.459 41.1559 14.4832 41.1006 14.5129 41.1006C14.5426 41.1006 14.6008 41.1559 14.6424 41.2235C14.684 41.2911 14.6596 41.3464 14.5885 41.3464ZM7.12228 42.0838C7.05503 42.0838 7 42.0285 7 41.9609C7 41.8933 7.05503 41.838 7.12228 41.838C7.18953 41.838 7.24456 41.8933 7.24456 41.9609C7.24456 42.0285 7.18953 42.0838 7.12228 42.0838ZM47.6405 43.8421C47.5275 43.9556 47.3346 43.8089 47.4182 43.6731C47.4568 43.6102 47.5402 43.5587 47.6035 43.5587C47.735 43.5587 47.7566 43.7252 47.6405 43.8421ZM90.1491 43.8045C90.0818 43.8045 90.0268 43.7492 90.0268 43.6816C90.0268 43.614 90.0818 43.5587 90.1491 43.5587C90.2163 43.5587 90.2714 43.614 90.2714 43.6816C90.2714 43.7492 90.2163 43.8045 90.1491 43.8045ZM56.2708 44.1732C56.1997 44.1732 56.1753 44.1179 56.2169 44.0503C56.2585 43.9827 56.3167 43.9274 56.3464 43.9274C56.3761 43.9274 56.4003 43.9827 56.4003 44.0503C56.4003 44.1179 56.342 44.1732 56.2708 44.1732ZM79.8673 44.2281C79.8036 44.1885 79.7837 44.1039 79.8231 44.0398C79.8624 43.9758 79.9467 43.9558 80.0104 43.9953C80.0741 44.0349 80.094 44.1196 80.0547 44.1836C80.0153 44.2477 79.931 44.2677 79.8673 44.2281ZM132.824 44.2961C132.757 44.2961 132.702 44.2131 132.702 44.1117C132.702 44.0103 132.757 43.9274 132.824 43.9274C132.891 43.9274 132.946 44.0103 132.946 44.1117C132.946 44.2131 132.891 44.2961 132.824 44.2961ZM112.393 44.351C112.33 44.3115 112.31 44.2268 112.349 44.1627C112.388 44.0987 112.473 44.0787 112.536 44.1182C112.6 44.1578 112.62 44.2425 112.581 44.3065C112.541 44.3706 112.457 44.3906 112.393 44.351ZM100.298 44.3575C100.231 44.3993 100.176 44.3749 100.176 44.3033C100.176 44.2318 100.231 44.1732 100.298 44.1732C100.365 44.1732 100.42 44.1975 100.42 44.2274C100.42 44.2572 100.365 44.3158 100.298 44.3575ZM145.656 44.6648C145.585 44.6648 145.561 44.6095 145.602 44.5419C145.644 44.4743 145.702 44.419 145.732 44.419C145.761 44.419 145.786 44.4743 145.786 44.5419C145.786 44.6095 145.727 44.6648 145.656 44.6648ZM63.2479 46.1397C63.1807 46.1397 63.1256 46.0567 63.1256 45.9553C63.1256 45.8539 63.1807 45.771 63.2479 45.771C63.3152 45.771 63.3702 45.8539 63.3702 45.9553C63.3702 46.0567 63.3152 46.1397 63.2479 46.1397ZM152.878 46.1397C152.81 46.1397 152.755 46.0844 152.755 46.0168C152.755 45.9492 152.81 45.8939 152.878 45.8939C152.945 45.8939 153 45.9492 153 46.0168C153 46.0844 152.945 46.1397 152.878 46.1397ZM126.458 46.3855C126.395 46.3855 126.343 46.3302 126.343 46.2626C126.343 46.195 126.429 46.1397 126.534 46.1397C126.639 46.1397 126.691 46.195 126.649 46.2626C126.608 46.3302 126.522 46.3855 126.458 46.3855ZM106.351 47.3687C106.167 47.3687 106.1 47.1093 106.246 46.9624C106.36 46.8477 106.534 46.9862 106.534 47.1916C106.534 47.2891 106.452 47.3687 106.351 47.3687ZM11.7761 47.4916C11.6219 47.4916 11.5114 47.2996 11.6091 47.2014C11.7468 47.0631 11.8911 47.1173 11.8911 47.3073C11.8911 47.4087 11.8394 47.4916 11.7761 47.4916ZM74.2019 47.4916C74.0954 47.4916 74.0084 47.404 74.0084 47.2971C74.0084 47.19 74.0737 47.1243 74.1536 47.1511C74.3803 47.227 74.4179 47.4916 74.2019 47.4916ZM85.2652 47.4916C85.2018 47.4916 85.1161 47.4363 85.0745 47.3687C85.033 47.3011 85.0848 47.2458 85.1896 47.2458C85.2944 47.2458 85.3802 47.3011 85.3802 47.3687C85.3802 47.4363 85.3285 47.4916 85.2652 47.4916ZM52.4894 47.6747C52.3265 47.7759 52.0965 47.6303 52.187 47.4831C52.2256 47.4202 52.3059 47.3687 52.3652 47.3687C52.5363 47.3687 52.6262 47.5898 52.4894 47.6747ZM95.1013 47.6145C95.0005 47.6145 94.9179 47.5592 94.9179 47.4916C94.9179 47.424 95.0005 47.3687 95.1013 47.3687C95.2022 47.3687 95.2848 47.424 95.2848 47.4916C95.2848 47.5592 95.2022 47.6145 95.1013 47.6145ZM118.4 47.7814C118.237 47.9455 117.963 47.6967 118.087 47.4964C118.15 47.3932 118.219 47.3955 118.35 47.505C118.474 47.6079 118.489 47.6924 118.4 47.7814ZM43.8057 47.9832C43.7384 47.9832 43.6834 47.9279 43.6834 47.8603C43.6834 47.7927 43.7384 47.7374 43.8057 47.7374C43.8729 47.7374 43.928 47.7927 43.928 47.8603C43.928 47.9279 43.8729 47.9832 43.8057 47.9832ZM148.351 51.239C148.283 51.1965 148.259 51.1103 148.298 51.0474C148.389 50.8981 148.72 50.899 148.72 51.0486C148.72 51.2145 148.497 51.3296 148.351 51.239ZM20.2672 115.274L20.2356 84.3939L20.2041 53.514H80H139.796L139.764 84.3939L139.733 115.274L139.466 115.853C139.073 116.709 138.199 117.584 137.361 117.962L136.643 118.286L79.9224 118.255L23.2018 118.223L22.5096 117.882C21.7132 117.489 21.094 116.851 20.6077 115.923L20.2672 115.274ZM112.227 57.0782C112.198 57.0782 112.14 57.0229 112.098 56.9553C112.056 56.8877 112.081 56.8324 112.152 56.8324C112.223 56.8324 112.281 56.8877 112.281 56.9553C112.281 57.0229 112.257 57.0782 112.227 57.0782ZM125.612 57.2613C125.543 57.3037 125.487 57.2522 125.487 57.1469C125.487 56.931 125.561 56.8993 125.666 57.0697C125.704 57.1327 125.68 57.2188 125.612 57.2613ZM88.4861 57.6599C88.4457 57.6194 88.4558 57.5161 88.5085 57.4305C88.5855 57.3051 88.6144 57.3051 88.6557 57.43C88.7149 57.6082 88.5955 57.7699 88.4861 57.6599ZM25.5759 57.8706C25.5122 57.831 25.4922 57.7463 25.5316 57.6823C25.571 57.6183 25.6552 57.5982 25.7189 57.6378C25.7826 57.6774 25.8026 57.7621 25.7632 57.8261C25.7238 57.8901 25.6396 57.9102 25.5759 57.8706ZM44.1725 58.4916C44.1053 58.5334 44.0503 58.5089 44.0503 58.4374C44.0503 58.3659 44.1053 58.3073 44.1725 58.3073C44.2398 58.3073 44.2948 58.3316 44.2948 58.3615C44.2948 58.3913 44.2398 58.4498 44.1725 58.4916ZM56.0355 58.6133C55.9671 58.6557 55.9112 58.6042 55.9112 58.4989C55.9112 58.2829 55.9846 58.2512 56.0894 58.4217C56.1281 58.4846 56.1038 58.5708 56.0355 58.6133ZM105.923 58.5531C105.856 58.5531 105.801 58.4978 105.801 58.4302C105.801 58.3626 105.856 58.3073 105.923 58.3073C105.99 58.3073 106.045 58.3626 106.045 58.4302C106.045 58.4978 105.99 58.5531 105.923 58.5531ZM32.1354 58.676C32.1056 58.676 32.0474 58.6207 32.0059 58.5531C31.9643 58.4855 31.9886 58.4302 32.0598 58.4302C32.131 58.4302 32.1893 58.4855 32.1893 58.5531C32.1893 58.6207 32.1651 58.676 32.1354 58.676ZM68.2002 58.676C68.0993 58.676 68.0168 58.6207 68.0168 58.5531C68.0168 58.4855 68.0993 58.4302 68.2002 58.4302C68.301 58.4302 68.3836 58.4855 68.3836 58.5531C68.3836 58.6207 68.301 58.676 68.2002 58.676ZM133.81 58.676C133.738 58.676 133.68 58.6207 133.68 58.5531C133.68 58.4855 133.704 58.4302 133.734 58.4302C133.764 58.4302 133.822 58.4855 133.863 58.5531C133.905 58.6207 133.881 58.676 133.81 58.676ZM119.19 58.8173C119.126 58.8173 119.054 58.7578 119.03 58.6852C119.006 58.6126 119.078 58.5531 119.19 58.5531C119.302 58.5531 119.374 58.6126 119.35 58.6852C119.326 58.7578 119.254 58.8173 119.19 58.8173ZM10.3015 58.9218C10.2343 58.9218 10.1792 58.8665 10.1792 58.7989C10.1792 58.7313 10.2343 58.676 10.3015 58.676C10.3688 58.676 10.4238 58.7313 10.4238 58.7989C10.4238 58.8665 10.3688 58.9218 10.3015 58.9218ZM82.201 59.229C82.1338 59.2708 82.0787 59.2187 82.0787 59.1134C82.0787 59.0081 82.1338 58.9218 82.201 58.9218C82.2683 58.9218 82.3233 58.9738 82.3233 59.0374C82.3233 59.1011 82.2683 59.1873 82.201 59.229ZM24.1356 64.4197C24.6168 63.4716 25.7068 62.6273 26.7765 62.3739C27.4609 62.212 55.7529 62.2086 56.5038 62.3705C57.3585 62.5549 58.3323 63.1823 58.8649 63.8917C58.9802 64.0455 59.0801 64.1617 59.1663 64.2873C59.7524 65.1403 59.7126 66.4233 59.6771 82.8268C59.6428 98.7184 59.6283 99.6925 59.4211 100.156C59.066 100.951 58.5896 101.566 58.0285 101.954C57.8838 102.054 57.7746 102.141 57.6578 102.215C56.8789 102.711 55.7634 102.679 41.5552 102.678L26.6256 102.678L25.8719 102.306C24.9977 101.874 24.4559 101.304 24.009 100.346L23.691 99.6648L23.6543 83.0112C23.6159 65.6341 23.6211 65.4334 24.1356 64.4197ZM62.6546 64.6801C63.2072 63.4955 64.296 62.6076 65.491 62.3669C65.7705 62.3106 72.4371 62.273 80.3057 62.2831L94.6122 62.3017L95.2904 62.6214C96.2582 63.0776 96.8112 63.6174 97.2692 64.5526L97.6692 65.3691V82.517V99.6648L97.3511 100.346C96.907 101.298 96.3706 101.865 95.5022 102.301L94.7566 102.676L80.011 102.676L65.2655 102.676L64.5269 102.325C63.6267 101.897 62.8582 101.061 62.5514 100.177C62.3429 99.5767 62.3308 98.6064 62.3308 82.4581V65.3743L62.6546 64.6801ZM100.532 64.9227C100.959 63.7796 102.244 62.6423 103.405 62.3796C103.692 62.3147 110.026 62.261 118.278 62.2534C132.208 62.2406 133.4 62.218 134.255 62.7439C134.37 62.815 134.479 62.8962 134.613 62.9888C134.914 63.1967 135.346 63.6249 135.574 63.9404C135.685 64.0944 135.781 64.2076 135.864 64.3297C136.414 65.1428 136.372 66.3558 136.341 82.7163L136.309 99.6896L135.881 100.533C135.4 101.48 134.686 102.116 133.705 102.471C133.165 102.666 132.001 102.682 118.223 102.679L103.324 102.676L102.6 102.349C101.595 101.896 100.862 101.056 100.54 99.9887C100.297 99.1858 100.294 98.9099 100.328 82.2737C100.357 68.2733 100.392 65.2969 100.532 64.9227ZM149.793 63.4907C149.726 63.4231 149.711 63.3029 149.76 63.2235C149.819 63.1272 149.889 63.1201 149.971 63.2021C150.038 63.2697 150.053 63.3899 150.004 63.4693C149.945 63.5655 149.875 63.5726 149.793 63.4907ZM26.0718 65.2818C26.2381 65.0379 26.5683 64.7252 26.8055 64.5868C27.2336 64.3372 27.3513 64.3353 41.6161 64.3324L55.995 64.3296L56.5275 64.6127C56.8923 64.8065 57.149 65.0651 57.3429 65.4333L57.6257 65.9709L57.5939 82.6949L57.562 99.419L57.2772 99.8203C57.1832 99.9527 57.1302 100.064 57.055 100.158C56.6236 100.695 55.4641 100.648 41.6569 100.648H27.0969L26.5987 100.317C26.4618 100.226 26.3456 100.174 26.2472 100.099C25.652 99.6471 25.7033 98.3442 25.7359 82.3262L25.7697 65.7249L26.0718 65.2818ZM64.6235 65.4311C64.8246 65.0304 65.0456 64.8082 65.4443 64.6061L65.9899 64.3296H80H94.0101L94.5557 64.6061C94.9544 64.8082 95.1754 65.0304 95.3765 65.4311L95.6516 65.9795L95.6489 82.5149C95.6463 98.3698 95.6369 99.071 95.4188 99.5536C95.2786 99.8639 95.0099 100.17 94.7184 100.352L94.2454 100.648H80C65.8462 100.648 65.7519 100.646 65.3268 100.395C65.0914 100.256 64.7759 99.9246 64.6256 99.6579L64.3524 99.1732L64.3504 82.5763L64.3484 65.9795L64.6235 65.4311ZM102.723 65.2186C102.88 64.9977 103.21 64.7098 103.457 64.5787C103.893 64.3469 104.298 64.3404 118.334 64.3371L132.763 64.3337L133.241 64.6081C133.503 64.7592 133.833 65.0388 133.974 65.2296L134.23 65.5767V82.4978V99.419L133.946 99.8203C133.852 99.9527 133.798 100.064 133.723 100.158C133.292 100.695 132.132 100.648 118.334 100.648C104.003 100.648 103.777 100.644 103.368 100.402C103.14 100.267 102.837 100 102.695 99.8095L102.438 99.4624V82.5413V65.6201L102.723 65.2186ZM13.6642 65.3129C13.5633 65.3129 13.4807 65.2299 13.4807 65.1285C13.4807 65.0271 13.5633 64.9441 13.6642 64.9441C13.765 64.9441 13.8476 65.0271 13.8476 65.1285C13.8476 65.2299 13.765 65.3129 13.6642 65.3129ZM129.767 69.1844C129.7 69.2261 129.645 69.2017 129.645 69.1302C129.645 69.0586 129.7 69 129.767 69C129.834 69 129.889 69.0243 129.889 69.0542C129.889 69.0841 129.834 69.1426 129.767 69.1844ZM110.111 70.4793C110.282 70.1442 110.548 69.8551 110.812 69.7158C111.208 69.5076 111.672 69.4916 117.346 69.4916C123.298 69.4916 123.466 69.4981 123.951 69.7481C124.443 70.002 128.424 74.0931 128.745 74.6755C128.87 74.9012 128.904 76.9237 128.907 84.3363C128.911 93.0952 128.933 94.0553 128.468 94.595C128.389 94.6872 128.295 94.7671 128.185 94.8715L127.795 95.2402H119.396H110.997L110.606 94.9449C110.497 94.8631 110.404 94.8023 110.324 94.7275C109.811 94.2477 109.836 93.1923 109.836 82.3588V71.0186L110.111 70.4793ZM75.7135 73.7098C76.0583 71.8301 77.4345 70.3531 79.1875 69.9815C81.0325 69.5903 83.0124 70.6764 83.8961 72.5642C84.1639 73.1365 84.2122 73.41 84.2105 74.3464C84.2088 75.2931 84.1614 75.55 83.8811 76.1285C83.701 76.5003 83.4145 76.9542 83.2442 77.1371C83.074 77.3201 82.9347 77.4905 82.9347 77.5158C82.9347 77.5412 83.205 77.7381 83.5355 77.9533C84.7704 78.7576 86.1245 80.6601 85.9271 81.3135C85.7241 81.9855 85.0919 82.3149 84.4672 82.0739C84.3575 82.0316 84.1105 81.6839 83.9183 81.3013C83.3069 80.0838 82.1938 79.2446 80.8091 78.9574C78.9202 78.5656 76.9753 79.5315 76.0807 81.3057C75.8891 81.6859 75.6425 82.0316 75.5328 82.0739C75.164 82.2162 74.7771 82.1526 74.4529 81.8961C73.9674 81.5123 74.007 80.8071 74.5666 79.8698C75.0987 78.9783 75.5986 78.4417 76.3622 77.942C76.6816 77.733 76.943 77.5441 76.943 77.5222C76.943 77.5005 76.7558 77.236 76.5269 76.9346C75.8317 76.0191 75.5181 74.7759 75.7135 73.7098ZM30.8332 81.5439C30.8985 76.6597 34.2524 72.4212 39.0623 71.1442C40.076 70.8752 40.3897 70.8476 41.9715 70.8889C44.1231 70.9452 44.8647 71.1227 46.6825 72.0163C47.7125 72.5226 48.2515 72.8833 48.9642 73.5436C49.4774 74.0188 49.9162 74.4079 49.939 74.4081C49.962 74.4082 49.9625 74.0214 49.9401 73.5483C49.9016 72.7316 49.9181 72.6698 50.267 72.3191C50.7173 71.8664 51.0107 71.8542 51.4998 72.2679L51.876 72.5861V75.1617C51.876 76.9173 51.935 77.7083 51.5701 78.0624C51.2232 78.399 50.4933 78.3408 48.9658 78.3408C46.4523 78.3408 46.4288 78.3346 46.1501 77.5978C45.9973 77.1938 46.2532 76.5521 46.6127 76.4375C46.7561 76.3918 47.3113 76.3528 47.8463 76.351C48.3813 76.3491 48.8191 76.304 48.8191 76.2508C48.8191 76.1976 48.3746 75.7337 47.8313 75.2201C46.0154 73.503 43.8386 72.7096 41.304 72.841C39.1637 72.952 37.2736 73.7652 35.71 75.2478C33.8498 77.0116 32.8072 79.3238 32.8025 81.6955C32.8009 82.5476 32.7674 82.6871 32.5005 82.9552C32.097 83.361 31.4744 83.3624 31.0971 82.9586C30.8462 82.6903 30.8198 82.5482 30.8332 81.5439ZM10.974 71.2123C10.8732 71.2123 10.7906 71.157 10.7906 71.0894C10.7906 71.0218 10.8732 70.9665 10.974 70.9665C11.0749 70.9665 11.1575 71.0218 11.1575 71.0894C11.1575 71.157 11.0749 71.2123 10.974 71.2123ZM111.915 93.3352V82.3953V71.4555L117.142 71.4875L122.369 71.5196L122.39 72.0112C122.401 72.2816 122.415 73.2399 122.421 74.1408L122.43 75.7787L122.788 76.138L123.145 76.4972H125.05H126.955V84.9162V93.3352H119.435H111.915ZM77.8064 73.4633C77.977 73.0087 78.6225 72.3316 79.0829 72.1244C79.5867 71.8977 80.4288 71.9094 80.9335 72.1501C81.7948 72.5609 82.4434 73.7874 82.2753 74.6877C82.1674 75.2659 81.6544 76.0149 81.1229 76.3702C80.4392 76.8273 79.4559 76.8005 78.7553 76.3057C77.8187 75.644 77.4278 74.473 77.8064 73.4633ZM124.326 74.5307V73.6704C124.326 73.1972 124.353 72.8167 124.387 72.8249C124.421 72.833 124.801 73.2202 125.233 73.6853L126.018 74.5307H125.172H124.326ZM89.66 74.0391C89.5927 74.0391 89.5377 73.9838 89.5377 73.9162C89.5377 73.8486 89.5927 73.7933 89.66 73.7933C89.7272 73.7933 89.7822 73.8486 89.7822 73.9162C89.7822 73.9838 89.7272 74.0391 89.66 74.0391ZM148.49 75.1805C148.321 75.3501 148.037 75.1151 148.163 74.9101C148.209 74.8366 148.294 74.7765 148.353 74.7765C148.542 74.7765 148.631 75.0387 148.49 75.1805ZM70.0343 75.5324C69.9704 75.5324 69.8985 75.4729 69.8744 75.4003C69.8503 75.3276 69.9222 75.2682 70.0343 75.2682C70.1465 75.2682 70.2184 75.3276 70.1943 75.4003C70.1702 75.4729 70.0983 75.5324 70.0343 75.5324ZM91.1345 79.9385C91.0634 79.9385 91.005 79.8832 91.005 79.8156C91.005 79.748 91.0292 79.6927 91.0589 79.6927C91.0887 79.6927 91.1469 79.748 91.1884 79.8156C91.23 79.8832 91.2057 79.9385 91.1345 79.9385ZM114.321 81.0129C114.225 80.7401 114.427 80.1925 114.701 79.9832C114.864 79.8588 115.937 79.8227 119.549 79.8196C124.146 79.8156 124.19 79.8181 124.471 80.0828C124.881 80.4706 124.862 81.1871 124.432 81.5273C124.119 81.7749 123.978 81.7821 119.501 81.7821H114.892L114.644 81.5056C114.508 81.3536 114.362 81.1318 114.321 81.0129ZM151.899 81.0447C151.832 81.0447 151.777 80.9894 151.777 80.9218C151.777 80.8542 151.832 80.7989 151.899 80.7989C151.967 80.7989 152.022 80.8542 152.022 80.9218C152.022 80.9894 151.967 81.0447 151.899 81.0447ZM50.8395 82.5196C50.8916 82.0993 51.0191 81.739 51.1765 81.567C51.5229 81.1885 52.1156 81.1999 52.4823 81.5922C52.7067 81.8323 52.7626 82.027 52.7557 82.5448C52.7278 84.6689 51.4569 87.5655 49.7627 89.3661C48.3899 90.8251 46.5508 91.91 44.5472 92.443C42.9556 92.8663 40.5641 92.8899 39.098 92.4969C37.7033 92.1229 35.8488 91.1491 34.7265 90.2015L33.7789 89.4014V90.2682C33.7789 91.1744 33.5768 91.7705 33.2231 91.9069C32.8557 92.0486 32.4684 91.9846 32.1446 91.7285L31.8224 91.4738V88.9576C31.8224 87.2475 31.7651 86.4702 32.1244 86.1191C32.47 85.7812 33.2014 85.838 34.7407 85.838H37.0586L37.3752 86.2162C37.7263 86.6355 37.76 86.8316 37.5496 87.2288C37.3018 87.6963 37.0503 87.7964 36.1022 87.8048L35.1851 87.8131L35.9532 88.5468C36.8981 89.4494 38.2888 90.1754 39.7435 90.5255C41.7802 91.0156 44.2882 90.6539 46.1917 89.5954C47.4391 88.9018 49.1038 87.1767 49.7583 85.8994C50.3082 84.8262 50.7084 83.5749 50.8395 82.5196ZM146.16 82.0279C146.088 82.0279 146.03 81.9726 146.03 81.905C146.03 81.8374 146.054 81.7821 146.084 81.7821C146.114 81.7821 146.172 81.8374 146.214 81.905C146.255 81.9726 146.231 82.0279 146.16 82.0279ZM43.874 83.0112C43.8443 83.0112 43.7861 82.9559 43.7446 82.8883C43.703 82.8207 43.7273 82.7654 43.7985 82.7654C43.8696 82.7654 43.928 82.8207 43.928 82.8883C43.928 82.9559 43.9038 83.0112 43.874 83.0112ZM70.1811 87.3659C70.1934 85.719 71.3459 84.291 72.9976 83.8756C74.4653 83.5065 76.1673 84.3269 76.9186 85.7655C77.1981 86.3007 77.2453 86.5419 77.2456 87.4358C77.2458 88.537 77.0214 89.1931 76.4096 89.88C76.2215 90.0911 76.192 90.1891 76.3044 90.2294C76.6092 90.3385 77.6207 91.2099 77.9565 91.6526C78.4562 92.3114 78.8969 93.3331 78.8983 93.8362C78.9008 94.757 77.8143 95.1998 77.2294 94.5164C77.0719 94.3325 76.943 94.0852 76.943 93.9669C76.943 93.6561 76.3166 92.7104 75.8483 92.3142C74.1403 90.8697 71.4276 91.6301 70.6456 93.7726C70.347 94.5906 70.1009 94.8307 69.5451 94.8466C67.827 94.8955 68.7483 91.7347 70.8162 90.4861C71.0587 90.3398 71.2746 90.2073 71.296 90.1919C71.3175 90.1764 71.1436 89.9119 70.9098 89.604C70.3663 88.8883 70.1741 88.2981 70.1811 87.3659ZM83.3688 89.7286C81.7374 87.5788 82.6946 84.6223 85.252 83.9123C86.3813 83.5988 87.918 84.0607 88.6915 84.9462C89.9347 86.3694 90.0082 88.3371 88.8738 89.8319L88.5842 90.2135L88.9692 90.3836C89.5427 90.6369 90.567 91.7512 90.9502 92.5385C91.5999 93.8732 91.3216 94.8747 90.309 94.8459C89.7855 94.831 89.4884 94.5422 89.3034 93.8689C89.1777 93.4112 88.6877 92.6786 88.2653 92.3171C86.5658 90.8621 83.9058 91.6143 83.118 93.7726C82.8185 94.5926 82.5486 94.8592 82.0176 94.8592C81.0302 94.8592 80.762 93.8718 81.4035 92.5978C81.8831 91.6453 82.3644 91.0704 83.0638 90.6149C83.3963 90.3984 83.6683 90.1992 83.6683 90.1722C83.6683 90.1453 83.5336 89.9456 83.3688 89.7286ZM11.0963 84.2402C10.9073 84.2402 10.8533 84.0952 10.991 83.9568C11.0887 83.8586 11.2797 83.9696 11.2797 84.1246C11.2797 84.1882 11.1972 84.2402 11.0963 84.2402ZM114.538 86.8882C114.058 86.4054 114.169 85.7286 114.788 85.3719C114.952 85.2775 115.954 85.2297 117.82 85.2272L120.607 85.2235L120.908 85.5252C121.291 85.9109 121.306 86.5154 120.942 86.9055C120.678 87.1874 120.65 87.1899 117.757 87.1899H114.838L114.538 86.8882ZM121.027 88.6034C122.509 86.8438 123.584 85.6873 123.829 85.5887C124.179 85.4478 124.522 85.5583 124.845 85.9163C125.367 86.4933 125.256 86.7099 123.141 89.2179C121.148 91.582 120.871 91.8482 120.39 91.856C120.114 91.8605 118.715 90.969 118.12 90.4097C117.696 90.0107 117.664 89.4009 118.05 89.0397C118.51 88.6088 118.729 88.616 119.518 89.089C119.927 89.3337 120.271 89.518 120.282 89.4987C120.293 89.4794 120.629 89.0765 121.027 88.6034ZM73.0648 88.8283C71.9479 88.2956 71.8794 86.7315 72.9444 86.0789C73.7455 85.5879 74.7552 85.8986 75.1626 86.7615C75.5392 87.5589 75.2195 88.453 74.4179 88.8451C73.9233 89.087 73.5986 89.0829 73.0648 88.8283ZM84.5243 87.4644C84.5243 86.9632 84.8659 86.3414 85.2812 86.087C86.6896 85.2238 88.3196 86.835 87.457 88.2378C87.1931 88.6669 86.565 89.0335 86.0935 89.0335C85.3712 89.0335 84.5243 88.1867 84.5243 87.4644ZM149.148 88.6648C148.957 88.6648 148.906 88.5194 149.046 88.3781C149.187 88.2366 149.332 88.2885 149.332 88.4804C149.332 88.5818 149.249 88.6648 149.148 88.6648ZM7.37405 91C7.31071 91 7.22499 90.9447 7.18342 90.8771C7.14184 90.8095 7.19369 90.7542 7.29848 90.7542C7.40327 90.7542 7.48911 90.8095 7.48911 90.8771C7.48911 90.9447 7.43739 91 7.37405 91ZM146.221 94.8101C146.191 94.8101 146.133 94.7547 146.091 94.6871C146.05 94.6196 146.074 94.5642 146.145 94.5642C146.216 94.5642 146.275 94.6196 146.275 94.6871C146.275 94.7547 146.25 94.8101 146.221 94.8101ZM51.6315 95.6704C51.5642 95.6704 51.5092 95.6151 51.5092 95.5475C51.5092 95.4799 51.5642 95.4246 51.6315 95.4246C51.6987 95.4246 51.7538 95.4799 51.7538 95.5475C51.7538 95.6151 51.6987 95.6704 51.6315 95.6704ZM36.5913 97.0838C36.524 97.1256 36.469 97.1011 36.469 97.0296C36.469 96.9581 36.524 96.8994 36.5913 96.8994C36.6585 96.8994 36.7136 96.9238 36.7136 96.9536C36.7136 96.9835 36.6585 97.042 36.5913 97.0838ZM11.4462 97.6745C11.3332 97.788 11.1403 97.6413 11.2239 97.5055C11.2625 97.4426 11.3459 97.3911 11.4092 97.3911C11.5407 97.3911 11.5623 97.5576 11.4462 97.6745ZM86.1211 97.6369C86.0499 97.6369 85.9916 97.5816 85.9916 97.514C85.9916 97.4464 86.0158 97.3911 86.0455 97.3911C86.0753 97.3911 86.1335 97.4464 86.175 97.514C86.2166 97.5816 86.1923 97.6369 86.1211 97.6369ZM149.131 100.993C149.018 101.106 148.825 100.96 148.909 100.824C148.948 100.761 149.031 100.709 149.094 100.709C149.226 100.709 149.247 100.876 149.131 100.993ZM72.7856 106.67C72.7183 106.712 72.6633 106.688 72.6633 106.616C72.6633 106.545 72.7183 106.486 72.7856 106.486C72.8528 106.486 72.9079 106.51 72.9079 106.54C72.9079 106.57 72.8528 106.629 72.7856 106.67ZM33.4017 106.91C33.338 106.87 33.318 106.785 33.3574 106.721C33.3968 106.657 33.481 106.637 33.5447 106.677C33.6084 106.716 33.6284 106.801 33.589 106.865C33.5496 106.929 33.4654 106.949 33.4017 106.91ZM120.64 107.753C120.527 107.866 120.335 107.72 120.418 107.584C120.457 107.521 120.54 107.469 120.604 107.469C120.735 107.469 120.757 107.636 120.64 107.753ZM152.511 107.715C152.444 107.715 152.389 107.66 152.389 107.592C152.389 107.525 152.444 107.469 152.511 107.469C152.578 107.469 152.633 107.525 152.633 107.592C152.633 107.66 152.578 107.715 152.511 107.715ZM42.4326 107.861C42.3571 108.089 42.0938 108.127 42.0938 107.91C42.0938 107.803 42.1809 107.715 42.2874 107.715C42.3939 107.715 42.4593 107.781 42.4326 107.861ZM80.3741 108.207C80.2199 108.207 80.1094 108.015 80.2071 107.917C80.3448 107.778 80.4891 107.832 80.4891 108.022C80.4891 108.124 80.4374 108.207 80.3741 108.207ZM107.336 108.096C107.302 108.04 107.31 107.96 107.353 107.917C107.469 107.799 107.757 107.822 107.757 107.948C107.757 108.099 107.413 108.22 107.336 108.096ZM134.047 108.514C133.98 108.472 133.925 108.386 133.925 108.322C133.925 108.259 133.98 108.207 134.047 108.207C134.114 108.207 134.169 108.293 134.169 108.398C134.169 108.504 134.114 108.556 134.047 108.514ZM94.7956 108.698C94.7284 108.698 94.6734 108.615 94.6734 108.514C94.6734 108.413 94.7284 108.33 94.7956 108.33C94.8629 108.33 94.9179 108.413 94.9179 108.514C94.9179 108.615 94.8629 108.698 94.7956 108.698ZM66.2437 108.821C66.1428 108.821 66.0603 108.766 66.0603 108.698C66.0603 108.631 66.1428 108.575 66.2437 108.575C66.3446 108.575 66.4271 108.631 66.4271 108.698C66.4271 108.766 66.3446 108.821 66.2437 108.821ZM54.9819 109.403C54.9416 109.362 54.9516 109.259 55.0043 109.173C55.0813 109.048 55.1102 109.048 55.1515 109.173C55.2107 109.351 55.0914 109.513 54.9819 109.403ZM11.0841 110.509C11.0437 110.469 11.0538 110.365 11.1065 110.28C11.1835 110.154 11.2124 110.154 11.2537 110.279C11.3129 110.457 11.1935 110.619 11.0841 110.509ZM113.504 111.771C113.437 111.771 113.382 111.716 113.382 111.648C113.382 111.58 113.437 111.525 113.504 111.525C113.571 111.525 113.626 111.58 113.626 111.648C113.626 111.716 113.571 111.771 113.504 111.771ZM38.0586 111.894C37.9914 111.894 37.9363 111.839 37.9363 111.771C37.9363 111.703 37.9914 111.648 38.0586 111.648C38.1259 111.648 38.1809 111.703 38.1809 111.771C38.1809 111.839 38.1259 111.894 38.0586 111.894ZM30.3816 112.162C30.1948 112.35 30.057 112.211 30.1606 111.94C30.2217 111.78 30.2748 111.764 30.3836 111.873C30.4923 111.983 30.4919 112.051 30.3816 112.162ZM127.138 112.035C127.074 112.035 127.002 111.976 126.978 111.903C126.954 111.83 127.026 111.771 127.138 111.771C127.25 111.771 127.322 111.83 127.298 111.903C127.274 111.976 127.202 112.035 127.138 112.035ZM75.0096 112.234C74.9296 112.261 74.8643 112.195 74.8643 112.088C74.8643 111.981 74.9514 111.894 75.0579 111.894C75.2738 111.894 75.2363 112.158 75.0096 112.234ZM86.8456 112.323C86.7773 112.28 86.7529 112.194 86.7917 112.131C86.8834 111.982 87.2144 111.983 87.2144 112.132C87.2144 112.298 86.9915 112.413 86.8456 112.323ZM47.7725 112.508C47.5924 112.508 47.5382 112.362 47.6694 112.23C47.7796 112.119 48.0941 112.272 48.0163 112.398C47.9792 112.459 47.8695 112.508 47.7725 112.508ZM101.04 112.933C100.895 113.024 100.749 112.794 100.848 112.631C100.89 112.564 100.976 112.508 101.039 112.508C101.188 112.508 101.189 112.841 101.04 112.933ZM61.2303 113C61.1294 113 61.0469 112.945 61.0469 112.877C61.0469 112.81 61.1294 112.754 61.2303 112.754C61.3312 112.754 61.4137 112.81 61.4137 112.877C61.4137 112.945 61.3312 113 61.2303 113ZM148.781 113.615C148.681 113.615 148.598 113.532 148.598 113.43C148.598 113.329 148.681 113.246 148.781 113.246C148.882 113.246 148.965 113.329 148.965 113.43C148.965 113.532 148.882 113.615 148.781 113.615ZM93.8174 114.536C93.7502 114.578 93.6951 114.554 93.6951 114.482C93.6951 114.411 93.7502 114.352 93.8174 114.352C93.8847 114.352 93.9397 114.376 93.9397 114.406C93.9397 114.436 93.8847 114.495 93.8174 114.536ZM120.352 114.598C120.285 114.598 120.229 114.542 120.229 114.475C120.229 114.407 120.285 114.352 120.352 114.352C120.419 114.352 120.474 114.407 120.474 114.475C120.474 114.542 120.419 114.598 120.352 114.598ZM7.24456 116.196C7.1773 116.196 7.12228 116.14 7.12228 116.073C7.12228 116.005 7.1773 115.95 7.24456 115.95C7.31181 115.95 7.36683 116.005 7.36683 116.073C7.36683 116.14 7.31181 116.196 7.24456 116.196ZM14.2216 116.564C14.1505 116.564 14.0921 116.509 14.0921 116.441C14.0921 116.374 14.1163 116.318 14.1461 116.318C14.1758 116.318 14.234 116.374 14.2755 116.441C14.3171 116.509 14.2928 116.564 14.2216 116.564ZM145.296 119.944C145.229 119.986 145.174 119.961 145.174 119.89C145.174 119.818 145.229 119.76 145.296 119.76C145.364 119.76 145.419 119.784 145.419 119.814C145.419 119.844 145.364 119.902 145.296 119.944ZM12.3191 122.341C12.1281 122.341 12.0765 122.195 12.2172 122.054C12.3579 121.913 12.5025 121.964 12.5025 122.156C12.5025 122.258 12.42 122.341 12.3191 122.341ZM19.189 123.962C19.15 124.06 19.1211 124.03 19.1152 123.887C19.1099 123.758 19.1388 123.685 19.1794 123.726C19.22 123.767 19.2244 123.873 19.189 123.962ZM40.6948 124.799C40.6651 124.799 40.6069 124.744 40.5653 124.676C40.5238 124.608 40.5481 124.553 40.6193 124.553C40.6904 124.553 40.7487 124.608 40.7487 124.676C40.7487 124.744 40.7245 124.799 40.6948 124.799ZM48.6968 124.86C48.6296 124.902 48.5745 124.878 48.5745 124.806C48.5745 124.735 48.6296 124.676 48.6968 124.676C48.7641 124.676 48.8191 124.7 48.8191 124.73C48.8191 124.76 48.7641 124.819 48.6968 124.86ZM55.9239 125.081C55.7669 125.239 55.6078 125.117 55.724 124.928C55.769 124.855 55.8618 124.83 55.9303 124.872C56.0138 124.924 56.0117 124.993 55.9239 125.081ZM68.3897 125.11C68.3169 125.065 68.292 124.971 68.3343 124.903C68.3859 124.819 68.4543 124.821 68.5421 124.909C68.6991 125.067 68.5778 125.227 68.3897 125.11ZM140.894 125.291C140.827 125.291 140.772 125.235 140.772 125.168C140.772 125.1 140.827 125.045 140.894 125.045C140.962 125.045 141.017 125.1 141.017 125.168C141.017 125.235 140.962 125.291 140.894 125.291ZM121.513 125.905C121.322 125.905 121.271 125.76 121.412 125.618C121.552 125.477 121.697 125.529 121.697 125.721C121.697 125.822 121.614 125.905 121.513 125.905ZM108.132 126.33C107.987 126.42 107.841 126.19 107.941 126.028C107.982 125.96 108.068 125.905 108.131 125.905C108.28 125.905 108.281 126.238 108.132 126.33ZM148.325 126.051C148.25 126.279 147.987 126.317 147.987 126.1C147.987 125.993 148.074 125.905 148.18 125.905C148.287 125.905 148.352 125.971 148.325 126.051ZM81.4734 126.339C81.4007 126.294 81.3758 126.2 81.4181 126.132C81.4697 126.048 81.538 126.05 81.6258 126.138C81.7828 126.296 81.6615 126.456 81.4734 126.339ZM133.812 126.496C133.739 126.52 133.68 126.448 133.68 126.335C133.68 126.222 133.739 126.15 133.812 126.174C133.884 126.199 133.943 126.271 133.943 126.335C133.943 126.399 133.884 126.472 133.812 126.496ZM25.2806 127.011C25.0896 127.011 25.038 126.866 25.1787 126.724C25.3193 126.583 25.464 126.635 25.464 126.827C25.464 126.928 25.3814 127.011 25.2806 127.011ZM95.0486 127.067C94.9033 127.158 94.757 126.928 94.8568 126.765C94.8984 126.698 94.9841 126.642 95.0474 126.642C95.1962 126.642 95.1972 126.975 95.0486 127.067ZM7.85595 127.318C7.78869 127.36 7.73367 127.336 7.73367 127.264C7.73367 127.193 7.78869 127.134 7.85595 127.134C7.9232 127.134 7.97822 127.158 7.97822 127.188C7.97822 127.218 7.9232 127.277 7.85595 127.318ZM74.5611 129.301C74.327 129.391 74.1966 129.292 74.3091 129.109C74.4105 128.944 74.5824 128.94 74.6814 129.101C74.7233 129.17 74.6692 129.259 74.5611 129.301ZM16.7822 129.592C16.715 129.592 16.66 129.506 16.66 129.401C16.66 129.295 16.715 129.243 16.7822 129.285C16.8495 129.327 16.9045 129.413 16.9045 129.477C16.9045 129.54 16.8495 129.592 16.7822 129.592ZM115.216 129.899C115.126 129.899 115.03 129.83 115.002 129.746C114.972 129.654 115.058 129.592 115.216 129.592C115.374 129.592 115.46 129.654 115.43 129.746C115.402 129.83 115.306 129.899 115.216 129.899ZM35.3769 130.14C35.2316 130.23 35.0853 130 35.1851 129.838C35.2267 129.77 35.3124 129.715 35.3757 129.715C35.5245 129.715 35.5255 130.048 35.3769 130.14ZM62.3308 130.084C62.2299 130.084 62.1474 130.001 62.1474 129.899C62.1474 129.798 62.2299 129.715 62.3308 129.715C62.4317 129.715 62.5142 129.798 62.5142 129.899C62.5142 130.001 62.4317 130.084 62.3308 130.084ZM88.0092 130.084C87.8182 130.084 87.7666 129.938 87.9074 129.797C88.048 129.656 88.1926 129.707 88.1926 129.899C88.1926 130.001 88.1101 130.084 88.0092 130.084ZM102.14 130.33C101.985 130.33 101.875 130.138 101.973 130.039C102.11 129.901 102.255 129.955 102.255 130.145C102.255 130.247 102.203 130.33 102.14 130.33ZM52.0595 130.453C51.9586 130.453 51.876 130.37 51.876 130.268C51.876 130.167 51.9586 130.084 52.0595 130.084C52.1603 130.084 52.2429 130.167 52.2429 130.268C52.2429 130.37 52.1603 130.453 52.0595 130.453ZM127.994 130.821C127.805 130.821 127.751 130.676 127.889 130.538C127.987 130.44 128.178 130.551 128.178 130.706C128.178 130.769 128.095 130.821 127.994 130.821ZM143.401 132.05C143.21 132.05 143.159 131.905 143.299 131.764C143.44 131.622 143.585 131.674 143.585 131.866C143.585 131.967 143.502 132.05 143.401 132.05ZM136.072 132.911C136.042 132.911 135.984 132.855 135.942 132.788C135.901 132.72 135.925 132.665 135.996 132.665C136.067 132.665 136.126 132.72 136.126 132.788C136.126 132.855 136.101 132.911 136.072 132.911ZM80.8559 133.034C80.7887 133.034 80.7337 132.978 80.7337 132.911C80.7337 132.843 80.7887 132.788 80.8559 132.788C80.9232 132.788 80.9782 132.843 80.9782 132.911C80.9782 132.978 80.9232 133.034 80.8559 133.034ZM121.819 133.402C121.752 133.402 121.697 133.347 121.697 133.279C121.697 133.212 121.752 133.156 121.819 133.156C121.886 133.156 121.941 133.212 121.941 133.279C121.941 133.347 121.886 133.402 121.819 133.402ZM109.104 133.585C109.036 133.628 108.98 133.576 108.98 133.471C108.98 133.255 109.053 133.223 109.158 133.394C109.197 133.457 109.172 133.543 109.104 133.585ZM69.6064 134.078C69.5391 134.036 69.4841 133.95 69.4841 133.887C69.4841 133.823 69.5391 133.771 69.6064 133.771C69.6736 133.771 69.7286 133.857 69.7286 133.963C69.7286 134.068 69.6736 134.12 69.6064 134.078ZM95.2236 134.14C95.1227 134.14 95.0402 134.084 95.0402 134.017C95.0402 133.949 95.1227 133.894 95.2236 133.894C95.3245 133.894 95.407 133.949 95.407 134.017C95.407 134.084 95.3245 134.14 95.2236 134.14ZM57.6231 135C57.5559 135 57.5008 134.945 57.5008 134.877C57.5008 134.81 57.5559 134.754 57.6231 134.754C57.6904 134.754 57.7454 134.81 57.7454 134.877C57.7454 134.945 57.6904 135 57.6231 135Z" fill="url(#paint0_linear_29234_33117)"/>
<path fill-rule="evenodd" clip-rule="evenodd" d="M23.1407 39.9389C22.403 40.1715 21.4563 40.9134 20.9714 41.6384C20.2507 42.7163 20.206 43.0555 20.206 47.4525V51.4246H80.006H139.806L139.769 47.2151L139.733 43.0056L139.411 42.3149C138.957 41.3433 138.311 40.6769 137.368 40.2107L136.559 39.8101L80.1248 39.7876C31.8092 39.7684 23.6118 39.7901 23.1407 39.9389ZM47.6405 43.8421C47.5275 43.9556 47.3346 43.8089 47.4182 43.6731C47.4568 43.6102 47.5402 43.5587 47.6035 43.5587C47.735 43.5587 47.7566 43.7252 47.6405 43.8421ZM90.1491 43.8045C90.0818 43.8045 90.0268 43.7492 90.0268 43.6816C90.0268 43.614 90.0818 43.5587 90.1491 43.5587C90.2163 43.5587 90.2714 43.614 90.2714 43.6816C90.2714 43.7492 90.2163 43.8045 90.1491 43.8045ZM56.2708 44.1732C56.1997 44.1732 56.1753 44.1179 56.2169 44.0503C56.2585 43.9827 56.3167 43.9274 56.3464 43.9274C56.3761 43.9274 56.4003 43.9827 56.4003 44.0503C56.4003 44.1179 56.342 44.1732 56.2708 44.1732ZM79.8673 44.2281C79.8036 44.1885 79.7837 44.1039 79.8231 44.0398C79.8624 43.9758 79.9467 43.9558 80.0104 43.9953C80.0741 44.0349 80.094 44.1196 80.0547 44.1836C80.0153 44.2477 79.931 44.2677 79.8673 44.2281ZM132.824 44.2961C132.757 44.2961 132.702 44.2131 132.702 44.1117C132.702 44.0103 132.757 43.9274 132.824 43.9274C132.891 43.9274 132.946 44.0103 132.946 44.1117C132.946 44.2131 132.891 44.2961 132.824 44.2961ZM112.393 44.351C112.33 44.3115 112.31 44.2268 112.349 44.1627C112.388 44.0987 112.473 44.0787 112.536 44.1182C112.6 44.1578 112.62 44.2425 112.581 44.3065C112.541 44.3706 112.457 44.3906 112.393 44.351ZM100.298 44.3575C100.231 44.3993 100.176 44.3749 100.176 44.3033C100.176 44.2318 100.231 44.1732 100.298 44.1732C100.365 44.1732 100.42 44.1975 100.42 44.2274C100.42 44.2572 100.365 44.3158 100.298 44.3575ZM25.1528 46.3296C24.6654 45.8397 24.7786 45.1499 25.4028 44.8068C25.5709 44.7143 27.6671 44.6711 32.1031 44.6685L38.5589 44.6648L38.8589 44.9665C39.0482 45.1567 39.1591 45.4086 39.1591 45.648C39.1591 45.8875 39.0482 46.1394 38.8589 46.3296L38.5589 46.6313H32.0059H25.4529L25.1528 46.3296ZM63.2479 46.1397C63.1807 46.1397 63.1256 46.0567 63.1256 45.9553C63.1256 45.8539 63.1807 45.771 63.2479 45.771C63.3152 45.771 63.3702 45.8539 63.3702 45.9553C63.3702 46.0567 63.3152 46.1397 63.2479 46.1397ZM126.458 46.3855C126.395 46.3855 126.343 46.3302 126.343 46.2626C126.343 46.195 126.429 46.1397 126.534 46.1397C126.639 46.1397 126.691 46.195 126.649 46.2626C126.608 46.3302 126.522 46.3855 126.458 46.3855ZM106.351 47.3687C106.167 47.3687 106.1 47.1093 106.246 46.9624C106.36 46.8477 106.534 46.9862 106.534 47.1916C106.534 47.2891 106.452 47.3687 106.351 47.3687ZM74.2019 47.4916C74.0954 47.4916 74.0084 47.404 74.0084 47.2971C74.0084 47.19 74.0737 47.1243 74.1536 47.1511C74.3803 47.227 74.4179 47.4916 74.2019 47.4916ZM85.2652 47.4916C85.2018 47.4916 85.1161 47.4363 85.0745 47.3687C85.033 47.3011 85.0848 47.2458 85.1896 47.2458C85.2944 47.2458 85.3802 47.3011 85.3802 47.3687C85.3802 47.4363 85.3285 47.4916 85.2652 47.4916ZM52.4894 47.6747C52.3265 47.7759 52.0965 47.6303 52.187 47.4831C52.2256 47.4202 52.3059 47.3687 52.3652 47.3687C52.5363 47.3687 52.6262 47.5898 52.4894 47.6747ZM95.1013 47.6145C95.0005 47.6145 94.9179 47.5592 94.9179 47.4916C94.9179 47.424 95.0005 47.3687 95.1013 47.3687C95.2022 47.3687 95.2848 47.424 95.2848 47.4916C95.2848 47.5592 95.2022 47.6145 95.1013 47.6145ZM118.4 47.7814C118.237 47.9455 117.963 47.6967 118.087 47.4964C118.15 47.3932 118.219 47.3955 118.35 47.505C118.474 47.6079 118.489 47.6924 118.4 47.7814ZM43.8057 47.9832C43.7384 47.9832 43.6834 47.9279 43.6834 47.8603C43.6834 47.7927 43.7384 47.7374 43.8057 47.7374C43.8729 47.7374 43.928 47.7927 43.928 47.8603C43.928 47.9279 43.8729 47.9832 43.8057 47.9832Z" fill="url(#paint1_linear_29234_33117)"/>
</g>
<defs>
<filter id="filter0_n_29234_33117" x="7" y="25" width="146" height="110" filterUnits="userSpaceOnUse" color-interpolation-filters="sRGB">
<feFlood flood-opacity="0" result="BackgroundImageFix"/>
<feBlend mode="normal" in="SourceGraphic" in2="BackgroundImageFix" result="shape"/>
<feTurbulence type="fractalNoise" baseFrequency="12.005715370178223 12.005715370178223" stitchTiles="stitch" numOctaves="3" result="noise" seed="9169" />
<feColorMatrix in="noise" type="luminanceToAlpha" result="alphaNoise" />
<feComponentTransfer in="alphaNoise" result="coloredNoise1">
<feFuncA type="discrete" tableValues="1 1 1 1 1 1 1 1 1 1 1 1 1 1 1 1 1 1 1 1 1 1 1 1 1 1 1 1 1 1 1 1 1 1 1 1 1 1 1 1 1 1 1 1 1 1 1 1 1 1 1 0 0 0 0 0 0 0 0 0 0 0 0 0 0 0 0 0 0 0 0 0 0 0 0 0 0 0 0 0 0 0 0 0 0 0 0 0 0 0 0 0 0 0 0 0 0 0 0 0 "/>
</feComponentTransfer>
<feComposite operator="in" in2="shape" in="coloredNoise1" result="noise1Clipped" />
<feComponentTransfer in="alphaNoise" result="coloredNoise2">
<feFuncA type="discrete" tableValues="0 0 0 0 0 0 0 0 0 0 0 0 0 0 0 0 0 0 0 0 0 0 0 0 0 0 0 0 0 0 0 0 0 0 0 0 0 0 0 0 0 0 0 0 0 0 0 0 0 1 1 1 1 1 1 1 1 1 1 1 1 1 1 1 1 1 1 1 1 1 1 1 1 1 1 1 1 1 1 1 1 1 1 1 1 1 1 1 1 1 1 1 1 1 1 1 1 1 1 1 "/>
</feComponentTransfer>
<feComposite operator="in" in2="shape" in="coloredNoise2" result="noise2Clipped" />
<feFlood flood-color="rgba(0, 0, 0, 0.25)" result="color1Flood" />
<feComposite operator="in" in2="noise1Clipped" in="color1Flood" result="color1" />
<feFlood flood-color="rgba(255, 255, 255, 0.25)" result="color2Flood" />
<feComposite operator="in" in2="noise2Clipped" in="color2Flood" result="color2" />
<feMerge result="effect1_noise_29234_33117">
<feMergeNode in="shape" />
<feMergeNode in="color1" />
<feMergeNode in="color2" />
</feMerge>
</filter>
<linearGradient id="paint0_linear_29234_33117" x1="152.809" y1="25" x2="47.0755" y2="165.338" gradientUnits="userSpaceOnUse">
<stop stop-color="#1EDFAD"/>
<stop offset="0.5" stop-color="#11A7ED"/>
<stop offset="1" stop-color="#9738F5"/>
</linearGradient>
<linearGradient id="paint1_linear_29234_33117" x1="152.809" y1="25" x2="47.0755" y2="165.338" gradientUnits="userSpaceOnUse">
<stop stop-color="#1EDFAD"/>
<stop offset="0.5" stop-color="#11A7ED"/>
<stop offset="1" stop-color="#9738F5"/>
</linearGradient>
</defs>
</svg>
