<svg width="244" height="42" viewBox="0 0 244 42" fill="none" xmlns="http://www.w3.org/2000/svg">
<path d="M0 10.0781C0 8.22266 0.458984 6.5332 1.37695 5.00977C2.31445 3.48633 3.56445 2.27539 5.12695 1.37695C6.70898 0.458984 8.44727 0 10.3418 0H31.9043V6.15234H10.3418C9.20898 6.15234 8.23242 6.55273 7.41211 7.35352C6.5918 8.1543 6.18164 9.12109 6.18164 10.2539V13.125C6.18164 14.1602 6.5918 15.0488 7.41211 15.791C8.23242 16.5332 9.20898 16.9043 10.3418 16.9043H23.6133C25.5273 16.9043 27.2656 17.3633 28.8281 18.2812C30.3906 19.1797 31.6309 20.4004 32.5488 21.9434C33.4863 23.4668 33.9551 25.1562 33.9551 27.0117V31.5527C33.9551 33.4082 33.4863 35.1074 32.5488 36.6504C31.6309 38.1738 30.3906 39.3945 28.8281 40.3125C27.2656 41.2109 25.5273 41.6602 23.6133 41.6602H0.0292969V35.4785H23.6133C24.7656 35.4785 25.7422 35.0977 26.543 34.3359C27.3633 33.5547 27.7734 32.6172 27.7734 31.5234V27.041C27.7734 25.9473 27.3633 25.0098 26.543 24.2285C25.7422 23.4473 24.7656 23.0566 23.6133 23.0566H10.3418C8.44727 23.0566 6.70898 22.6172 5.12695 21.7383C3.56445 20.8398 2.31445 19.6387 1.37695 18.1348C0.458984 16.6309 0 14.9707 0 13.1543V10.0781Z" fill="#121212"/>
<path d="M41.0156 11.3086H47.1973V30.6152C47.1973 31.9824 47.666 33.1445 48.6035 34.1016C49.541 35.0586 50.6641 35.5371 51.9727 35.5371H62.7246V11.3086H68.9062V35.5078C68.9062 37.207 68.3008 38.6621 67.0898 39.873C65.8789 41.0645 64.4043 41.6602 62.666 41.6602H51.9727C49.9609 41.6602 48.125 41.1719 46.4648 40.1953C44.8047 39.1992 43.4766 37.8711 42.4805 36.2109C41.5039 34.5508 41.0156 32.7148 41.0156 30.7031V11.3086Z" fill="#121212"/>
<path d="M75.6445 0H81.8262V35.4785H92.5781C93.9062 35.4785 95.0293 35.0098 95.9473 34.0723C96.8848 33.1348 97.3535 32.0117 97.3535 30.7031V22.3242C97.3535 20.9961 96.8848 19.8633 95.9473 18.9258C95.0293 17.9688 93.9062 17.4902 92.5781 17.4902H85.3418V11.3086H92.5781C94.5898 11.3086 96.4258 11.8066 98.0859 12.8027C99.7461 13.7793 101.064 15.0977 102.041 16.7578C103.037 18.418 103.535 20.2539 103.535 22.2656V30.7617C103.535 32.7539 103.037 34.5801 102.041 36.2402C101.064 37.8809 99.7461 39.1992 98.0859 40.1953C96.4258 41.1719 94.5898 41.6602 92.5781 41.6602H81.8262C80.127 41.6602 78.6719 41.0547 77.4609 39.8438C76.25 38.6328 75.6445 37.1777 75.6445 35.4785V0Z" fill="#121212"/>
<path d="M111.152 0H116.807L130.254 16.4355L143.701 0H149.355V41.6602H143.174V10.5176L132.832 23.0566H127.705L117.334 10.5176V41.6602H111.152V0Z" fill="#121212"/>
<path d="M156.68 22.207C156.68 20.1953 157.168 18.3691 158.145 16.7285C159.141 15.0879 160.469 13.7793 162.129 12.8027C163.789 11.8066 165.625 11.3086 167.637 11.3086H184.57V41.6602H178.389V17.4902H167.637C166.328 17.4902 165.205 17.959 164.268 18.8965C163.33 19.8145 162.861 20.9375 162.861 22.2656V30.6445C162.861 31.9727 163.33 33.1152 164.268 34.0723C165.205 35.0098 166.328 35.4785 167.637 35.4785H174.873V41.6602H167.637C165.625 41.6602 163.789 41.1719 162.129 40.1953C160.469 39.1992 159.141 37.8711 158.145 36.2109C157.168 34.5508 156.68 32.7148 156.68 30.7031V22.207Z" fill="#121212"/>
<path d="M190.137 11.3086H194.092V0H200.273V11.3086H209.619V17.4902H200.273V33.0469C200.273 33.7109 200.527 34.2871 201.035 34.7754C201.562 35.2441 202.188 35.4785 202.91 35.4785H209.619V41.6602H202.822C201.221 41.6602 199.756 41.2793 198.428 40.5176C197.119 39.7363 196.064 38.7012 195.264 37.4121C194.482 36.1035 194.092 34.6582 194.092 33.0762V17.4902H190.137V11.3086Z" fill="#121212"/>
<path d="M215.215 17.5781C215.215 15.8398 215.85 14.3652 217.119 13.1543C218.389 11.9238 219.912 11.3086 221.689 11.3086H234.346C235.967 11.3086 237.432 11.709 238.74 12.5098C240.068 13.291 241.123 14.3555 241.904 15.7031C242.705 17.0312 243.105 18.5059 243.105 20.127V20.9766C243.105 22.5781 242.705 24.043 241.904 25.3711C241.123 26.6797 240.068 27.7344 238.74 28.5352C237.432 29.3164 235.967 29.707 234.346 29.707H224.912V23.5547H234.404C235.107 23.5547 235.703 23.3008 236.191 22.793C236.699 22.2852 236.953 21.6699 236.953 20.9473V20.127C236.953 19.3848 236.699 18.7598 236.191 18.252C235.703 17.7441 235.107 17.4902 234.404 17.4902H221.396V33.0762C221.396 33.7402 221.621 34.3066 222.07 34.7754C222.52 35.2441 223.066 35.4785 223.711 35.4785H240.967V41.6602H223.711C222.148 41.6602 220.723 41.2793 219.434 40.5176C218.145 39.7363 217.119 38.7012 216.357 37.4121C215.596 36.1035 215.215 34.668 215.215 33.1055V17.5781Z" fill="#121212"/>
</svg>
