<svg width="124" height="21" viewBox="0 0 124 21" fill="none" xmlns="http://www.w3.org/2000/svg">
<path d="M0.257812 5.20898C0.257812 4.28125 0.487305 3.43652 0.946289 2.6748C1.41504 1.91309 2.04004 1.30762 2.82129 0.858398C3.6123 0.399414 4.48145 0.169922 5.42871 0.169922H16.21V3.24609H5.42871C4.8623 3.24609 4.37402 3.44629 3.96387 3.84668C3.55371 4.24707 3.34863 4.73047 3.34863 5.29688V6.73242C3.34863 7.25 3.55371 7.69434 3.96387 8.06543C4.37402 8.43652 4.8623 8.62207 5.42871 8.62207H12.0645C13.0215 8.62207 13.8906 8.85156 14.6719 9.31055C15.4531 9.75977 16.0732 10.3701 16.5322 11.1416C17.001 11.9033 17.2354 12.748 17.2354 13.6758V15.9463C17.2354 16.874 17.001 17.7236 16.5322 18.4951C16.0732 19.2568 15.4531 19.8672 14.6719 20.3262C13.8906 20.7754 13.0215 21 12.0645 21H0.272461V17.9092H12.0645C12.6406 17.9092 13.1289 17.7188 13.5293 17.3379C13.9395 16.9473 14.1445 16.4785 14.1445 15.9316V13.6904C14.1445 13.1436 13.9395 12.6748 13.5293 12.2842C13.1289 11.8936 12.6406 11.6982 12.0645 11.6982H5.42871C4.48145 11.6982 3.6123 11.4785 2.82129 11.0391C2.04004 10.5898 1.41504 9.98926 0.946289 9.2373C0.487305 8.48535 0.257812 7.65527 0.257812 6.74707V5.20898Z" fill="#121212"/>
<path d="M20.7656 5.82422H23.8564V15.4775C23.8564 16.1611 24.0908 16.7422 24.5596 17.2207C25.0283 17.6992 25.5898 17.9385 26.2441 17.9385H31.6201V5.82422H34.7109V17.9238C34.7109 18.7734 34.4082 19.501 33.8027 20.1064C33.1973 20.7021 32.46 21 31.5908 21H26.2441C25.2383 21 24.3203 20.7559 23.4902 20.2676C22.6602 19.7695 21.9961 19.1055 21.498 18.2754C21.0098 17.4453 20.7656 16.5273 20.7656 15.5215V5.82422Z" fill="#121212"/>
<path d="M38.0801 0.169922H41.1709V17.9092H46.5469C47.2109 17.9092 47.7725 17.6748 48.2314 17.2061C48.7002 16.7373 48.9346 16.1758 48.9346 15.5215V11.332C48.9346 10.668 48.7002 10.1016 48.2314 9.63281C47.7725 9.1543 47.2109 8.91504 46.5469 8.91504H42.9287V5.82422H46.5469C47.5527 5.82422 48.4707 6.07324 49.3008 6.57129C50.1309 7.05957 50.79 7.71875 51.2783 8.54883C51.7764 9.37891 52.0254 10.2969 52.0254 11.3027V15.5508C52.0254 16.5469 51.7764 17.46 51.2783 18.29C50.79 19.1104 50.1309 19.7695 49.3008 20.2676C48.4707 20.7559 47.5527 21 46.5469 21H41.1709C40.3213 21 39.5938 20.6973 38.9883 20.0918C38.3828 19.4863 38.0801 18.7588 38.0801 17.9092V0.169922Z" fill="#121212"/>
<path d="M55.541 8.91504C55.541 8.06543 55.8438 7.33789 56.4492 6.73242C57.0547 6.12695 57.7871 5.82422 58.6465 5.82422H63.2754C64.5254 5.82422 65.5508 6.21484 66.3516 6.99609C67.1328 6.21484 68.1582 5.82422 69.4277 5.82422H71.7129C72.7188 5.82422 73.6367 6.07324 74.4668 6.57129C75.2969 7.05957 75.9561 7.71875 76.4443 8.54883C76.9424 9.36914 77.1914 10.2822 77.1914 11.2881V21H74.1152V11.332C74.1152 10.6582 73.8809 10.0869 73.4121 9.61816C72.9434 9.13965 72.377 8.90039 71.7129 8.90039H69.4277C68.998 8.90039 68.6318 9.03711 68.3291 9.31055C68.0264 9.57422 67.875 9.89648 67.875 10.2773V21H64.7842V10.2773C64.7842 9.89648 64.6377 9.57422 64.3447 9.31055C64.0518 9.03711 63.6953 8.90039 63.2754 8.90039H58.6318V21H55.541V8.91504Z" fill="#121212"/>
<path d="M80.5605 11.2734C80.5605 10.2676 80.8047 9.35449 81.293 8.53418C81.791 7.71387 82.4551 7.05957 83.2852 6.57129C84.1152 6.07324 85.0332 5.82422 86.0391 5.82422H94.5059V21H91.415V8.91504H86.0391C85.3848 8.91504 84.8232 9.14941 84.3545 9.61816C83.8857 10.0771 83.6514 10.6387 83.6514 11.3027V15.4922C83.6514 16.1562 83.8857 16.7275 84.3545 17.2061C84.8232 17.6748 85.3848 17.9092 86.0391 17.9092H89.6572V21H86.0391C85.0332 21 84.1152 20.7559 83.2852 20.2676C82.4551 19.7695 81.791 19.1055 81.293 18.2754C80.8047 17.4453 80.5605 16.5273 80.5605 15.5215V11.2734Z" fill="#121212"/>
<path d="M97.2891 5.82422H99.2666V0.169922H102.357V5.82422H107.03V8.91504H102.357V16.6934C102.357 17.0254 102.484 17.3135 102.738 17.5576C103.002 17.792 103.314 17.9092 103.676 17.9092H107.03V21H103.632C102.831 21 102.099 20.8096 101.435 20.4287C100.78 20.0381 100.253 19.5205 99.8525 18.876C99.4619 18.2217 99.2666 17.499 99.2666 16.708V8.91504H97.2891V5.82422Z" fill="#121212"/>
<path d="M109.828 8.95898C109.828 8.08984 110.146 7.35254 110.78 6.74707C111.415 6.13184 112.177 5.82422 113.065 5.82422H119.394C120.204 5.82422 120.937 6.02441 121.591 6.4248C122.255 6.81543 122.782 7.34766 123.173 8.02148C123.573 8.68555 123.773 9.42285 123.773 10.2334V10.6582C123.773 11.459 123.573 12.1914 123.173 12.8555C122.782 13.5098 122.255 14.0371 121.591 14.4375C120.937 14.8281 120.204 15.0234 119.394 15.0234H114.677V11.9473H119.423C119.774 11.9473 120.072 11.8203 120.316 11.5664C120.57 11.3125 120.697 11.0049 120.697 10.6436V10.2334C120.697 9.8623 120.57 9.5498 120.316 9.2959C120.072 9.04199 119.774 8.91504 119.423 8.91504H112.919V16.708C112.919 17.04 113.031 17.3232 113.256 17.5576C113.48 17.792 113.754 17.9092 114.076 17.9092H122.704V21H114.076C113.295 21 112.582 20.8096 111.938 20.4287C111.293 20.0381 110.78 19.5205 110.399 18.876C110.019 18.2217 109.828 17.5039 109.828 16.7227V8.95898Z" fill="#121212"/>
</svg>
